G04 #@! TF.GenerationSoftware,KiCad,Pcbnew,7.0.9*
G04 #@! TF.CreationDate,2023-12-12T15:15:29-05:00*
G04 #@! TF.ProjectId,Cabina,43616269-6e61-42e6-9b69-6361645f7063,rev?*
G04 #@! TF.SameCoordinates,Original*
G04 #@! TF.FileFunction,Soldermask,Top*
G04 #@! TF.FilePolarity,Negative*
%FSLAX46Y46*%
G04 Gerber Fmt 4.6, Leading zero omitted, Abs format (unit mm)*
G04 Created by KiCad (PCBNEW 7.0.9) date 2023-12-12 15:15:29*
%MOMM*%
%LPD*%
G01*
G04 APERTURE LIST*
G04 Aperture macros list*
%AMRoundRect*
0 Rectangle with rounded corners*
0 $1 Rounding radius*
0 $2 $3 $4 $5 $6 $7 $8 $9 X,Y pos of 4 corners*
0 Add a 4 corners polygon primitive as box body*
4,1,4,$2,$3,$4,$5,$6,$7,$8,$9,$2,$3,0*
0 Add four circle primitives for the rounded corners*
1,1,$1+$1,$2,$3*
1,1,$1+$1,$4,$5*
1,1,$1+$1,$6,$7*
1,1,$1+$1,$8,$9*
0 Add four rect primitives between the rounded corners*
20,1,$1+$1,$2,$3,$4,$5,0*
20,1,$1+$1,$4,$5,$6,$7,0*
20,1,$1+$1,$6,$7,$8,$9,0*
20,1,$1+$1,$8,$9,$2,$3,0*%
G04 Aperture macros list end*
%ADD10RoundRect,0.250000X-0.450000X0.262500X-0.450000X-0.262500X0.450000X-0.262500X0.450000X0.262500X0*%
%ADD11RoundRect,0.150000X0.150000X-0.587500X0.150000X0.587500X-0.150000X0.587500X-0.150000X-0.587500X0*%
%ADD12RoundRect,0.075000X-0.662500X-0.075000X0.662500X-0.075000X0.662500X0.075000X-0.662500X0.075000X0*%
%ADD13RoundRect,0.075000X-0.075000X-0.662500X0.075000X-0.662500X0.075000X0.662500X-0.075000X0.662500X0*%
%ADD14R,1.400000X2.100000*%
%ADD15RoundRect,0.140000X0.140000X0.170000X-0.140000X0.170000X-0.140000X-0.170000X0.140000X-0.170000X0*%
%ADD16RoundRect,0.249999X-1.550001X0.790001X-1.550001X-0.790001X1.550001X-0.790001X1.550001X0.790001X0*%
%ADD17O,3.600000X2.080000*%
%ADD18RoundRect,0.140000X0.170000X-0.140000X0.170000X0.140000X-0.170000X0.140000X-0.170000X-0.140000X0*%
%ADD19RoundRect,0.250000X-0.250000X-0.475000X0.250000X-0.475000X0.250000X0.475000X-0.250000X0.475000X0*%
%ADD20R,1.220000X0.910000*%
%ADD21C,2.000000*%
%ADD22RoundRect,0.250000X0.450000X-0.262500X0.450000X0.262500X-0.450000X0.262500X-0.450000X-0.262500X0*%
%ADD23RoundRect,0.150000X0.587500X0.150000X-0.587500X0.150000X-0.587500X-0.150000X0.587500X-0.150000X0*%
%ADD24RoundRect,0.200000X-0.275000X0.200000X-0.275000X-0.200000X0.275000X-0.200000X0.275000X0.200000X0*%
%ADD25C,3.000000*%
%ADD26R,1.800000X2.500000*%
%ADD27RoundRect,0.225000X0.250000X-0.225000X0.250000X0.225000X-0.250000X0.225000X-0.250000X-0.225000X0*%
%ADD28R,1.100000X4.600000*%
%ADD29R,10.800000X9.400000*%
%ADD30RoundRect,0.250000X1.000000X-1.950000X1.000000X1.950000X-1.000000X1.950000X-1.000000X-1.950000X0*%
%ADD31R,1.700000X1.700000*%
%ADD32O,1.700000X1.700000*%
%ADD33R,2.899999X5.399999*%
%ADD34RoundRect,0.140000X-0.140000X-0.170000X0.140000X-0.170000X0.140000X0.170000X-0.140000X0.170000X0*%
%ADD35RoundRect,0.200000X0.200000X0.275000X-0.200000X0.275000X-0.200000X-0.275000X0.200000X-0.275000X0*%
%ADD36R,1.500000X2.000000*%
%ADD37R,3.800000X2.000000*%
%ADD38RoundRect,0.150000X-0.150000X0.825000X-0.150000X-0.825000X0.150000X-0.825000X0.150000X0.825000X0*%
%ADD39RoundRect,0.250000X-0.262500X-0.450000X0.262500X-0.450000X0.262500X0.450000X-0.262500X0.450000X0*%
%ADD40RoundRect,0.140000X-0.170000X0.140000X-0.170000X-0.140000X0.170000X-0.140000X0.170000X0.140000X0*%
%ADD41RoundRect,0.218750X0.218750X0.256250X-0.218750X0.256250X-0.218750X-0.256250X0.218750X-0.256250X0*%
%ADD42RoundRect,0.249999X1.550001X-0.790001X1.550001X0.790001X-1.550001X0.790001X-1.550001X-0.790001X0*%
%ADD43RoundRect,0.250001X0.799999X-2.049999X0.799999X2.049999X-0.799999X2.049999X-0.799999X-2.049999X0*%
%ADD44RoundRect,0.249999X0.790001X1.550001X-0.790001X1.550001X-0.790001X-1.550001X0.790001X-1.550001X0*%
%ADD45O,2.080000X3.600000*%
%ADD46RoundRect,0.249999X-0.790001X-1.550001X0.790001X-1.550001X0.790001X1.550001X-0.790001X1.550001X0*%
%ADD47R,1.200000X0.900000*%
%ADD48RoundRect,0.250000X0.475000X-0.250000X0.475000X0.250000X-0.475000X0.250000X-0.475000X-0.250000X0*%
%ADD49RoundRect,0.218750X-0.256250X0.218750X-0.256250X-0.218750X0.256250X-0.218750X0.256250X0.218750X0*%
%ADD50C,3.200000*%
%ADD51RoundRect,0.135000X0.185000X-0.135000X0.185000X0.135000X-0.185000X0.135000X-0.185000X-0.135000X0*%
%ADD52R,1.400000X1.200000*%
%ADD53R,0.750000X1.000000*%
%ADD54R,1.600000X1.600000*%
%ADD55O,1.600000X1.600000*%
%ADD56R,0.910000X1.220000*%
%ADD57RoundRect,0.250000X0.312500X0.625000X-0.312500X0.625000X-0.312500X-0.625000X0.312500X-0.625000X0*%
G04 APERTURE END LIST*
D10*
X176682400Y-98503100D03*
X176682400Y-100328100D03*
X131394200Y-77370300D03*
X131394200Y-79195300D03*
D11*
X182502000Y-122247900D03*
X184402000Y-122247900D03*
X183452000Y-120372900D03*
D12*
X144033300Y-107460600D03*
X144033300Y-107960600D03*
X144033300Y-108460600D03*
X144033300Y-108960600D03*
X144033300Y-109460600D03*
X144033300Y-109960600D03*
X144033300Y-110460600D03*
X144033300Y-110960600D03*
X144033300Y-111460600D03*
X144033300Y-111960600D03*
X144033300Y-112460600D03*
X144033300Y-112960600D03*
D13*
X145445800Y-114373100D03*
X145945800Y-114373100D03*
X146445800Y-114373100D03*
X146945800Y-114373100D03*
X147445800Y-114373100D03*
X147945800Y-114373100D03*
X148445800Y-114373100D03*
X148945800Y-114373100D03*
X149445800Y-114373100D03*
X149945800Y-114373100D03*
X150445800Y-114373100D03*
X150945800Y-114373100D03*
D12*
X152358300Y-112960600D03*
X152358300Y-112460600D03*
X152358300Y-111960600D03*
X152358300Y-111460600D03*
X152358300Y-110960600D03*
X152358300Y-110460600D03*
X152358300Y-109960600D03*
X152358300Y-109460600D03*
X152358300Y-108960600D03*
X152358300Y-108460600D03*
X152358300Y-107960600D03*
X152358300Y-107460600D03*
D13*
X150945800Y-106048100D03*
X150445800Y-106048100D03*
X149945800Y-106048100D03*
X149445800Y-106048100D03*
X148945800Y-106048100D03*
X148445800Y-106048100D03*
X147945800Y-106048100D03*
X147445800Y-106048100D03*
X146945800Y-106048100D03*
X146445800Y-106048100D03*
X145945800Y-106048100D03*
X145445800Y-106048100D03*
D14*
X192827000Y-120878600D03*
X188427000Y-120878600D03*
D15*
X137335200Y-108508800D03*
X136375200Y-108508800D03*
D16*
X106960200Y-87401400D03*
D17*
X106960200Y-92481400D03*
D18*
X142036800Y-107439400D03*
X142036800Y-106479400D03*
D19*
X115509000Y-108991400D03*
X117409000Y-108991400D03*
D20*
X180377600Y-93837000D03*
X180377600Y-90567000D03*
D21*
X164388800Y-128651000D03*
D22*
X173685200Y-100328100D03*
X173685200Y-98503100D03*
D23*
X143482300Y-49337000D03*
X143482300Y-47437000D03*
X141607300Y-48387000D03*
D24*
X173101000Y-120790200D03*
X173101000Y-122440200D03*
D15*
X151203600Y-116332000D03*
X150243600Y-116332000D03*
D21*
X105562400Y-117410200D03*
X120726200Y-128549400D03*
X105562400Y-109042200D03*
D25*
X136398000Y-60274200D03*
X134398000Y-54274200D03*
X122198000Y-54274200D03*
X122198000Y-66274200D03*
X134398000Y-66274200D03*
D26*
X164693600Y-63481200D03*
X164693600Y-67481200D03*
D27*
X140462000Y-112103200D03*
X140462000Y-110553200D03*
D21*
X113131600Y-128524000D03*
D22*
X173126400Y-129436500D03*
X173126400Y-127611500D03*
D10*
X175818800Y-127586100D03*
X175818800Y-129411100D03*
D28*
X171148800Y-52993600D03*
X172848800Y-52993600D03*
X174548800Y-52993600D03*
D29*
X174548800Y-43843600D03*
D28*
X176248800Y-52993600D03*
X177948800Y-52993600D03*
D30*
X188493400Y-60283200D03*
X188493400Y-51883200D03*
D31*
X200406000Y-54737000D03*
D32*
X200406000Y-57277000D03*
D31*
X130454400Y-40792400D03*
D32*
X127914400Y-40792400D03*
D33*
X170030600Y-62966599D03*
X179930600Y-62966599D03*
D34*
X144604800Y-104190800D03*
X145564800Y-104190800D03*
X134038400Y-108508800D03*
X134998400Y-108508800D03*
D20*
X194868800Y-110353600D03*
X194868800Y-113623600D03*
X194728600Y-79991200D03*
X194728600Y-83261200D03*
D35*
X130415800Y-74752200D03*
X128765800Y-74752200D03*
D36*
X120105200Y-111785000D03*
X117805200Y-111785000D03*
D37*
X117805200Y-118085000D03*
D36*
X115505200Y-111785000D03*
D21*
X123291600Y-41579800D03*
D24*
X128473200Y-102527600D03*
X128473200Y-104177600D03*
D38*
X157122400Y-118748000D03*
X155852400Y-118748000D03*
X154582400Y-118748000D03*
X153312400Y-118748000D03*
X153312400Y-123698000D03*
X154582400Y-123698000D03*
X155852400Y-123698000D03*
X157122400Y-123698000D03*
D14*
X192954000Y-99466400D03*
X188554000Y-99466400D03*
D39*
X161596700Y-121488200D03*
X163421700Y-121488200D03*
D40*
X154305000Y-106606400D03*
X154305000Y-107566400D03*
D20*
X118389400Y-103057200D03*
X118389400Y-99787200D03*
D27*
X140487400Y-107505800D03*
X140487400Y-105955800D03*
D24*
X133045200Y-73063600D03*
X133045200Y-74713600D03*
D39*
X133580500Y-79248000D03*
X135405500Y-79248000D03*
D24*
X173812200Y-92090100D03*
X173812200Y-93740100D03*
D31*
X157469600Y-103911800D03*
D32*
X160009600Y-103911800D03*
X162549600Y-103911800D03*
D41*
X193548100Y-66014600D03*
X191973100Y-66014600D03*
D27*
X138328400Y-112103200D03*
X138328400Y-110553200D03*
D24*
X183489600Y-94094800D03*
X183489600Y-95744800D03*
D42*
X199250800Y-125679200D03*
D17*
X199250800Y-120599200D03*
X199250800Y-115519200D03*
X199250800Y-110439200D03*
X199250800Y-105359200D03*
D14*
X112963600Y-78384400D03*
X117363600Y-78384400D03*
D21*
X116916200Y-128549400D03*
D24*
X121513600Y-102959400D03*
X121513600Y-104609400D03*
D43*
X162102800Y-52304400D03*
X162102800Y-43504400D03*
D35*
X125462800Y-104190800D03*
X123812800Y-104190800D03*
D18*
X151561800Y-123695400D03*
X151561800Y-122735400D03*
D44*
X145249400Y-40614600D03*
D45*
X140169400Y-40614600D03*
D41*
X140411300Y-113893600D03*
X138836300Y-113893600D03*
D11*
X186121000Y-92555300D03*
X188021000Y-92555300D03*
X187071000Y-90680300D03*
D20*
X111353600Y-62601600D03*
X111353600Y-65871600D03*
D46*
X152704800Y-128244600D03*
D45*
X157784800Y-128244600D03*
D47*
X147193000Y-48413400D03*
X147193000Y-51713400D03*
D25*
X132066800Y-89357200D03*
X130066800Y-83357200D03*
X117866800Y-83357200D03*
X117866800Y-95357200D03*
X130066800Y-95357200D03*
D14*
X112074600Y-73507600D03*
X116474600Y-73507600D03*
D42*
X199110600Y-94640400D03*
D17*
X199110600Y-89560400D03*
X199110600Y-84480400D03*
X199110600Y-79400400D03*
X199110600Y-74320400D03*
D20*
X111340400Y-88408000D03*
X111340400Y-91678000D03*
D35*
X187870600Y-95123000D03*
X186220600Y-95123000D03*
D48*
X122910600Y-114157800D03*
X122910600Y-112257800D03*
D49*
X183489600Y-90500100D03*
X183489600Y-92075100D03*
D24*
X126238000Y-73470000D03*
X126238000Y-75120000D03*
D34*
X154712000Y-116727200D03*
X155672000Y-116727200D03*
D21*
X168224200Y-128676400D03*
D25*
X170359600Y-109982000D03*
X172359600Y-115982000D03*
X184559600Y-115982000D03*
X184559600Y-103982000D03*
X172359600Y-103982000D03*
D31*
X163860400Y-118135400D03*
D32*
X161320400Y-118135400D03*
D11*
X123764000Y-101343700D03*
X125664000Y-101343700D03*
X124714000Y-99468700D03*
D50*
X107543600Y-126390400D03*
D20*
X123266200Y-73313800D03*
X123266200Y-70043800D03*
D50*
X110998000Y-43180000D03*
D18*
X142036800Y-111706600D03*
X142036800Y-110746600D03*
D49*
X126224800Y-70078500D03*
X126224800Y-71653500D03*
D21*
X119481600Y-41579800D03*
X105562400Y-113157000D03*
X124307600Y-128600200D03*
D49*
X179830000Y-120063400D03*
X179830000Y-121638400D03*
D15*
X140937400Y-89272300D03*
X139977400Y-89272300D03*
D16*
X106971600Y-57124600D03*
D17*
X106971600Y-62204600D03*
X106971600Y-67284600D03*
X106971600Y-72364600D03*
X106971600Y-77444600D03*
D51*
X146507200Y-99874800D03*
X146507200Y-98854800D03*
D20*
X176871400Y-123374900D03*
X176871400Y-120104900D03*
D35*
X197243200Y-66014600D03*
X195593200Y-66014600D03*
D21*
X127863600Y-128651000D03*
D52*
X136786800Y-105093400D03*
X134586800Y-105093400D03*
X134586800Y-106793400D03*
X136786800Y-106793400D03*
D50*
X189585600Y-126669800D03*
X198882000Y-43180000D03*
D53*
X138557000Y-97155000D03*
X138557000Y-91155000D03*
X142307000Y-97155000D03*
X142307000Y-91155000D03*
D54*
X133273800Y-128651000D03*
D55*
X135813800Y-128651000D03*
X138353800Y-128651000D03*
X140893800Y-128651000D03*
X143433800Y-128651000D03*
X143433800Y-121031000D03*
X140893800Y-121031000D03*
X138353800Y-121031000D03*
X135813800Y-121031000D03*
X133273800Y-121031000D03*
D11*
X128590000Y-72133700D03*
X130490000Y-72133700D03*
X129540000Y-70258700D03*
D25*
X169468800Y-80162400D03*
X171468800Y-86162400D03*
X183668800Y-86162400D03*
X183668800Y-74162400D03*
X171468800Y-74162400D03*
D56*
X141023600Y-44678600D03*
X144293600Y-44678600D03*
D57*
X144083500Y-52755800D03*
X141158500Y-52755800D03*
D49*
X121513600Y-99263100D03*
X121513600Y-100838100D03*
D24*
X179842200Y-123302500D03*
X179842200Y-124952500D03*
D35*
X184263800Y-124688600D03*
X182613800Y-124688600D03*
M02*
