G04 #@! TF.GenerationSoftware,KiCad,Pcbnew,7.0.9*
G04 #@! TF.CreationDate,2023-12-12T15:15:29-05:00*
G04 #@! TF.ProjectId,Cabina,43616269-6e61-42e6-9b69-6361645f7063,rev?*
G04 #@! TF.SameCoordinates,Original*
G04 #@! TF.FileFunction,Legend,Top*
G04 #@! TF.FilePolarity,Positive*
%FSLAX46Y46*%
G04 Gerber Fmt 4.6, Leading zero omitted, Abs format (unit mm)*
G04 Created by KiCad (PCBNEW 7.0.9) date 2023-12-12 15:15:29*
%MOMM*%
%LPD*%
G01*
G04 APERTURE LIST*
G04 Aperture macros list*
%AMRoundRect*
0 Rectangle with rounded corners*
0 $1 Rounding radius*
0 $2 $3 $4 $5 $6 $7 $8 $9 X,Y pos of 4 corners*
0 Add a 4 corners polygon primitive as box body*
4,1,4,$2,$3,$4,$5,$6,$7,$8,$9,$2,$3,0*
0 Add four circle primitives for the rounded corners*
1,1,$1+$1,$2,$3*
1,1,$1+$1,$4,$5*
1,1,$1+$1,$6,$7*
1,1,$1+$1,$8,$9*
0 Add four rect primitives between the rounded corners*
20,1,$1+$1,$2,$3,$4,$5,0*
20,1,$1+$1,$4,$5,$6,$7,0*
20,1,$1+$1,$6,$7,$8,$9,0*
20,1,$1+$1,$8,$9,$2,$3,0*%
G04 Aperture macros list end*
%ADD10C,0.250000*%
%ADD11C,0.375000*%
%ADD12C,0.300000*%
%ADD13C,0.500000*%
%ADD14C,0.120000*%
%ADD15C,0.150000*%
%ADD16C,0.127000*%
%ADD17C,0.200000*%
%ADD18RoundRect,0.250000X-0.450000X0.262500X-0.450000X-0.262500X0.450000X-0.262500X0.450000X0.262500X0*%
%ADD19RoundRect,0.150000X0.150000X-0.587500X0.150000X0.587500X-0.150000X0.587500X-0.150000X-0.587500X0*%
%ADD20RoundRect,0.075000X-0.662500X-0.075000X0.662500X-0.075000X0.662500X0.075000X-0.662500X0.075000X0*%
%ADD21RoundRect,0.075000X-0.075000X-0.662500X0.075000X-0.662500X0.075000X0.662500X-0.075000X0.662500X0*%
%ADD22R,1.400000X2.100000*%
%ADD23RoundRect,0.140000X0.140000X0.170000X-0.140000X0.170000X-0.140000X-0.170000X0.140000X-0.170000X0*%
%ADD24RoundRect,0.249999X-1.550001X0.790001X-1.550001X-0.790001X1.550001X-0.790001X1.550001X0.790001X0*%
%ADD25O,3.600000X2.080000*%
%ADD26RoundRect,0.140000X0.170000X-0.140000X0.170000X0.140000X-0.170000X0.140000X-0.170000X-0.140000X0*%
%ADD27RoundRect,0.250000X-0.250000X-0.475000X0.250000X-0.475000X0.250000X0.475000X-0.250000X0.475000X0*%
%ADD28R,1.220000X0.910000*%
%ADD29C,2.000000*%
%ADD30RoundRect,0.250000X0.450000X-0.262500X0.450000X0.262500X-0.450000X0.262500X-0.450000X-0.262500X0*%
%ADD31RoundRect,0.150000X0.587500X0.150000X-0.587500X0.150000X-0.587500X-0.150000X0.587500X-0.150000X0*%
%ADD32RoundRect,0.200000X-0.275000X0.200000X-0.275000X-0.200000X0.275000X-0.200000X0.275000X0.200000X0*%
%ADD33C,3.000000*%
%ADD34R,1.800000X2.500000*%
%ADD35RoundRect,0.225000X0.250000X-0.225000X0.250000X0.225000X-0.250000X0.225000X-0.250000X-0.225000X0*%
%ADD36R,1.100000X4.600000*%
%ADD37R,10.800000X9.400000*%
%ADD38RoundRect,0.250000X1.000000X-1.950000X1.000000X1.950000X-1.000000X1.950000X-1.000000X-1.950000X0*%
%ADD39R,1.700000X1.700000*%
%ADD40O,1.700000X1.700000*%
%ADD41R,2.899999X5.399999*%
%ADD42RoundRect,0.140000X-0.140000X-0.170000X0.140000X-0.170000X0.140000X0.170000X-0.140000X0.170000X0*%
%ADD43RoundRect,0.200000X0.200000X0.275000X-0.200000X0.275000X-0.200000X-0.275000X0.200000X-0.275000X0*%
%ADD44R,1.500000X2.000000*%
%ADD45R,3.800000X2.000000*%
%ADD46RoundRect,0.150000X-0.150000X0.825000X-0.150000X-0.825000X0.150000X-0.825000X0.150000X0.825000X0*%
%ADD47RoundRect,0.250000X-0.262500X-0.450000X0.262500X-0.450000X0.262500X0.450000X-0.262500X0.450000X0*%
%ADD48RoundRect,0.140000X-0.170000X0.140000X-0.170000X-0.140000X0.170000X-0.140000X0.170000X0.140000X0*%
%ADD49RoundRect,0.218750X0.218750X0.256250X-0.218750X0.256250X-0.218750X-0.256250X0.218750X-0.256250X0*%
%ADD50RoundRect,0.249999X1.550001X-0.790001X1.550001X0.790001X-1.550001X0.790001X-1.550001X-0.790001X0*%
%ADD51RoundRect,0.250001X0.799999X-2.049999X0.799999X2.049999X-0.799999X2.049999X-0.799999X-2.049999X0*%
%ADD52RoundRect,0.249999X0.790001X1.550001X-0.790001X1.550001X-0.790001X-1.550001X0.790001X-1.550001X0*%
%ADD53O,2.080000X3.600000*%
%ADD54RoundRect,0.249999X-0.790001X-1.550001X0.790001X-1.550001X0.790001X1.550001X-0.790001X1.550001X0*%
%ADD55R,1.200000X0.900000*%
%ADD56RoundRect,0.250000X0.475000X-0.250000X0.475000X0.250000X-0.475000X0.250000X-0.475000X-0.250000X0*%
%ADD57RoundRect,0.218750X-0.256250X0.218750X-0.256250X-0.218750X0.256250X-0.218750X0.256250X0.218750X0*%
%ADD58C,3.200000*%
%ADD59RoundRect,0.135000X0.185000X-0.135000X0.185000X0.135000X-0.185000X0.135000X-0.185000X-0.135000X0*%
%ADD60R,1.400000X1.200000*%
%ADD61R,0.750000X1.000000*%
%ADD62R,1.600000X1.600000*%
%ADD63O,1.600000X1.600000*%
%ADD64R,0.910000X1.220000*%
%ADD65RoundRect,0.250000X0.312500X0.625000X-0.312500X0.625000X-0.312500X-0.625000X0.312500X-0.625000X0*%
G04 APERTURE END LIST*
D10*
X134905857Y-118872266D02*
X135667762Y-118872266D01*
X135286809Y-119253219D02*
X135286809Y-118491314D01*
X136096333Y-118348457D02*
X136143952Y-118300838D01*
X136143952Y-118300838D02*
X136239190Y-118253219D01*
X136239190Y-118253219D02*
X136477285Y-118253219D01*
X136477285Y-118253219D02*
X136572523Y-118300838D01*
X136572523Y-118300838D02*
X136620142Y-118348457D01*
X136620142Y-118348457D02*
X136667761Y-118443695D01*
X136667761Y-118443695D02*
X136667761Y-118538933D01*
X136667761Y-118538933D02*
X136620142Y-118681790D01*
X136620142Y-118681790D02*
X136048714Y-119253219D01*
X136048714Y-119253219D02*
X136667761Y-119253219D01*
D11*
X192015028Y-69289371D02*
X191943600Y-69360800D01*
X191943600Y-69360800D02*
X191729314Y-69432228D01*
X191729314Y-69432228D02*
X191586457Y-69432228D01*
X191586457Y-69432228D02*
X191372171Y-69360800D01*
X191372171Y-69360800D02*
X191229314Y-69217942D01*
X191229314Y-69217942D02*
X191157885Y-69075085D01*
X191157885Y-69075085D02*
X191086457Y-68789371D01*
X191086457Y-68789371D02*
X191086457Y-68575085D01*
X191086457Y-68575085D02*
X191157885Y-68289371D01*
X191157885Y-68289371D02*
X191229314Y-68146514D01*
X191229314Y-68146514D02*
X191372171Y-68003657D01*
X191372171Y-68003657D02*
X191586457Y-67932228D01*
X191586457Y-67932228D02*
X191729314Y-67932228D01*
X191729314Y-67932228D02*
X191943600Y-68003657D01*
X191943600Y-68003657D02*
X192015028Y-68075085D01*
X192586457Y-69003657D02*
X193300743Y-69003657D01*
X192443600Y-69432228D02*
X192943600Y-67932228D01*
X192943600Y-67932228D02*
X193443600Y-69432228D01*
X194443599Y-68646514D02*
X194657885Y-68717942D01*
X194657885Y-68717942D02*
X194729314Y-68789371D01*
X194729314Y-68789371D02*
X194800742Y-68932228D01*
X194800742Y-68932228D02*
X194800742Y-69146514D01*
X194800742Y-69146514D02*
X194729314Y-69289371D01*
X194729314Y-69289371D02*
X194657885Y-69360800D01*
X194657885Y-69360800D02*
X194515028Y-69432228D01*
X194515028Y-69432228D02*
X193943599Y-69432228D01*
X193943599Y-69432228D02*
X193943599Y-67932228D01*
X193943599Y-67932228D02*
X194443599Y-67932228D01*
X194443599Y-67932228D02*
X194586457Y-68003657D01*
X194586457Y-68003657D02*
X194657885Y-68075085D01*
X194657885Y-68075085D02*
X194729314Y-68217942D01*
X194729314Y-68217942D02*
X194729314Y-68360800D01*
X194729314Y-68360800D02*
X194657885Y-68503657D01*
X194657885Y-68503657D02*
X194586457Y-68575085D01*
X194586457Y-68575085D02*
X194443599Y-68646514D01*
X194443599Y-68646514D02*
X193943599Y-68646514D01*
X195443599Y-68646514D02*
X195943599Y-68646514D01*
X196157885Y-69432228D02*
X195443599Y-69432228D01*
X195443599Y-69432228D02*
X195443599Y-67932228D01*
X195443599Y-67932228D02*
X196157885Y-67932228D01*
X197657885Y-69289371D02*
X197586457Y-69360800D01*
X197586457Y-69360800D02*
X197372171Y-69432228D01*
X197372171Y-69432228D02*
X197229314Y-69432228D01*
X197229314Y-69432228D02*
X197015028Y-69360800D01*
X197015028Y-69360800D02*
X196872171Y-69217942D01*
X196872171Y-69217942D02*
X196800742Y-69075085D01*
X196800742Y-69075085D02*
X196729314Y-68789371D01*
X196729314Y-68789371D02*
X196729314Y-68575085D01*
X196729314Y-68575085D02*
X196800742Y-68289371D01*
X196800742Y-68289371D02*
X196872171Y-68146514D01*
X196872171Y-68146514D02*
X197015028Y-68003657D01*
X197015028Y-68003657D02*
X197229314Y-67932228D01*
X197229314Y-67932228D02*
X197372171Y-67932228D01*
X197372171Y-67932228D02*
X197586457Y-68003657D01*
X197586457Y-68003657D02*
X197657885Y-68075085D01*
X198300742Y-68646514D02*
X198800742Y-68646514D01*
X199015028Y-69432228D02*
X198300742Y-69432228D01*
X198300742Y-69432228D02*
X198300742Y-67932228D01*
X198300742Y-67932228D02*
X199015028Y-67932228D01*
X200515028Y-69432228D02*
X200015028Y-68717942D01*
X199657885Y-69432228D02*
X199657885Y-67932228D01*
X199657885Y-67932228D02*
X200229314Y-67932228D01*
X200229314Y-67932228D02*
X200372171Y-68003657D01*
X200372171Y-68003657D02*
X200443600Y-68075085D01*
X200443600Y-68075085D02*
X200515028Y-68217942D01*
X200515028Y-68217942D02*
X200515028Y-68432228D01*
X200515028Y-68432228D02*
X200443600Y-68575085D01*
X200443600Y-68575085D02*
X200372171Y-68646514D01*
X200372171Y-68646514D02*
X200229314Y-68717942D01*
X200229314Y-68717942D02*
X199657885Y-68717942D01*
X201086457Y-69003657D02*
X201800743Y-69003657D01*
X200943600Y-69432228D02*
X201443600Y-67932228D01*
X201443600Y-67932228D02*
X201943600Y-69432228D01*
D10*
X147928380Y-128936619D02*
X147976000Y-128984238D01*
X147976000Y-128984238D02*
X148023619Y-129127095D01*
X148023619Y-129127095D02*
X148023619Y-129222333D01*
X148023619Y-129222333D02*
X147976000Y-129365190D01*
X147976000Y-129365190D02*
X147880761Y-129460428D01*
X147880761Y-129460428D02*
X147785523Y-129508047D01*
X147785523Y-129508047D02*
X147595047Y-129555666D01*
X147595047Y-129555666D02*
X147452190Y-129555666D01*
X147452190Y-129555666D02*
X147261714Y-129508047D01*
X147261714Y-129508047D02*
X147166476Y-129460428D01*
X147166476Y-129460428D02*
X147071238Y-129365190D01*
X147071238Y-129365190D02*
X147023619Y-129222333D01*
X147023619Y-129222333D02*
X147023619Y-129127095D01*
X147023619Y-129127095D02*
X147071238Y-128984238D01*
X147071238Y-128984238D02*
X147118857Y-128936619D01*
X147737904Y-128555666D02*
X147737904Y-128079476D01*
X148023619Y-128650904D02*
X147023619Y-128317571D01*
X147023619Y-128317571D02*
X148023619Y-127984238D01*
X148023619Y-127650904D02*
X147023619Y-127650904D01*
X147023619Y-127650904D02*
X148023619Y-127079476D01*
X148023619Y-127079476D02*
X147023619Y-127079476D01*
X148023619Y-126127095D02*
X148023619Y-126603285D01*
X148023619Y-126603285D02*
X147023619Y-126603285D01*
X108254895Y-112654238D02*
X108159657Y-112606619D01*
X108159657Y-112606619D02*
X108016800Y-112606619D01*
X108016800Y-112606619D02*
X107873943Y-112654238D01*
X107873943Y-112654238D02*
X107778705Y-112749476D01*
X107778705Y-112749476D02*
X107731086Y-112844714D01*
X107731086Y-112844714D02*
X107683467Y-113035190D01*
X107683467Y-113035190D02*
X107683467Y-113178047D01*
X107683467Y-113178047D02*
X107731086Y-113368523D01*
X107731086Y-113368523D02*
X107778705Y-113463761D01*
X107778705Y-113463761D02*
X107873943Y-113559000D01*
X107873943Y-113559000D02*
X108016800Y-113606619D01*
X108016800Y-113606619D02*
X108112038Y-113606619D01*
X108112038Y-113606619D02*
X108254895Y-113559000D01*
X108254895Y-113559000D02*
X108302514Y-113511380D01*
X108302514Y-113511380D02*
X108302514Y-113178047D01*
X108302514Y-113178047D02*
X108112038Y-113178047D01*
X108731086Y-113606619D02*
X108731086Y-112606619D01*
X108731086Y-112606619D02*
X109302514Y-113606619D01*
X109302514Y-113606619D02*
X109302514Y-112606619D01*
X109778705Y-113606619D02*
X109778705Y-112606619D01*
X109778705Y-112606619D02*
X110016800Y-112606619D01*
X110016800Y-112606619D02*
X110159657Y-112654238D01*
X110159657Y-112654238D02*
X110254895Y-112749476D01*
X110254895Y-112749476D02*
X110302514Y-112844714D01*
X110302514Y-112844714D02*
X110350133Y-113035190D01*
X110350133Y-113035190D02*
X110350133Y-113178047D01*
X110350133Y-113178047D02*
X110302514Y-113368523D01*
X110302514Y-113368523D02*
X110254895Y-113463761D01*
X110254895Y-113463761D02*
X110159657Y-113559000D01*
X110159657Y-113559000D02*
X110016800Y-113606619D01*
X110016800Y-113606619D02*
X109778705Y-113606619D01*
X158980333Y-125068380D02*
X158932714Y-125116000D01*
X158932714Y-125116000D02*
X158789857Y-125163619D01*
X158789857Y-125163619D02*
X158694619Y-125163619D01*
X158694619Y-125163619D02*
X158551762Y-125116000D01*
X158551762Y-125116000D02*
X158456524Y-125020761D01*
X158456524Y-125020761D02*
X158408905Y-124925523D01*
X158408905Y-124925523D02*
X158361286Y-124735047D01*
X158361286Y-124735047D02*
X158361286Y-124592190D01*
X158361286Y-124592190D02*
X158408905Y-124401714D01*
X158408905Y-124401714D02*
X158456524Y-124306476D01*
X158456524Y-124306476D02*
X158551762Y-124211238D01*
X158551762Y-124211238D02*
X158694619Y-124163619D01*
X158694619Y-124163619D02*
X158789857Y-124163619D01*
X158789857Y-124163619D02*
X158932714Y-124211238D01*
X158932714Y-124211238D02*
X158980333Y-124258857D01*
X159361286Y-124877904D02*
X159837476Y-124877904D01*
X159266048Y-125163619D02*
X159599381Y-124163619D01*
X159599381Y-124163619D02*
X159932714Y-125163619D01*
X160266048Y-125163619D02*
X160266048Y-124163619D01*
X160266048Y-124163619D02*
X160837476Y-125163619D01*
X160837476Y-125163619D02*
X160837476Y-124163619D01*
X161313667Y-125163619D02*
X161313667Y-124163619D01*
X161313667Y-124639809D02*
X161885095Y-124639809D01*
X161885095Y-125163619D02*
X161885095Y-124163619D01*
D12*
X193059229Y-94221228D02*
X193116372Y-94164085D01*
X193116372Y-94164085D02*
X193230658Y-94106942D01*
X193230658Y-94106942D02*
X193516372Y-94106942D01*
X193516372Y-94106942D02*
X193630658Y-94164085D01*
X193630658Y-94164085D02*
X193687800Y-94221228D01*
X193687800Y-94221228D02*
X193744943Y-94335514D01*
X193744943Y-94335514D02*
X193744943Y-94449800D01*
X193744943Y-94449800D02*
X193687800Y-94621228D01*
X193687800Y-94621228D02*
X193002086Y-95306942D01*
X193002086Y-95306942D02*
X193744943Y-95306942D01*
X194773515Y-94506942D02*
X194773515Y-95306942D01*
X194487800Y-94049800D02*
X194202086Y-94906942D01*
X194202086Y-94906942D02*
X194944943Y-94906942D01*
X195230657Y-94106942D02*
X195630657Y-95306942D01*
X195630657Y-95306942D02*
X196030657Y-94106942D01*
D10*
X164153886Y-126433619D02*
X164153886Y-125433619D01*
X164153886Y-125909809D02*
X164725314Y-125909809D01*
X164725314Y-126433619D02*
X164725314Y-125433619D01*
X192192352Y-62195419D02*
X192382828Y-62195419D01*
X192382828Y-62195419D02*
X192478066Y-62243038D01*
X192478066Y-62243038D02*
X192573304Y-62338276D01*
X192573304Y-62338276D02*
X192620923Y-62528752D01*
X192620923Y-62528752D02*
X192620923Y-62862085D01*
X192620923Y-62862085D02*
X192573304Y-63052561D01*
X192573304Y-63052561D02*
X192478066Y-63147800D01*
X192478066Y-63147800D02*
X192382828Y-63195419D01*
X192382828Y-63195419D02*
X192192352Y-63195419D01*
X192192352Y-63195419D02*
X192097114Y-63147800D01*
X192097114Y-63147800D02*
X192001876Y-63052561D01*
X192001876Y-63052561D02*
X191954257Y-62862085D01*
X191954257Y-62862085D02*
X191954257Y-62528752D01*
X191954257Y-62528752D02*
X192001876Y-62338276D01*
X192001876Y-62338276D02*
X192097114Y-62243038D01*
X192097114Y-62243038D02*
X192192352Y-62195419D01*
X193049495Y-63195419D02*
X193049495Y-62195419D01*
X193049495Y-62195419D02*
X193620923Y-63195419D01*
X193620923Y-63195419D02*
X193620923Y-62195419D01*
X191859019Y-63805419D02*
X192049495Y-63805419D01*
X192049495Y-63805419D02*
X192144733Y-63853038D01*
X192144733Y-63853038D02*
X192239971Y-63948276D01*
X192239971Y-63948276D02*
X192287590Y-64138752D01*
X192287590Y-64138752D02*
X192287590Y-64472085D01*
X192287590Y-64472085D02*
X192239971Y-64662561D01*
X192239971Y-64662561D02*
X192144733Y-64757800D01*
X192144733Y-64757800D02*
X192049495Y-64805419D01*
X192049495Y-64805419D02*
X191859019Y-64805419D01*
X191859019Y-64805419D02*
X191763781Y-64757800D01*
X191763781Y-64757800D02*
X191668543Y-64662561D01*
X191668543Y-64662561D02*
X191620924Y-64472085D01*
X191620924Y-64472085D02*
X191620924Y-64138752D01*
X191620924Y-64138752D02*
X191668543Y-63948276D01*
X191668543Y-63948276D02*
X191763781Y-63853038D01*
X191763781Y-63853038D02*
X191859019Y-63805419D01*
X193049495Y-64281609D02*
X192716162Y-64281609D01*
X192716162Y-64805419D02*
X192716162Y-63805419D01*
X192716162Y-63805419D02*
X193192352Y-63805419D01*
X193906638Y-64281609D02*
X193573305Y-64281609D01*
X193573305Y-64805419D02*
X193573305Y-63805419D01*
X193573305Y-63805419D02*
X194049495Y-63805419D01*
D12*
X110686971Y-67976542D02*
X110686971Y-66776542D01*
X110686971Y-66776542D02*
X111372685Y-67976542D01*
X111372685Y-67976542D02*
X111372685Y-66776542D01*
X112172685Y-66776542D02*
X112401257Y-66776542D01*
X112401257Y-66776542D02*
X112515542Y-66833685D01*
X112515542Y-66833685D02*
X112629828Y-66947971D01*
X112629828Y-66947971D02*
X112686971Y-67176542D01*
X112686971Y-67176542D02*
X112686971Y-67576542D01*
X112686971Y-67576542D02*
X112629828Y-67805114D01*
X112629828Y-67805114D02*
X112515542Y-67919400D01*
X112515542Y-67919400D02*
X112401257Y-67976542D01*
X112401257Y-67976542D02*
X112172685Y-67976542D01*
X112172685Y-67976542D02*
X112058400Y-67919400D01*
X112058400Y-67919400D02*
X111944114Y-67805114D01*
X111944114Y-67805114D02*
X111886971Y-67576542D01*
X111886971Y-67576542D02*
X111886971Y-67176542D01*
X111886971Y-67176542D02*
X111944114Y-66947971D01*
X111944114Y-66947971D02*
X112058400Y-66833685D01*
X112058400Y-66833685D02*
X112172685Y-66776542D01*
D10*
X159105695Y-106151838D02*
X159010457Y-106104219D01*
X159010457Y-106104219D02*
X158867600Y-106104219D01*
X158867600Y-106104219D02*
X158724743Y-106151838D01*
X158724743Y-106151838D02*
X158629505Y-106247076D01*
X158629505Y-106247076D02*
X158581886Y-106342314D01*
X158581886Y-106342314D02*
X158534267Y-106532790D01*
X158534267Y-106532790D02*
X158534267Y-106675647D01*
X158534267Y-106675647D02*
X158581886Y-106866123D01*
X158581886Y-106866123D02*
X158629505Y-106961361D01*
X158629505Y-106961361D02*
X158724743Y-107056600D01*
X158724743Y-107056600D02*
X158867600Y-107104219D01*
X158867600Y-107104219D02*
X158962838Y-107104219D01*
X158962838Y-107104219D02*
X159105695Y-107056600D01*
X159105695Y-107056600D02*
X159153314Y-107008980D01*
X159153314Y-107008980D02*
X159153314Y-106675647D01*
X159153314Y-106675647D02*
X158962838Y-106675647D01*
X159581886Y-107104219D02*
X159581886Y-106104219D01*
X159581886Y-106104219D02*
X160153314Y-107104219D01*
X160153314Y-107104219D02*
X160153314Y-106104219D01*
X160629505Y-107104219D02*
X160629505Y-106104219D01*
X160629505Y-106104219D02*
X160867600Y-106104219D01*
X160867600Y-106104219D02*
X161010457Y-106151838D01*
X161010457Y-106151838D02*
X161105695Y-106247076D01*
X161105695Y-106247076D02*
X161153314Y-106342314D01*
X161153314Y-106342314D02*
X161200933Y-106532790D01*
X161200933Y-106532790D02*
X161200933Y-106675647D01*
X161200933Y-106675647D02*
X161153314Y-106866123D01*
X161153314Y-106866123D02*
X161105695Y-106961361D01*
X161105695Y-106961361D02*
X161010457Y-107056600D01*
X161010457Y-107056600D02*
X160867600Y-107104219D01*
X160867600Y-107104219D02*
X160629505Y-107104219D01*
D12*
X110229829Y-85864628D02*
X110286972Y-85807485D01*
X110286972Y-85807485D02*
X110401258Y-85750342D01*
X110401258Y-85750342D02*
X110686972Y-85750342D01*
X110686972Y-85750342D02*
X110801258Y-85807485D01*
X110801258Y-85807485D02*
X110858400Y-85864628D01*
X110858400Y-85864628D02*
X110915543Y-85978914D01*
X110915543Y-85978914D02*
X110915543Y-86093200D01*
X110915543Y-86093200D02*
X110858400Y-86264628D01*
X110858400Y-86264628D02*
X110172686Y-86950342D01*
X110172686Y-86950342D02*
X110915543Y-86950342D01*
X111944115Y-86150342D02*
X111944115Y-86950342D01*
X111658400Y-85693200D02*
X111372686Y-86550342D01*
X111372686Y-86550342D02*
X112115543Y-86550342D01*
X112401257Y-85750342D02*
X112801257Y-86950342D01*
X112801257Y-86950342D02*
X113201257Y-85750342D01*
X193897371Y-105797142D02*
X193897371Y-104597142D01*
X193897371Y-104597142D02*
X194583085Y-105797142D01*
X194583085Y-105797142D02*
X194583085Y-104597142D01*
X195383085Y-104597142D02*
X195611657Y-104597142D01*
X195611657Y-104597142D02*
X195725942Y-104654285D01*
X195725942Y-104654285D02*
X195840228Y-104768571D01*
X195840228Y-104768571D02*
X195897371Y-104997142D01*
X195897371Y-104997142D02*
X195897371Y-105397142D01*
X195897371Y-105397142D02*
X195840228Y-105625714D01*
X195840228Y-105625714D02*
X195725942Y-105740000D01*
X195725942Y-105740000D02*
X195611657Y-105797142D01*
X195611657Y-105797142D02*
X195383085Y-105797142D01*
X195383085Y-105797142D02*
X195268800Y-105740000D01*
X195268800Y-105740000D02*
X195154514Y-105625714D01*
X195154514Y-105625714D02*
X195097371Y-105397142D01*
X195097371Y-105397142D02*
X195097371Y-104997142D01*
X195097371Y-104997142D02*
X195154514Y-104768571D01*
X195154514Y-104768571D02*
X195268800Y-104654285D01*
X195268800Y-104654285D02*
X195383085Y-104597142D01*
D10*
X196011895Y-54310438D02*
X195916657Y-54262819D01*
X195916657Y-54262819D02*
X195773800Y-54262819D01*
X195773800Y-54262819D02*
X195630943Y-54310438D01*
X195630943Y-54310438D02*
X195535705Y-54405676D01*
X195535705Y-54405676D02*
X195488086Y-54500914D01*
X195488086Y-54500914D02*
X195440467Y-54691390D01*
X195440467Y-54691390D02*
X195440467Y-54834247D01*
X195440467Y-54834247D02*
X195488086Y-55024723D01*
X195488086Y-55024723D02*
X195535705Y-55119961D01*
X195535705Y-55119961D02*
X195630943Y-55215200D01*
X195630943Y-55215200D02*
X195773800Y-55262819D01*
X195773800Y-55262819D02*
X195869038Y-55262819D01*
X195869038Y-55262819D02*
X196011895Y-55215200D01*
X196011895Y-55215200D02*
X196059514Y-55167580D01*
X196059514Y-55167580D02*
X196059514Y-54834247D01*
X196059514Y-54834247D02*
X195869038Y-54834247D01*
X196488086Y-55262819D02*
X196488086Y-54262819D01*
X196488086Y-54262819D02*
X197059514Y-55262819D01*
X197059514Y-55262819D02*
X197059514Y-54262819D01*
X197535705Y-55262819D02*
X197535705Y-54262819D01*
X197535705Y-54262819D02*
X197773800Y-54262819D01*
X197773800Y-54262819D02*
X197916657Y-54310438D01*
X197916657Y-54310438D02*
X198011895Y-54405676D01*
X198011895Y-54405676D02*
X198059514Y-54500914D01*
X198059514Y-54500914D02*
X198107133Y-54691390D01*
X198107133Y-54691390D02*
X198107133Y-54834247D01*
X198107133Y-54834247D02*
X198059514Y-55024723D01*
X198059514Y-55024723D02*
X198011895Y-55119961D01*
X198011895Y-55119961D02*
X197916657Y-55215200D01*
X197916657Y-55215200D02*
X197773800Y-55262819D01*
X197773800Y-55262819D02*
X197535705Y-55262819D01*
X168406723Y-126408219D02*
X167930533Y-126408219D01*
X167930533Y-126408219D02*
X167930533Y-125408219D01*
D11*
X105417370Y-99378828D02*
X104703084Y-99378828D01*
X104703084Y-99378828D02*
X104703084Y-97878828D01*
X105917370Y-98593114D02*
X106417370Y-98593114D01*
X106631656Y-99378828D02*
X105917370Y-99378828D01*
X105917370Y-99378828D02*
X105917370Y-97878828D01*
X105917370Y-97878828D02*
X106631656Y-97878828D01*
X107060228Y-97878828D02*
X107917371Y-97878828D01*
X107488799Y-99378828D02*
X107488799Y-97878828D01*
X109274513Y-99378828D02*
X108774513Y-98664542D01*
X108417370Y-99378828D02*
X108417370Y-97878828D01*
X108417370Y-97878828D02*
X108988799Y-97878828D01*
X108988799Y-97878828D02*
X109131656Y-97950257D01*
X109131656Y-97950257D02*
X109203085Y-98021685D01*
X109203085Y-98021685D02*
X109274513Y-98164542D01*
X109274513Y-98164542D02*
X109274513Y-98378828D01*
X109274513Y-98378828D02*
X109203085Y-98521685D01*
X109203085Y-98521685D02*
X109131656Y-98593114D01*
X109131656Y-98593114D02*
X108988799Y-98664542D01*
X108988799Y-98664542D02*
X108417370Y-98664542D01*
X109917370Y-98593114D02*
X110417370Y-98593114D01*
X110631656Y-99378828D02*
X109917370Y-99378828D01*
X109917370Y-99378828D02*
X109917370Y-97878828D01*
X109917370Y-97878828D02*
X110631656Y-97878828D01*
X112131656Y-99378828D02*
X111631656Y-98664542D01*
X111274513Y-99378828D02*
X111274513Y-97878828D01*
X111274513Y-97878828D02*
X111845942Y-97878828D01*
X111845942Y-97878828D02*
X111988799Y-97950257D01*
X111988799Y-97950257D02*
X112060228Y-98021685D01*
X112060228Y-98021685D02*
X112131656Y-98164542D01*
X112131656Y-98164542D02*
X112131656Y-98378828D01*
X112131656Y-98378828D02*
X112060228Y-98521685D01*
X112060228Y-98521685D02*
X111988799Y-98593114D01*
X111988799Y-98593114D02*
X111845942Y-98664542D01*
X111845942Y-98664542D02*
X111274513Y-98664542D01*
X113060228Y-97878828D02*
X113345942Y-97878828D01*
X113345942Y-97878828D02*
X113488799Y-97950257D01*
X113488799Y-97950257D02*
X113631656Y-98093114D01*
X113631656Y-98093114D02*
X113703085Y-98378828D01*
X113703085Y-98378828D02*
X113703085Y-98878828D01*
X113703085Y-98878828D02*
X113631656Y-99164542D01*
X113631656Y-99164542D02*
X113488799Y-99307400D01*
X113488799Y-99307400D02*
X113345942Y-99378828D01*
X113345942Y-99378828D02*
X113060228Y-99378828D01*
X113060228Y-99378828D02*
X112917371Y-99307400D01*
X112917371Y-99307400D02*
X112774513Y-99164542D01*
X112774513Y-99164542D02*
X112703085Y-98878828D01*
X112703085Y-98878828D02*
X112703085Y-98378828D01*
X112703085Y-98378828D02*
X112774513Y-98093114D01*
X112774513Y-98093114D02*
X112917371Y-97950257D01*
X112917371Y-97950257D02*
X113060228Y-97878828D01*
D10*
X156859361Y-101649580D02*
X156811742Y-101697200D01*
X156811742Y-101697200D02*
X156668885Y-101744819D01*
X156668885Y-101744819D02*
X156573647Y-101744819D01*
X156573647Y-101744819D02*
X156430790Y-101697200D01*
X156430790Y-101697200D02*
X156335552Y-101601961D01*
X156335552Y-101601961D02*
X156287933Y-101506723D01*
X156287933Y-101506723D02*
X156240314Y-101316247D01*
X156240314Y-101316247D02*
X156240314Y-101173390D01*
X156240314Y-101173390D02*
X156287933Y-100982914D01*
X156287933Y-100982914D02*
X156335552Y-100887676D01*
X156335552Y-100887676D02*
X156430790Y-100792438D01*
X156430790Y-100792438D02*
X156573647Y-100744819D01*
X156573647Y-100744819D02*
X156668885Y-100744819D01*
X156668885Y-100744819D02*
X156811742Y-100792438D01*
X156811742Y-100792438D02*
X156859361Y-100840057D01*
X157764123Y-101744819D02*
X157287933Y-101744819D01*
X157287933Y-101744819D02*
X157287933Y-100744819D01*
X158097457Y-101744819D02*
X158097457Y-100744819D01*
X158668885Y-101744819D02*
X158240314Y-101173390D01*
X158668885Y-100744819D02*
X158097457Y-101316247D01*
D12*
X193925943Y-116134942D02*
X193925943Y-114934942D01*
X193925943Y-114934942D02*
X194611657Y-116134942D01*
X194611657Y-116134942D02*
X194611657Y-114934942D01*
X195868800Y-116020657D02*
X195811657Y-116077800D01*
X195811657Y-116077800D02*
X195640229Y-116134942D01*
X195640229Y-116134942D02*
X195525943Y-116134942D01*
X195525943Y-116134942D02*
X195354514Y-116077800D01*
X195354514Y-116077800D02*
X195240229Y-115963514D01*
X195240229Y-115963514D02*
X195183086Y-115849228D01*
X195183086Y-115849228D02*
X195125943Y-115620657D01*
X195125943Y-115620657D02*
X195125943Y-115449228D01*
X195125943Y-115449228D02*
X195183086Y-115220657D01*
X195183086Y-115220657D02*
X195240229Y-115106371D01*
X195240229Y-115106371D02*
X195354514Y-114992085D01*
X195354514Y-114992085D02*
X195525943Y-114934942D01*
X195525943Y-114934942D02*
X195640229Y-114934942D01*
X195640229Y-114934942D02*
X195811657Y-114992085D01*
X195811657Y-114992085D02*
X195868800Y-115049228D01*
X134327828Y-42220970D02*
X134270685Y-42163827D01*
X134270685Y-42163827D02*
X134213542Y-42049542D01*
X134213542Y-42049542D02*
X134213542Y-41763827D01*
X134213542Y-41763827D02*
X134270685Y-41649542D01*
X134270685Y-41649542D02*
X134327828Y-41592399D01*
X134327828Y-41592399D02*
X134442114Y-41535256D01*
X134442114Y-41535256D02*
X134556400Y-41535256D01*
X134556400Y-41535256D02*
X134727828Y-41592399D01*
X134727828Y-41592399D02*
X135413542Y-42278113D01*
X135413542Y-42278113D02*
X135413542Y-41535256D01*
X134613542Y-40506685D02*
X135413542Y-40506685D01*
X134156400Y-40792399D02*
X135013542Y-41078113D01*
X135013542Y-41078113D02*
X135013542Y-40335256D01*
X134213542Y-40049542D02*
X135413542Y-39649542D01*
X135413542Y-39649542D02*
X134213542Y-39249542D01*
D10*
X108394523Y-108542619D02*
X107918333Y-108542619D01*
X107918333Y-108542619D02*
X107870714Y-109018809D01*
X107870714Y-109018809D02*
X107918333Y-108971190D01*
X107918333Y-108971190D02*
X108013571Y-108923571D01*
X108013571Y-108923571D02*
X108251666Y-108923571D01*
X108251666Y-108923571D02*
X108346904Y-108971190D01*
X108346904Y-108971190D02*
X108394523Y-109018809D01*
X108394523Y-109018809D02*
X108442142Y-109114047D01*
X108442142Y-109114047D02*
X108442142Y-109352142D01*
X108442142Y-109352142D02*
X108394523Y-109447380D01*
X108394523Y-109447380D02*
X108346904Y-109495000D01*
X108346904Y-109495000D02*
X108251666Y-109542619D01*
X108251666Y-109542619D02*
X108013571Y-109542619D01*
X108013571Y-109542619D02*
X107918333Y-109495000D01*
X107918333Y-109495000D02*
X107870714Y-109447380D01*
X108727857Y-108542619D02*
X109061190Y-109542619D01*
X109061190Y-109542619D02*
X109394523Y-108542619D01*
D12*
X192983029Y-125310828D02*
X193040172Y-125253685D01*
X193040172Y-125253685D02*
X193154458Y-125196542D01*
X193154458Y-125196542D02*
X193440172Y-125196542D01*
X193440172Y-125196542D02*
X193554458Y-125253685D01*
X193554458Y-125253685D02*
X193611600Y-125310828D01*
X193611600Y-125310828D02*
X193668743Y-125425114D01*
X193668743Y-125425114D02*
X193668743Y-125539400D01*
X193668743Y-125539400D02*
X193611600Y-125710828D01*
X193611600Y-125710828D02*
X192925886Y-126396542D01*
X192925886Y-126396542D02*
X193668743Y-126396542D01*
X194697315Y-125596542D02*
X194697315Y-126396542D01*
X194411600Y-125139400D02*
X194125886Y-125996542D01*
X194125886Y-125996542D02*
X194868743Y-125996542D01*
X195154457Y-125196542D02*
X195554457Y-126396542D01*
X195554457Y-126396542D02*
X195954457Y-125196542D01*
D10*
X126479467Y-126111266D02*
X127241372Y-126111266D01*
X126860419Y-126492219D02*
X126860419Y-125730314D01*
X128241371Y-126492219D02*
X127669943Y-126492219D01*
X127955657Y-126492219D02*
X127955657Y-125492219D01*
X127955657Y-125492219D02*
X127860419Y-125635076D01*
X127860419Y-125635076D02*
X127765181Y-125730314D01*
X127765181Y-125730314D02*
X127669943Y-125777933D01*
X129098514Y-125492219D02*
X128908038Y-125492219D01*
X128908038Y-125492219D02*
X128812800Y-125539838D01*
X128812800Y-125539838D02*
X128765181Y-125587457D01*
X128765181Y-125587457D02*
X128669943Y-125730314D01*
X128669943Y-125730314D02*
X128622324Y-125920790D01*
X128622324Y-125920790D02*
X128622324Y-126301742D01*
X128622324Y-126301742D02*
X128669943Y-126396980D01*
X128669943Y-126396980D02*
X128717562Y-126444600D01*
X128717562Y-126444600D02*
X128812800Y-126492219D01*
X128812800Y-126492219D02*
X129003276Y-126492219D01*
X129003276Y-126492219D02*
X129098514Y-126444600D01*
X129098514Y-126444600D02*
X129146133Y-126396980D01*
X129146133Y-126396980D02*
X129193752Y-126301742D01*
X129193752Y-126301742D02*
X129193752Y-126063647D01*
X129193752Y-126063647D02*
X129146133Y-125968409D01*
X129146133Y-125968409D02*
X129098514Y-125920790D01*
X129098514Y-125920790D02*
X129003276Y-125873171D01*
X129003276Y-125873171D02*
X128812800Y-125873171D01*
X128812800Y-125873171D02*
X128717562Y-125920790D01*
X128717562Y-125920790D02*
X128669943Y-125968409D01*
X128669943Y-125968409D02*
X128622324Y-126063647D01*
D12*
X193446514Y-89134885D02*
X193332229Y-89077742D01*
X193332229Y-89077742D02*
X193160800Y-89077742D01*
X193160800Y-89077742D02*
X192989371Y-89134885D01*
X192989371Y-89134885D02*
X192875086Y-89249171D01*
X192875086Y-89249171D02*
X192817943Y-89363457D01*
X192817943Y-89363457D02*
X192760800Y-89592028D01*
X192760800Y-89592028D02*
X192760800Y-89763457D01*
X192760800Y-89763457D02*
X192817943Y-89992028D01*
X192817943Y-89992028D02*
X192875086Y-90106314D01*
X192875086Y-90106314D02*
X192989371Y-90220600D01*
X192989371Y-90220600D02*
X193160800Y-90277742D01*
X193160800Y-90277742D02*
X193275086Y-90277742D01*
X193275086Y-90277742D02*
X193446514Y-90220600D01*
X193446514Y-90220600D02*
X193503657Y-90163457D01*
X193503657Y-90163457D02*
X193503657Y-89763457D01*
X193503657Y-89763457D02*
X193275086Y-89763457D01*
X194017943Y-90277742D02*
X194017943Y-89077742D01*
X194017943Y-89077742D02*
X194703657Y-90277742D01*
X194703657Y-90277742D02*
X194703657Y-89077742D01*
X195275086Y-90277742D02*
X195275086Y-89077742D01*
X195275086Y-89077742D02*
X195560800Y-89077742D01*
X195560800Y-89077742D02*
X195732229Y-89134885D01*
X195732229Y-89134885D02*
X195846514Y-89249171D01*
X195846514Y-89249171D02*
X195903657Y-89363457D01*
X195903657Y-89363457D02*
X195960800Y-89592028D01*
X195960800Y-89592028D02*
X195960800Y-89763457D01*
X195960800Y-89763457D02*
X195903657Y-89992028D01*
X195903657Y-89992028D02*
X195846514Y-90106314D01*
X195846514Y-90106314D02*
X195732229Y-90220600D01*
X195732229Y-90220600D02*
X195560800Y-90277742D01*
X195560800Y-90277742D02*
X195275086Y-90277742D01*
D10*
X137471257Y-118872266D02*
X138233162Y-118872266D01*
X137852209Y-119253219D02*
X137852209Y-118491314D01*
X139137923Y-118586552D02*
X139137923Y-119253219D01*
X138899828Y-118205600D02*
X138661733Y-118919885D01*
X138661733Y-118919885D02*
X139280780Y-118919885D01*
D12*
X110896514Y-70415085D02*
X110782229Y-70357942D01*
X110782229Y-70357942D02*
X110610800Y-70357942D01*
X110610800Y-70357942D02*
X110439371Y-70415085D01*
X110439371Y-70415085D02*
X110325086Y-70529371D01*
X110325086Y-70529371D02*
X110267943Y-70643657D01*
X110267943Y-70643657D02*
X110210800Y-70872228D01*
X110210800Y-70872228D02*
X110210800Y-71043657D01*
X110210800Y-71043657D02*
X110267943Y-71272228D01*
X110267943Y-71272228D02*
X110325086Y-71386514D01*
X110325086Y-71386514D02*
X110439371Y-71500800D01*
X110439371Y-71500800D02*
X110610800Y-71557942D01*
X110610800Y-71557942D02*
X110725086Y-71557942D01*
X110725086Y-71557942D02*
X110896514Y-71500800D01*
X110896514Y-71500800D02*
X110953657Y-71443657D01*
X110953657Y-71443657D02*
X110953657Y-71043657D01*
X110953657Y-71043657D02*
X110725086Y-71043657D01*
X111467943Y-71557942D02*
X111467943Y-70357942D01*
X111467943Y-70357942D02*
X112153657Y-71557942D01*
X112153657Y-71557942D02*
X112153657Y-70357942D01*
X112725086Y-71557942D02*
X112725086Y-70357942D01*
X112725086Y-70357942D02*
X113010800Y-70357942D01*
X113010800Y-70357942D02*
X113182229Y-70415085D01*
X113182229Y-70415085D02*
X113296514Y-70529371D01*
X113296514Y-70529371D02*
X113353657Y-70643657D01*
X113353657Y-70643657D02*
X113410800Y-70872228D01*
X113410800Y-70872228D02*
X113410800Y-71043657D01*
X113410800Y-71043657D02*
X113353657Y-71272228D01*
X113353657Y-71272228D02*
X113296514Y-71386514D01*
X113296514Y-71386514D02*
X113182229Y-71500800D01*
X113182229Y-71500800D02*
X113010800Y-71557942D01*
X113010800Y-71557942D02*
X112725086Y-71557942D01*
X110744114Y-93630685D02*
X110629829Y-93573542D01*
X110629829Y-93573542D02*
X110458400Y-93573542D01*
X110458400Y-93573542D02*
X110286971Y-93630685D01*
X110286971Y-93630685D02*
X110172686Y-93744971D01*
X110172686Y-93744971D02*
X110115543Y-93859257D01*
X110115543Y-93859257D02*
X110058400Y-94087828D01*
X110058400Y-94087828D02*
X110058400Y-94259257D01*
X110058400Y-94259257D02*
X110115543Y-94487828D01*
X110115543Y-94487828D02*
X110172686Y-94602114D01*
X110172686Y-94602114D02*
X110286971Y-94716400D01*
X110286971Y-94716400D02*
X110458400Y-94773542D01*
X110458400Y-94773542D02*
X110572686Y-94773542D01*
X110572686Y-94773542D02*
X110744114Y-94716400D01*
X110744114Y-94716400D02*
X110801257Y-94659257D01*
X110801257Y-94659257D02*
X110801257Y-94259257D01*
X110801257Y-94259257D02*
X110572686Y-94259257D01*
X111315543Y-94773542D02*
X111315543Y-93573542D01*
X111315543Y-93573542D02*
X112001257Y-94773542D01*
X112001257Y-94773542D02*
X112001257Y-93573542D01*
X112572686Y-94773542D02*
X112572686Y-93573542D01*
X112572686Y-93573542D02*
X112858400Y-93573542D01*
X112858400Y-93573542D02*
X113029829Y-93630685D01*
X113029829Y-93630685D02*
X113144114Y-93744971D01*
X113144114Y-93744971D02*
X113201257Y-93859257D01*
X113201257Y-93859257D02*
X113258400Y-94087828D01*
X113258400Y-94087828D02*
X113258400Y-94259257D01*
X113258400Y-94259257D02*
X113201257Y-94487828D01*
X113201257Y-94487828D02*
X113144114Y-94602114D01*
X113144114Y-94602114D02*
X113029829Y-94716400D01*
X113029829Y-94716400D02*
X112858400Y-94773542D01*
X112858400Y-94773542D02*
X112572686Y-94773542D01*
X110715543Y-57689542D02*
X110715543Y-56489542D01*
X110715543Y-56489542D02*
X111401257Y-57689542D01*
X111401257Y-57689542D02*
X111401257Y-56489542D01*
X112658400Y-57575257D02*
X112601257Y-57632400D01*
X112601257Y-57632400D02*
X112429829Y-57689542D01*
X112429829Y-57689542D02*
X112315543Y-57689542D01*
X112315543Y-57689542D02*
X112144114Y-57632400D01*
X112144114Y-57632400D02*
X112029829Y-57518114D01*
X112029829Y-57518114D02*
X111972686Y-57403828D01*
X111972686Y-57403828D02*
X111915543Y-57175257D01*
X111915543Y-57175257D02*
X111915543Y-57003828D01*
X111915543Y-57003828D02*
X111972686Y-56775257D01*
X111972686Y-56775257D02*
X112029829Y-56660971D01*
X112029829Y-56660971D02*
X112144114Y-56546685D01*
X112144114Y-56546685D02*
X112315543Y-56489542D01*
X112315543Y-56489542D02*
X112429829Y-56489542D01*
X112429829Y-56489542D02*
X112601257Y-56546685D01*
X112601257Y-56546685D02*
X112658400Y-56603828D01*
D10*
X119843657Y-126111266D02*
X120605562Y-126111266D01*
X120224609Y-126492219D02*
X120224609Y-125730314D01*
X121510323Y-125825552D02*
X121510323Y-126492219D01*
X121272228Y-125444600D02*
X121034133Y-126158885D01*
X121034133Y-126158885D02*
X121653180Y-126158885D01*
D12*
X151250714Y-39878114D02*
X151307857Y-39763829D01*
X151307857Y-39763829D02*
X151307857Y-39592400D01*
X151307857Y-39592400D02*
X151250714Y-39420971D01*
X151250714Y-39420971D02*
X151136428Y-39306686D01*
X151136428Y-39306686D02*
X151022142Y-39249543D01*
X151022142Y-39249543D02*
X150793571Y-39192400D01*
X150793571Y-39192400D02*
X150622142Y-39192400D01*
X150622142Y-39192400D02*
X150393571Y-39249543D01*
X150393571Y-39249543D02*
X150279285Y-39306686D01*
X150279285Y-39306686D02*
X150165000Y-39420971D01*
X150165000Y-39420971D02*
X150107857Y-39592400D01*
X150107857Y-39592400D02*
X150107857Y-39706686D01*
X150107857Y-39706686D02*
X150165000Y-39878114D01*
X150165000Y-39878114D02*
X150222142Y-39935257D01*
X150222142Y-39935257D02*
X150622142Y-39935257D01*
X150622142Y-39935257D02*
X150622142Y-39706686D01*
X150107857Y-40449543D02*
X151307857Y-40449543D01*
X151307857Y-40449543D02*
X150107857Y-41135257D01*
X150107857Y-41135257D02*
X151307857Y-41135257D01*
X150107857Y-41706686D02*
X151307857Y-41706686D01*
X151307857Y-41706686D02*
X151307857Y-41992400D01*
X151307857Y-41992400D02*
X151250714Y-42163829D01*
X151250714Y-42163829D02*
X151136428Y-42278114D01*
X151136428Y-42278114D02*
X151022142Y-42335257D01*
X151022142Y-42335257D02*
X150793571Y-42392400D01*
X150793571Y-42392400D02*
X150622142Y-42392400D01*
X150622142Y-42392400D02*
X150393571Y-42335257D01*
X150393571Y-42335257D02*
X150279285Y-42278114D01*
X150279285Y-42278114D02*
X150165000Y-42163829D01*
X150165000Y-42163829D02*
X150107857Y-41992400D01*
X150107857Y-41992400D02*
X150107857Y-41706686D01*
D10*
X115982857Y-126111266D02*
X116744762Y-126111266D01*
X116363809Y-126492219D02*
X116363809Y-125730314D01*
X117173333Y-125587457D02*
X117220952Y-125539838D01*
X117220952Y-125539838D02*
X117316190Y-125492219D01*
X117316190Y-125492219D02*
X117554285Y-125492219D01*
X117554285Y-125492219D02*
X117649523Y-125539838D01*
X117649523Y-125539838D02*
X117697142Y-125587457D01*
X117697142Y-125587457D02*
X117744761Y-125682695D01*
X117744761Y-125682695D02*
X117744761Y-125777933D01*
X117744761Y-125777933D02*
X117697142Y-125920790D01*
X117697142Y-125920790D02*
X117125714Y-126492219D01*
X117125714Y-126492219D02*
X117744761Y-126492219D01*
D13*
X128375733Y-120142190D02*
X128375733Y-123189810D01*
X127613828Y-122427905D02*
X128375733Y-123189810D01*
X128375733Y-123189810D02*
X129137638Y-122427905D01*
D12*
X193925942Y-78936657D02*
X193868799Y-78993800D01*
X193868799Y-78993800D02*
X193697371Y-79050942D01*
X193697371Y-79050942D02*
X193583085Y-79050942D01*
X193583085Y-79050942D02*
X193411656Y-78993800D01*
X193411656Y-78993800D02*
X193297371Y-78879514D01*
X193297371Y-78879514D02*
X193240228Y-78765228D01*
X193240228Y-78765228D02*
X193183085Y-78536657D01*
X193183085Y-78536657D02*
X193183085Y-78365228D01*
X193183085Y-78365228D02*
X193240228Y-78136657D01*
X193240228Y-78136657D02*
X193297371Y-78022371D01*
X193297371Y-78022371D02*
X193411656Y-77908085D01*
X193411656Y-77908085D02*
X193583085Y-77850942D01*
X193583085Y-77850942D02*
X193697371Y-77850942D01*
X193697371Y-77850942D02*
X193868799Y-77908085D01*
X193868799Y-77908085D02*
X193925942Y-77965228D01*
X194668799Y-77850942D02*
X194897371Y-77850942D01*
X194897371Y-77850942D02*
X195011656Y-77908085D01*
X195011656Y-77908085D02*
X195125942Y-78022371D01*
X195125942Y-78022371D02*
X195183085Y-78250942D01*
X195183085Y-78250942D02*
X195183085Y-78650942D01*
X195183085Y-78650942D02*
X195125942Y-78879514D01*
X195125942Y-78879514D02*
X195011656Y-78993800D01*
X195011656Y-78993800D02*
X194897371Y-79050942D01*
X194897371Y-79050942D02*
X194668799Y-79050942D01*
X194668799Y-79050942D02*
X194554514Y-78993800D01*
X194554514Y-78993800D02*
X194440228Y-78879514D01*
X194440228Y-78879514D02*
X194383085Y-78650942D01*
X194383085Y-78650942D02*
X194383085Y-78250942D01*
X194383085Y-78250942D02*
X194440228Y-78022371D01*
X194440228Y-78022371D02*
X194554514Y-77908085D01*
X194554514Y-77908085D02*
X194668799Y-77850942D01*
X195697371Y-79050942D02*
X195697371Y-77850942D01*
X195697371Y-77850942D02*
X196097371Y-78708085D01*
X196097371Y-78708085D02*
X196497371Y-77850942D01*
X196497371Y-77850942D02*
X196497371Y-79050942D01*
D11*
X104703085Y-51525228D02*
X104703085Y-50025228D01*
X104703085Y-50025228D02*
X105203085Y-51096657D01*
X105203085Y-51096657D02*
X105703085Y-50025228D01*
X105703085Y-50025228D02*
X105703085Y-51525228D01*
X106417371Y-50739514D02*
X106917371Y-50739514D01*
X107131657Y-51525228D02*
X106417371Y-51525228D01*
X106417371Y-51525228D02*
X106417371Y-50025228D01*
X106417371Y-50025228D02*
X107131657Y-50025228D01*
X107703086Y-51453800D02*
X107917372Y-51525228D01*
X107917372Y-51525228D02*
X108274514Y-51525228D01*
X108274514Y-51525228D02*
X108417372Y-51453800D01*
X108417372Y-51453800D02*
X108488800Y-51382371D01*
X108488800Y-51382371D02*
X108560229Y-51239514D01*
X108560229Y-51239514D02*
X108560229Y-51096657D01*
X108560229Y-51096657D02*
X108488800Y-50953800D01*
X108488800Y-50953800D02*
X108417372Y-50882371D01*
X108417372Y-50882371D02*
X108274514Y-50810942D01*
X108274514Y-50810942D02*
X107988800Y-50739514D01*
X107988800Y-50739514D02*
X107845943Y-50668085D01*
X107845943Y-50668085D02*
X107774514Y-50596657D01*
X107774514Y-50596657D02*
X107703086Y-50453800D01*
X107703086Y-50453800D02*
X107703086Y-50310942D01*
X107703086Y-50310942D02*
X107774514Y-50168085D01*
X107774514Y-50168085D02*
X107845943Y-50096657D01*
X107845943Y-50096657D02*
X107988800Y-50025228D01*
X107988800Y-50025228D02*
X108345943Y-50025228D01*
X108345943Y-50025228D02*
X108560229Y-50096657D01*
X109131657Y-51096657D02*
X109845943Y-51096657D01*
X108988800Y-51525228D02*
X109488800Y-50025228D01*
X109488800Y-50025228D02*
X109988800Y-51525228D01*
D12*
X194798885Y-121615085D02*
X194741742Y-121729371D01*
X194741742Y-121729371D02*
X194741742Y-121900799D01*
X194741742Y-121900799D02*
X194798885Y-122072228D01*
X194798885Y-122072228D02*
X194913171Y-122186513D01*
X194913171Y-122186513D02*
X195027457Y-122243656D01*
X195027457Y-122243656D02*
X195256028Y-122300799D01*
X195256028Y-122300799D02*
X195427457Y-122300799D01*
X195427457Y-122300799D02*
X195656028Y-122243656D01*
X195656028Y-122243656D02*
X195770314Y-122186513D01*
X195770314Y-122186513D02*
X195884600Y-122072228D01*
X195884600Y-122072228D02*
X195941742Y-121900799D01*
X195941742Y-121900799D02*
X195941742Y-121786513D01*
X195941742Y-121786513D02*
X195884600Y-121615085D01*
X195884600Y-121615085D02*
X195827457Y-121557942D01*
X195827457Y-121557942D02*
X195427457Y-121557942D01*
X195427457Y-121557942D02*
X195427457Y-121786513D01*
X195941742Y-121043656D02*
X194741742Y-121043656D01*
X194741742Y-121043656D02*
X195941742Y-120357942D01*
X195941742Y-120357942D02*
X194741742Y-120357942D01*
X195941742Y-119786513D02*
X194741742Y-119786513D01*
X194741742Y-119786513D02*
X194741742Y-119500799D01*
X194741742Y-119500799D02*
X194798885Y-119329370D01*
X194798885Y-119329370D02*
X194913171Y-119215085D01*
X194913171Y-119215085D02*
X195027457Y-119157942D01*
X195027457Y-119157942D02*
X195256028Y-119100799D01*
X195256028Y-119100799D02*
X195427457Y-119100799D01*
X195427457Y-119100799D02*
X195656028Y-119157942D01*
X195656028Y-119157942D02*
X195770314Y-119215085D01*
X195770314Y-119215085D02*
X195884600Y-119329370D01*
X195884600Y-119329370D02*
X195941742Y-119500799D01*
X195941742Y-119500799D02*
X195941742Y-119786513D01*
X193897371Y-74732942D02*
X193897371Y-73532942D01*
X193897371Y-73532942D02*
X194583085Y-74732942D01*
X194583085Y-74732942D02*
X194583085Y-73532942D01*
X195383085Y-73532942D02*
X195611657Y-73532942D01*
X195611657Y-73532942D02*
X195725942Y-73590085D01*
X195725942Y-73590085D02*
X195840228Y-73704371D01*
X195840228Y-73704371D02*
X195897371Y-73932942D01*
X195897371Y-73932942D02*
X195897371Y-74332942D01*
X195897371Y-74332942D02*
X195840228Y-74561514D01*
X195840228Y-74561514D02*
X195725942Y-74675800D01*
X195725942Y-74675800D02*
X195611657Y-74732942D01*
X195611657Y-74732942D02*
X195383085Y-74732942D01*
X195383085Y-74732942D02*
X195268800Y-74675800D01*
X195268800Y-74675800D02*
X195154514Y-74561514D01*
X195154514Y-74561514D02*
X195097371Y-74332942D01*
X195097371Y-74332942D02*
X195097371Y-73932942D01*
X195097371Y-73932942D02*
X195154514Y-73704371D01*
X195154514Y-73704371D02*
X195268800Y-73590085D01*
X195268800Y-73590085D02*
X195383085Y-73532942D01*
D10*
X123374257Y-126111266D02*
X124136162Y-126111266D01*
X123755209Y-126492219D02*
X123755209Y-125730314D01*
X124755209Y-125920790D02*
X124659971Y-125873171D01*
X124659971Y-125873171D02*
X124612352Y-125825552D01*
X124612352Y-125825552D02*
X124564733Y-125730314D01*
X124564733Y-125730314D02*
X124564733Y-125682695D01*
X124564733Y-125682695D02*
X124612352Y-125587457D01*
X124612352Y-125587457D02*
X124659971Y-125539838D01*
X124659971Y-125539838D02*
X124755209Y-125492219D01*
X124755209Y-125492219D02*
X124945685Y-125492219D01*
X124945685Y-125492219D02*
X125040923Y-125539838D01*
X125040923Y-125539838D02*
X125088542Y-125587457D01*
X125088542Y-125587457D02*
X125136161Y-125682695D01*
X125136161Y-125682695D02*
X125136161Y-125730314D01*
X125136161Y-125730314D02*
X125088542Y-125825552D01*
X125088542Y-125825552D02*
X125040923Y-125873171D01*
X125040923Y-125873171D02*
X124945685Y-125920790D01*
X124945685Y-125920790D02*
X124755209Y-125920790D01*
X124755209Y-125920790D02*
X124659971Y-125968409D01*
X124659971Y-125968409D02*
X124612352Y-126016028D01*
X124612352Y-126016028D02*
X124564733Y-126111266D01*
X124564733Y-126111266D02*
X124564733Y-126301742D01*
X124564733Y-126301742D02*
X124612352Y-126396980D01*
X124612352Y-126396980D02*
X124659971Y-126444600D01*
X124659971Y-126444600D02*
X124755209Y-126492219D01*
X124755209Y-126492219D02*
X124945685Y-126492219D01*
X124945685Y-126492219D02*
X125040923Y-126444600D01*
X125040923Y-126444600D02*
X125088542Y-126396980D01*
X125088542Y-126396980D02*
X125136161Y-126301742D01*
X125136161Y-126301742D02*
X125136161Y-126111266D01*
X125136161Y-126111266D02*
X125088542Y-126016028D01*
X125088542Y-126016028D02*
X125040923Y-125968409D01*
X125040923Y-125968409D02*
X124945685Y-125920790D01*
X107667610Y-116950019D02*
X108286657Y-116950019D01*
X108286657Y-116950019D02*
X107953324Y-117330971D01*
X107953324Y-117330971D02*
X108096181Y-117330971D01*
X108096181Y-117330971D02*
X108191419Y-117378590D01*
X108191419Y-117378590D02*
X108239038Y-117426209D01*
X108239038Y-117426209D02*
X108286657Y-117521447D01*
X108286657Y-117521447D02*
X108286657Y-117759542D01*
X108286657Y-117759542D02*
X108239038Y-117854780D01*
X108239038Y-117854780D02*
X108191419Y-117902400D01*
X108191419Y-117902400D02*
X108096181Y-117950019D01*
X108096181Y-117950019D02*
X107810467Y-117950019D01*
X107810467Y-117950019D02*
X107715229Y-117902400D01*
X107715229Y-117902400D02*
X107667610Y-117854780D01*
X108715229Y-117854780D02*
X108762848Y-117902400D01*
X108762848Y-117902400D02*
X108715229Y-117950019D01*
X108715229Y-117950019D02*
X108667610Y-117902400D01*
X108667610Y-117902400D02*
X108715229Y-117854780D01*
X108715229Y-117854780D02*
X108715229Y-117950019D01*
X109096181Y-116950019D02*
X109715228Y-116950019D01*
X109715228Y-116950019D02*
X109381895Y-117330971D01*
X109381895Y-117330971D02*
X109524752Y-117330971D01*
X109524752Y-117330971D02*
X109619990Y-117378590D01*
X109619990Y-117378590D02*
X109667609Y-117426209D01*
X109667609Y-117426209D02*
X109715228Y-117521447D01*
X109715228Y-117521447D02*
X109715228Y-117759542D01*
X109715228Y-117759542D02*
X109667609Y-117854780D01*
X109667609Y-117854780D02*
X109619990Y-117902400D01*
X109619990Y-117902400D02*
X109524752Y-117950019D01*
X109524752Y-117950019D02*
X109239038Y-117950019D01*
X109239038Y-117950019D02*
X109143800Y-117902400D01*
X109143800Y-117902400D02*
X109096181Y-117854780D01*
X110000943Y-116950019D02*
X110334276Y-117950019D01*
X110334276Y-117950019D02*
X110667609Y-116950019D01*
D12*
X111188571Y-76371629D02*
X111245714Y-76428772D01*
X111245714Y-76428772D02*
X111302857Y-76543058D01*
X111302857Y-76543058D02*
X111302857Y-76828772D01*
X111302857Y-76828772D02*
X111245714Y-76943058D01*
X111245714Y-76943058D02*
X111188571Y-77000200D01*
X111188571Y-77000200D02*
X111074285Y-77057343D01*
X111074285Y-77057343D02*
X110960000Y-77057343D01*
X110960000Y-77057343D02*
X110788571Y-77000200D01*
X110788571Y-77000200D02*
X110102857Y-76314486D01*
X110102857Y-76314486D02*
X110102857Y-77057343D01*
X110902857Y-78085915D02*
X110102857Y-78085915D01*
X111360000Y-77800200D02*
X110502857Y-77514486D01*
X110502857Y-77514486D02*
X110502857Y-78257343D01*
X111302857Y-78543057D02*
X110102857Y-78943057D01*
X110102857Y-78943057D02*
X111302857Y-79343057D01*
D10*
X126633600Y-44072400D02*
X126776457Y-44120019D01*
X126776457Y-44120019D02*
X127014552Y-44120019D01*
X127014552Y-44120019D02*
X127109790Y-44072400D01*
X127109790Y-44072400D02*
X127157409Y-44024780D01*
X127157409Y-44024780D02*
X127205028Y-43929542D01*
X127205028Y-43929542D02*
X127205028Y-43834304D01*
X127205028Y-43834304D02*
X127157409Y-43739066D01*
X127157409Y-43739066D02*
X127109790Y-43691447D01*
X127109790Y-43691447D02*
X127014552Y-43643828D01*
X127014552Y-43643828D02*
X126824076Y-43596209D01*
X126824076Y-43596209D02*
X126728838Y-43548590D01*
X126728838Y-43548590D02*
X126681219Y-43500971D01*
X126681219Y-43500971D02*
X126633600Y-43405733D01*
X126633600Y-43405733D02*
X126633600Y-43310495D01*
X126633600Y-43310495D02*
X126681219Y-43215257D01*
X126681219Y-43215257D02*
X126728838Y-43167638D01*
X126728838Y-43167638D02*
X126824076Y-43120019D01*
X126824076Y-43120019D02*
X127062171Y-43120019D01*
X127062171Y-43120019D02*
X127205028Y-43167638D01*
X127538362Y-43120019D02*
X127776457Y-44120019D01*
X127776457Y-44120019D02*
X127966933Y-43405733D01*
X127966933Y-43405733D02*
X128157409Y-44120019D01*
X128157409Y-44120019D02*
X128395505Y-43120019D01*
X128776457Y-44120019D02*
X128776457Y-43120019D01*
X129109790Y-43120019D02*
X129681218Y-43120019D01*
X129395504Y-44120019D02*
X129395504Y-43120019D01*
X130585980Y-44024780D02*
X130538361Y-44072400D01*
X130538361Y-44072400D02*
X130395504Y-44120019D01*
X130395504Y-44120019D02*
X130300266Y-44120019D01*
X130300266Y-44120019D02*
X130157409Y-44072400D01*
X130157409Y-44072400D02*
X130062171Y-43977161D01*
X130062171Y-43977161D02*
X130014552Y-43881923D01*
X130014552Y-43881923D02*
X129966933Y-43691447D01*
X129966933Y-43691447D02*
X129966933Y-43548590D01*
X129966933Y-43548590D02*
X130014552Y-43358114D01*
X130014552Y-43358114D02*
X130062171Y-43262876D01*
X130062171Y-43262876D02*
X130157409Y-43167638D01*
X130157409Y-43167638D02*
X130300266Y-43120019D01*
X130300266Y-43120019D02*
X130395504Y-43120019D01*
X130395504Y-43120019D02*
X130538361Y-43167638D01*
X130538361Y-43167638D02*
X130585980Y-43215257D01*
X131014552Y-44120019D02*
X131014552Y-43120019D01*
X131014552Y-43596209D02*
X131585980Y-43596209D01*
X131585980Y-44120019D02*
X131585980Y-43120019D01*
X126609790Y-44730019D02*
X126800266Y-44730019D01*
X126800266Y-44730019D02*
X126895504Y-44777638D01*
X126895504Y-44777638D02*
X126990742Y-44872876D01*
X126990742Y-44872876D02*
X127038361Y-45063352D01*
X127038361Y-45063352D02*
X127038361Y-45396685D01*
X127038361Y-45396685D02*
X126990742Y-45587161D01*
X126990742Y-45587161D02*
X126895504Y-45682400D01*
X126895504Y-45682400D02*
X126800266Y-45730019D01*
X126800266Y-45730019D02*
X126609790Y-45730019D01*
X126609790Y-45730019D02*
X126514552Y-45682400D01*
X126514552Y-45682400D02*
X126419314Y-45587161D01*
X126419314Y-45587161D02*
X126371695Y-45396685D01*
X126371695Y-45396685D02*
X126371695Y-45063352D01*
X126371695Y-45063352D02*
X126419314Y-44872876D01*
X126419314Y-44872876D02*
X126514552Y-44777638D01*
X126514552Y-44777638D02*
X126609790Y-44730019D01*
X127466933Y-45730019D02*
X127466933Y-44730019D01*
X127466933Y-44730019D02*
X128038361Y-45730019D01*
X128038361Y-45730019D02*
X128038361Y-44730019D01*
X129228837Y-44682400D02*
X128371695Y-45968114D01*
X129752647Y-44730019D02*
X129943123Y-44730019D01*
X129943123Y-44730019D02*
X130038361Y-44777638D01*
X130038361Y-44777638D02*
X130133599Y-44872876D01*
X130133599Y-44872876D02*
X130181218Y-45063352D01*
X130181218Y-45063352D02*
X130181218Y-45396685D01*
X130181218Y-45396685D02*
X130133599Y-45587161D01*
X130133599Y-45587161D02*
X130038361Y-45682400D01*
X130038361Y-45682400D02*
X129943123Y-45730019D01*
X129943123Y-45730019D02*
X129752647Y-45730019D01*
X129752647Y-45730019D02*
X129657409Y-45682400D01*
X129657409Y-45682400D02*
X129562171Y-45587161D01*
X129562171Y-45587161D02*
X129514552Y-45396685D01*
X129514552Y-45396685D02*
X129514552Y-45063352D01*
X129514552Y-45063352D02*
X129562171Y-44872876D01*
X129562171Y-44872876D02*
X129657409Y-44777638D01*
X129657409Y-44777638D02*
X129752647Y-44730019D01*
X130943123Y-45206209D02*
X130609790Y-45206209D01*
X130609790Y-45730019D02*
X130609790Y-44730019D01*
X130609790Y-44730019D02*
X131085980Y-44730019D01*
X131800266Y-45206209D02*
X131466933Y-45206209D01*
X131466933Y-45730019D02*
X131466933Y-44730019D01*
X131466933Y-44730019D02*
X131943123Y-44730019D01*
X142303667Y-118872266D02*
X143065572Y-118872266D01*
X142684619Y-119253219D02*
X142684619Y-118491314D01*
X144065571Y-119253219D02*
X143494143Y-119253219D01*
X143779857Y-119253219D02*
X143779857Y-118253219D01*
X143779857Y-118253219D02*
X143684619Y-118396076D01*
X143684619Y-118396076D02*
X143589381Y-118491314D01*
X143589381Y-118491314D02*
X143494143Y-118538933D01*
X144922714Y-118253219D02*
X144732238Y-118253219D01*
X144732238Y-118253219D02*
X144637000Y-118300838D01*
X144637000Y-118300838D02*
X144589381Y-118348457D01*
X144589381Y-118348457D02*
X144494143Y-118491314D01*
X144494143Y-118491314D02*
X144446524Y-118681790D01*
X144446524Y-118681790D02*
X144446524Y-119062742D01*
X144446524Y-119062742D02*
X144494143Y-119157980D01*
X144494143Y-119157980D02*
X144541762Y-119205600D01*
X144541762Y-119205600D02*
X144637000Y-119253219D01*
X144637000Y-119253219D02*
X144827476Y-119253219D01*
X144827476Y-119253219D02*
X144922714Y-119205600D01*
X144922714Y-119205600D02*
X144970333Y-119157980D01*
X144970333Y-119157980D02*
X145017952Y-119062742D01*
X145017952Y-119062742D02*
X145017952Y-118824647D01*
X145017952Y-118824647D02*
X144970333Y-118729409D01*
X144970333Y-118729409D02*
X144922714Y-118681790D01*
X144922714Y-118681790D02*
X144827476Y-118634171D01*
X144827476Y-118634171D02*
X144637000Y-118634171D01*
X144637000Y-118634171D02*
X144541762Y-118681790D01*
X144541762Y-118681790D02*
X144494143Y-118729409D01*
X144494143Y-118729409D02*
X144446524Y-118824647D01*
D11*
X138486628Y-87491628D02*
X137986628Y-86777342D01*
X137629485Y-87491628D02*
X137629485Y-85991628D01*
X137629485Y-85991628D02*
X138200914Y-85991628D01*
X138200914Y-85991628D02*
X138343771Y-86063057D01*
X138343771Y-86063057D02*
X138415200Y-86134485D01*
X138415200Y-86134485D02*
X138486628Y-86277342D01*
X138486628Y-86277342D02*
X138486628Y-86491628D01*
X138486628Y-86491628D02*
X138415200Y-86634485D01*
X138415200Y-86634485D02*
X138343771Y-86705914D01*
X138343771Y-86705914D02*
X138200914Y-86777342D01*
X138200914Y-86777342D02*
X137629485Y-86777342D01*
X139129485Y-86705914D02*
X139629485Y-86705914D01*
X139843771Y-87491628D02*
X139129485Y-87491628D01*
X139129485Y-87491628D02*
X139129485Y-85991628D01*
X139129485Y-85991628D02*
X139843771Y-85991628D01*
X140415200Y-87420200D02*
X140629486Y-87491628D01*
X140629486Y-87491628D02*
X140986628Y-87491628D01*
X140986628Y-87491628D02*
X141129486Y-87420200D01*
X141129486Y-87420200D02*
X141200914Y-87348771D01*
X141200914Y-87348771D02*
X141272343Y-87205914D01*
X141272343Y-87205914D02*
X141272343Y-87063057D01*
X141272343Y-87063057D02*
X141200914Y-86920200D01*
X141200914Y-86920200D02*
X141129486Y-86848771D01*
X141129486Y-86848771D02*
X140986628Y-86777342D01*
X140986628Y-86777342D02*
X140700914Y-86705914D01*
X140700914Y-86705914D02*
X140558057Y-86634485D01*
X140558057Y-86634485D02*
X140486628Y-86563057D01*
X140486628Y-86563057D02*
X140415200Y-86420200D01*
X140415200Y-86420200D02*
X140415200Y-86277342D01*
X140415200Y-86277342D02*
X140486628Y-86134485D01*
X140486628Y-86134485D02*
X140558057Y-86063057D01*
X140558057Y-86063057D02*
X140700914Y-85991628D01*
X140700914Y-85991628D02*
X141058057Y-85991628D01*
X141058057Y-85991628D02*
X141272343Y-86063057D01*
X141915199Y-86705914D02*
X142415199Y-86705914D01*
X142629485Y-87491628D02*
X141915199Y-87491628D01*
X141915199Y-87491628D02*
X141915199Y-85991628D01*
X141915199Y-85991628D02*
X142629485Y-85991628D01*
X143058057Y-85991628D02*
X143915200Y-85991628D01*
X143486628Y-87491628D02*
X143486628Y-85991628D01*
D10*
X132365857Y-118872266D02*
X133127762Y-118872266D01*
X132746809Y-119253219D02*
X132746809Y-118491314D01*
X134127761Y-119253219D02*
X133556333Y-119253219D01*
X133842047Y-119253219D02*
X133842047Y-118253219D01*
X133842047Y-118253219D02*
X133746809Y-118396076D01*
X133746809Y-118396076D02*
X133651571Y-118491314D01*
X133651571Y-118491314D02*
X133556333Y-118538933D01*
D12*
X118053029Y-44107028D02*
X118110172Y-44049885D01*
X118110172Y-44049885D02*
X118224458Y-43992742D01*
X118224458Y-43992742D02*
X118510172Y-43992742D01*
X118510172Y-43992742D02*
X118624458Y-44049885D01*
X118624458Y-44049885D02*
X118681600Y-44107028D01*
X118681600Y-44107028D02*
X118738743Y-44221314D01*
X118738743Y-44221314D02*
X118738743Y-44335600D01*
X118738743Y-44335600D02*
X118681600Y-44507028D01*
X118681600Y-44507028D02*
X117995886Y-45192742D01*
X117995886Y-45192742D02*
X118738743Y-45192742D01*
X119767315Y-44392742D02*
X119767315Y-45192742D01*
X119481600Y-43935600D02*
X119195886Y-44792742D01*
X119195886Y-44792742D02*
X119938743Y-44792742D01*
X120224457Y-43992742D02*
X120624457Y-45192742D01*
X120624457Y-45192742D02*
X121024457Y-43992742D01*
X193925943Y-85426342D02*
X193925943Y-84226342D01*
X193925943Y-84226342D02*
X194611657Y-85426342D01*
X194611657Y-85426342D02*
X194611657Y-84226342D01*
X195868800Y-85312057D02*
X195811657Y-85369200D01*
X195811657Y-85369200D02*
X195640229Y-85426342D01*
X195640229Y-85426342D02*
X195525943Y-85426342D01*
X195525943Y-85426342D02*
X195354514Y-85369200D01*
X195354514Y-85369200D02*
X195240229Y-85254914D01*
X195240229Y-85254914D02*
X195183086Y-85140628D01*
X195183086Y-85140628D02*
X195125943Y-84912057D01*
X195125943Y-84912057D02*
X195125943Y-84740628D01*
X195125943Y-84740628D02*
X195183086Y-84512057D01*
X195183086Y-84512057D02*
X195240229Y-84397771D01*
X195240229Y-84397771D02*
X195354514Y-84283485D01*
X195354514Y-84283485D02*
X195525943Y-84226342D01*
X195525943Y-84226342D02*
X195640229Y-84226342D01*
X195640229Y-84226342D02*
X195811657Y-84283485D01*
X195811657Y-84283485D02*
X195868800Y-84340628D01*
D10*
X161510791Y-101770219D02*
X161510791Y-100770219D01*
X161510791Y-100770219D02*
X161748886Y-100770219D01*
X161748886Y-100770219D02*
X161891743Y-100817838D01*
X161891743Y-100817838D02*
X161986981Y-100913076D01*
X161986981Y-100913076D02*
X162034600Y-101008314D01*
X162034600Y-101008314D02*
X162082219Y-101198790D01*
X162082219Y-101198790D02*
X162082219Y-101341647D01*
X162082219Y-101341647D02*
X162034600Y-101532123D01*
X162034600Y-101532123D02*
X161986981Y-101627361D01*
X161986981Y-101627361D02*
X161891743Y-101722600D01*
X161891743Y-101722600D02*
X161748886Y-101770219D01*
X161748886Y-101770219D02*
X161510791Y-101770219D01*
X162510791Y-101770219D02*
X162510791Y-100770219D01*
X163177457Y-100770219D02*
X163367933Y-100770219D01*
X163367933Y-100770219D02*
X163463171Y-100817838D01*
X163463171Y-100817838D02*
X163558409Y-100913076D01*
X163558409Y-100913076D02*
X163606028Y-101103552D01*
X163606028Y-101103552D02*
X163606028Y-101436885D01*
X163606028Y-101436885D02*
X163558409Y-101627361D01*
X163558409Y-101627361D02*
X163463171Y-101722600D01*
X163463171Y-101722600D02*
X163367933Y-101770219D01*
X163367933Y-101770219D02*
X163177457Y-101770219D01*
X163177457Y-101770219D02*
X163082219Y-101722600D01*
X163082219Y-101722600D02*
X162986981Y-101627361D01*
X162986981Y-101627361D02*
X162939362Y-101436885D01*
X162939362Y-101436885D02*
X162939362Y-101103552D01*
X162939362Y-101103552D02*
X162986981Y-100913076D01*
X162986981Y-100913076D02*
X163082219Y-100817838D01*
X163082219Y-100817838D02*
X163177457Y-100770219D01*
X112223657Y-126111266D02*
X112985562Y-126111266D01*
X112604609Y-126492219D02*
X112604609Y-125730314D01*
X113985561Y-126492219D02*
X113414133Y-126492219D01*
X113699847Y-126492219D02*
X113699847Y-125492219D01*
X113699847Y-125492219D02*
X113604609Y-125635076D01*
X113604609Y-125635076D02*
X113509371Y-125730314D01*
X113509371Y-125730314D02*
X113414133Y-125777933D01*
D12*
X122478914Y-44049885D02*
X122364629Y-43992742D01*
X122364629Y-43992742D02*
X122193200Y-43992742D01*
X122193200Y-43992742D02*
X122021771Y-44049885D01*
X122021771Y-44049885D02*
X121907486Y-44164171D01*
X121907486Y-44164171D02*
X121850343Y-44278457D01*
X121850343Y-44278457D02*
X121793200Y-44507028D01*
X121793200Y-44507028D02*
X121793200Y-44678457D01*
X121793200Y-44678457D02*
X121850343Y-44907028D01*
X121850343Y-44907028D02*
X121907486Y-45021314D01*
X121907486Y-45021314D02*
X122021771Y-45135600D01*
X122021771Y-45135600D02*
X122193200Y-45192742D01*
X122193200Y-45192742D02*
X122307486Y-45192742D01*
X122307486Y-45192742D02*
X122478914Y-45135600D01*
X122478914Y-45135600D02*
X122536057Y-45078457D01*
X122536057Y-45078457D02*
X122536057Y-44678457D01*
X122536057Y-44678457D02*
X122307486Y-44678457D01*
X123050343Y-45192742D02*
X123050343Y-43992742D01*
X123050343Y-43992742D02*
X123736057Y-45192742D01*
X123736057Y-45192742D02*
X123736057Y-43992742D01*
X124307486Y-45192742D02*
X124307486Y-43992742D01*
X124307486Y-43992742D02*
X124593200Y-43992742D01*
X124593200Y-43992742D02*
X124764629Y-44049885D01*
X124764629Y-44049885D02*
X124878914Y-44164171D01*
X124878914Y-44164171D02*
X124936057Y-44278457D01*
X124936057Y-44278457D02*
X124993200Y-44507028D01*
X124993200Y-44507028D02*
X124993200Y-44678457D01*
X124993200Y-44678457D02*
X124936057Y-44907028D01*
X124936057Y-44907028D02*
X124878914Y-45021314D01*
X124878914Y-45021314D02*
X124764629Y-45135600D01*
X124764629Y-45135600D02*
X124593200Y-45192742D01*
X124593200Y-45192742D02*
X124307486Y-45192742D01*
D10*
X196964323Y-56955219D02*
X196488133Y-56955219D01*
X196488133Y-56955219D02*
X196440514Y-57431409D01*
X196440514Y-57431409D02*
X196488133Y-57383790D01*
X196488133Y-57383790D02*
X196583371Y-57336171D01*
X196583371Y-57336171D02*
X196821466Y-57336171D01*
X196821466Y-57336171D02*
X196916704Y-57383790D01*
X196916704Y-57383790D02*
X196964323Y-57431409D01*
X196964323Y-57431409D02*
X197011942Y-57526647D01*
X197011942Y-57526647D02*
X197011942Y-57764742D01*
X197011942Y-57764742D02*
X196964323Y-57859980D01*
X196964323Y-57859980D02*
X196916704Y-57907600D01*
X196916704Y-57907600D02*
X196821466Y-57955219D01*
X196821466Y-57955219D02*
X196583371Y-57955219D01*
X196583371Y-57955219D02*
X196488133Y-57907600D01*
X196488133Y-57907600D02*
X196440514Y-57859980D01*
X197297657Y-56955219D02*
X197630990Y-57955219D01*
X197630990Y-57955219D02*
X197964323Y-56955219D01*
D11*
X195086456Y-99250428D02*
X195943599Y-99250428D01*
X195515027Y-100750428D02*
X195515027Y-99250428D01*
X196443598Y-99964714D02*
X196943598Y-99964714D01*
X197157884Y-100750428D02*
X196443598Y-100750428D01*
X196443598Y-100750428D02*
X196443598Y-99250428D01*
X196443598Y-99250428D02*
X197157884Y-99250428D01*
X198657884Y-100607571D02*
X198586456Y-100679000D01*
X198586456Y-100679000D02*
X198372170Y-100750428D01*
X198372170Y-100750428D02*
X198229313Y-100750428D01*
X198229313Y-100750428D02*
X198015027Y-100679000D01*
X198015027Y-100679000D02*
X197872170Y-100536142D01*
X197872170Y-100536142D02*
X197800741Y-100393285D01*
X197800741Y-100393285D02*
X197729313Y-100107571D01*
X197729313Y-100107571D02*
X197729313Y-99893285D01*
X197729313Y-99893285D02*
X197800741Y-99607571D01*
X197800741Y-99607571D02*
X197872170Y-99464714D01*
X197872170Y-99464714D02*
X198015027Y-99321857D01*
X198015027Y-99321857D02*
X198229313Y-99250428D01*
X198229313Y-99250428D02*
X198372170Y-99250428D01*
X198372170Y-99250428D02*
X198586456Y-99321857D01*
X198586456Y-99321857D02*
X198657884Y-99393285D01*
X199300741Y-100750428D02*
X199300741Y-99250428D01*
X199300741Y-99964714D02*
X200157884Y-99964714D01*
X200157884Y-100750428D02*
X200157884Y-99250428D01*
X201157885Y-99250428D02*
X201443599Y-99250428D01*
X201443599Y-99250428D02*
X201586456Y-99321857D01*
X201586456Y-99321857D02*
X201729313Y-99464714D01*
X201729313Y-99464714D02*
X201800742Y-99750428D01*
X201800742Y-99750428D02*
X201800742Y-100250428D01*
X201800742Y-100250428D02*
X201729313Y-100536142D01*
X201729313Y-100536142D02*
X201586456Y-100679000D01*
X201586456Y-100679000D02*
X201443599Y-100750428D01*
X201443599Y-100750428D02*
X201157885Y-100750428D01*
X201157885Y-100750428D02*
X201015028Y-100679000D01*
X201015028Y-100679000D02*
X200872170Y-100536142D01*
X200872170Y-100536142D02*
X200800742Y-100250428D01*
X200800742Y-100250428D02*
X200800742Y-99750428D01*
X200800742Y-99750428D02*
X200872170Y-99464714D01*
X200872170Y-99464714D02*
X201015028Y-99321857D01*
X201015028Y-99321857D02*
X201157885Y-99250428D01*
D10*
X139960457Y-118872266D02*
X140722362Y-118872266D01*
X140341409Y-119253219D02*
X140341409Y-118491314D01*
X141341409Y-118681790D02*
X141246171Y-118634171D01*
X141246171Y-118634171D02*
X141198552Y-118586552D01*
X141198552Y-118586552D02*
X141150933Y-118491314D01*
X141150933Y-118491314D02*
X141150933Y-118443695D01*
X141150933Y-118443695D02*
X141198552Y-118348457D01*
X141198552Y-118348457D02*
X141246171Y-118300838D01*
X141246171Y-118300838D02*
X141341409Y-118253219D01*
X141341409Y-118253219D02*
X141531885Y-118253219D01*
X141531885Y-118253219D02*
X141627123Y-118300838D01*
X141627123Y-118300838D02*
X141674742Y-118348457D01*
X141674742Y-118348457D02*
X141722361Y-118443695D01*
X141722361Y-118443695D02*
X141722361Y-118491314D01*
X141722361Y-118491314D02*
X141674742Y-118586552D01*
X141674742Y-118586552D02*
X141627123Y-118634171D01*
X141627123Y-118634171D02*
X141531885Y-118681790D01*
X141531885Y-118681790D02*
X141341409Y-118681790D01*
X141341409Y-118681790D02*
X141246171Y-118729409D01*
X141246171Y-118729409D02*
X141198552Y-118777028D01*
X141198552Y-118777028D02*
X141150933Y-118872266D01*
X141150933Y-118872266D02*
X141150933Y-119062742D01*
X141150933Y-119062742D02*
X141198552Y-119157980D01*
X141198552Y-119157980D02*
X141246171Y-119205600D01*
X141246171Y-119205600D02*
X141341409Y-119253219D01*
X141341409Y-119253219D02*
X141531885Y-119253219D01*
X141531885Y-119253219D02*
X141627123Y-119205600D01*
X141627123Y-119205600D02*
X141674742Y-119157980D01*
X141674742Y-119157980D02*
X141722361Y-119062742D01*
X141722361Y-119062742D02*
X141722361Y-118872266D01*
X141722361Y-118872266D02*
X141674742Y-118777028D01*
X141674742Y-118777028D02*
X141627123Y-118729409D01*
X141627123Y-118729409D02*
X141531885Y-118681790D01*
D12*
X193925942Y-109289657D02*
X193868799Y-109346800D01*
X193868799Y-109346800D02*
X193697371Y-109403942D01*
X193697371Y-109403942D02*
X193583085Y-109403942D01*
X193583085Y-109403942D02*
X193411656Y-109346800D01*
X193411656Y-109346800D02*
X193297371Y-109232514D01*
X193297371Y-109232514D02*
X193240228Y-109118228D01*
X193240228Y-109118228D02*
X193183085Y-108889657D01*
X193183085Y-108889657D02*
X193183085Y-108718228D01*
X193183085Y-108718228D02*
X193240228Y-108489657D01*
X193240228Y-108489657D02*
X193297371Y-108375371D01*
X193297371Y-108375371D02*
X193411656Y-108261085D01*
X193411656Y-108261085D02*
X193583085Y-108203942D01*
X193583085Y-108203942D02*
X193697371Y-108203942D01*
X193697371Y-108203942D02*
X193868799Y-108261085D01*
X193868799Y-108261085D02*
X193925942Y-108318228D01*
X194668799Y-108203942D02*
X194897371Y-108203942D01*
X194897371Y-108203942D02*
X195011656Y-108261085D01*
X195011656Y-108261085D02*
X195125942Y-108375371D01*
X195125942Y-108375371D02*
X195183085Y-108603942D01*
X195183085Y-108603942D02*
X195183085Y-109003942D01*
X195183085Y-109003942D02*
X195125942Y-109232514D01*
X195125942Y-109232514D02*
X195011656Y-109346800D01*
X195011656Y-109346800D02*
X194897371Y-109403942D01*
X194897371Y-109403942D02*
X194668799Y-109403942D01*
X194668799Y-109403942D02*
X194554514Y-109346800D01*
X194554514Y-109346800D02*
X194440228Y-109232514D01*
X194440228Y-109232514D02*
X194383085Y-109003942D01*
X194383085Y-109003942D02*
X194383085Y-108603942D01*
X194383085Y-108603942D02*
X194440228Y-108375371D01*
X194440228Y-108375371D02*
X194554514Y-108261085D01*
X194554514Y-108261085D02*
X194668799Y-108203942D01*
X195697371Y-109403942D02*
X195697371Y-108203942D01*
X195697371Y-108203942D02*
X196097371Y-109061085D01*
X196097371Y-109061085D02*
X196497371Y-108203942D01*
X196497371Y-108203942D02*
X196497371Y-109403942D01*
X110715542Y-61613857D02*
X110658399Y-61671000D01*
X110658399Y-61671000D02*
X110486971Y-61728142D01*
X110486971Y-61728142D02*
X110372685Y-61728142D01*
X110372685Y-61728142D02*
X110201256Y-61671000D01*
X110201256Y-61671000D02*
X110086971Y-61556714D01*
X110086971Y-61556714D02*
X110029828Y-61442428D01*
X110029828Y-61442428D02*
X109972685Y-61213857D01*
X109972685Y-61213857D02*
X109972685Y-61042428D01*
X109972685Y-61042428D02*
X110029828Y-60813857D01*
X110029828Y-60813857D02*
X110086971Y-60699571D01*
X110086971Y-60699571D02*
X110201256Y-60585285D01*
X110201256Y-60585285D02*
X110372685Y-60528142D01*
X110372685Y-60528142D02*
X110486971Y-60528142D01*
X110486971Y-60528142D02*
X110658399Y-60585285D01*
X110658399Y-60585285D02*
X110715542Y-60642428D01*
X111458399Y-60528142D02*
X111686971Y-60528142D01*
X111686971Y-60528142D02*
X111801256Y-60585285D01*
X111801256Y-60585285D02*
X111915542Y-60699571D01*
X111915542Y-60699571D02*
X111972685Y-60928142D01*
X111972685Y-60928142D02*
X111972685Y-61328142D01*
X111972685Y-61328142D02*
X111915542Y-61556714D01*
X111915542Y-61556714D02*
X111801256Y-61671000D01*
X111801256Y-61671000D02*
X111686971Y-61728142D01*
X111686971Y-61728142D02*
X111458399Y-61728142D01*
X111458399Y-61728142D02*
X111344114Y-61671000D01*
X111344114Y-61671000D02*
X111229828Y-61556714D01*
X111229828Y-61556714D02*
X111172685Y-61328142D01*
X111172685Y-61328142D02*
X111172685Y-60928142D01*
X111172685Y-60928142D02*
X111229828Y-60699571D01*
X111229828Y-60699571D02*
X111344114Y-60585285D01*
X111344114Y-60585285D02*
X111458399Y-60528142D01*
X112486971Y-61728142D02*
X112486971Y-60528142D01*
X112486971Y-60528142D02*
X112886971Y-61385285D01*
X112886971Y-61385285D02*
X113286971Y-60528142D01*
X113286971Y-60528142D02*
X113286971Y-61728142D01*
D14*
X177417400Y-99188536D02*
X177417400Y-99642664D01*
X175947400Y-99188536D02*
X175947400Y-99642664D01*
X132129200Y-78055736D02*
X132129200Y-78509864D01*
X130659200Y-78055736D02*
X130659200Y-78509864D01*
X181892000Y-121310400D02*
X181892000Y-122985400D01*
X181892000Y-121310400D02*
X181892000Y-120660400D01*
X185012000Y-121310400D02*
X185012000Y-121960400D01*
X185012000Y-121310400D02*
X185012000Y-120660400D01*
X144585800Y-106600600D02*
X144585800Y-107050600D01*
X144585800Y-107050600D02*
X143295800Y-107050600D01*
X144585800Y-113820600D02*
X144585800Y-113370600D01*
X145035800Y-106600600D02*
X144585800Y-106600600D01*
X145035800Y-113820600D02*
X144585800Y-113820600D01*
X151355800Y-106600600D02*
X151805800Y-106600600D01*
X151355800Y-113820600D02*
X151805800Y-113820600D01*
X151805800Y-106600600D02*
X151805800Y-107050600D01*
X151805800Y-113820600D02*
X151805800Y-113370600D01*
X193707000Y-122238600D02*
X193707000Y-119518600D01*
X193707000Y-122238600D02*
X188727000Y-122238600D01*
X193707000Y-119518600D02*
X188727000Y-119518600D01*
X136963036Y-108868800D02*
X136747364Y-108868800D01*
X136963036Y-108148800D02*
X136747364Y-108148800D01*
X109069300Y-83740000D02*
X105054300Y-83747600D01*
X109070200Y-96131400D02*
X109070200Y-83751400D01*
X109070200Y-96131400D02*
X105055200Y-96139000D01*
X141676800Y-107067236D02*
X141676800Y-106851564D01*
X142396800Y-107067236D02*
X142396800Y-106851564D01*
X116197748Y-108256400D02*
X116720252Y-108256400D01*
X116197748Y-109726400D02*
X116720252Y-109726400D01*
X179895000Y-93167200D02*
X180834800Y-93167200D01*
X165588800Y-128651000D02*
G75*
G03*
X165588800Y-128651000I-1200000J0D01*
G01*
X172950200Y-99642664D02*
X172950200Y-99188536D01*
X174420200Y-99642664D02*
X174420200Y-99188536D01*
X142544800Y-49947000D02*
X144219800Y-49947000D01*
X142544800Y-49947000D02*
X141894800Y-49947000D01*
X142544800Y-46827000D02*
X143194800Y-46827000D01*
X142544800Y-46827000D02*
X141894800Y-46827000D01*
X173623500Y-121377942D02*
X173623500Y-121852458D01*
X172578500Y-121377942D02*
X172578500Y-121852458D01*
X150831436Y-116692000D02*
X150615764Y-116692000D01*
X150831436Y-115972000D02*
X150615764Y-115972000D01*
X106762400Y-117410200D02*
G75*
G03*
X106762400Y-117410200I-1200000J0D01*
G01*
X121926200Y-128549400D02*
G75*
G03*
X121926200Y-128549400I-1200000J0D01*
G01*
X106762400Y-109042200D02*
G75*
G03*
X106762400Y-109042200I-1200000J0D01*
G01*
X137898000Y-67974200D02*
X137898000Y-61474200D01*
X137898000Y-67974200D02*
X118698000Y-67974200D01*
X137898000Y-59074200D02*
X137898000Y-52574200D01*
X133798000Y-60274200D02*
X134698000Y-60274200D01*
X133798000Y-60274200D02*
X133798000Y-56574200D01*
X132898000Y-61774200D02*
X127898000Y-61774200D01*
X132898000Y-58774200D02*
X132898000Y-61774200D01*
X132698000Y-54274200D02*
X130398000Y-54274200D01*
X130398000Y-66274200D02*
X132698000Y-66274200D01*
X130398000Y-66274200D02*
X130398000Y-61774200D01*
X130398000Y-58774200D02*
X130398000Y-54274200D01*
X127898000Y-61774200D02*
X127898000Y-58774200D01*
X127898000Y-58774200D02*
X132898000Y-61774200D01*
X127898000Y-58774200D02*
X132898000Y-58774200D01*
X126898000Y-60274200D02*
X126898000Y-56574200D01*
X126898000Y-60274200D02*
X125398000Y-60274200D01*
X126898000Y-56574200D02*
X133798000Y-56574200D01*
X125398000Y-60274200D02*
X120898000Y-62974200D01*
X122198000Y-64574200D02*
X122198000Y-62274200D01*
X122198000Y-55974200D02*
X122198000Y-58274200D01*
X118698000Y-67974200D02*
X118698000Y-52574200D01*
X118698000Y-52574200D02*
X137898000Y-52574200D01*
X166343600Y-62081200D02*
X163043600Y-62081200D01*
X166343600Y-62081200D02*
X166343600Y-67481200D01*
X163043600Y-62081200D02*
X163043600Y-67481200D01*
X139952000Y-111468780D02*
X139952000Y-111187620D01*
X140972000Y-111468780D02*
X140972000Y-111187620D01*
X114331600Y-128524000D02*
G75*
G03*
X114331600Y-128524000I-1200000J0D01*
G01*
X172391400Y-128751064D02*
X172391400Y-128296936D01*
X173861400Y-128751064D02*
X173861400Y-128296936D01*
X176553800Y-128271536D02*
X176553800Y-128725664D01*
X175083800Y-128271536D02*
X175083800Y-128725664D01*
X169348800Y-50168600D02*
X170298800Y-50168600D01*
X170298800Y-50168600D02*
X170298800Y-55293600D01*
X178798800Y-50168600D02*
X178798800Y-51268600D01*
X179748800Y-50168600D02*
X178798800Y-50168600D01*
X169348800Y-48668600D02*
X169348800Y-50168600D01*
X179748800Y-48668600D02*
X179748800Y-50168600D01*
X185733400Y-62933200D02*
X185733400Y-61683200D01*
X185108400Y-62308200D02*
X186358400Y-62308200D01*
X184197837Y-61443200D02*
X186983400Y-61443200D01*
X184197837Y-61443200D02*
X183133400Y-60378763D01*
X192788963Y-61443200D02*
X190003400Y-61443200D01*
X192788963Y-61443200D02*
X193853400Y-60378763D01*
X183133400Y-60378763D02*
X183133400Y-50723200D01*
X193853400Y-60378763D02*
X193853400Y-50723200D01*
X183133400Y-50723200D02*
X186983400Y-50723200D01*
X193853400Y-50723200D02*
X190003400Y-50723200D01*
X199076000Y-53407000D02*
X200406000Y-53407000D01*
X199076000Y-54737000D02*
X199076000Y-53407000D01*
X199076000Y-56007000D02*
X199076000Y-58607000D01*
X199076000Y-56007000D02*
X201736000Y-56007000D01*
X199076000Y-58607000D02*
X201736000Y-58607000D01*
X201736000Y-56007000D02*
X201736000Y-58607000D01*
X131784400Y-39462400D02*
X131784400Y-40792400D01*
X130454400Y-39462400D02*
X131784400Y-39462400D01*
X129184400Y-39462400D02*
X126584400Y-39462400D01*
X129184400Y-39462400D02*
X129184400Y-42122400D01*
X126584400Y-39462400D02*
X126584400Y-42122400D01*
X129184400Y-42122400D02*
X126584400Y-42122400D01*
D15*
X168730600Y-56716600D02*
X181230600Y-56716600D01*
X168730600Y-59866601D02*
X168730600Y-56716600D01*
X168730600Y-69216600D02*
X168730600Y-66066601D01*
X168730600Y-69216600D02*
X181230600Y-69216600D01*
X181230600Y-59866601D02*
X181230600Y-56716600D01*
X181230600Y-69216600D02*
X181230600Y-66066601D01*
D14*
X144976964Y-103830800D02*
X145192636Y-103830800D01*
X144976964Y-104550800D02*
X145192636Y-104550800D01*
X134410564Y-108148800D02*
X134626236Y-108148800D01*
X134410564Y-108868800D02*
X134626236Y-108868800D01*
X195351400Y-111023400D02*
X194411600Y-111023400D01*
X195211200Y-80661000D02*
X194271400Y-80661000D01*
X129828058Y-75274700D02*
X129353542Y-75274700D01*
X129828058Y-74229700D02*
X129353542Y-74229700D01*
X121215200Y-110835000D02*
X121215200Y-116845000D01*
X114395200Y-113085000D02*
X114395200Y-116845000D01*
X121215200Y-116845000D02*
X119955200Y-116845000D01*
X114395200Y-116845000D02*
X115655200Y-116845000D01*
X124491600Y-41579800D02*
G75*
G03*
X124491600Y-41579800I-1200000J0D01*
G01*
X128995700Y-103115342D02*
X128995700Y-103589858D01*
X127950700Y-103115342D02*
X127950700Y-103589858D01*
X157777400Y-121223000D02*
X157777400Y-117773000D01*
X157777400Y-121223000D02*
X157777400Y-123173000D01*
X152657400Y-121223000D02*
X152657400Y-119273000D01*
X152657400Y-121223000D02*
X152657400Y-123173000D01*
X193834000Y-100826400D02*
X193834000Y-98106400D01*
X193834000Y-100826400D02*
X188854000Y-100826400D01*
X193834000Y-98106400D02*
X188854000Y-98106400D01*
X162282136Y-120753200D02*
X162736264Y-120753200D01*
X162282136Y-122223200D02*
X162736264Y-122223200D01*
X154665000Y-106978564D02*
X154665000Y-107194236D01*
X153945000Y-106978564D02*
X153945000Y-107194236D01*
X117906800Y-102387400D02*
X118846600Y-102387400D01*
X139977400Y-106871380D02*
X139977400Y-106590220D01*
X140997400Y-106871380D02*
X140997400Y-106590220D01*
X133567700Y-73651342D02*
X133567700Y-74125858D01*
X132522700Y-73651342D02*
X132522700Y-74125858D01*
X134265936Y-78513000D02*
X134720064Y-78513000D01*
X134265936Y-79983000D02*
X134720064Y-79983000D01*
X174334700Y-92677842D02*
X174334700Y-93152358D01*
X173289700Y-92677842D02*
X173289700Y-93152358D01*
X158739600Y-105241800D02*
X163879600Y-105241800D01*
X158739600Y-105241800D02*
X158739600Y-102581800D01*
X163879600Y-105241800D02*
X163879600Y-102581800D01*
X156139600Y-103911800D02*
X156139600Y-102581800D01*
X156139600Y-102581800D02*
X157469600Y-102581800D01*
X158739600Y-102581800D02*
X163879600Y-102581800D01*
X194245600Y-66749600D02*
X194245600Y-65279600D01*
X194245600Y-65279600D02*
X191960600Y-65279600D01*
X191960600Y-66749600D02*
X194245600Y-66749600D01*
X137818400Y-111468780D02*
X137818400Y-111187620D01*
X138838400Y-111468780D02*
X138838400Y-111187620D01*
X184012100Y-94682542D02*
X184012100Y-95157058D01*
X182967100Y-94682542D02*
X182967100Y-95157058D01*
X197140800Y-129329200D02*
X202250800Y-129329200D01*
X197140800Y-101709200D02*
X197140800Y-129329200D01*
X202250800Y-101709200D02*
X197140800Y-101709200D01*
X112083600Y-77024400D02*
X112083600Y-79744400D01*
X112083600Y-77024400D02*
X117063600Y-77024400D01*
X112083600Y-79744400D02*
X117063600Y-79744400D01*
X118116200Y-128549400D02*
G75*
G03*
X118116200Y-128549400I-1200000J0D01*
G01*
X122036100Y-103547142D02*
X122036100Y-104021658D01*
X120991100Y-103547142D02*
X120991100Y-104021658D01*
X157907237Y-53164400D02*
X160792800Y-53164400D01*
X157907237Y-53164400D02*
X156842800Y-52099963D01*
X166298363Y-53164400D02*
X163412800Y-53164400D01*
X166298363Y-53164400D02*
X167362800Y-52099963D01*
X156842800Y-52099963D02*
X156842800Y-42644400D01*
X167362800Y-52099963D02*
X167362800Y-42644400D01*
X156842800Y-42644400D02*
X160792800Y-42644400D01*
X167362800Y-42644400D02*
X163412800Y-42644400D01*
X124875058Y-104713300D02*
X124400542Y-104713300D01*
X124875058Y-103668300D02*
X124400542Y-103668300D01*
X151201800Y-123323236D02*
X151201800Y-123107564D01*
X151921800Y-123323236D02*
X151921800Y-123107564D01*
X148910800Y-42723700D02*
X148903200Y-38708700D01*
X136519400Y-42724600D02*
X148899400Y-42724600D01*
X136519400Y-42724600D02*
X136511800Y-38709600D01*
X139786579Y-114403600D02*
X139461021Y-114403600D01*
X139786579Y-113383600D02*
X139461021Y-113383600D01*
X185511000Y-91617800D02*
X185511000Y-93292800D01*
X185511000Y-91617800D02*
X185511000Y-90967800D01*
X188631000Y-91617800D02*
X188631000Y-92267800D01*
X188631000Y-91617800D02*
X188631000Y-90967800D01*
X111836200Y-63271400D02*
X110896400Y-63271400D01*
X149043400Y-126135500D02*
X149051000Y-130150500D01*
X161434800Y-126134600D02*
X149054800Y-126134600D01*
X161434800Y-126134600D02*
X161442400Y-130149600D01*
X148193000Y-47813400D02*
X146193000Y-47813400D01*
X148193000Y-47813400D02*
X148193000Y-51713400D01*
X146193000Y-47813400D02*
X146193000Y-51713400D01*
X133566800Y-97057200D02*
X133566800Y-90557200D01*
X133566800Y-97057200D02*
X114366800Y-97057200D01*
X133566800Y-88157200D02*
X133566800Y-81657200D01*
X129466800Y-89357200D02*
X130366800Y-89357200D01*
X129466800Y-89357200D02*
X129466800Y-85657200D01*
X128566800Y-90857200D02*
X123566800Y-90857200D01*
X128566800Y-87857200D02*
X128566800Y-90857200D01*
X128366800Y-83357200D02*
X126066800Y-83357200D01*
X126066800Y-95357200D02*
X128366800Y-95357200D01*
X126066800Y-95357200D02*
X126066800Y-90857200D01*
X126066800Y-87857200D02*
X126066800Y-83357200D01*
X123566800Y-90857200D02*
X123566800Y-87857200D01*
X123566800Y-87857200D02*
X128566800Y-90857200D01*
X123566800Y-87857200D02*
X128566800Y-87857200D01*
X122566800Y-89357200D02*
X122566800Y-85657200D01*
X122566800Y-89357200D02*
X121066800Y-89357200D01*
X122566800Y-85657200D02*
X129466800Y-85657200D01*
X121066800Y-89357200D02*
X116566800Y-92057200D01*
X117866800Y-93657200D02*
X117866800Y-91357200D01*
X117866800Y-85057200D02*
X117866800Y-87357200D01*
X114366800Y-97057200D02*
X114366800Y-81657200D01*
X114366800Y-81657200D02*
X133566800Y-81657200D01*
X111194600Y-72147600D02*
X111194600Y-74867600D01*
X111194600Y-72147600D02*
X116174600Y-72147600D01*
X111194600Y-74867600D02*
X116174600Y-74867600D01*
X197000600Y-98290400D02*
X202110600Y-98290400D01*
X197000600Y-70670400D02*
X197000600Y-98290400D01*
X202110600Y-70670400D02*
X197000600Y-70670400D01*
X111823000Y-89077800D02*
X110883200Y-89077800D01*
X187282858Y-95645500D02*
X186808342Y-95645500D01*
X187282858Y-94600500D02*
X186808342Y-94600500D01*
X122175600Y-113469052D02*
X122175600Y-112946548D01*
X123645600Y-113469052D02*
X123645600Y-112946548D01*
X184224600Y-89802600D02*
X182754600Y-89802600D01*
X182754600Y-89802600D02*
X182754600Y-92087600D01*
X184224600Y-92087600D02*
X184224600Y-89802600D01*
X126760500Y-74057742D02*
X126760500Y-74532258D01*
X125715500Y-74057742D02*
X125715500Y-74532258D01*
X155084164Y-116367200D02*
X155299836Y-116367200D01*
X155084164Y-117087200D02*
X155299836Y-117087200D01*
X169424200Y-128676400D02*
G75*
G03*
X169424200Y-128676400I-1200000J0D01*
G01*
X168859600Y-102282000D02*
X168859600Y-108782000D01*
X168859600Y-102282000D02*
X188059600Y-102282000D01*
X168859600Y-111182000D02*
X168859600Y-117682000D01*
X172959600Y-109982000D02*
X172059600Y-109982000D01*
X172959600Y-109982000D02*
X172959600Y-113682000D01*
X173859600Y-108482000D02*
X178859600Y-108482000D01*
X173859600Y-111482000D02*
X173859600Y-108482000D01*
X174059600Y-115982000D02*
X176359600Y-115982000D01*
X176359600Y-103982000D02*
X174059600Y-103982000D01*
X176359600Y-103982000D02*
X176359600Y-108482000D01*
X176359600Y-111482000D02*
X176359600Y-115982000D01*
X178859600Y-108482000D02*
X178859600Y-111482000D01*
X178859600Y-111482000D02*
X173859600Y-108482000D01*
X178859600Y-111482000D02*
X173859600Y-111482000D01*
X179859600Y-109982000D02*
X179859600Y-113682000D01*
X179859600Y-109982000D02*
X181359600Y-109982000D01*
X179859600Y-113682000D02*
X172959600Y-113682000D01*
X181359600Y-109982000D02*
X185859600Y-107282000D01*
X184559600Y-105682000D02*
X184559600Y-107982000D01*
X184559600Y-114282000D02*
X184559600Y-111982000D01*
X188059600Y-102282000D02*
X188059600Y-117682000D01*
X188059600Y-117682000D02*
X168859600Y-117682000D01*
X165190400Y-116805400D02*
X165190400Y-118135400D01*
X163860400Y-116805400D02*
X165190400Y-116805400D01*
X162590400Y-116805400D02*
X159990400Y-116805400D01*
X162590400Y-116805400D02*
X162590400Y-119465400D01*
X159990400Y-116805400D02*
X159990400Y-119465400D01*
X162590400Y-119465400D02*
X159990400Y-119465400D01*
X123154000Y-100406200D02*
X123154000Y-102081200D01*
X123154000Y-100406200D02*
X123154000Y-99756200D01*
X126274000Y-100406200D02*
X126274000Y-101056200D01*
X126274000Y-100406200D02*
X126274000Y-99756200D01*
X122783600Y-72644000D02*
X123723400Y-72644000D01*
X141676800Y-111334436D02*
X141676800Y-111118764D01*
X142396800Y-111334436D02*
X142396800Y-111118764D01*
X126959800Y-69381000D02*
X125489800Y-69381000D01*
X125489800Y-69381000D02*
X125489800Y-71666000D01*
X126959800Y-71666000D02*
X126959800Y-69381000D01*
X120681600Y-41579800D02*
G75*
G03*
X120681600Y-41579800I-1200000J0D01*
G01*
X106762400Y-113157000D02*
G75*
G03*
X106762400Y-113157000I-1200000J0D01*
G01*
X125507600Y-128600200D02*
G75*
G03*
X125507600Y-128600200I-1200000J0D01*
G01*
X180565000Y-119365900D02*
X179095000Y-119365900D01*
X179095000Y-119365900D02*
X179095000Y-121650900D01*
X180565000Y-121650900D02*
X180565000Y-119365900D01*
X140565236Y-89632300D02*
X140349564Y-89632300D01*
X140565236Y-88912300D02*
X140349564Y-88912300D01*
X109081600Y-53474600D02*
X103971600Y-53474600D01*
X109081600Y-81094600D02*
X109081600Y-53474600D01*
X103971600Y-81094600D02*
X109081600Y-81094600D01*
X146127200Y-99518441D02*
X146127200Y-99211159D01*
X146887200Y-99518441D02*
X146887200Y-99211159D01*
X176388800Y-122705100D02*
X177328600Y-122705100D01*
X196655458Y-66537100D02*
X196180942Y-66537100D01*
X196655458Y-65492100D02*
X196180942Y-65492100D01*
X129063600Y-128651000D02*
G75*
G03*
X129063600Y-128651000I-1200000J0D01*
G01*
X137686800Y-107593400D02*
X137686800Y-104293400D01*
X137686800Y-104293400D02*
X133686800Y-104293400D01*
G36*
X157351680Y-84814064D02*
G01*
X157331063Y-84834681D01*
X157310446Y-84814064D01*
X157331063Y-84793447D01*
X157351680Y-84814064D01*
G37*
G36*
X158341291Y-76773479D02*
G01*
X158341291Y-77082733D01*
X157537232Y-77082733D01*
X156733174Y-77082733D01*
X156733174Y-76773479D01*
X156733174Y-76464226D01*
X157537232Y-76464226D01*
X158341291Y-76464226D01*
X158341291Y-76773479D01*
G37*
G36*
X156392305Y-76435687D02*
G01*
X156504813Y-76509250D01*
X156524012Y-76531638D01*
X156595456Y-76676663D01*
X156607267Y-76834761D01*
X156560013Y-76977378D01*
X156514039Y-77034311D01*
X156383142Y-77110087D01*
X156245946Y-77115052D01*
X156123041Y-77056358D01*
X156035020Y-76941153D01*
X156009454Y-76859104D01*
X156010104Y-76701991D01*
X156064303Y-76571172D01*
X156156461Y-76476568D01*
X156270992Y-76428100D01*
X156392305Y-76435687D01*
G37*
G36*
X156968322Y-70880937D02*
G01*
X157147595Y-70883874D01*
X157260008Y-70891561D01*
X157321129Y-70911375D01*
X157346524Y-70950692D01*
X157351758Y-71016889D01*
X157351680Y-71062603D01*
X157362771Y-71195032D01*
X157403871Y-71287427D01*
X157486727Y-71346499D01*
X157623081Y-71378959D01*
X157824679Y-71391518D01*
X157928953Y-71392473D01*
X158341291Y-71392473D01*
X158341291Y-71691418D01*
X158341292Y-71990362D01*
X157540131Y-71990362D01*
X156738970Y-71990362D01*
X156725763Y-71691322D01*
X156712557Y-71392281D01*
X156829615Y-71392377D01*
X156946673Y-71392473D01*
X156839924Y-71265608D01*
X156771654Y-71173419D01*
X156734718Y-71102055D01*
X156732611Y-71090364D01*
X156722041Y-71011883D01*
X156710048Y-70959518D01*
X156704674Y-70916028D01*
X156728764Y-70891705D01*
X156798821Y-70881527D01*
X156931350Y-70880474D01*
X156968322Y-70880937D01*
G37*
G36*
X158198971Y-72785750D02*
G01*
X158277465Y-72808278D01*
X158320246Y-72852747D01*
X158339000Y-72924355D01*
X158345415Y-73028302D01*
X158348537Y-73116449D01*
X158361907Y-73433544D01*
X157853606Y-73420833D01*
X157612822Y-73417477D01*
X157442439Y-73423942D01*
X157330610Y-73444020D01*
X157265489Y-73481507D01*
X157235229Y-73540195D01*
X157227979Y-73621200D01*
X157236857Y-73716205D01*
X157271329Y-73783369D01*
X157343149Y-73827333D01*
X157464071Y-73852735D01*
X157645850Y-73864217D01*
X157849431Y-73866499D01*
X158341291Y-73866499D01*
X158345593Y-74041742D01*
X158350821Y-74194613D01*
X158358063Y-74342061D01*
X158359257Y-74361304D01*
X158368619Y-74505622D01*
X157550896Y-74493658D01*
X156733174Y-74481694D01*
X156733174Y-74174097D01*
X156736359Y-74011914D01*
X156747973Y-73916872D01*
X156771104Y-73873818D01*
X156795862Y-73866499D01*
X156829125Y-73855210D01*
X156824503Y-73809613D01*
X156779775Y-73712113D01*
X156775246Y-73703206D01*
X156703202Y-73484916D01*
X156709529Y-73276553D01*
X156791673Y-73088787D01*
X156947077Y-72932287D01*
X156962486Y-72921513D01*
X157033170Y-72878940D01*
X157110290Y-72848904D01*
X157211519Y-72828141D01*
X157354530Y-72813389D01*
X157556995Y-72801383D01*
X157632346Y-72797812D01*
X157888099Y-72785717D01*
X158073078Y-72779963D01*
X158198971Y-72785750D01*
G37*
G36*
X157737214Y-84103316D02*
G01*
X157961081Y-84175279D01*
X158128382Y-84281822D01*
X158239485Y-84393520D01*
X158306227Y-84513736D01*
X158345405Y-84651409D01*
X158372006Y-84789303D01*
X158372784Y-84884138D01*
X158344362Y-84972208D01*
X158309020Y-85042286D01*
X158259541Y-85144874D01*
X158252861Y-85194160D01*
X158281520Y-85205785D01*
X158309045Y-85211295D01*
X158327840Y-85237210D01*
X158340214Y-85297603D01*
X158348474Y-85406545D01*
X158354928Y-85578112D01*
X158357582Y-85669614D01*
X158361907Y-85824191D01*
X157528530Y-85824229D01*
X157279521Y-85824241D01*
X156197135Y-85824291D01*
X156197135Y-85515038D01*
X156197135Y-85205785D01*
X156522560Y-85205785D01*
X156847985Y-85205785D01*
X156769963Y-85052748D01*
X156721761Y-84893968D01*
X157253271Y-84893968D01*
X157258654Y-85023142D01*
X157325419Y-85130151D01*
X157444028Y-85194874D01*
X157528530Y-85205153D01*
X157659799Y-85190839D01*
X157744253Y-85137738D01*
X157796876Y-85061466D01*
X157824109Y-84937423D01*
X157781563Y-84816070D01*
X157731356Y-84762522D01*
X157640615Y-84725384D01*
X157517939Y-84712558D01*
X157399503Y-84724022D01*
X157321484Y-84759756D01*
X157318810Y-84762752D01*
X157253271Y-84893968D01*
X156721761Y-84893968D01*
X156706209Y-84842738D01*
X156721425Y-84627769D01*
X156813771Y-84419346D01*
X156886616Y-84323097D01*
X157051159Y-84193382D01*
X157261565Y-84113055D01*
X157497146Y-84082804D01*
X157737214Y-84103316D01*
G37*
G36*
X157126577Y-75219967D02*
G01*
X157192250Y-75240715D01*
X157220980Y-75283451D01*
X157227886Y-75353768D01*
X157227979Y-75371531D01*
X157227979Y-75515850D01*
X157512145Y-75515850D01*
X157662437Y-75513888D01*
X157750155Y-75503523D01*
X157795179Y-75478034D01*
X157817384Y-75430701D01*
X157822660Y-75410869D01*
X157834135Y-75317618D01*
X157824697Y-75266551D01*
X157848584Y-75245234D01*
X157941640Y-75231449D01*
X158070838Y-75227213D01*
X158341291Y-75227213D01*
X158337572Y-75443690D01*
X158328131Y-75596982D01*
X158308467Y-75737720D01*
X158296961Y-75787223D01*
X158246415Y-75900974D01*
X158184420Y-75982739D01*
X158085273Y-76036536D01*
X157925468Y-76083425D01*
X157726783Y-76118778D01*
X157510996Y-76137971D01*
X157444456Y-76139911D01*
X157317486Y-76145369D01*
X157252698Y-76162907D01*
X157229883Y-76201062D01*
X157227898Y-76231396D01*
X157217261Y-76287206D01*
X157170809Y-76311780D01*
X157066527Y-76315667D01*
X157052655Y-76315339D01*
X156891810Y-76309625D01*
X156796453Y-76299628D01*
X156749611Y-76280473D01*
X156734305Y-76247284D01*
X156733174Y-76223583D01*
X156715922Y-76173433D01*
X156651047Y-76148646D01*
X156559964Y-76141088D01*
X156445334Y-76130055D01*
X156368488Y-76110685D01*
X156357007Y-76103403D01*
X156340434Y-76049428D01*
X156325061Y-75936849D01*
X156314099Y-75789506D01*
X156313739Y-75781990D01*
X156300219Y-75491474D01*
X156521058Y-75502380D01*
X156741897Y-75513286D01*
X156725198Y-75370249D01*
X156720243Y-75273983D01*
X156747698Y-75233118D01*
X156823921Y-75222059D01*
X157008841Y-75215612D01*
X157126577Y-75219967D01*
G37*
G36*
X158227898Y-66395618D02*
G01*
X158291992Y-66408092D01*
X158325836Y-66440588D01*
X158339059Y-66514170D01*
X158341291Y-66643663D01*
X158319758Y-66862411D01*
X158264961Y-67022337D01*
X158170475Y-67150086D01*
X158039507Y-67231622D01*
X157856562Y-67274086D01*
X157696773Y-67284244D01*
X157561810Y-67292661D01*
X157467043Y-67309279D01*
X157434155Y-67328885D01*
X157411816Y-67339258D01*
X157384667Y-67318577D01*
X157303798Y-67270393D01*
X157246828Y-67298010D01*
X157227854Y-67382489D01*
X157223539Y-67445341D01*
X157197814Y-67479542D01*
X157131243Y-67494235D01*
X157004391Y-67498562D01*
X156980452Y-67498864D01*
X156843208Y-67498128D01*
X156769094Y-67486916D01*
X156738841Y-67458059D01*
X156733174Y-67406873D01*
X156700095Y-67324548D01*
X156599226Y-67283590D01*
X156444537Y-67281524D01*
X156391261Y-67281601D01*
X156359496Y-67259869D01*
X156342449Y-67199183D01*
X156333327Y-67082400D01*
X156329338Y-66990768D01*
X156317223Y-66691824D01*
X156473656Y-66686938D01*
X156589811Y-66685389D01*
X156673329Y-66687894D01*
X156681632Y-66688746D01*
X156719378Y-66656726D01*
X156733168Y-66554743D01*
X156733174Y-66552052D01*
X156741795Y-66453477D01*
X156780760Y-66409563D01*
X156846567Y-66395618D01*
X156973117Y-66390823D01*
X157093969Y-66397390D01*
X157185318Y-66416308D01*
X157221791Y-66463882D01*
X157227979Y-66552219D01*
X157227979Y-66692229D01*
X157485690Y-66687191D01*
X157664740Y-66675667D01*
X157775627Y-66645117D01*
X157831734Y-66588809D01*
X157846485Y-66505734D01*
X157863699Y-66437368D01*
X157930401Y-66404915D01*
X157980495Y-66397390D01*
X158115527Y-66390721D01*
X158227898Y-66395618D01*
G37*
G36*
X156797086Y-82149001D02*
G01*
X156847933Y-82177439D01*
X156959727Y-82230253D01*
X157117136Y-82300479D01*
X157304827Y-82381154D01*
X157351680Y-82400880D01*
X157558672Y-82488151D01*
X157753257Y-82571040D01*
X157915014Y-82640794D01*
X158023524Y-82688659D01*
X158032037Y-82692535D01*
X158251664Y-82791295D01*
X158468845Y-82885758D01*
X158669265Y-82970030D01*
X158838611Y-83038219D01*
X158962567Y-83084432D01*
X159026819Y-83102774D01*
X159028758Y-83102862D01*
X159080855Y-83121706D01*
X159086341Y-83133788D01*
X159089643Y-83200016D01*
X159093012Y-83314844D01*
X159096040Y-83454796D01*
X159098324Y-83596399D01*
X159099458Y-83716178D01*
X159099035Y-83790659D01*
X159097912Y-83803852D01*
X159060413Y-83787739D01*
X158964501Y-83744380D01*
X158826575Y-83681227D01*
X158726809Y-83635241D01*
X158561420Y-83560759D01*
X158417954Y-83499664D01*
X158317011Y-83460559D01*
X158286995Y-83451526D01*
X158209426Y-83459394D01*
X158089440Y-83495707D01*
X157998359Y-83532701D01*
X157873640Y-83587560D01*
X157697284Y-83663398D01*
X157493873Y-83749712D01*
X157310446Y-83826646D01*
X157124255Y-83905618D01*
X156963622Y-83976288D01*
X156845227Y-84031146D01*
X156785746Y-84062679D01*
X156784716Y-84063434D01*
X156758861Y-84065600D01*
X156742918Y-84016964D01*
X156735019Y-83906427D01*
X156733234Y-83757343D01*
X156733294Y-83412116D01*
X157148827Y-83253872D01*
X157315838Y-83188862D01*
X157448195Y-83134643D01*
X157530799Y-83097579D01*
X157550796Y-83084432D01*
X157508487Y-83067439D01*
X157405012Y-83030430D01*
X157257454Y-82979424D01*
X157135203Y-82937984D01*
X156733174Y-82802732D01*
X156728472Y-82571385D01*
X156723368Y-82418939D01*
X156715477Y-82282983D01*
X156710326Y-82226645D01*
X156712944Y-82134990D01*
X156750668Y-82117316D01*
X156797086Y-82149001D01*
G37*
G36*
X157247075Y-77344937D02*
G01*
X157506307Y-77349283D01*
X157751161Y-77353533D01*
X157967420Y-77357690D01*
X158141648Y-77361461D01*
X158260409Y-77364557D01*
X158310270Y-77366687D01*
X158310365Y-77366701D01*
X158325632Y-77406881D01*
X158336683Y-77508197D01*
X158341270Y-77649341D01*
X158341291Y-77660005D01*
X158337745Y-77816379D01*
X158324878Y-77905913D01*
X158299341Y-77944020D01*
X158278602Y-77948642D01*
X158245339Y-77959931D01*
X158249961Y-78005528D01*
X158294690Y-78103027D01*
X158299219Y-78111934D01*
X158361369Y-78266411D01*
X158374076Y-78411154D01*
X158340243Y-78584663D01*
X158335981Y-78599665D01*
X158259401Y-78758537D01*
X158122288Y-78894669D01*
X157952905Y-78999887D01*
X157752837Y-79067255D01*
X157524971Y-79083440D01*
X157521582Y-79082994D01*
X157291906Y-79052767D01*
X157076241Y-78979558D01*
X156900576Y-78868137D01*
X156823063Y-78783740D01*
X156733239Y-78594051D01*
X156705325Y-78381865D01*
X156729236Y-78247305D01*
X157239811Y-78247305D01*
X157313296Y-78366614D01*
X157333797Y-78388078D01*
X157427182Y-78460773D01*
X157521582Y-78475343D01*
X157566121Y-78468594D01*
X157685584Y-78418896D01*
X157786379Y-78334020D01*
X157842327Y-78238256D01*
X157846485Y-78208478D01*
X157819275Y-78142198D01*
X157752991Y-78057734D01*
X157745275Y-78049852D01*
X157614053Y-77964834D01*
X157474240Y-77961555D01*
X157336624Y-78034102D01*
X157247577Y-78137765D01*
X157239811Y-78247305D01*
X156729236Y-78247305D01*
X156741724Y-78177025D01*
X156769180Y-78114349D01*
X156818125Y-78011288D01*
X156825672Y-77961548D01*
X156794363Y-77948642D01*
X156761574Y-77935136D01*
X156740523Y-77885561D01*
X156728890Y-77786326D01*
X156724356Y-77623844D01*
X156724011Y-77536304D01*
X156723796Y-77466769D01*
X156730410Y-77415638D01*
X156754745Y-77380309D01*
X156807688Y-77358178D01*
X156900131Y-77346641D01*
X157042964Y-77343095D01*
X157247075Y-77344937D01*
G37*
G36*
X157280978Y-69158527D02*
G01*
X157285344Y-69162127D01*
X157372617Y-69190552D01*
X157415303Y-69175576D01*
X157508521Y-69152838D01*
X157582397Y-69156509D01*
X157623638Y-69166985D01*
X157651488Y-69189110D01*
X157668576Y-69236921D01*
X157677530Y-69324455D01*
X157680979Y-69465749D01*
X157681550Y-69674842D01*
X157681550Y-69686079D01*
X157682985Y-69902820D01*
X157688317Y-70049690D01*
X157699090Y-70139249D01*
X157716847Y-70184058D01*
X157743132Y-70196681D01*
X157744285Y-70196694D01*
X157806124Y-70162836D01*
X157853912Y-70093777D01*
X157878908Y-70003083D01*
X157845632Y-69930578D01*
X157832411Y-69915286D01*
X157795050Y-69850192D01*
X157773445Y-69745210D01*
X157764631Y-69582547D01*
X157764018Y-69504861D01*
X157764018Y-69170009D01*
X157934514Y-69260705D01*
X158141016Y-69415750D01*
X158289398Y-69626769D01*
X158335596Y-69738967D01*
X158368266Y-69860960D01*
X158375326Y-69977032D01*
X158356257Y-70118222D01*
X158327024Y-70248854D01*
X158232913Y-70469575D01*
X158074162Y-70648495D01*
X157893119Y-70758058D01*
X157709120Y-70804376D01*
X157493349Y-70811535D01*
X157283558Y-70782825D01*
X157278394Y-70782118D01*
X157096843Y-70718713D01*
X157050423Y-70691187D01*
X156872144Y-70521748D01*
X156757463Y-70307673D01*
X156710095Y-70061027D01*
X156713774Y-70019490D01*
X157193744Y-70019490D01*
X157229430Y-70116937D01*
X157283558Y-70188738D01*
X157323395Y-70182945D01*
X157344948Y-70103787D01*
X157346461Y-69992958D01*
X157337822Y-69873690D01*
X157320726Y-69820694D01*
X157286802Y-69817775D01*
X157261955Y-69829474D01*
X157198784Y-69905135D01*
X157193744Y-70019490D01*
X156713774Y-70019490D01*
X156733758Y-69793877D01*
X156752020Y-69722495D01*
X156835142Y-69529822D01*
X156955160Y-69371482D01*
X157095282Y-69267353D01*
X157155702Y-69244667D01*
X157222721Y-69205920D01*
X157235961Y-69165528D01*
X157237443Y-69131751D01*
X157280978Y-69158527D01*
G37*
G36*
X157284592Y-67628091D02*
G01*
X157298041Y-67679912D01*
X157307391Y-67789263D01*
X157310446Y-67915092D01*
X157305436Y-68066434D01*
X157288468Y-68149024D01*
X157256634Y-68176077D01*
X157253007Y-68176239D01*
X157189704Y-68212885D01*
X157151037Y-68305687D01*
X157145511Y-68365163D01*
X157174695Y-68413364D01*
X157234392Y-68419832D01*
X157282823Y-68382518D01*
X157286808Y-68372100D01*
X157364051Y-68117156D01*
X157430309Y-67930625D01*
X157493396Y-67800623D01*
X157561127Y-67715265D01*
X157641316Y-67662670D01*
X157741777Y-67630952D01*
X157779177Y-67623328D01*
X157959442Y-67625244D01*
X158113181Y-67695090D01*
X158235049Y-67821091D01*
X158319702Y-67991477D01*
X158361796Y-68194475D01*
X158355984Y-68418313D01*
X158296923Y-68651217D01*
X158272761Y-68710504D01*
X158161976Y-68886733D01*
X158018070Y-69000491D01*
X157853407Y-69042115D01*
X157848533Y-69042148D01*
X157804168Y-69034847D01*
X157778756Y-69001143D01*
X157767113Y-68923335D01*
X157764056Y-68783722D01*
X157764018Y-68753512D01*
X157767747Y-68596236D01*
X157781036Y-68506264D01*
X157807042Y-68468684D01*
X157825083Y-68464875D01*
X157879574Y-68430048D01*
X157913621Y-68349737D01*
X157917713Y-68260198D01*
X157892947Y-68206207D01*
X157843892Y-68182307D01*
X157799577Y-68221955D01*
X157754501Y-68332402D01*
X157728013Y-68423642D01*
X157647676Y-68674590D01*
X157562256Y-68846693D01*
X157469883Y-68943509D01*
X157448699Y-68954942D01*
X157262828Y-68998065D01*
X157067773Y-68974449D01*
X156982751Y-68940189D01*
X156883547Y-68854570D01*
X156790565Y-68718391D01*
X156720992Y-68562829D01*
X156692015Y-68419059D01*
X156691940Y-68412653D01*
X156707462Y-68238041D01*
X156748330Y-68060256D01*
X156805999Y-67908105D01*
X156870095Y-67812085D01*
X156961055Y-67744151D01*
X157074010Y-67682109D01*
X157183276Y-67637359D01*
X157263169Y-67621302D01*
X157284592Y-67628091D01*
G37*
G36*
X153238612Y-77857835D02*
G01*
X153459649Y-77863747D01*
X153648583Y-77872109D01*
X153791463Y-77882034D01*
X153874340Y-77892641D01*
X153889471Y-77899068D01*
X153889956Y-77945029D01*
X153890774Y-78065079D01*
X153891881Y-78250842D01*
X153893231Y-78493940D01*
X153894779Y-78785996D01*
X153896479Y-79118634D01*
X153898285Y-79483475D01*
X153899780Y-79793859D01*
X153908661Y-81659693D01*
X153413856Y-81660555D01*
X152647298Y-81661691D01*
X151940433Y-81662333D01*
X151295467Y-81662488D01*
X150714609Y-81662163D01*
X150200065Y-81661364D01*
X149754045Y-81660098D01*
X149378755Y-81658372D01*
X149076403Y-81656194D01*
X148849198Y-81653569D01*
X148699347Y-81650504D01*
X148629057Y-81647007D01*
X148623744Y-81645813D01*
X148620440Y-81602794D01*
X148617328Y-81486900D01*
X148614452Y-81307727D01*
X148611857Y-81074867D01*
X148609587Y-80797914D01*
X148607687Y-80486463D01*
X148606200Y-80150107D01*
X148605172Y-79798439D01*
X148604646Y-79441053D01*
X148604667Y-79087543D01*
X148605279Y-78747503D01*
X148606527Y-78430526D01*
X148607884Y-78216661D01*
X148610080Y-77928025D01*
X149234001Y-77936855D01*
X149451960Y-77941011D01*
X149639064Y-77946611D01*
X149780591Y-77953054D01*
X149861821Y-77959741D01*
X149875261Y-77963024D01*
X149879822Y-78007217D01*
X149883839Y-78122950D01*
X149887152Y-78299296D01*
X149889606Y-78525328D01*
X149891044Y-78790118D01*
X149891312Y-79077814D01*
X149890025Y-80175265D01*
X150239684Y-80175265D01*
X150589343Y-80175265D01*
X150589284Y-79216580D01*
X150589226Y-78257895D01*
X150939771Y-78267364D01*
X151128399Y-78268212D01*
X151242286Y-78257895D01*
X151288506Y-78235621D01*
X151290317Y-78228191D01*
X151303482Y-78201030D01*
X151339797Y-78229031D01*
X151406986Y-78257172D01*
X151524818Y-78275096D01*
X151607817Y-78278512D01*
X151826356Y-78278512D01*
X151826356Y-79226888D01*
X151826356Y-80175265D01*
X152219312Y-80175265D01*
X152612269Y-80175265D01*
X152600725Y-79010411D01*
X152589180Y-77845557D01*
X153238612Y-77857835D01*
G37*
G36*
X151390565Y-96162461D02*
G01*
X151840214Y-96164501D01*
X152258625Y-96167789D01*
X152623826Y-96172246D01*
X152729284Y-96173966D01*
X153900233Y-96194583D01*
X153904447Y-96964219D01*
X153904008Y-97267648D01*
X153898967Y-97491761D01*
X153889369Y-97635680D01*
X153875256Y-97698526D01*
X153867427Y-97700108D01*
X153812325Y-97686836D01*
X153693317Y-97676617D01*
X153525535Y-97669388D01*
X153324111Y-97665088D01*
X153104178Y-97663655D01*
X152880866Y-97665026D01*
X152669308Y-97669141D01*
X152484636Y-97675938D01*
X152341981Y-97685354D01*
X152256475Y-97697328D01*
X152238693Y-97706761D01*
X152216423Y-97725693D01*
X152179536Y-97701851D01*
X152099173Y-97671324D01*
X151987023Y-97665572D01*
X151983676Y-97665877D01*
X151846972Y-97678999D01*
X151836734Y-98441824D01*
X151834601Y-98690471D01*
X151834925Y-98915697D01*
X151837505Y-99102478D01*
X151842143Y-99235791D01*
X151848121Y-99298592D01*
X151869746Y-99392535D01*
X152862480Y-99388697D01*
X153139988Y-99388335D01*
X153389059Y-99389368D01*
X153598173Y-99391637D01*
X153755811Y-99394984D01*
X153850451Y-99399249D01*
X153872998Y-99402643D01*
X153879072Y-99447552D01*
X153885235Y-99561709D01*
X153891036Y-99731897D01*
X153896024Y-99944898D01*
X153899721Y-100185286D01*
X153901461Y-100477489D01*
X153898763Y-100691737D01*
X153891415Y-100832435D01*
X153879203Y-100903988D01*
X153864541Y-100913492D01*
X153810387Y-100901071D01*
X153689595Y-100891115D01*
X153515304Y-100883577D01*
X153300656Y-100878409D01*
X153058791Y-100875564D01*
X152802849Y-100874994D01*
X152545973Y-100876651D01*
X152301301Y-100880489D01*
X152081975Y-100886459D01*
X151901135Y-100894515D01*
X151771923Y-100904607D01*
X151707478Y-100916690D01*
X151702654Y-100921315D01*
X151686069Y-100945858D01*
X151647001Y-100920993D01*
X151597547Y-100907277D01*
X151483284Y-100896161D01*
X151300963Y-100887551D01*
X151047333Y-100881349D01*
X150719147Y-100877459D01*
X150313155Y-100875786D01*
X150115492Y-100875723D01*
X149775246Y-100875607D01*
X149462008Y-100874870D01*
X149185108Y-100873583D01*
X148953874Y-100871815D01*
X148777635Y-100869638D01*
X148665720Y-100867122D01*
X148627490Y-100864495D01*
X148622884Y-100821395D01*
X148617572Y-100709236D01*
X148612007Y-100541418D01*
X148606640Y-100331340D01*
X148602425Y-100121238D01*
X148589505Y-99390127D01*
X149569902Y-99390164D01*
X150550300Y-99390200D01*
X150538896Y-98534600D01*
X150527492Y-97678999D01*
X149584402Y-97670541D01*
X149314457Y-97667548D01*
X149073457Y-97663785D01*
X148873171Y-97659523D01*
X148725367Y-97655038D01*
X148641815Y-97650602D01*
X148627521Y-97648292D01*
X148622419Y-97604638D01*
X148616759Y-97491981D01*
X148611010Y-97323777D01*
X148605641Y-97113485D01*
X148601618Y-96905172D01*
X148589505Y-96175843D01*
X150073920Y-96164596D01*
X150485445Y-96162431D01*
X150931651Y-96161745D01*
X151390565Y-96162461D01*
G37*
G36*
X156774407Y-79121917D02*
G01*
X156855615Y-79143928D01*
X156994559Y-79180009D01*
X157175185Y-79226140D01*
X157381436Y-79278298D01*
X157597255Y-79332462D01*
X157806588Y-79384612D01*
X157993376Y-79430725D01*
X158141565Y-79466780D01*
X158235098Y-79488757D01*
X158257846Y-79493448D01*
X158290162Y-79535030D01*
X158315297Y-79634355D01*
X158332189Y-79768775D01*
X158339774Y-79915643D01*
X158336990Y-80052314D01*
X158322775Y-80156139D01*
X158296067Y-80204471D01*
X158291254Y-80205521D01*
X158205230Y-80217053D01*
X158074139Y-80242239D01*
X157921033Y-80275695D01*
X157768965Y-80312039D01*
X157640988Y-80345887D01*
X157599083Y-80359351D01*
X157560154Y-80371858D01*
X157545056Y-80379762D01*
X157560342Y-80404182D01*
X157637425Y-80429926D01*
X157689374Y-80440108D01*
X157844766Y-80466120D01*
X157942202Y-80484935D01*
X158005262Y-80501708D01*
X158052654Y-80519547D01*
X158141752Y-80545729D01*
X158217589Y-80560105D01*
X158266945Y-80569464D01*
X158300021Y-80590638D01*
X158321027Y-80638463D01*
X158334176Y-80727772D01*
X158343680Y-80873402D01*
X158351022Y-81030109D01*
X158353241Y-81171942D01*
X158346239Y-81265327D01*
X158331354Y-81294448D01*
X158328810Y-81292590D01*
X158268441Y-81273211D01*
X158191224Y-81284858D01*
X158139431Y-81318639D01*
X158135122Y-81333326D01*
X158104984Y-81352504D01*
X158076890Y-81346111D01*
X158020769Y-81349214D01*
X157900143Y-81370656D01*
X157730024Y-81406919D01*
X157525425Y-81454483D01*
X157301359Y-81509829D01*
X157072840Y-81569440D01*
X156854879Y-81629796D01*
X156805333Y-81644140D01*
X156768266Y-81646345D01*
X156746529Y-81615643D01*
X156736165Y-81536452D01*
X156733221Y-81393191D01*
X156733174Y-81359845D01*
X156733174Y-81054453D01*
X157089600Y-81001425D01*
X157320790Y-80965992D01*
X157472139Y-80938001D01*
X157545500Y-80913632D01*
X157542727Y-80889068D01*
X157465672Y-80860489D01*
X157316191Y-80824076D01*
X157189231Y-80796169D01*
X156733174Y-80697232D01*
X156729054Y-80549642D01*
X156724915Y-80409986D01*
X156719864Y-80250408D01*
X156718745Y-80216499D01*
X156718158Y-80102248D01*
X156737632Y-80046631D01*
X156793869Y-80025882D01*
X156856875Y-80019924D01*
X156956713Y-80002103D01*
X157012511Y-79972842D01*
X157015023Y-79968125D01*
X157052520Y-79944129D01*
X157063120Y-79948526D01*
X157121348Y-79953890D01*
X157223269Y-79940926D01*
X157340652Y-79916065D01*
X157445267Y-79885734D01*
X157508884Y-79856362D01*
X157516615Y-79845254D01*
X157492363Y-79817906D01*
X157571594Y-79817906D01*
X157577254Y-79842419D01*
X157599083Y-79845395D01*
X157633023Y-79830308D01*
X157626572Y-79817906D01*
X157577637Y-79812971D01*
X157571594Y-79817906D01*
X157492363Y-79817906D01*
X157492205Y-79817728D01*
X157412654Y-79791922D01*
X157268484Y-79765542D01*
X157083661Y-79740406D01*
X156916871Y-79718370D01*
X156814750Y-79692189D01*
X156760431Y-79645354D01*
X156737048Y-79561355D01*
X156727734Y-79423683D01*
X156726181Y-79390487D01*
X156721662Y-79238881D01*
X156727997Y-79154214D01*
X156747902Y-79121360D01*
X156774407Y-79121917D01*
G37*
G36*
X151520900Y-58566699D02*
G01*
X151719474Y-58575238D01*
X151873993Y-58591179D01*
X151966328Y-58614673D01*
X151971399Y-58617417D01*
X152036689Y-58641595D01*
X152142494Y-58668678D01*
X152156226Y-58671608D01*
X152451927Y-58766393D01*
X152754239Y-58922786D01*
X153037896Y-59126340D01*
X153181732Y-59258113D01*
X153436093Y-59548021D01*
X153626171Y-59847284D01*
X153768211Y-60183026D01*
X153805006Y-60298675D01*
X153832234Y-60396143D01*
X153853526Y-60491877D01*
X153869691Y-60597772D01*
X153881539Y-60725721D01*
X153889880Y-60887619D01*
X153895522Y-61095360D01*
X153899276Y-61360837D01*
X153901950Y-61695946D01*
X153902140Y-61725829D01*
X153903460Y-62077399D01*
X153902351Y-62352646D01*
X153898586Y-62557681D01*
X153891937Y-62698620D01*
X153882175Y-62781576D01*
X153869073Y-62812662D01*
X153861657Y-62811060D01*
X153810692Y-62802903D01*
X153681241Y-62795721D01*
X153477279Y-62789567D01*
X153202783Y-62784494D01*
X152861729Y-62780553D01*
X152516473Y-62778196D01*
X152458092Y-62777797D01*
X151995848Y-62776279D01*
X151478973Y-62776051D01*
X151229137Y-62776384D01*
X150775138Y-62776910D01*
X150345898Y-62776800D01*
X149948462Y-62776097D01*
X149589874Y-62774841D01*
X149277181Y-62773074D01*
X149017425Y-62770837D01*
X148817651Y-62768172D01*
X148684906Y-62765121D01*
X148626232Y-62761725D01*
X148624033Y-62761038D01*
X148615772Y-62712945D01*
X148609269Y-62596071D01*
X148605645Y-62465362D01*
X148879244Y-62465362D01*
X151236127Y-62476579D01*
X151736953Y-62478850D01*
X152161630Y-62480406D01*
X152516473Y-62481081D01*
X152807801Y-62480711D01*
X153041929Y-62479131D01*
X153225173Y-62476178D01*
X153363851Y-62471687D01*
X153464278Y-62465492D01*
X153532771Y-62457431D01*
X153575647Y-62447337D01*
X153599222Y-62435048D01*
X153609813Y-62420398D01*
X153611609Y-62414728D01*
X153619499Y-62336778D01*
X153623376Y-62192473D01*
X153623672Y-61997807D01*
X153620818Y-61768774D01*
X153615248Y-61521366D01*
X153607392Y-61271577D01*
X153597682Y-61035401D01*
X153586550Y-60828830D01*
X153574428Y-60667858D01*
X153561773Y-60568609D01*
X153447994Y-60162463D01*
X153280995Y-59817116D01*
X153056458Y-59526964D01*
X152770067Y-59286404D01*
X152425361Y-59093427D01*
X152039950Y-58957517D01*
X151616620Y-58880478D01*
X151175087Y-58862198D01*
X150735067Y-58902565D01*
X150316277Y-59001466D01*
X150042995Y-59106991D01*
X149962779Y-59154908D01*
X149929602Y-59196330D01*
X149904478Y-59215783D01*
X149892174Y-59210247D01*
X149843129Y-59222547D01*
X149752201Y-59277462D01*
X149637670Y-59361203D01*
X149517818Y-59459982D01*
X149410924Y-59560011D01*
X149369597Y-59604407D01*
X149196067Y-59853567D01*
X149054737Y-60157719D01*
X148955125Y-60492570D01*
X148911091Y-60774778D01*
X148902117Y-60916672D01*
X148894106Y-61119206D01*
X148887694Y-61360549D01*
X148883512Y-61618874D01*
X148882374Y-61764388D01*
X148879244Y-62465362D01*
X148605645Y-62465362D01*
X148604501Y-62424081D01*
X148601447Y-62210642D01*
X148600087Y-61969421D01*
X148600399Y-61714085D01*
X148602362Y-61458299D01*
X148605955Y-61215730D01*
X148611156Y-61000046D01*
X148617945Y-60824911D01*
X148626299Y-60703994D01*
X148627239Y-60695245D01*
X148714620Y-60246578D01*
X148869190Y-59845174D01*
X149089376Y-59492763D01*
X149373611Y-59191076D01*
X149720324Y-58941842D01*
X150127945Y-58746791D01*
X150501661Y-58629713D01*
X150648600Y-58603521D01*
X150842121Y-58583972D01*
X151064096Y-58571217D01*
X151296399Y-58565409D01*
X151520900Y-58566699D01*
G37*
G36*
X151629597Y-89713534D02*
G01*
X151923689Y-89767721D01*
X152220142Y-89866215D01*
X152545888Y-90016093D01*
X152565858Y-90026311D01*
X152719333Y-90122139D01*
X152897314Y-90259403D01*
X153082089Y-90421466D01*
X153255943Y-90591686D01*
X153401163Y-90753425D01*
X153500036Y-90890041D01*
X153515454Y-90918355D01*
X153582116Y-91041997D01*
X153643630Y-91143447D01*
X153715945Y-91285683D01*
X153787855Y-91481390D01*
X153850930Y-91701965D01*
X153896737Y-91918804D01*
X153914812Y-92063464D01*
X153926192Y-92204546D01*
X153937233Y-92313305D01*
X153944275Y-92359843D01*
X153943682Y-92417660D01*
X153932198Y-92534416D01*
X153912153Y-92687648D01*
X153905789Y-92730947D01*
X153812709Y-93167713D01*
X153670498Y-93548084D01*
X153472782Y-93886180D01*
X153272963Y-94132876D01*
X152926624Y-94462254D01*
X152560052Y-94713503D01*
X152165568Y-94890003D01*
X151735493Y-94995132D01*
X151262148Y-95032268D01*
X151249083Y-95032323D01*
X151228466Y-95032409D01*
X150887573Y-95017977D01*
X150589001Y-94969526D01*
X150299780Y-94879132D01*
X149986940Y-94738870D01*
X149968408Y-94729559D01*
X149762308Y-94600043D01*
X149538487Y-94417181D01*
X149317009Y-94200934D01*
X149117934Y-93971259D01*
X148961325Y-93748117D01*
X148933489Y-93699940D01*
X148788255Y-93410940D01*
X148688826Y-93144143D01*
X148628202Y-92871465D01*
X148599386Y-92564822D01*
X148597622Y-92484874D01*
X149906117Y-92484874D01*
X149974089Y-92768506D01*
X150103642Y-93020393D01*
X150201539Y-93143715D01*
X150326072Y-93246539D01*
X150502450Y-93349279D01*
X150522499Y-93359614D01*
X150658992Y-93427238D01*
X150767051Y-93470758D01*
X150872319Y-93495470D01*
X151000438Y-93506676D01*
X151177049Y-93509673D01*
X151249083Y-93509764D01*
X151463172Y-93506687D01*
X151619556Y-93495056D01*
X151742850Y-93471249D01*
X151857669Y-93431644D01*
X151898515Y-93414217D01*
X152015666Y-93356335D01*
X152094275Y-93305660D01*
X152114992Y-93280092D01*
X152140069Y-93259256D01*
X152152762Y-93264845D01*
X152201739Y-93251129D01*
X152277064Y-93183532D01*
X152364439Y-93079930D01*
X152449564Y-92958197D01*
X152518139Y-92836207D01*
X152543115Y-92776908D01*
X152587662Y-92585462D01*
X152604719Y-92363454D01*
X152593349Y-92148933D01*
X152562121Y-92005201D01*
X152449510Y-91768566D01*
X152282504Y-91575207D01*
X152049697Y-91413081D01*
X151953907Y-91363120D01*
X151800347Y-91290783D01*
X151681029Y-91245942D01*
X151566198Y-91222251D01*
X151426101Y-91213365D01*
X151249083Y-91212813D01*
X151044694Y-91217889D01*
X150893250Y-91233382D01*
X150765394Y-91264483D01*
X150631771Y-91316386D01*
X150610628Y-91325744D01*
X150341486Y-91486231D01*
X150133161Y-91693429D01*
X149988956Y-91936295D01*
X149912174Y-92203791D01*
X149906117Y-92484874D01*
X148597622Y-92484874D01*
X148594408Y-92339226D01*
X148596140Y-92105542D01*
X148604555Y-91930571D01*
X148622600Y-91790641D01*
X148653219Y-91662085D01*
X148694442Y-91535168D01*
X148759513Y-91379244D01*
X148851491Y-91197805D01*
X148961217Y-91004944D01*
X149079532Y-90814756D01*
X149197275Y-90641334D01*
X149305287Y-90498773D01*
X149394409Y-90401166D01*
X149455480Y-90362608D01*
X149456533Y-90362525D01*
X149510828Y-90335163D01*
X149596714Y-90269468D01*
X149631805Y-90238602D01*
X149758780Y-90146829D01*
X149943799Y-90043687D01*
X150165169Y-89938857D01*
X150401197Y-89842019D01*
X150630190Y-89762852D01*
X150799780Y-89717410D01*
X150882699Y-89708162D01*
X151024588Y-89701068D01*
X151201960Y-89697087D01*
X151310933Y-89696578D01*
X151629597Y-89713534D01*
G37*
G36*
X150108574Y-70348176D02*
G01*
X150166114Y-70371942D01*
X150249098Y-70386465D01*
X150534170Y-70420768D01*
X150758711Y-70465267D01*
X150944634Y-70528101D01*
X151113850Y-70617407D01*
X151288271Y-70741326D01*
X151360620Y-70799303D01*
X151560206Y-70999250D01*
X151713811Y-71241006D01*
X151798923Y-71438030D01*
X151821072Y-71507893D01*
X151838195Y-71591600D01*
X151850902Y-71700063D01*
X151859804Y-71844193D01*
X151865512Y-72034901D01*
X151868636Y-72283098D01*
X151869787Y-72599697D01*
X151869838Y-72705250D01*
X151869838Y-73782596D01*
X152889250Y-73793622D01*
X153908661Y-73804648D01*
X153920847Y-73948966D01*
X153933034Y-74093285D01*
X152941546Y-74087253D01*
X152588340Y-74086837D01*
X152310940Y-74090304D01*
X152110993Y-74097592D01*
X151990150Y-74108643D01*
X151950057Y-74123227D01*
X151928273Y-74141663D01*
X151897503Y-74121617D01*
X151844662Y-74110461D01*
X151722606Y-74101033D01*
X151578953Y-74094880D01*
X151542574Y-74093322D01*
X151315802Y-74087317D01*
X151053530Y-74083006D01*
X150766997Y-74080380D01*
X150467439Y-74079427D01*
X150166096Y-74080137D01*
X149874206Y-74082498D01*
X149603007Y-74086500D01*
X149363738Y-74092132D01*
X149167636Y-74099383D01*
X149025941Y-74108243D01*
X148949890Y-74118699D01*
X148939992Y-74124470D01*
X148915051Y-74136473D01*
X148878378Y-74114098D01*
X148792287Y-74081755D01*
X148713443Y-74082714D01*
X148684428Y-74090436D01*
X148661005Y-74096156D01*
X148642580Y-74092069D01*
X148628557Y-74070368D01*
X148618342Y-74023244D01*
X148611340Y-73942891D01*
X148606956Y-73821502D01*
X148604596Y-73651270D01*
X148603665Y-73424386D01*
X148603632Y-73324083D01*
X148868225Y-73324083D01*
X148869560Y-73497685D01*
X148873430Y-73613414D01*
X148876914Y-73647672D01*
X148902495Y-73784031D01*
X150240724Y-73784031D01*
X151578953Y-73784031D01*
X151578953Y-72738723D01*
X151576824Y-72347180D01*
X151570494Y-72029708D01*
X151560054Y-71788492D01*
X151545589Y-71625715D01*
X151531117Y-71553253D01*
X151404167Y-71304744D01*
X151207002Y-71084413D01*
X150950109Y-70903446D01*
X150894410Y-70873929D01*
X150734606Y-70797756D01*
X150607242Y-70753190D01*
X150476607Y-70731813D01*
X150306988Y-70725207D01*
X150262180Y-70724905D01*
X150080967Y-70727827D01*
X150073920Y-70728663D01*
X149945873Y-70743852D01*
X149821003Y-70781303D01*
X149670458Y-70848508D01*
X149617545Y-70874418D01*
X149383474Y-71009678D01*
X149224215Y-71146178D01*
X149198314Y-71177946D01*
X149123856Y-71272117D01*
X149067472Y-71333610D01*
X149053385Y-71344367D01*
X149022510Y-71391198D01*
X149022459Y-71393225D01*
X149008059Y-71453474D01*
X148974890Y-71544415D01*
X148935659Y-71649028D01*
X148913372Y-71722343D01*
X148905056Y-71797779D01*
X148896913Y-71940042D01*
X148889239Y-72133544D01*
X148882328Y-72362697D01*
X148876476Y-72611916D01*
X148871978Y-72865611D01*
X148869129Y-73108196D01*
X148868225Y-73324083D01*
X148603632Y-73324083D01*
X148603568Y-73133045D01*
X148603710Y-72769439D01*
X148603709Y-72642286D01*
X148603531Y-71603625D01*
X148729813Y-71339024D01*
X148840255Y-71147369D01*
X148972467Y-70976153D01*
X149034274Y-70913886D01*
X149218562Y-70749428D01*
X149350039Y-70636051D01*
X149435647Y-70567994D01*
X149482324Y-70539500D01*
X149487124Y-70538128D01*
X149590385Y-70512779D01*
X149723548Y-70473469D01*
X149859813Y-70428983D01*
X149972379Y-70388103D01*
X149985139Y-70382246D01*
X150053304Y-70382246D01*
X150073920Y-70402862D01*
X150094537Y-70382246D01*
X150073920Y-70361629D01*
X150053304Y-70382246D01*
X149985139Y-70382246D01*
X150034447Y-70359613D01*
X150036481Y-70358089D01*
X150092857Y-70340217D01*
X150108574Y-70348176D01*
G37*
G36*
X148681416Y-83070263D02*
G01*
X148805021Y-83076209D01*
X148997223Y-83081594D01*
X149251087Y-83086330D01*
X149559677Y-83090331D01*
X149916060Y-83093507D01*
X150313300Y-83095771D01*
X150744463Y-83097035D01*
X151202612Y-83097212D01*
X151264500Y-83097150D01*
X151718722Y-83096937D01*
X152148195Y-83097352D01*
X152545878Y-83098348D01*
X152904729Y-83099877D01*
X153217703Y-83101892D01*
X153477759Y-83104346D01*
X153677855Y-83107193D01*
X153810946Y-83110385D01*
X153869991Y-83113874D01*
X153872280Y-83114588D01*
X153879385Y-83160524D01*
X153886355Y-83275167D01*
X153892658Y-83444760D01*
X153897764Y-83655542D01*
X153900700Y-83850855D01*
X153908661Y-84566661D01*
X152568966Y-84554694D01*
X152202641Y-84552526D01*
X151888539Y-84552924D01*
X151632425Y-84555771D01*
X151440061Y-84560955D01*
X151317210Y-84568360D01*
X151269636Y-84577873D01*
X151270103Y-84580496D01*
X151324103Y-84613003D01*
X151434537Y-84668427D01*
X151582022Y-84737246D01*
X151661420Y-84772742D01*
X151859024Y-84860421D01*
X152067258Y-84953755D01*
X152247365Y-85035352D01*
X152279927Y-85050259D01*
X152418068Y-85112286D01*
X152528235Y-85159205D01*
X152587738Y-85181374D01*
X152589180Y-85181702D01*
X152645935Y-85204022D01*
X152750145Y-85253086D01*
X152846891Y-85301723D01*
X153063369Y-85413343D01*
X153063932Y-85732210D01*
X153067357Y-85898876D01*
X153075872Y-86043278D01*
X153087727Y-86137090D01*
X153089358Y-86143853D01*
X153092907Y-86217351D01*
X153069082Y-86236629D01*
X153012814Y-86253176D01*
X152903088Y-86297164D01*
X152760676Y-86360108D01*
X152715693Y-86380947D01*
X152571773Y-86447361D01*
X152458889Y-86497639D01*
X152395777Y-86523499D01*
X152389153Y-86525265D01*
X152346952Y-86541708D01*
X152244975Y-86586593D01*
X152098070Y-86653257D01*
X151921081Y-86735037D01*
X151902749Y-86743580D01*
X151713342Y-86831870D01*
X151542686Y-86911338D01*
X151409376Y-86973330D01*
X151332005Y-87009193D01*
X151331550Y-87009403D01*
X151319067Y-87022959D01*
X151350615Y-87033824D01*
X151432190Y-87042228D01*
X151569789Y-87048400D01*
X151769405Y-87052570D01*
X152037036Y-87054969D01*
X152378677Y-87055827D01*
X152541189Y-87055786D01*
X152862190Y-87056266D01*
X153156324Y-87058154D01*
X153413560Y-87061271D01*
X153623865Y-87065440D01*
X153777207Y-87070481D01*
X153863554Y-87076218D01*
X153878805Y-87079554D01*
X153886976Y-87126930D01*
X153894304Y-87243058D01*
X153900293Y-87414228D01*
X153904444Y-87626724D01*
X153906179Y-87835391D01*
X153908661Y-88566337D01*
X151259391Y-88555433D01*
X148610122Y-88544530D01*
X148607714Y-88204946D01*
X148606293Y-88012335D01*
X148604794Y-87821454D01*
X148603519Y-87670725D01*
X148603415Y-87659194D01*
X148603328Y-87500331D01*
X148605109Y-87309751D01*
X148607240Y-87185005D01*
X148612957Y-86916986D01*
X149302205Y-86610278D01*
X149566045Y-86492024D01*
X149844346Y-86365846D01*
X150111989Y-86243223D01*
X150343860Y-86135637D01*
X150452278Y-86084547D01*
X150632515Y-86000504D01*
X150787242Y-85931383D01*
X150900509Y-85884100D01*
X150956365Y-85865572D01*
X150957391Y-85865525D01*
X150994643Y-85862390D01*
X151007686Y-85851303D01*
X150991531Y-85829737D01*
X150941189Y-85795169D01*
X150851671Y-85745072D01*
X150717987Y-85676921D01*
X150535148Y-85588191D01*
X150298166Y-85476357D01*
X150002050Y-85338893D01*
X149641812Y-85173275D01*
X149212463Y-84976977D01*
X149104927Y-84927914D01*
X148947617Y-84855853D01*
X148809301Y-84791943D01*
X148715226Y-84747865D01*
X148702898Y-84741952D01*
X148629913Y-84675625D01*
X148606821Y-84611236D01*
X148599297Y-84360988D01*
X148595172Y-84101884D01*
X148594230Y-83846470D01*
X148596257Y-83607294D01*
X148601038Y-83396903D01*
X148608356Y-83227845D01*
X148617998Y-83112668D01*
X148629748Y-83063918D01*
X148633343Y-83063844D01*
X148681416Y-83070263D01*
G37*
G36*
X152689990Y-53444378D02*
G01*
X152865542Y-53464664D01*
X153014173Y-53495270D01*
X153079247Y-53517316D01*
X153259824Y-53625575D01*
X153443004Y-53788635D01*
X153606686Y-53982618D01*
X153728771Y-54183644D01*
X153756981Y-54249632D01*
X153808973Y-54397614D01*
X153850477Y-54531796D01*
X153867277Y-54598841D01*
X153883904Y-54729272D01*
X153896756Y-54917580D01*
X153905380Y-55139716D01*
X153909323Y-55371627D01*
X153908133Y-55589265D01*
X153901355Y-55768578D01*
X153891235Y-55870617D01*
X153838256Y-56126378D01*
X153759126Y-56371773D01*
X153641828Y-56643794D01*
X153636255Y-56655578D01*
X153576118Y-56785068D01*
X153533247Y-56882516D01*
X153516940Y-56926764D01*
X153491177Y-56964746D01*
X153423694Y-57045300D01*
X153330823Y-57149089D01*
X153225927Y-57276635D01*
X153172028Y-57372510D01*
X153168523Y-57413873D01*
X153156776Y-57426762D01*
X153100216Y-57390112D01*
X153055901Y-57352306D01*
X152971385Y-57276939D01*
X152916827Y-57230570D01*
X152907856Y-57224146D01*
X152926266Y-57194163D01*
X152985995Y-57121966D01*
X153041626Y-57059211D01*
X153217651Y-56826702D01*
X153377965Y-56544108D01*
X153505662Y-56243803D01*
X153560195Y-56066227D01*
X153632496Y-55690784D01*
X153658918Y-55322586D01*
X153642089Y-54971385D01*
X153584636Y-54646935D01*
X153489189Y-54358988D01*
X153358374Y-54117296D01*
X153194820Y-53931612D01*
X153001155Y-53811689D01*
X152947584Y-53792898D01*
X152685812Y-53746668D01*
X152423513Y-53757826D01*
X152183505Y-53822938D01*
X151990386Y-53937061D01*
X151886049Y-54054196D01*
X151775748Y-54226073D01*
X151673536Y-54427435D01*
X151593464Y-54633023D01*
X151581414Y-54672181D01*
X151502042Y-54955433D01*
X151436296Y-55212919D01*
X151391671Y-55414388D01*
X151368221Y-55528943D01*
X151349757Y-55609255D01*
X151346590Y-55620557D01*
X151330643Y-55678064D01*
X151300241Y-55792668D01*
X151261417Y-55941585D01*
X151253801Y-55971044D01*
X151193777Y-56169219D01*
X151116403Y-56379412D01*
X151046588Y-56538665D01*
X150983355Y-56669578D01*
X150937768Y-56769013D01*
X150919258Y-56816365D01*
X150919213Y-56816993D01*
X150885821Y-56869879D01*
X150797960Y-56946406D01*
X150674099Y-57031738D01*
X150591442Y-57080301D01*
X150368271Y-57171055D01*
X150116226Y-57207294D01*
X149991453Y-57207552D01*
X149880529Y-57204194D01*
X149805901Y-57202141D01*
X149631236Y-57168804D01*
X149431177Y-57085606D01*
X149232448Y-56966597D01*
X149061773Y-56825828D01*
X149032825Y-56795720D01*
X148846541Y-56536885D01*
X148704237Y-56221237D01*
X148611171Y-55864776D01*
X148572603Y-55483500D01*
X148571996Y-55393772D01*
X148575971Y-55157781D01*
X148582949Y-54986935D01*
X148594689Y-54863923D01*
X148612948Y-54771430D01*
X148639485Y-54692145D01*
X148644502Y-54679805D01*
X148679248Y-54579838D01*
X148692589Y-54511884D01*
X148714743Y-54434291D01*
X148771943Y-54314250D01*
X148850300Y-54175690D01*
X148935923Y-54042541D01*
X149014922Y-53938733D01*
X149041456Y-53910878D01*
X149112450Y-53829610D01*
X149145799Y-53762737D01*
X149146161Y-53757850D01*
X149155261Y-53712915D01*
X149192431Y-53713939D01*
X149272476Y-53764098D01*
X149313099Y-53793656D01*
X149435465Y-53884124D01*
X149316308Y-54010133D01*
X149115122Y-54272362D01*
X148974345Y-54572897D01*
X148891963Y-54918728D01*
X148865966Y-55316845D01*
X148874044Y-55546567D01*
X148921171Y-55932881D01*
X149009376Y-56249261D01*
X149140386Y-56498248D01*
X149315931Y-56682382D01*
X149537738Y-56804204D01*
X149768441Y-56861303D01*
X150035719Y-56882988D01*
X150260437Y-56861827D01*
X150448707Y-56791892D01*
X150606641Y-56667252D01*
X150740351Y-56481978D01*
X150855949Y-56230140D01*
X150959548Y-55905811D01*
X151026180Y-55641174D01*
X151072034Y-55445784D01*
X151115105Y-55265275D01*
X151149505Y-55124175D01*
X151164769Y-55063901D01*
X151198072Y-54934120D01*
X151237661Y-54776009D01*
X151253072Y-54713414D01*
X151298567Y-54568147D01*
X151368046Y-54390514D01*
X151441228Y-54229947D01*
X151508247Y-54087009D01*
X151557243Y-53967262D01*
X151578684Y-53894245D01*
X151578953Y-53889768D01*
X151595022Y-53839447D01*
X151609878Y-53836080D01*
X151654721Y-53815387D01*
X151737337Y-53752370D01*
X151805739Y-53691958D01*
X151909930Y-53605895D01*
X151999644Y-53550181D01*
X152037784Y-53538449D01*
X152121481Y-53508759D01*
X152151074Y-53482609D01*
X152218057Y-53453528D01*
X152344621Y-53438001D01*
X152509141Y-53435221D01*
X152689990Y-53444378D01*
G37*
G36*
X151572394Y-64382518D02*
G01*
X151857590Y-64425015D01*
X152139929Y-64504786D01*
X152424245Y-64616062D01*
X152700696Y-64763917D01*
X152982522Y-64965719D01*
X153246820Y-65201611D01*
X153470688Y-65451733D01*
X153595021Y-65631226D01*
X153654781Y-65743872D01*
X153722206Y-65889879D01*
X153789590Y-66049742D01*
X153849231Y-66203958D01*
X153893424Y-66333020D01*
X153914466Y-66417426D01*
X153913504Y-66437547D01*
X153909213Y-66491627D01*
X153917428Y-66596234D01*
X153924627Y-66650590D01*
X153934261Y-66795088D01*
X153930448Y-66974800D01*
X153919197Y-67104161D01*
X153898215Y-67252602D01*
X153876267Y-67373186D01*
X153860025Y-67434031D01*
X153841064Y-67520018D01*
X153842114Y-67547424D01*
X153825452Y-67594895D01*
X153810660Y-67598966D01*
X153775043Y-67634534D01*
X153744241Y-67720360D01*
X153743658Y-67722977D01*
X153688210Y-67863167D01*
X153582466Y-68038522D01*
X153440210Y-68232300D01*
X153275228Y-68427759D01*
X153101306Y-68608159D01*
X152932229Y-68756757D01*
X152835581Y-68825764D01*
X152603468Y-68955591D01*
X152336984Y-69077204D01*
X152064830Y-69179299D01*
X151815706Y-69250571D01*
X151702654Y-69272007D01*
X151555256Y-69284615D01*
X151359177Y-69290429D01*
X151354435Y-69290408D01*
X151147920Y-69289489D01*
X150954986Y-69281835D01*
X150836745Y-69270960D01*
X150673680Y-69248356D01*
X150573892Y-69232156D01*
X150518846Y-69218382D01*
X150490008Y-69203057D01*
X150480579Y-69194532D01*
X150418377Y-69169401D01*
X150380533Y-69165850D01*
X150309277Y-69148282D01*
X150190529Y-69102185D01*
X150049761Y-69037463D01*
X150047227Y-69036211D01*
X149644291Y-68796942D01*
X149298488Y-68509093D01*
X149014578Y-68179291D01*
X148797321Y-67814162D01*
X148651476Y-67420332D01*
X148581803Y-67004428D01*
X148581174Y-66995246D01*
X148576871Y-66764861D01*
X148579674Y-66718668D01*
X148878208Y-66718668D01*
X148885667Y-67044381D01*
X148936753Y-67350045D01*
X148975366Y-67476576D01*
X149149838Y-67841729D01*
X149391164Y-68168082D01*
X149690328Y-68449151D01*
X150038310Y-68678450D01*
X150426093Y-68849497D01*
X150844659Y-68955804D01*
X151070620Y-68983280D01*
X151354435Y-68988897D01*
X151635582Y-68965551D01*
X151884658Y-68916648D01*
X152011907Y-68874237D01*
X152111535Y-68837266D01*
X152179490Y-68819304D01*
X152180164Y-68819241D01*
X152237704Y-68799440D01*
X152344081Y-68751559D01*
X152465016Y-68691661D01*
X152647797Y-68576723D01*
X152846532Y-68417850D01*
X153041948Y-68233917D01*
X153214773Y-68043798D01*
X153345734Y-67866366D01*
X153391300Y-67784518D01*
X153453860Y-67652958D01*
X153507530Y-67541536D01*
X153528953Y-67497926D01*
X153584681Y-67329285D01*
X153618209Y-67106316D01*
X153628762Y-66854328D01*
X153615565Y-66598628D01*
X153577843Y-66364526D01*
X153565165Y-66314762D01*
X153420838Y-65942144D01*
X153210342Y-65608134D01*
X152942672Y-65317405D01*
X152626821Y-65074632D01*
X152271783Y-64884488D01*
X151886553Y-64751649D01*
X151480124Y-64680787D01*
X151061490Y-64676578D01*
X150639645Y-64743694D01*
X150574818Y-64760708D01*
X150365866Y-64826211D01*
X150187946Y-64896542D01*
X150055068Y-64964987D01*
X149981240Y-65024831D01*
X149970836Y-65050183D01*
X149954762Y-65077842D01*
X149944974Y-65071590D01*
X149899295Y-65078199D01*
X149811757Y-65124209D01*
X149703387Y-65195667D01*
X149595208Y-65278622D01*
X149508247Y-65359119D01*
X149502917Y-65364945D01*
X149455736Y-65440793D01*
X149453516Y-65492974D01*
X149450089Y-65519681D01*
X149420290Y-65513300D01*
X149361061Y-65531927D01*
X149280351Y-65613800D01*
X149187401Y-65745634D01*
X149091451Y-65914145D01*
X149001744Y-66106047D01*
X148992627Y-66128082D01*
X148913991Y-66403152D01*
X148878208Y-66718668D01*
X148579674Y-66718668D01*
X148591205Y-66528615D01*
X148621184Y-66309019D01*
X148663816Y-66128581D01*
X148711147Y-66017290D01*
X148760029Y-65912173D01*
X148794981Y-65794629D01*
X148821573Y-65709544D01*
X148849874Y-65677755D01*
X148853314Y-65678994D01*
X148890942Y-65659569D01*
X148945735Y-65587827D01*
X148958790Y-65565961D01*
X149038649Y-65446927D01*
X149138581Y-65323372D01*
X149156543Y-65303747D01*
X149232655Y-65203842D01*
X149251560Y-65132075D01*
X149247510Y-65122132D01*
X149238950Y-65090545D01*
X149268101Y-65103235D01*
X149329070Y-65112026D01*
X149346631Y-65099063D01*
X149394694Y-65053223D01*
X149486011Y-64979902D01*
X149599912Y-64894198D01*
X149715728Y-64811212D01*
X149812786Y-64746040D01*
X149870418Y-64713783D01*
X149875699Y-64712603D01*
X149928084Y-64696171D01*
X150028962Y-64653862D01*
X150114562Y-64614554D01*
X150415993Y-64490075D01*
X150707608Y-64412886D01*
X151022522Y-64375847D01*
X151249083Y-64369913D01*
X151572394Y-64382518D01*
G37*
D16*
X139252000Y-96705000D02*
X141612000Y-96705000D01*
X137882000Y-91905000D02*
X137882000Y-96405000D01*
X142982000Y-91905000D02*
X142982000Y-96405000D01*
X141612000Y-91605000D02*
X139252000Y-91605000D01*
D17*
X138657000Y-98405000D02*
G75*
G03*
X138657000Y-98405000I-100000J0D01*
G01*
D14*
X130613800Y-130031000D02*
X131996800Y-130031000D01*
X130613800Y-130031000D02*
X130613800Y-128647000D01*
X130853800Y-129791000D02*
X145853800Y-129791000D01*
X130853800Y-129791000D02*
X130853800Y-119891000D01*
X145853800Y-129791000D02*
X145853800Y-119891000D01*
X132638800Y-126871000D02*
X133908800Y-126871000D01*
X132758800Y-126871000D02*
X132758800Y-125517667D01*
X132878800Y-126871000D02*
X132878800Y-125517667D01*
X132998800Y-126871000D02*
X132998800Y-125517667D01*
X133118800Y-126871000D02*
X133118800Y-125517667D01*
X133238800Y-126871000D02*
X133238800Y-125517667D01*
X133358800Y-126871000D02*
X133358800Y-125517667D01*
X133478800Y-126871000D02*
X133478800Y-125517667D01*
X133598800Y-126871000D02*
X133598800Y-125517667D01*
X133718800Y-126871000D02*
X133718800Y-125517667D01*
X133838800Y-126871000D02*
X133838800Y-125517667D01*
X133908800Y-126871000D02*
X133908800Y-122811000D01*
X135178800Y-126871000D02*
X136448800Y-126871000D01*
X135298800Y-126871000D02*
X135298800Y-125517667D01*
X135418800Y-126871000D02*
X135418800Y-125517667D01*
X135538800Y-126871000D02*
X135538800Y-125517667D01*
X135658800Y-126871000D02*
X135658800Y-125517667D01*
X135778800Y-126871000D02*
X135778800Y-125517667D01*
X135898800Y-126871000D02*
X135898800Y-125517667D01*
X136018800Y-126871000D02*
X136018800Y-125517667D01*
X136138800Y-126871000D02*
X136138800Y-125517667D01*
X136258800Y-126871000D02*
X136258800Y-125517667D01*
X136378800Y-126871000D02*
X136378800Y-125517667D01*
X136448800Y-126871000D02*
X136448800Y-122811000D01*
X137718800Y-126871000D02*
X138988800Y-126871000D01*
X137838800Y-126871000D02*
X137838800Y-125517667D01*
X137958800Y-126871000D02*
X137958800Y-125517667D01*
X138078800Y-126871000D02*
X138078800Y-125517667D01*
X138198800Y-126871000D02*
X138198800Y-125517667D01*
X138318800Y-126871000D02*
X138318800Y-125517667D01*
X138438800Y-126871000D02*
X138438800Y-125517667D01*
X138558800Y-126871000D02*
X138558800Y-125517667D01*
X138678800Y-126871000D02*
X138678800Y-125517667D01*
X138798800Y-126871000D02*
X138798800Y-125517667D01*
X138918800Y-126871000D02*
X138918800Y-125517667D01*
X138988800Y-126871000D02*
X138988800Y-122811000D01*
X140258800Y-126871000D02*
X141528800Y-126871000D01*
X140378800Y-126871000D02*
X140378800Y-125517667D01*
X140498800Y-126871000D02*
X140498800Y-125517667D01*
X140618800Y-126871000D02*
X140618800Y-125517667D01*
X140738800Y-126871000D02*
X140738800Y-125517667D01*
X140858800Y-126871000D02*
X140858800Y-125517667D01*
X140978800Y-126871000D02*
X140978800Y-125517667D01*
X141098800Y-126871000D02*
X141098800Y-125517667D01*
X141218800Y-126871000D02*
X141218800Y-125517667D01*
X141338800Y-126871000D02*
X141338800Y-125517667D01*
X141458800Y-126871000D02*
X141458800Y-125517667D01*
X141528800Y-126871000D02*
X141528800Y-122811000D01*
X142798800Y-126871000D02*
X144068800Y-126871000D01*
X142918800Y-126871000D02*
X142918800Y-125517667D01*
X143038800Y-126871000D02*
X143038800Y-125517667D01*
X143158800Y-126871000D02*
X143158800Y-125517667D01*
X143278800Y-126871000D02*
X143278800Y-125517667D01*
X143398800Y-126871000D02*
X143398800Y-125517667D01*
X143518800Y-126871000D02*
X143518800Y-125517667D01*
X143638800Y-126871000D02*
X143638800Y-125517667D01*
X143758800Y-126871000D02*
X143758800Y-125517667D01*
X143878800Y-126871000D02*
X143878800Y-125517667D01*
X143998800Y-126871000D02*
X143998800Y-125517667D01*
X144068800Y-126871000D02*
X144068800Y-122811000D01*
X132638800Y-125517667D02*
X133908800Y-125517667D01*
X135178800Y-125517667D02*
X136448800Y-125517667D01*
X137718800Y-125517667D02*
X138988800Y-125517667D01*
X140258800Y-125517667D02*
X141528800Y-125517667D01*
X142798800Y-125517667D02*
X144068800Y-125517667D01*
X132638800Y-122811000D02*
X132638800Y-126871000D01*
X133908800Y-122811000D02*
X132638800Y-122811000D01*
X135178800Y-122811000D02*
X135178800Y-126871000D01*
X136448800Y-122811000D02*
X135178800Y-122811000D01*
X137718800Y-122811000D02*
X137718800Y-126871000D01*
X138988800Y-122811000D02*
X137718800Y-122811000D01*
X140258800Y-122811000D02*
X140258800Y-126871000D01*
X141528800Y-122811000D02*
X140258800Y-122811000D01*
X142798800Y-122811000D02*
X142798800Y-126871000D01*
X144068800Y-122811000D02*
X142798800Y-122811000D01*
X130853800Y-119891000D02*
X145853800Y-119891000D01*
X127980000Y-71196200D02*
X127980000Y-72871200D01*
X127980000Y-71196200D02*
X127980000Y-70546200D01*
X131100000Y-71196200D02*
X131100000Y-71846200D01*
X131100000Y-71196200D02*
X131100000Y-70546200D01*
X167968800Y-72462400D02*
X167968800Y-78962400D01*
X167968800Y-72462400D02*
X187168800Y-72462400D01*
X167968800Y-81362400D02*
X167968800Y-87862400D01*
X172068800Y-80162400D02*
X171168800Y-80162400D01*
X172068800Y-80162400D02*
X172068800Y-83862400D01*
X172968800Y-78662400D02*
X177968800Y-78662400D01*
X172968800Y-81662400D02*
X172968800Y-78662400D01*
X173168800Y-86162400D02*
X175468800Y-86162400D01*
X175468800Y-74162400D02*
X173168800Y-74162400D01*
X175468800Y-74162400D02*
X175468800Y-78662400D01*
X175468800Y-81662400D02*
X175468800Y-86162400D01*
X177968800Y-78662400D02*
X177968800Y-81662400D01*
X177968800Y-81662400D02*
X172968800Y-78662400D01*
X177968800Y-81662400D02*
X172968800Y-81662400D01*
X178968800Y-80162400D02*
X178968800Y-83862400D01*
X178968800Y-80162400D02*
X180468800Y-80162400D01*
X178968800Y-83862400D02*
X172068800Y-83862400D01*
X180468800Y-80162400D02*
X184968800Y-77462400D01*
X183668800Y-75862400D02*
X183668800Y-78162400D01*
X183668800Y-84462400D02*
X183668800Y-82162400D01*
X187168800Y-72462400D02*
X187168800Y-87862400D01*
X187168800Y-87862400D02*
X167968800Y-87862400D01*
X141693400Y-44196000D02*
X141693400Y-45135800D01*
X143348064Y-53665800D02*
X141893936Y-53665800D01*
X143348064Y-51845800D02*
X141893936Y-51845800D01*
X122248600Y-98565600D02*
X120778600Y-98565600D01*
X120778600Y-98565600D02*
X120778600Y-100850600D01*
X122248600Y-100850600D02*
X122248600Y-98565600D01*
X180364700Y-123890242D02*
X180364700Y-124364758D01*
X179319700Y-123890242D02*
X179319700Y-124364758D01*
X183676058Y-125211100D02*
X183201542Y-125211100D01*
X183676058Y-124166100D02*
X183201542Y-124166100D01*
%LPC*%
D18*
X176682400Y-98503100D03*
X176682400Y-100328100D03*
X131394200Y-77370300D03*
X131394200Y-79195300D03*
D19*
X182502000Y-122247900D03*
X184402000Y-122247900D03*
X183452000Y-120372900D03*
D20*
X144033300Y-107460600D03*
X144033300Y-107960600D03*
X144033300Y-108460600D03*
X144033300Y-108960600D03*
X144033300Y-109460600D03*
X144033300Y-109960600D03*
X144033300Y-110460600D03*
X144033300Y-110960600D03*
X144033300Y-111460600D03*
X144033300Y-111960600D03*
X144033300Y-112460600D03*
X144033300Y-112960600D03*
D21*
X145445800Y-114373100D03*
X145945800Y-114373100D03*
X146445800Y-114373100D03*
X146945800Y-114373100D03*
X147445800Y-114373100D03*
X147945800Y-114373100D03*
X148445800Y-114373100D03*
X148945800Y-114373100D03*
X149445800Y-114373100D03*
X149945800Y-114373100D03*
X150445800Y-114373100D03*
X150945800Y-114373100D03*
D20*
X152358300Y-112960600D03*
X152358300Y-112460600D03*
X152358300Y-111960600D03*
X152358300Y-111460600D03*
X152358300Y-110960600D03*
X152358300Y-110460600D03*
X152358300Y-109960600D03*
X152358300Y-109460600D03*
X152358300Y-108960600D03*
X152358300Y-108460600D03*
X152358300Y-107960600D03*
X152358300Y-107460600D03*
D21*
X150945800Y-106048100D03*
X150445800Y-106048100D03*
X149945800Y-106048100D03*
X149445800Y-106048100D03*
X148945800Y-106048100D03*
X148445800Y-106048100D03*
X147945800Y-106048100D03*
X147445800Y-106048100D03*
X146945800Y-106048100D03*
X146445800Y-106048100D03*
X145945800Y-106048100D03*
X145445800Y-106048100D03*
D22*
X192827000Y-120878600D03*
X188427000Y-120878600D03*
D23*
X137335200Y-108508800D03*
X136375200Y-108508800D03*
D24*
X106960200Y-87401400D03*
D25*
X106960200Y-92481400D03*
D26*
X142036800Y-107439400D03*
X142036800Y-106479400D03*
D27*
X115509000Y-108991400D03*
X117409000Y-108991400D03*
D28*
X180377600Y-93837000D03*
X180377600Y-90567000D03*
D29*
X164388800Y-128651000D03*
D30*
X173685200Y-100328100D03*
X173685200Y-98503100D03*
D31*
X143482300Y-49337000D03*
X143482300Y-47437000D03*
X141607300Y-48387000D03*
D32*
X173101000Y-120790200D03*
X173101000Y-122440200D03*
D23*
X151203600Y-116332000D03*
X150243600Y-116332000D03*
D29*
X105562400Y-117410200D03*
X120726200Y-128549400D03*
X105562400Y-109042200D03*
D33*
X136398000Y-60274200D03*
X134398000Y-54274200D03*
X122198000Y-54274200D03*
X122198000Y-66274200D03*
X134398000Y-66274200D03*
D34*
X164693600Y-63481200D03*
X164693600Y-67481200D03*
D35*
X140462000Y-112103200D03*
X140462000Y-110553200D03*
D29*
X113131600Y-128524000D03*
D30*
X173126400Y-129436500D03*
X173126400Y-127611500D03*
D18*
X175818800Y-127586100D03*
X175818800Y-129411100D03*
D36*
X171148800Y-52993600D03*
X172848800Y-52993600D03*
X174548800Y-52993600D03*
D37*
X174548800Y-43843600D03*
D36*
X176248800Y-52993600D03*
X177948800Y-52993600D03*
D38*
X188493400Y-60283200D03*
X188493400Y-51883200D03*
D39*
X200406000Y-54737000D03*
D40*
X200406000Y-57277000D03*
D39*
X130454400Y-40792400D03*
D40*
X127914400Y-40792400D03*
D41*
X170030600Y-62966599D03*
X179930600Y-62966599D03*
D42*
X144604800Y-104190800D03*
X145564800Y-104190800D03*
X134038400Y-108508800D03*
X134998400Y-108508800D03*
D28*
X194868800Y-110353600D03*
X194868800Y-113623600D03*
X194728600Y-79991200D03*
X194728600Y-83261200D03*
D43*
X130415800Y-74752200D03*
X128765800Y-74752200D03*
D44*
X120105200Y-111785000D03*
X117805200Y-111785000D03*
D45*
X117805200Y-118085000D03*
D44*
X115505200Y-111785000D03*
D29*
X123291600Y-41579800D03*
D32*
X128473200Y-102527600D03*
X128473200Y-104177600D03*
D46*
X157122400Y-118748000D03*
X155852400Y-118748000D03*
X154582400Y-118748000D03*
X153312400Y-118748000D03*
X153312400Y-123698000D03*
X154582400Y-123698000D03*
X155852400Y-123698000D03*
X157122400Y-123698000D03*
D22*
X192954000Y-99466400D03*
X188554000Y-99466400D03*
D47*
X161596700Y-121488200D03*
X163421700Y-121488200D03*
D48*
X154305000Y-106606400D03*
X154305000Y-107566400D03*
D28*
X118389400Y-103057200D03*
X118389400Y-99787200D03*
D35*
X140487400Y-107505800D03*
X140487400Y-105955800D03*
D32*
X133045200Y-73063600D03*
X133045200Y-74713600D03*
D47*
X133580500Y-79248000D03*
X135405500Y-79248000D03*
D32*
X173812200Y-92090100D03*
X173812200Y-93740100D03*
D39*
X157469600Y-103911800D03*
D40*
X160009600Y-103911800D03*
X162549600Y-103911800D03*
D49*
X193548100Y-66014600D03*
X191973100Y-66014600D03*
D35*
X138328400Y-112103200D03*
X138328400Y-110553200D03*
D32*
X183489600Y-94094800D03*
X183489600Y-95744800D03*
D50*
X199250800Y-125679200D03*
D25*
X199250800Y-120599200D03*
X199250800Y-115519200D03*
X199250800Y-110439200D03*
X199250800Y-105359200D03*
D22*
X112963600Y-78384400D03*
X117363600Y-78384400D03*
D29*
X116916200Y-128549400D03*
D32*
X121513600Y-102959400D03*
X121513600Y-104609400D03*
D51*
X162102800Y-52304400D03*
X162102800Y-43504400D03*
D43*
X125462800Y-104190800D03*
X123812800Y-104190800D03*
D26*
X151561800Y-123695400D03*
X151561800Y-122735400D03*
D52*
X145249400Y-40614600D03*
D53*
X140169400Y-40614600D03*
D49*
X140411300Y-113893600D03*
X138836300Y-113893600D03*
D19*
X186121000Y-92555300D03*
X188021000Y-92555300D03*
X187071000Y-90680300D03*
D28*
X111353600Y-62601600D03*
X111353600Y-65871600D03*
D54*
X152704800Y-128244600D03*
D53*
X157784800Y-128244600D03*
D55*
X147193000Y-48413400D03*
X147193000Y-51713400D03*
D33*
X132066800Y-89357200D03*
X130066800Y-83357200D03*
X117866800Y-83357200D03*
X117866800Y-95357200D03*
X130066800Y-95357200D03*
D22*
X112074600Y-73507600D03*
X116474600Y-73507600D03*
D50*
X199110600Y-94640400D03*
D25*
X199110600Y-89560400D03*
X199110600Y-84480400D03*
X199110600Y-79400400D03*
X199110600Y-74320400D03*
D28*
X111340400Y-88408000D03*
X111340400Y-91678000D03*
D43*
X187870600Y-95123000D03*
X186220600Y-95123000D03*
D56*
X122910600Y-114157800D03*
X122910600Y-112257800D03*
D57*
X183489600Y-90500100D03*
X183489600Y-92075100D03*
D32*
X126238000Y-73470000D03*
X126238000Y-75120000D03*
D42*
X154712000Y-116727200D03*
X155672000Y-116727200D03*
D29*
X168224200Y-128676400D03*
D33*
X170359600Y-109982000D03*
X172359600Y-115982000D03*
X184559600Y-115982000D03*
X184559600Y-103982000D03*
X172359600Y-103982000D03*
D39*
X163860400Y-118135400D03*
D40*
X161320400Y-118135400D03*
D19*
X123764000Y-101343700D03*
X125664000Y-101343700D03*
X124714000Y-99468700D03*
D58*
X107543600Y-126390400D03*
D28*
X123266200Y-73313800D03*
X123266200Y-70043800D03*
D58*
X110998000Y-43180000D03*
D26*
X142036800Y-111706600D03*
X142036800Y-110746600D03*
D57*
X126224800Y-70078500D03*
X126224800Y-71653500D03*
D29*
X119481600Y-41579800D03*
X105562400Y-113157000D03*
X124307600Y-128600200D03*
D57*
X179830000Y-120063400D03*
X179830000Y-121638400D03*
D23*
X140937400Y-89272300D03*
X139977400Y-89272300D03*
D24*
X106971600Y-57124600D03*
D25*
X106971600Y-62204600D03*
X106971600Y-67284600D03*
X106971600Y-72364600D03*
X106971600Y-77444600D03*
D59*
X146507200Y-99874800D03*
X146507200Y-98854800D03*
D28*
X176871400Y-123374900D03*
X176871400Y-120104900D03*
D43*
X197243200Y-66014600D03*
X195593200Y-66014600D03*
D29*
X127863600Y-128651000D03*
D60*
X136786800Y-105093400D03*
X134586800Y-105093400D03*
X134586800Y-106793400D03*
X136786800Y-106793400D03*
D58*
X189585600Y-126669800D03*
X198882000Y-43180000D03*
D61*
X138557000Y-97155000D03*
X138557000Y-91155000D03*
X142307000Y-97155000D03*
X142307000Y-91155000D03*
D62*
X133273800Y-128651000D03*
D63*
X135813800Y-128651000D03*
X138353800Y-128651000D03*
X140893800Y-128651000D03*
X143433800Y-128651000D03*
X143433800Y-121031000D03*
X140893800Y-121031000D03*
X138353800Y-121031000D03*
X135813800Y-121031000D03*
X133273800Y-121031000D03*
D19*
X128590000Y-72133700D03*
X130490000Y-72133700D03*
X129540000Y-70258700D03*
D33*
X169468800Y-80162400D03*
X171468800Y-86162400D03*
X183668800Y-86162400D03*
X183668800Y-74162400D03*
X171468800Y-74162400D03*
D64*
X141023600Y-44678600D03*
X144293600Y-44678600D03*
D65*
X144083500Y-52755800D03*
X141158500Y-52755800D03*
D57*
X121513600Y-99263100D03*
X121513600Y-100838100D03*
D32*
X179842200Y-123302500D03*
X179842200Y-124952500D03*
D43*
X184263800Y-124688600D03*
X182613800Y-124688600D03*
%LPD*%
M02*
