%TF.GenerationSoftware,KiCad,Pcbnew,7.0.9*%
%TF.CreationDate,2023-12-12T15:16:32-05:00*%
%TF.ProjectId,Cabina,43616269-6e61-42e6-9b69-6361645f7063,rev?*%
%TF.SameCoordinates,Original*%
%TF.FileFunction,Drillmap*%
%TF.FilePolarity,Positive*%
%FSLAX45Y45*%
G04 Gerber Fmt 4.5, Leading zero omitted, Abs format (unit mm)*
G04 Created by KiCad (PCBNEW 7.0.9) date 2023-12-12 15:16:32*
%MOMM*%
%LPD*%
G01*
G04 APERTURE LIST*
%ADD10C,0.100000*%
%ADD11C,0.200000*%
%ADD12C,0.320000*%
G04 APERTURE END LIST*
D10*
X10344100Y-3817620D02*
X20290740Y-3817620D01*
X20290740Y-13058140D01*
X10344100Y-13058140D01*
X10344100Y-3817620D01*
D11*
D12*
X10594360Y-12479040D02*
X10914360Y-12799040D01*
X10914360Y-12479040D02*
X10594360Y-12799040D01*
X10939800Y-4158000D02*
X11259800Y-4478000D01*
X11259800Y-4158000D02*
X10939800Y-4478000D01*
X18798560Y-12506980D02*
X19118560Y-12826980D01*
X19118560Y-12506980D02*
X18798560Y-12826980D01*
X19728200Y-4158000D02*
X20048200Y-4478000D01*
X20048200Y-4158000D02*
X19728200Y-4478000D01*
D11*
X10599877Y-13374624D02*
X10599877Y-13174624D01*
X10599877Y-13174624D02*
X10647496Y-13174624D01*
X10647496Y-13174624D02*
X10676067Y-13184148D01*
X10676067Y-13184148D02*
X10695115Y-13203195D01*
X10695115Y-13203195D02*
X10704639Y-13222243D01*
X10704639Y-13222243D02*
X10714163Y-13260338D01*
X10714163Y-13260338D02*
X10714163Y-13288909D01*
X10714163Y-13288909D02*
X10704639Y-13327005D01*
X10704639Y-13327005D02*
X10695115Y-13346052D01*
X10695115Y-13346052D02*
X10676067Y-13365100D01*
X10676067Y-13365100D02*
X10647496Y-13374624D01*
X10647496Y-13374624D02*
X10599877Y-13374624D01*
X10799877Y-13374624D02*
X10799877Y-13241290D01*
X10799877Y-13279386D02*
X10809401Y-13260338D01*
X10809401Y-13260338D02*
X10818924Y-13250814D01*
X10818924Y-13250814D02*
X10837972Y-13241290D01*
X10837972Y-13241290D02*
X10857020Y-13241290D01*
X10923686Y-13374624D02*
X10923686Y-13241290D01*
X10923686Y-13174624D02*
X10914163Y-13184148D01*
X10914163Y-13184148D02*
X10923686Y-13193671D01*
X10923686Y-13193671D02*
X10933210Y-13184148D01*
X10933210Y-13184148D02*
X10923686Y-13174624D01*
X10923686Y-13174624D02*
X10923686Y-13193671D01*
X11047496Y-13374624D02*
X11028448Y-13365100D01*
X11028448Y-13365100D02*
X11018924Y-13346052D01*
X11018924Y-13346052D02*
X11018924Y-13174624D01*
X11152258Y-13374624D02*
X11133210Y-13365100D01*
X11133210Y-13365100D02*
X11123686Y-13346052D01*
X11123686Y-13346052D02*
X11123686Y-13174624D01*
X11380829Y-13374624D02*
X11380829Y-13174624D01*
X11380829Y-13174624D02*
X11447496Y-13317481D01*
X11447496Y-13317481D02*
X11514162Y-13174624D01*
X11514162Y-13174624D02*
X11514162Y-13374624D01*
X11695115Y-13374624D02*
X11695115Y-13269862D01*
X11695115Y-13269862D02*
X11685591Y-13250814D01*
X11685591Y-13250814D02*
X11666543Y-13241290D01*
X11666543Y-13241290D02*
X11628448Y-13241290D01*
X11628448Y-13241290D02*
X11609401Y-13250814D01*
X11695115Y-13365100D02*
X11676067Y-13374624D01*
X11676067Y-13374624D02*
X11628448Y-13374624D01*
X11628448Y-13374624D02*
X11609401Y-13365100D01*
X11609401Y-13365100D02*
X11599877Y-13346052D01*
X11599877Y-13346052D02*
X11599877Y-13327005D01*
X11599877Y-13327005D02*
X11609401Y-13307957D01*
X11609401Y-13307957D02*
X11628448Y-13298433D01*
X11628448Y-13298433D02*
X11676067Y-13298433D01*
X11676067Y-13298433D02*
X11695115Y-13288909D01*
X11790353Y-13241290D02*
X11790353Y-13441290D01*
X11790353Y-13250814D02*
X11809401Y-13241290D01*
X11809401Y-13241290D02*
X11847496Y-13241290D01*
X11847496Y-13241290D02*
X11866543Y-13250814D01*
X11866543Y-13250814D02*
X11876067Y-13260338D01*
X11876067Y-13260338D02*
X11885591Y-13279386D01*
X11885591Y-13279386D02*
X11885591Y-13336528D01*
X11885591Y-13336528D02*
X11876067Y-13355576D01*
X11876067Y-13355576D02*
X11866543Y-13365100D01*
X11866543Y-13365100D02*
X11847496Y-13374624D01*
X11847496Y-13374624D02*
X11809401Y-13374624D01*
X11809401Y-13374624D02*
X11790353Y-13365100D01*
X11971305Y-13355576D02*
X11980829Y-13365100D01*
X11980829Y-13365100D02*
X11971305Y-13374624D01*
X11971305Y-13374624D02*
X11961782Y-13365100D01*
X11961782Y-13365100D02*
X11971305Y-13355576D01*
X11971305Y-13355576D02*
X11971305Y-13374624D01*
X11971305Y-13250814D02*
X11980829Y-13260338D01*
X11980829Y-13260338D02*
X11971305Y-13269862D01*
X11971305Y-13269862D02*
X11961782Y-13260338D01*
X11961782Y-13260338D02*
X11971305Y-13250814D01*
X11971305Y-13250814D02*
X11971305Y-13269862D01*
X10139100Y-13603140D02*
X10339100Y-13803140D01*
X10339100Y-13603140D02*
X10139100Y-13803140D01*
X10580829Y-13594624D02*
X10704639Y-13594624D01*
X10704639Y-13594624D02*
X10637972Y-13670814D01*
X10637972Y-13670814D02*
X10666544Y-13670814D01*
X10666544Y-13670814D02*
X10685591Y-13680338D01*
X10685591Y-13680338D02*
X10695115Y-13689862D01*
X10695115Y-13689862D02*
X10704639Y-13708909D01*
X10704639Y-13708909D02*
X10704639Y-13756528D01*
X10704639Y-13756528D02*
X10695115Y-13775576D01*
X10695115Y-13775576D02*
X10685591Y-13785100D01*
X10685591Y-13785100D02*
X10666544Y-13794624D01*
X10666544Y-13794624D02*
X10609401Y-13794624D01*
X10609401Y-13794624D02*
X10590353Y-13785100D01*
X10590353Y-13785100D02*
X10580829Y-13775576D01*
X10790353Y-13775576D02*
X10799877Y-13785100D01*
X10799877Y-13785100D02*
X10790353Y-13794624D01*
X10790353Y-13794624D02*
X10780829Y-13785100D01*
X10780829Y-13785100D02*
X10790353Y-13775576D01*
X10790353Y-13775576D02*
X10790353Y-13794624D01*
X10876067Y-13613671D02*
X10885591Y-13604148D01*
X10885591Y-13604148D02*
X10904639Y-13594624D01*
X10904639Y-13594624D02*
X10952258Y-13594624D01*
X10952258Y-13594624D02*
X10971305Y-13604148D01*
X10971305Y-13604148D02*
X10980829Y-13613671D01*
X10980829Y-13613671D02*
X10990353Y-13632719D01*
X10990353Y-13632719D02*
X10990353Y-13651767D01*
X10990353Y-13651767D02*
X10980829Y-13680338D01*
X10980829Y-13680338D02*
X10866544Y-13794624D01*
X10866544Y-13794624D02*
X10990353Y-13794624D01*
X11114163Y-13594624D02*
X11133210Y-13594624D01*
X11133210Y-13594624D02*
X11152258Y-13604148D01*
X11152258Y-13604148D02*
X11161782Y-13613671D01*
X11161782Y-13613671D02*
X11171305Y-13632719D01*
X11171305Y-13632719D02*
X11180829Y-13670814D01*
X11180829Y-13670814D02*
X11180829Y-13718433D01*
X11180829Y-13718433D02*
X11171305Y-13756528D01*
X11171305Y-13756528D02*
X11161782Y-13775576D01*
X11161782Y-13775576D02*
X11152258Y-13785100D01*
X11152258Y-13785100D02*
X11133210Y-13794624D01*
X11133210Y-13794624D02*
X11114163Y-13794624D01*
X11114163Y-13794624D02*
X11095115Y-13785100D01*
X11095115Y-13785100D02*
X11085591Y-13775576D01*
X11085591Y-13775576D02*
X11076067Y-13756528D01*
X11076067Y-13756528D02*
X11066544Y-13718433D01*
X11066544Y-13718433D02*
X11066544Y-13670814D01*
X11066544Y-13670814D02*
X11076067Y-13632719D01*
X11076067Y-13632719D02*
X11085591Y-13613671D01*
X11085591Y-13613671D02*
X11095115Y-13604148D01*
X11095115Y-13604148D02*
X11114163Y-13594624D01*
X11304639Y-13594624D02*
X11323686Y-13594624D01*
X11323686Y-13594624D02*
X11342734Y-13604148D01*
X11342734Y-13604148D02*
X11352258Y-13613671D01*
X11352258Y-13613671D02*
X11361782Y-13632719D01*
X11361782Y-13632719D02*
X11371305Y-13670814D01*
X11371305Y-13670814D02*
X11371305Y-13718433D01*
X11371305Y-13718433D02*
X11361782Y-13756528D01*
X11361782Y-13756528D02*
X11352258Y-13775576D01*
X11352258Y-13775576D02*
X11342734Y-13785100D01*
X11342734Y-13785100D02*
X11323686Y-13794624D01*
X11323686Y-13794624D02*
X11304639Y-13794624D01*
X11304639Y-13794624D02*
X11285591Y-13785100D01*
X11285591Y-13785100D02*
X11276067Y-13775576D01*
X11276067Y-13775576D02*
X11266543Y-13756528D01*
X11266543Y-13756528D02*
X11257020Y-13718433D01*
X11257020Y-13718433D02*
X11257020Y-13670814D01*
X11257020Y-13670814D02*
X11266543Y-13632719D01*
X11266543Y-13632719D02*
X11276067Y-13613671D01*
X11276067Y-13613671D02*
X11285591Y-13604148D01*
X11285591Y-13604148D02*
X11304639Y-13594624D01*
X11457020Y-13794624D02*
X11457020Y-13661290D01*
X11457020Y-13680338D02*
X11466543Y-13670814D01*
X11466543Y-13670814D02*
X11485591Y-13661290D01*
X11485591Y-13661290D02*
X11514163Y-13661290D01*
X11514163Y-13661290D02*
X11533210Y-13670814D01*
X11533210Y-13670814D02*
X11542734Y-13689862D01*
X11542734Y-13689862D02*
X11542734Y-13794624D01*
X11542734Y-13689862D02*
X11552258Y-13670814D01*
X11552258Y-13670814D02*
X11571305Y-13661290D01*
X11571305Y-13661290D02*
X11599877Y-13661290D01*
X11599877Y-13661290D02*
X11618924Y-13670814D01*
X11618924Y-13670814D02*
X11628448Y-13689862D01*
X11628448Y-13689862D02*
X11628448Y-13794624D01*
X11723686Y-13794624D02*
X11723686Y-13661290D01*
X11723686Y-13680338D02*
X11733210Y-13670814D01*
X11733210Y-13670814D02*
X11752258Y-13661290D01*
X11752258Y-13661290D02*
X11780829Y-13661290D01*
X11780829Y-13661290D02*
X11799877Y-13670814D01*
X11799877Y-13670814D02*
X11809401Y-13689862D01*
X11809401Y-13689862D02*
X11809401Y-13794624D01*
X11809401Y-13689862D02*
X11818924Y-13670814D01*
X11818924Y-13670814D02*
X11837972Y-13661290D01*
X11837972Y-13661290D02*
X11866543Y-13661290D01*
X11866543Y-13661290D02*
X11885591Y-13670814D01*
X11885591Y-13670814D02*
X11895115Y-13689862D01*
X11895115Y-13689862D02*
X11895115Y-13794624D01*
X12285591Y-13585100D02*
X12114163Y-13842243D01*
X12542734Y-13594624D02*
X12561782Y-13594624D01*
X12561782Y-13594624D02*
X12580829Y-13604148D01*
X12580829Y-13604148D02*
X12590353Y-13613671D01*
X12590353Y-13613671D02*
X12599877Y-13632719D01*
X12599877Y-13632719D02*
X12609401Y-13670814D01*
X12609401Y-13670814D02*
X12609401Y-13718433D01*
X12609401Y-13718433D02*
X12599877Y-13756528D01*
X12599877Y-13756528D02*
X12590353Y-13775576D01*
X12590353Y-13775576D02*
X12580829Y-13785100D01*
X12580829Y-13785100D02*
X12561782Y-13794624D01*
X12561782Y-13794624D02*
X12542734Y-13794624D01*
X12542734Y-13794624D02*
X12523686Y-13785100D01*
X12523686Y-13785100D02*
X12514163Y-13775576D01*
X12514163Y-13775576D02*
X12504639Y-13756528D01*
X12504639Y-13756528D02*
X12495115Y-13718433D01*
X12495115Y-13718433D02*
X12495115Y-13670814D01*
X12495115Y-13670814D02*
X12504639Y-13632719D01*
X12504639Y-13632719D02*
X12514163Y-13613671D01*
X12514163Y-13613671D02*
X12523686Y-13604148D01*
X12523686Y-13604148D02*
X12542734Y-13594624D01*
X12695115Y-13775576D02*
X12704639Y-13785100D01*
X12704639Y-13785100D02*
X12695115Y-13794624D01*
X12695115Y-13794624D02*
X12685591Y-13785100D01*
X12685591Y-13785100D02*
X12695115Y-13775576D01*
X12695115Y-13775576D02*
X12695115Y-13794624D01*
X12895115Y-13794624D02*
X12780829Y-13794624D01*
X12837972Y-13794624D02*
X12837972Y-13594624D01*
X12837972Y-13594624D02*
X12818925Y-13623195D01*
X12818925Y-13623195D02*
X12799877Y-13642243D01*
X12799877Y-13642243D02*
X12780829Y-13651767D01*
X12971306Y-13613671D02*
X12980829Y-13604148D01*
X12980829Y-13604148D02*
X12999877Y-13594624D01*
X12999877Y-13594624D02*
X13047496Y-13594624D01*
X13047496Y-13594624D02*
X13066544Y-13604148D01*
X13066544Y-13604148D02*
X13076067Y-13613671D01*
X13076067Y-13613671D02*
X13085591Y-13632719D01*
X13085591Y-13632719D02*
X13085591Y-13651767D01*
X13085591Y-13651767D02*
X13076067Y-13680338D01*
X13076067Y-13680338D02*
X12961782Y-13794624D01*
X12961782Y-13794624D02*
X13085591Y-13794624D01*
X13257020Y-13594624D02*
X13218925Y-13594624D01*
X13218925Y-13594624D02*
X13199877Y-13604148D01*
X13199877Y-13604148D02*
X13190353Y-13613671D01*
X13190353Y-13613671D02*
X13171306Y-13642243D01*
X13171306Y-13642243D02*
X13161782Y-13680338D01*
X13161782Y-13680338D02*
X13161782Y-13756528D01*
X13161782Y-13756528D02*
X13171306Y-13775576D01*
X13171306Y-13775576D02*
X13180829Y-13785100D01*
X13180829Y-13785100D02*
X13199877Y-13794624D01*
X13199877Y-13794624D02*
X13237972Y-13794624D01*
X13237972Y-13794624D02*
X13257020Y-13785100D01*
X13257020Y-13785100D02*
X13266544Y-13775576D01*
X13266544Y-13775576D02*
X13276067Y-13756528D01*
X13276067Y-13756528D02*
X13276067Y-13708909D01*
X13276067Y-13708909D02*
X13266544Y-13689862D01*
X13266544Y-13689862D02*
X13257020Y-13680338D01*
X13257020Y-13680338D02*
X13237972Y-13670814D01*
X13237972Y-13670814D02*
X13199877Y-13670814D01*
X13199877Y-13670814D02*
X13180829Y-13680338D01*
X13180829Y-13680338D02*
X13171306Y-13689862D01*
X13171306Y-13689862D02*
X13161782Y-13708909D01*
X13399877Y-13594624D02*
X13418925Y-13594624D01*
X13418925Y-13594624D02*
X13437972Y-13604148D01*
X13437972Y-13604148D02*
X13447496Y-13613671D01*
X13447496Y-13613671D02*
X13457020Y-13632719D01*
X13457020Y-13632719D02*
X13466544Y-13670814D01*
X13466544Y-13670814D02*
X13466544Y-13718433D01*
X13466544Y-13718433D02*
X13457020Y-13756528D01*
X13457020Y-13756528D02*
X13447496Y-13775576D01*
X13447496Y-13775576D02*
X13437972Y-13785100D01*
X13437972Y-13785100D02*
X13418925Y-13794624D01*
X13418925Y-13794624D02*
X13399877Y-13794624D01*
X13399877Y-13794624D02*
X13380829Y-13785100D01*
X13380829Y-13785100D02*
X13371306Y-13775576D01*
X13371306Y-13775576D02*
X13361782Y-13756528D01*
X13361782Y-13756528D02*
X13352258Y-13718433D01*
X13352258Y-13718433D02*
X13352258Y-13670814D01*
X13352258Y-13670814D02*
X13361782Y-13632719D01*
X13361782Y-13632719D02*
X13371306Y-13613671D01*
X13371306Y-13613671D02*
X13380829Y-13604148D01*
X13380829Y-13604148D02*
X13399877Y-13594624D01*
X13542734Y-13594624D02*
X13542734Y-13632719D01*
X13618925Y-13594624D02*
X13618925Y-13632719D01*
X13914163Y-13870814D02*
X13904639Y-13861290D01*
X13904639Y-13861290D02*
X13885591Y-13832719D01*
X13885591Y-13832719D02*
X13876068Y-13813671D01*
X13876068Y-13813671D02*
X13866544Y-13785100D01*
X13866544Y-13785100D02*
X13857020Y-13737481D01*
X13857020Y-13737481D02*
X13857020Y-13699386D01*
X13857020Y-13699386D02*
X13866544Y-13651767D01*
X13866544Y-13651767D02*
X13876068Y-13623195D01*
X13876068Y-13623195D02*
X13885591Y-13604148D01*
X13885591Y-13604148D02*
X13904639Y-13575576D01*
X13904639Y-13575576D02*
X13914163Y-13566052D01*
X14076068Y-13661290D02*
X14076068Y-13794624D01*
X14028448Y-13585100D02*
X13980829Y-13727957D01*
X13980829Y-13727957D02*
X14104639Y-13727957D01*
X14333210Y-13794624D02*
X14333210Y-13594624D01*
X14418925Y-13794624D02*
X14418925Y-13689862D01*
X14418925Y-13689862D02*
X14409401Y-13670814D01*
X14409401Y-13670814D02*
X14390353Y-13661290D01*
X14390353Y-13661290D02*
X14361782Y-13661290D01*
X14361782Y-13661290D02*
X14342734Y-13670814D01*
X14342734Y-13670814D02*
X14333210Y-13680338D01*
X14542734Y-13794624D02*
X14523687Y-13785100D01*
X14523687Y-13785100D02*
X14514163Y-13775576D01*
X14514163Y-13775576D02*
X14504639Y-13756528D01*
X14504639Y-13756528D02*
X14504639Y-13699386D01*
X14504639Y-13699386D02*
X14514163Y-13680338D01*
X14514163Y-13680338D02*
X14523687Y-13670814D01*
X14523687Y-13670814D02*
X14542734Y-13661290D01*
X14542734Y-13661290D02*
X14571306Y-13661290D01*
X14571306Y-13661290D02*
X14590353Y-13670814D01*
X14590353Y-13670814D02*
X14599877Y-13680338D01*
X14599877Y-13680338D02*
X14609401Y-13699386D01*
X14609401Y-13699386D02*
X14609401Y-13756528D01*
X14609401Y-13756528D02*
X14599877Y-13775576D01*
X14599877Y-13775576D02*
X14590353Y-13785100D01*
X14590353Y-13785100D02*
X14571306Y-13794624D01*
X14571306Y-13794624D02*
X14542734Y-13794624D01*
X14723687Y-13794624D02*
X14704639Y-13785100D01*
X14704639Y-13785100D02*
X14695115Y-13766052D01*
X14695115Y-13766052D02*
X14695115Y-13594624D01*
X14876068Y-13785100D02*
X14857020Y-13794624D01*
X14857020Y-13794624D02*
X14818925Y-13794624D01*
X14818925Y-13794624D02*
X14799877Y-13785100D01*
X14799877Y-13785100D02*
X14790353Y-13766052D01*
X14790353Y-13766052D02*
X14790353Y-13689862D01*
X14790353Y-13689862D02*
X14799877Y-13670814D01*
X14799877Y-13670814D02*
X14818925Y-13661290D01*
X14818925Y-13661290D02*
X14857020Y-13661290D01*
X14857020Y-13661290D02*
X14876068Y-13670814D01*
X14876068Y-13670814D02*
X14885591Y-13689862D01*
X14885591Y-13689862D02*
X14885591Y-13708909D01*
X14885591Y-13708909D02*
X14790353Y-13727957D01*
X14961782Y-13785100D02*
X14980830Y-13794624D01*
X14980830Y-13794624D02*
X15018925Y-13794624D01*
X15018925Y-13794624D02*
X15037972Y-13785100D01*
X15037972Y-13785100D02*
X15047496Y-13766052D01*
X15047496Y-13766052D02*
X15047496Y-13756528D01*
X15047496Y-13756528D02*
X15037972Y-13737481D01*
X15037972Y-13737481D02*
X15018925Y-13727957D01*
X15018925Y-13727957D02*
X14990353Y-13727957D01*
X14990353Y-13727957D02*
X14971306Y-13718433D01*
X14971306Y-13718433D02*
X14961782Y-13699386D01*
X14961782Y-13699386D02*
X14961782Y-13689862D01*
X14961782Y-13689862D02*
X14971306Y-13670814D01*
X14971306Y-13670814D02*
X14990353Y-13661290D01*
X14990353Y-13661290D02*
X15018925Y-13661290D01*
X15018925Y-13661290D02*
X15037972Y-13670814D01*
X15114163Y-13870814D02*
X15123687Y-13861290D01*
X15123687Y-13861290D02*
X15142734Y-13832719D01*
X15142734Y-13832719D02*
X15152258Y-13813671D01*
X15152258Y-13813671D02*
X15161782Y-13785100D01*
X15161782Y-13785100D02*
X15171306Y-13737481D01*
X15171306Y-13737481D02*
X15171306Y-13699386D01*
X15171306Y-13699386D02*
X15161782Y-13651767D01*
X15161782Y-13651767D02*
X15152258Y-13623195D01*
X15152258Y-13623195D02*
X15142734Y-13604148D01*
X15142734Y-13604148D02*
X15123687Y-13575576D01*
X15123687Y-13575576D02*
X15114163Y-13566052D01*
X15476068Y-13870814D02*
X15466544Y-13861290D01*
X15466544Y-13861290D02*
X15447496Y-13832719D01*
X15447496Y-13832719D02*
X15437972Y-13813671D01*
X15437972Y-13813671D02*
X15428449Y-13785100D01*
X15428449Y-13785100D02*
X15418925Y-13737481D01*
X15418925Y-13737481D02*
X15418925Y-13699386D01*
X15418925Y-13699386D02*
X15428449Y-13651767D01*
X15428449Y-13651767D02*
X15437972Y-13623195D01*
X15437972Y-13623195D02*
X15447496Y-13604148D01*
X15447496Y-13604148D02*
X15466544Y-13575576D01*
X15466544Y-13575576D02*
X15476068Y-13566052D01*
X15552258Y-13661290D02*
X15552258Y-13794624D01*
X15552258Y-13680338D02*
X15561782Y-13670814D01*
X15561782Y-13670814D02*
X15580830Y-13661290D01*
X15580830Y-13661290D02*
X15609401Y-13661290D01*
X15609401Y-13661290D02*
X15628449Y-13670814D01*
X15628449Y-13670814D02*
X15637972Y-13689862D01*
X15637972Y-13689862D02*
X15637972Y-13794624D01*
X15761782Y-13794624D02*
X15742734Y-13785100D01*
X15742734Y-13785100D02*
X15733211Y-13775576D01*
X15733211Y-13775576D02*
X15723687Y-13756528D01*
X15723687Y-13756528D02*
X15723687Y-13699386D01*
X15723687Y-13699386D02*
X15733211Y-13680338D01*
X15733211Y-13680338D02*
X15742734Y-13670814D01*
X15742734Y-13670814D02*
X15761782Y-13661290D01*
X15761782Y-13661290D02*
X15790353Y-13661290D01*
X15790353Y-13661290D02*
X15809401Y-13670814D01*
X15809401Y-13670814D02*
X15818925Y-13680338D01*
X15818925Y-13680338D02*
X15828449Y-13699386D01*
X15828449Y-13699386D02*
X15828449Y-13756528D01*
X15828449Y-13756528D02*
X15818925Y-13775576D01*
X15818925Y-13775576D02*
X15809401Y-13785100D01*
X15809401Y-13785100D02*
X15790353Y-13794624D01*
X15790353Y-13794624D02*
X15761782Y-13794624D01*
X15885592Y-13661290D02*
X15961782Y-13661290D01*
X15914163Y-13594624D02*
X15914163Y-13766052D01*
X15914163Y-13766052D02*
X15923687Y-13785100D01*
X15923687Y-13785100D02*
X15942734Y-13794624D01*
X15942734Y-13794624D02*
X15961782Y-13794624D01*
X16180830Y-13661290D02*
X16180830Y-13861290D01*
X16180830Y-13670814D02*
X16199877Y-13661290D01*
X16199877Y-13661290D02*
X16237973Y-13661290D01*
X16237973Y-13661290D02*
X16257020Y-13670814D01*
X16257020Y-13670814D02*
X16266544Y-13680338D01*
X16266544Y-13680338D02*
X16276068Y-13699386D01*
X16276068Y-13699386D02*
X16276068Y-13756528D01*
X16276068Y-13756528D02*
X16266544Y-13775576D01*
X16266544Y-13775576D02*
X16257020Y-13785100D01*
X16257020Y-13785100D02*
X16237973Y-13794624D01*
X16237973Y-13794624D02*
X16199877Y-13794624D01*
X16199877Y-13794624D02*
X16180830Y-13785100D01*
X16390353Y-13794624D02*
X16371306Y-13785100D01*
X16371306Y-13785100D02*
X16361782Y-13766052D01*
X16361782Y-13766052D02*
X16361782Y-13594624D01*
X16552258Y-13794624D02*
X16552258Y-13689862D01*
X16552258Y-13689862D02*
X16542734Y-13670814D01*
X16542734Y-13670814D02*
X16523687Y-13661290D01*
X16523687Y-13661290D02*
X16485592Y-13661290D01*
X16485592Y-13661290D02*
X16466544Y-13670814D01*
X16552258Y-13785100D02*
X16533211Y-13794624D01*
X16533211Y-13794624D02*
X16485592Y-13794624D01*
X16485592Y-13794624D02*
X16466544Y-13785100D01*
X16466544Y-13785100D02*
X16457020Y-13766052D01*
X16457020Y-13766052D02*
X16457020Y-13747005D01*
X16457020Y-13747005D02*
X16466544Y-13727957D01*
X16466544Y-13727957D02*
X16485592Y-13718433D01*
X16485592Y-13718433D02*
X16533211Y-13718433D01*
X16533211Y-13718433D02*
X16552258Y-13708909D01*
X16618925Y-13661290D02*
X16695115Y-13661290D01*
X16647496Y-13594624D02*
X16647496Y-13766052D01*
X16647496Y-13766052D02*
X16657020Y-13785100D01*
X16657020Y-13785100D02*
X16676068Y-13794624D01*
X16676068Y-13794624D02*
X16695115Y-13794624D01*
X16837973Y-13785100D02*
X16818925Y-13794624D01*
X16818925Y-13794624D02*
X16780830Y-13794624D01*
X16780830Y-13794624D02*
X16761782Y-13785100D01*
X16761782Y-13785100D02*
X16752258Y-13766052D01*
X16752258Y-13766052D02*
X16752258Y-13689862D01*
X16752258Y-13689862D02*
X16761782Y-13670814D01*
X16761782Y-13670814D02*
X16780830Y-13661290D01*
X16780830Y-13661290D02*
X16818925Y-13661290D01*
X16818925Y-13661290D02*
X16837973Y-13670814D01*
X16837973Y-13670814D02*
X16847496Y-13689862D01*
X16847496Y-13689862D02*
X16847496Y-13708909D01*
X16847496Y-13708909D02*
X16752258Y-13727957D01*
X17018925Y-13794624D02*
X17018925Y-13594624D01*
X17018925Y-13785100D02*
X16999877Y-13794624D01*
X16999877Y-13794624D02*
X16961782Y-13794624D01*
X16961782Y-13794624D02*
X16942735Y-13785100D01*
X16942735Y-13785100D02*
X16933211Y-13775576D01*
X16933211Y-13775576D02*
X16923687Y-13756528D01*
X16923687Y-13756528D02*
X16923687Y-13699386D01*
X16923687Y-13699386D02*
X16933211Y-13680338D01*
X16933211Y-13680338D02*
X16942735Y-13670814D01*
X16942735Y-13670814D02*
X16961782Y-13661290D01*
X16961782Y-13661290D02*
X16999877Y-13661290D01*
X16999877Y-13661290D02*
X17018925Y-13670814D01*
X17095116Y-13870814D02*
X17104639Y-13861290D01*
X17104639Y-13861290D02*
X17123687Y-13832719D01*
X17123687Y-13832719D02*
X17133211Y-13813671D01*
X17133211Y-13813671D02*
X17142735Y-13785100D01*
X17142735Y-13785100D02*
X17152258Y-13737481D01*
X17152258Y-13737481D02*
X17152258Y-13699386D01*
X17152258Y-13699386D02*
X17142735Y-13651767D01*
X17142735Y-13651767D02*
X17133211Y-13623195D01*
X17133211Y-13623195D02*
X17123687Y-13604148D01*
X17123687Y-13604148D02*
X17104639Y-13575576D01*
X17104639Y-13575576D02*
X17095116Y-13566052D01*
M02*
