%TF.GenerationSoftware,KiCad,Pcbnew,(6.0.11)*%
%TF.CreationDate,2023-08-29T14:16:52-05:00*%
%TF.ProjectId,Cabina,43616269-6e61-42e6-9b69-6361645f7063,rev?*%
%TF.SameCoordinates,Original*%
%TF.FileFunction,Drillmap*%
%TF.FilePolarity,Positive*%
%FSLAX45Y45*%
G04 Gerber Fmt 4.5, Leading zero omitted, Abs format (unit mm)*
G04 Created by KiCad (PCBNEW (6.0.11)) date 2023-08-29 14:16:52*
%MOMM*%
%LPD*%
G01*
G04 APERTURE LIST*
%ADD10C,0.100000*%
%ADD11C,0.200000*%
%ADD12C,0.320000*%
G04 APERTURE END LIST*
D10*
X10344100Y-3817620D02*
X20290740Y-3817620D01*
X20290740Y-3817620D02*
X20290740Y-13058140D01*
X20290740Y-13058140D02*
X10344100Y-13058140D01*
X10344100Y-13058140D02*
X10344100Y-3817620D01*
D11*
D12*
X10594360Y-12479040D02*
X10914360Y-12799040D01*
X10914360Y-12479040D02*
X10594360Y-12799040D01*
X10939800Y-4158000D02*
X11259800Y-4478000D01*
X11259800Y-4158000D02*
X10939800Y-4478000D01*
X18798560Y-12506980D02*
X19118560Y-12826980D01*
X19118560Y-12506980D02*
X18798560Y-12826980D01*
X19728200Y-4158000D02*
X20048200Y-4478000D01*
X20048200Y-4158000D02*
X19728200Y-4478000D01*
D11*
X10596719Y-13373616D02*
X10596719Y-13173616D01*
X10644338Y-13173616D01*
X10672910Y-13183140D01*
X10691957Y-13202188D01*
X10701481Y-13221235D01*
X10711005Y-13259330D01*
X10711005Y-13287902D01*
X10701481Y-13325997D01*
X10691957Y-13345045D01*
X10672910Y-13364092D01*
X10644338Y-13373616D01*
X10596719Y-13373616D01*
X10796719Y-13373616D02*
X10796719Y-13240283D01*
X10796719Y-13278378D02*
X10806243Y-13259330D01*
X10815767Y-13249807D01*
X10834814Y-13240283D01*
X10853862Y-13240283D01*
X10920529Y-13373616D02*
X10920529Y-13240283D01*
X10920529Y-13173616D02*
X10911005Y-13183140D01*
X10920529Y-13192664D01*
X10930052Y-13183140D01*
X10920529Y-13173616D01*
X10920529Y-13192664D01*
X11044338Y-13373616D02*
X11025290Y-13364092D01*
X11015767Y-13345045D01*
X11015767Y-13173616D01*
X11149100Y-13373616D02*
X11130052Y-13364092D01*
X11120529Y-13345045D01*
X11120529Y-13173616D01*
X11377671Y-13373616D02*
X11377671Y-13173616D01*
X11444338Y-13316473D01*
X11511005Y-13173616D01*
X11511005Y-13373616D01*
X11691957Y-13373616D02*
X11691957Y-13268854D01*
X11682433Y-13249807D01*
X11663386Y-13240283D01*
X11625290Y-13240283D01*
X11606243Y-13249807D01*
X11691957Y-13364092D02*
X11672909Y-13373616D01*
X11625290Y-13373616D01*
X11606243Y-13364092D01*
X11596719Y-13345045D01*
X11596719Y-13325997D01*
X11606243Y-13306949D01*
X11625290Y-13297426D01*
X11672909Y-13297426D01*
X11691957Y-13287902D01*
X11787195Y-13240283D02*
X11787195Y-13440283D01*
X11787195Y-13249807D02*
X11806243Y-13240283D01*
X11844338Y-13240283D01*
X11863386Y-13249807D01*
X11872909Y-13259330D01*
X11882433Y-13278378D01*
X11882433Y-13335521D01*
X11872909Y-13354568D01*
X11863386Y-13364092D01*
X11844338Y-13373616D01*
X11806243Y-13373616D01*
X11787195Y-13364092D01*
X11968148Y-13354568D02*
X11977671Y-13364092D01*
X11968148Y-13373616D01*
X11958624Y-13364092D01*
X11968148Y-13354568D01*
X11968148Y-13373616D01*
X11968148Y-13249807D02*
X11977671Y-13259330D01*
X11968148Y-13268854D01*
X11958624Y-13259330D01*
X11968148Y-13249807D01*
X11968148Y-13268854D01*
X10139100Y-13603140D02*
X10339100Y-13803140D01*
X10339100Y-13603140D02*
X10139100Y-13803140D01*
X10577671Y-13593616D02*
X10701481Y-13593616D01*
X10634814Y-13669807D01*
X10663386Y-13669807D01*
X10682433Y-13679330D01*
X10691957Y-13688854D01*
X10701481Y-13707902D01*
X10701481Y-13755521D01*
X10691957Y-13774568D01*
X10682433Y-13784092D01*
X10663386Y-13793616D01*
X10606243Y-13793616D01*
X10587195Y-13784092D01*
X10577671Y-13774568D01*
X10787195Y-13774568D02*
X10796719Y-13784092D01*
X10787195Y-13793616D01*
X10777671Y-13784092D01*
X10787195Y-13774568D01*
X10787195Y-13793616D01*
X10872910Y-13612664D02*
X10882433Y-13603140D01*
X10901481Y-13593616D01*
X10949100Y-13593616D01*
X10968148Y-13603140D01*
X10977671Y-13612664D01*
X10987195Y-13631711D01*
X10987195Y-13650759D01*
X10977671Y-13679330D01*
X10863386Y-13793616D01*
X10987195Y-13793616D01*
X11111005Y-13593616D02*
X11130052Y-13593616D01*
X11149100Y-13603140D01*
X11158624Y-13612664D01*
X11168148Y-13631711D01*
X11177671Y-13669807D01*
X11177671Y-13717426D01*
X11168148Y-13755521D01*
X11158624Y-13774568D01*
X11149100Y-13784092D01*
X11130052Y-13793616D01*
X11111005Y-13793616D01*
X11091957Y-13784092D01*
X11082433Y-13774568D01*
X11072910Y-13755521D01*
X11063386Y-13717426D01*
X11063386Y-13669807D01*
X11072910Y-13631711D01*
X11082433Y-13612664D01*
X11091957Y-13603140D01*
X11111005Y-13593616D01*
X11301481Y-13593616D02*
X11320528Y-13593616D01*
X11339576Y-13603140D01*
X11349100Y-13612664D01*
X11358624Y-13631711D01*
X11368148Y-13669807D01*
X11368148Y-13717426D01*
X11358624Y-13755521D01*
X11349100Y-13774568D01*
X11339576Y-13784092D01*
X11320528Y-13793616D01*
X11301481Y-13793616D01*
X11282433Y-13784092D01*
X11272909Y-13774568D01*
X11263386Y-13755521D01*
X11253862Y-13717426D01*
X11253862Y-13669807D01*
X11263386Y-13631711D01*
X11272909Y-13612664D01*
X11282433Y-13603140D01*
X11301481Y-13593616D01*
X11453862Y-13793616D02*
X11453862Y-13660283D01*
X11453862Y-13679330D02*
X11463386Y-13669807D01*
X11482433Y-13660283D01*
X11511005Y-13660283D01*
X11530052Y-13669807D01*
X11539576Y-13688854D01*
X11539576Y-13793616D01*
X11539576Y-13688854D02*
X11549100Y-13669807D01*
X11568148Y-13660283D01*
X11596719Y-13660283D01*
X11615767Y-13669807D01*
X11625290Y-13688854D01*
X11625290Y-13793616D01*
X11720528Y-13793616D02*
X11720528Y-13660283D01*
X11720528Y-13679330D02*
X11730052Y-13669807D01*
X11749100Y-13660283D01*
X11777671Y-13660283D01*
X11796719Y-13669807D01*
X11806243Y-13688854D01*
X11806243Y-13793616D01*
X11806243Y-13688854D02*
X11815767Y-13669807D01*
X11834814Y-13660283D01*
X11863386Y-13660283D01*
X11882433Y-13669807D01*
X11891957Y-13688854D01*
X11891957Y-13793616D01*
X12282433Y-13584092D02*
X12111005Y-13841235D01*
X12539576Y-13593616D02*
X12558624Y-13593616D01*
X12577671Y-13603140D01*
X12587195Y-13612664D01*
X12596719Y-13631711D01*
X12606243Y-13669807D01*
X12606243Y-13717426D01*
X12596719Y-13755521D01*
X12587195Y-13774568D01*
X12577671Y-13784092D01*
X12558624Y-13793616D01*
X12539576Y-13793616D01*
X12520528Y-13784092D01*
X12511005Y-13774568D01*
X12501481Y-13755521D01*
X12491957Y-13717426D01*
X12491957Y-13669807D01*
X12501481Y-13631711D01*
X12511005Y-13612664D01*
X12520528Y-13603140D01*
X12539576Y-13593616D01*
X12691957Y-13774568D02*
X12701481Y-13784092D01*
X12691957Y-13793616D01*
X12682433Y-13784092D01*
X12691957Y-13774568D01*
X12691957Y-13793616D01*
X12891957Y-13793616D02*
X12777671Y-13793616D01*
X12834814Y-13793616D02*
X12834814Y-13593616D01*
X12815767Y-13622188D01*
X12796719Y-13641235D01*
X12777671Y-13650759D01*
X12968148Y-13612664D02*
X12977671Y-13603140D01*
X12996719Y-13593616D01*
X13044338Y-13593616D01*
X13063386Y-13603140D01*
X13072909Y-13612664D01*
X13082433Y-13631711D01*
X13082433Y-13650759D01*
X13072909Y-13679330D01*
X12958624Y-13793616D01*
X13082433Y-13793616D01*
X13253862Y-13593616D02*
X13215767Y-13593616D01*
X13196719Y-13603140D01*
X13187195Y-13612664D01*
X13168148Y-13641235D01*
X13158624Y-13679330D01*
X13158624Y-13755521D01*
X13168148Y-13774568D01*
X13177671Y-13784092D01*
X13196719Y-13793616D01*
X13234814Y-13793616D01*
X13253862Y-13784092D01*
X13263386Y-13774568D01*
X13272909Y-13755521D01*
X13272909Y-13707902D01*
X13263386Y-13688854D01*
X13253862Y-13679330D01*
X13234814Y-13669807D01*
X13196719Y-13669807D01*
X13177671Y-13679330D01*
X13168148Y-13688854D01*
X13158624Y-13707902D01*
X13396719Y-13593616D02*
X13415767Y-13593616D01*
X13434814Y-13603140D01*
X13444338Y-13612664D01*
X13453862Y-13631711D01*
X13463386Y-13669807D01*
X13463386Y-13717426D01*
X13453862Y-13755521D01*
X13444338Y-13774568D01*
X13434814Y-13784092D01*
X13415767Y-13793616D01*
X13396719Y-13793616D01*
X13377671Y-13784092D01*
X13368148Y-13774568D01*
X13358624Y-13755521D01*
X13349100Y-13717426D01*
X13349100Y-13669807D01*
X13358624Y-13631711D01*
X13368148Y-13612664D01*
X13377671Y-13603140D01*
X13396719Y-13593616D01*
X13539576Y-13593616D02*
X13539576Y-13631711D01*
X13615767Y-13593616D02*
X13615767Y-13631711D01*
X13911005Y-13869807D02*
X13901481Y-13860283D01*
X13882433Y-13831711D01*
X13872909Y-13812664D01*
X13863386Y-13784092D01*
X13853862Y-13736473D01*
X13853862Y-13698378D01*
X13863386Y-13650759D01*
X13872909Y-13622188D01*
X13882433Y-13603140D01*
X13901481Y-13574568D01*
X13911005Y-13565045D01*
X14072909Y-13660283D02*
X14072909Y-13793616D01*
X14025290Y-13584092D02*
X13977671Y-13726949D01*
X14101481Y-13726949D01*
X14330052Y-13793616D02*
X14330052Y-13593616D01*
X14415767Y-13793616D02*
X14415767Y-13688854D01*
X14406243Y-13669807D01*
X14387195Y-13660283D01*
X14358624Y-13660283D01*
X14339576Y-13669807D01*
X14330052Y-13679330D01*
X14539576Y-13793616D02*
X14520528Y-13784092D01*
X14511005Y-13774568D01*
X14501481Y-13755521D01*
X14501481Y-13698378D01*
X14511005Y-13679330D01*
X14520528Y-13669807D01*
X14539576Y-13660283D01*
X14568148Y-13660283D01*
X14587195Y-13669807D01*
X14596719Y-13679330D01*
X14606243Y-13698378D01*
X14606243Y-13755521D01*
X14596719Y-13774568D01*
X14587195Y-13784092D01*
X14568148Y-13793616D01*
X14539576Y-13793616D01*
X14720528Y-13793616D02*
X14701481Y-13784092D01*
X14691957Y-13765045D01*
X14691957Y-13593616D01*
X14872909Y-13784092D02*
X14853862Y-13793616D01*
X14815767Y-13793616D01*
X14796719Y-13784092D01*
X14787195Y-13765045D01*
X14787195Y-13688854D01*
X14796719Y-13669807D01*
X14815767Y-13660283D01*
X14853862Y-13660283D01*
X14872909Y-13669807D01*
X14882433Y-13688854D01*
X14882433Y-13707902D01*
X14787195Y-13726949D01*
X14958624Y-13784092D02*
X14977671Y-13793616D01*
X15015767Y-13793616D01*
X15034814Y-13784092D01*
X15044338Y-13765045D01*
X15044338Y-13755521D01*
X15034814Y-13736473D01*
X15015767Y-13726949D01*
X14987195Y-13726949D01*
X14968148Y-13717426D01*
X14958624Y-13698378D01*
X14958624Y-13688854D01*
X14968148Y-13669807D01*
X14987195Y-13660283D01*
X15015767Y-13660283D01*
X15034814Y-13669807D01*
X15111005Y-13869807D02*
X15120528Y-13860283D01*
X15139576Y-13831711D01*
X15149100Y-13812664D01*
X15158624Y-13784092D01*
X15168148Y-13736473D01*
X15168148Y-13698378D01*
X15158624Y-13650759D01*
X15149100Y-13622188D01*
X15139576Y-13603140D01*
X15120528Y-13574568D01*
X15111005Y-13565045D01*
X15472909Y-13869807D02*
X15463386Y-13860283D01*
X15444338Y-13831711D01*
X15434814Y-13812664D01*
X15425290Y-13784092D01*
X15415767Y-13736473D01*
X15415767Y-13698378D01*
X15425290Y-13650759D01*
X15434814Y-13622188D01*
X15444338Y-13603140D01*
X15463386Y-13574568D01*
X15472909Y-13565045D01*
X15549100Y-13660283D02*
X15549100Y-13793616D01*
X15549100Y-13679330D02*
X15558624Y-13669807D01*
X15577671Y-13660283D01*
X15606243Y-13660283D01*
X15625290Y-13669807D01*
X15634814Y-13688854D01*
X15634814Y-13793616D01*
X15758624Y-13793616D02*
X15739576Y-13784092D01*
X15730052Y-13774568D01*
X15720528Y-13755521D01*
X15720528Y-13698378D01*
X15730052Y-13679330D01*
X15739576Y-13669807D01*
X15758624Y-13660283D01*
X15787195Y-13660283D01*
X15806243Y-13669807D01*
X15815767Y-13679330D01*
X15825290Y-13698378D01*
X15825290Y-13755521D01*
X15815767Y-13774568D01*
X15806243Y-13784092D01*
X15787195Y-13793616D01*
X15758624Y-13793616D01*
X15882433Y-13660283D02*
X15958624Y-13660283D01*
X15911005Y-13593616D02*
X15911005Y-13765045D01*
X15920528Y-13784092D01*
X15939576Y-13793616D01*
X15958624Y-13793616D01*
X16177671Y-13660283D02*
X16177671Y-13860283D01*
X16177671Y-13669807D02*
X16196719Y-13660283D01*
X16234814Y-13660283D01*
X16253862Y-13669807D01*
X16263386Y-13679330D01*
X16272909Y-13698378D01*
X16272909Y-13755521D01*
X16263386Y-13774568D01*
X16253862Y-13784092D01*
X16234814Y-13793616D01*
X16196719Y-13793616D01*
X16177671Y-13784092D01*
X16387195Y-13793616D02*
X16368148Y-13784092D01*
X16358624Y-13765045D01*
X16358624Y-13593616D01*
X16549100Y-13793616D02*
X16549100Y-13688854D01*
X16539576Y-13669807D01*
X16520528Y-13660283D01*
X16482433Y-13660283D01*
X16463386Y-13669807D01*
X16549100Y-13784092D02*
X16530052Y-13793616D01*
X16482433Y-13793616D01*
X16463386Y-13784092D01*
X16453862Y-13765045D01*
X16453862Y-13745997D01*
X16463386Y-13726949D01*
X16482433Y-13717426D01*
X16530052Y-13717426D01*
X16549100Y-13707902D01*
X16615767Y-13660283D02*
X16691957Y-13660283D01*
X16644338Y-13593616D02*
X16644338Y-13765045D01*
X16653862Y-13784092D01*
X16672909Y-13793616D01*
X16691957Y-13793616D01*
X16834814Y-13784092D02*
X16815767Y-13793616D01*
X16777671Y-13793616D01*
X16758624Y-13784092D01*
X16749100Y-13765045D01*
X16749100Y-13688854D01*
X16758624Y-13669807D01*
X16777671Y-13660283D01*
X16815767Y-13660283D01*
X16834814Y-13669807D01*
X16844338Y-13688854D01*
X16844338Y-13707902D01*
X16749100Y-13726949D01*
X17015767Y-13793616D02*
X17015767Y-13593616D01*
X17015767Y-13784092D02*
X16996719Y-13793616D01*
X16958624Y-13793616D01*
X16939576Y-13784092D01*
X16930052Y-13774568D01*
X16920529Y-13755521D01*
X16920529Y-13698378D01*
X16930052Y-13679330D01*
X16939576Y-13669807D01*
X16958624Y-13660283D01*
X16996719Y-13660283D01*
X17015767Y-13669807D01*
X17091957Y-13869807D02*
X17101481Y-13860283D01*
X17120529Y-13831711D01*
X17130052Y-13812664D01*
X17139576Y-13784092D01*
X17149100Y-13736473D01*
X17149100Y-13698378D01*
X17139576Y-13650759D01*
X17130052Y-13622188D01*
X17120529Y-13603140D01*
X17101481Y-13574568D01*
X17091957Y-13565045D01*
M02*
