%TF.GenerationSoftware,KiCad,Pcbnew,7.0.9*%
%TF.CreationDate,2023-12-12T15:16:32-05:00*%
%TF.ProjectId,Cabina,43616269-6e61-42e6-9b69-6361645f7063,rev?*%
%TF.SameCoordinates,Original*%
%TF.FileFunction,Drillmap*%
%TF.FilePolarity,Positive*%
%FSLAX45Y45*%
G04 Gerber Fmt 4.5, Leading zero omitted, Abs format (unit mm)*
G04 Created by KiCad (PCBNEW 7.0.9) date 2023-12-12 15:16:32*
%MOMM*%
%LPD*%
G01*
G04 APERTURE LIST*
%ADD10C,0.100000*%
%ADD11C,0.200000*%
%ADD12C,0.130000*%
%ADD13C,0.140000*%
G04 APERTURE END LIST*
D10*
X10344100Y-3817620D02*
X20290740Y-3817620D01*
X20290740Y-13058140D01*
X10344100Y-13058140D01*
X10344100Y-3817620D01*
D11*
D10*
X10810480Y-11298160D02*
X10840480Y-11328160D01*
X10840480Y-11298160D02*
X10810480Y-11328160D01*
X10973040Y-9240760D02*
X11003040Y-9270760D01*
X11003040Y-9240760D02*
X10973040Y-9270760D01*
X11118960Y-6439140D02*
X11148960Y-6469140D01*
X11148960Y-6439140D02*
X11118960Y-6469140D01*
X11201640Y-10475200D02*
X11231640Y-10505200D01*
X11231640Y-10475200D02*
X11201640Y-10505200D01*
X11897600Y-10896840D02*
X11927600Y-10926840D01*
X11927600Y-10896840D02*
X11897600Y-10926840D01*
X12042380Y-10934940D02*
X12072380Y-10964940D01*
X12072380Y-10934940D02*
X12042380Y-10964940D01*
X12184620Y-10967960D02*
X12214620Y-10997960D01*
X12214620Y-10967960D02*
X12184620Y-10997960D01*
X12296380Y-11059400D02*
X12326380Y-11089400D01*
X12326380Y-11059400D02*
X12296380Y-11089400D01*
X12314160Y-4374120D02*
X12344160Y-4404120D01*
X12344160Y-4374120D02*
X12314160Y-4404120D01*
X12433540Y-7462760D02*
X12463540Y-7492760D01*
X12463540Y-7462760D02*
X12433540Y-7492760D01*
X12484340Y-11775680D02*
X12514340Y-11805680D01*
X12514340Y-11775680D02*
X12484340Y-11805680D01*
X12497040Y-11625820D02*
X12527040Y-11655820D01*
X12527040Y-11625820D02*
X12497040Y-11655820D01*
X12697700Y-10122140D02*
X12727700Y-10152140D01*
X12727700Y-10122140D02*
X12697700Y-10152140D01*
X12964400Y-11506440D02*
X12994400Y-11536440D01*
X12994400Y-11506440D02*
X12964400Y-11536440D01*
X13162520Y-7190980D02*
X13192520Y-7220980D01*
X13192520Y-7190980D02*
X13162520Y-7220980D01*
X13286980Y-10495520D02*
X13316980Y-10525520D01*
X13316980Y-10495520D02*
X13286980Y-10525520D01*
X13553680Y-10797780D02*
X13583680Y-10827780D01*
X13583680Y-10797780D02*
X13553680Y-10827780D01*
X13581620Y-9794480D02*
X13611620Y-9824480D01*
X13611620Y-9794480D02*
X13581620Y-9824480D01*
X13662900Y-7909800D02*
X13692900Y-7939800D01*
X13692900Y-7909800D02*
X13662900Y-7939800D01*
X13842780Y-9554850D02*
X13872780Y-9584850D01*
X13872780Y-9554850D02*
X13842780Y-9584850D01*
X13924520Y-11036540D02*
X13954520Y-11066540D01*
X13954520Y-11036540D02*
X13924520Y-11066540D01*
X13947380Y-5260580D02*
X13977380Y-5290580D01*
X13977380Y-5260580D02*
X13947380Y-5290580D01*
X13982940Y-8811500D02*
X14012940Y-8841500D01*
X14012940Y-8811500D02*
X13982940Y-8841500D01*
X14028660Y-10160240D02*
X14058660Y-10190240D01*
X14058660Y-10160240D02*
X14028660Y-10190240D01*
X14031200Y-10261840D02*
X14061200Y-10291840D01*
X14061200Y-10261840D02*
X14031200Y-10291840D01*
X14130260Y-10551400D02*
X14160260Y-10581400D01*
X14160260Y-10551400D02*
X14130260Y-10581400D01*
X14130260Y-11000980D02*
X14160260Y-11030980D01*
X14160260Y-11000980D02*
X14130260Y-11030980D01*
X14137880Y-9903700D02*
X14167880Y-9933700D01*
X14167880Y-9903700D02*
X14137880Y-9933700D01*
X14399500Y-4310620D02*
X14429500Y-4340620D01*
X14429500Y-4310620D02*
X14399500Y-4340620D01*
X14501100Y-4315700D02*
X14531100Y-4345700D01*
X14531100Y-4315700D02*
X14501100Y-4345700D01*
X14569680Y-10993360D02*
X14599680Y-11023360D01*
X14599680Y-10993360D02*
X14569680Y-11023360D01*
X14579840Y-10721580D02*
X14609840Y-10751580D01*
X14609840Y-10721580D02*
X14579840Y-10751580D01*
X14638260Y-9771620D02*
X14668260Y-9801620D01*
X14668260Y-9771620D02*
X14638260Y-9801620D01*
X14696680Y-11061940D02*
X14726680Y-11091940D01*
X14726680Y-11061940D02*
X14696680Y-11091940D01*
X14704300Y-12270980D02*
X14734300Y-12300980D01*
X14734300Y-12270980D02*
X14704300Y-12300980D01*
X14719540Y-12425920D02*
X14749540Y-12455920D01*
X14749540Y-12425920D02*
X14719540Y-12455920D01*
X14772880Y-11127980D02*
X14802880Y-11157980D01*
X14802880Y-11127980D02*
X14772880Y-11157980D01*
X15031960Y-11285460D02*
X15061960Y-11315460D01*
X15061960Y-11285460D02*
X15031960Y-11315460D01*
X15031960Y-12255740D02*
X15061960Y-12285740D01*
X15061960Y-12255740D02*
X15031960Y-12285740D01*
X15087840Y-10780000D02*
X15117840Y-10810000D01*
X15117840Y-10780000D02*
X15087840Y-10810000D01*
X15308820Y-10472660D02*
X15338820Y-10502660D01*
X15338820Y-10472660D02*
X15308820Y-10502660D01*
X15415500Y-10459960D02*
X15445500Y-10489960D01*
X15445500Y-10459960D02*
X15415500Y-10489960D01*
X15491700Y-11122900D02*
X15521700Y-11152900D01*
X15521700Y-11122900D02*
X15491700Y-11152900D01*
X15496780Y-11247360D02*
X15526780Y-11277360D01*
X15526780Y-11247360D02*
X15496780Y-11277360D01*
X15550120Y-11544540D02*
X15580120Y-11574540D01*
X15580120Y-11544540D02*
X15550120Y-11574540D01*
X15797620Y-12353680D02*
X15827620Y-12383680D01*
X15827620Y-12353680D02*
X15797620Y-12383680D01*
X15987000Y-10142460D02*
X16017000Y-10172460D01*
X16017000Y-10142460D02*
X15987000Y-10172460D01*
X16980140Y-3970260D02*
X17010140Y-4000260D01*
X17010140Y-3970260D02*
X16980140Y-4000260D01*
X16980140Y-4165840D02*
X17010140Y-4195840D01*
X17010140Y-4165840D02*
X16980140Y-4195840D01*
X16980140Y-4356340D02*
X17010140Y-4386340D01*
X17010140Y-4356340D02*
X16980140Y-4386340D01*
X16980140Y-4554460D02*
X17010140Y-4584460D01*
X17010140Y-4554460D02*
X16980140Y-4584460D01*
X16980140Y-4770360D02*
X17010140Y-4800360D01*
X17010140Y-4770360D02*
X16980140Y-4800360D01*
X17018240Y-12585940D02*
X17048240Y-12615940D01*
X17048240Y-12585940D02*
X17018240Y-12615940D01*
X17091900Y-9913860D02*
X17121900Y-9943860D01*
X17121900Y-9913860D02*
X17091900Y-9943860D01*
X17094630Y-10017810D02*
X17124630Y-10047810D01*
X17124630Y-10017810D02*
X17094630Y-10047810D01*
X17180800Y-3970260D02*
X17210800Y-4000260D01*
X17210800Y-3970260D02*
X17180800Y-4000260D01*
X17183340Y-4770360D02*
X17213340Y-4800360D01*
X17213340Y-4770360D02*
X17183340Y-4800360D01*
X17292560Y-11930620D02*
X17322560Y-11960620D01*
X17322560Y-11930620D02*
X17292560Y-11960620D01*
X17353520Y-9700500D02*
X17383520Y-9730500D01*
X17383520Y-9700500D02*
X17353520Y-9730500D01*
X17363680Y-9055340D02*
X17393680Y-9085340D01*
X17393680Y-9055340D02*
X17363680Y-9085340D01*
X17437340Y-3970260D02*
X17467340Y-4000260D01*
X17467340Y-3970260D02*
X17437340Y-4000260D01*
X17442420Y-4770360D02*
X17472420Y-4800360D01*
X17472420Y-4770360D02*
X17442420Y-4800360D01*
X17559260Y-9164560D02*
X17589260Y-9194560D01*
X17589260Y-9164560D02*
X17559260Y-9194560D01*
X17658320Y-4770360D02*
X17688320Y-4800360D01*
X17688320Y-4770360D02*
X17658320Y-4800360D01*
X17676100Y-3970260D02*
X17706100Y-4000260D01*
X17706100Y-3970260D02*
X17676100Y-4000260D01*
X17683720Y-7424660D02*
X17713720Y-7454660D01*
X17713720Y-7424660D02*
X17683720Y-7454660D01*
X17696420Y-9164560D02*
X17726420Y-9194560D01*
X17726420Y-9164560D02*
X17696420Y-9194560D01*
X17792940Y-7427200D02*
X17822940Y-7457200D01*
X17822940Y-7427200D02*
X17792940Y-7457200D01*
X17899620Y-3970260D02*
X17929620Y-4000260D01*
X17929620Y-3970260D02*
X17899620Y-4000260D01*
X17899620Y-4165840D02*
X17929620Y-4195840D01*
X17929620Y-4165840D02*
X17899620Y-4195840D01*
X17899620Y-4356340D02*
X17929620Y-4386340D01*
X17929620Y-4356340D02*
X17899620Y-4386340D01*
X17899620Y-4554460D02*
X17929620Y-4584460D01*
X17929620Y-4554460D02*
X17899620Y-4584460D01*
X17899620Y-4770360D02*
X17929620Y-4800360D01*
X17929620Y-4770360D02*
X17899620Y-4800360D01*
X18552400Y-12052540D02*
X18582400Y-12082540D01*
X18582400Y-12052540D02*
X18552400Y-12082540D01*
X18928320Y-9240760D02*
X18958320Y-9270760D01*
X18958320Y-9240760D02*
X18928320Y-9270760D01*
X19459180Y-8184120D02*
X19489180Y-8214120D01*
X19489180Y-8184120D02*
X19459180Y-8214120D01*
X19474420Y-11221960D02*
X19504420Y-11251960D01*
X19504420Y-11221960D02*
X19474420Y-11251960D01*
X19840180Y-6589000D02*
X19870180Y-6619000D01*
X19870180Y-6589000D02*
X19840180Y-6619000D01*
X10688000Y-4064000D02*
G75*
G03*
X10688000Y-4064000I-20000J0D01*
G01*
X10688000Y-4318000D02*
G75*
G03*
X10688000Y-4318000I-20000J0D01*
G01*
X10688000Y-4572000D02*
G75*
G03*
X10688000Y-4572000I-20000J0D01*
G01*
X10688000Y-4826000D02*
G75*
G03*
X10688000Y-4826000I-20000J0D01*
G01*
X10688000Y-5080000D02*
G75*
G03*
X10688000Y-5080000I-20000J0D01*
G01*
X10688000Y-9906000D02*
G75*
G03*
X10688000Y-9906000I-20000J0D01*
G01*
X10688000Y-10160000D02*
G75*
G03*
X10688000Y-10160000I-20000J0D01*
G01*
X10688000Y-10414000D02*
G75*
G03*
X10688000Y-10414000I-20000J0D01*
G01*
X10688000Y-10668000D02*
G75*
G03*
X10688000Y-10668000I-20000J0D01*
G01*
X10688000Y-12192000D02*
G75*
G03*
X10688000Y-12192000I-20000J0D01*
G01*
X10942000Y-4826000D02*
G75*
G03*
X10942000Y-4826000I-20000J0D01*
G01*
X10942000Y-5080000D02*
G75*
G03*
X10942000Y-5080000I-20000J0D01*
G01*
X10942000Y-9906000D02*
G75*
G03*
X10942000Y-9906000I-20000J0D01*
G01*
X10942000Y-10160000D02*
G75*
G03*
X10942000Y-10160000I-20000J0D01*
G01*
X10942000Y-10414000D02*
G75*
G03*
X10942000Y-10414000I-20000J0D01*
G01*
X10942000Y-10668000D02*
G75*
G03*
X10942000Y-10668000I-20000J0D01*
G01*
X10942000Y-11176000D02*
G75*
G03*
X10942000Y-11176000I-20000J0D01*
G01*
X10942000Y-11430000D02*
G75*
G03*
X10942000Y-11430000I-20000J0D01*
G01*
X10942000Y-11938000D02*
G75*
G03*
X10942000Y-11938000I-20000J0D01*
G01*
X11196000Y-4826000D02*
G75*
G03*
X11196000Y-4826000I-20000J0D01*
G01*
X11196000Y-5080000D02*
G75*
G03*
X11196000Y-5080000I-20000J0D01*
G01*
X11196000Y-5334000D02*
G75*
G03*
X11196000Y-5334000I-20000J0D01*
G01*
X11196000Y-5588000D02*
G75*
G03*
X11196000Y-5588000I-20000J0D01*
G01*
X11196000Y-5842000D02*
G75*
G03*
X11196000Y-5842000I-20000J0D01*
G01*
X11196000Y-10668000D02*
G75*
G03*
X11196000Y-10668000I-20000J0D01*
G01*
X11196000Y-11176000D02*
G75*
G03*
X11196000Y-11176000I-20000J0D01*
G01*
X11196000Y-11430000D02*
G75*
G03*
X11196000Y-11430000I-20000J0D01*
G01*
X11196000Y-11938000D02*
G75*
G03*
X11196000Y-11938000I-20000J0D01*
G01*
X11196000Y-12192000D02*
G75*
G03*
X11196000Y-12192000I-20000J0D01*
G01*
X11450000Y-4572000D02*
G75*
G03*
X11450000Y-4572000I-20000J0D01*
G01*
X11450000Y-4826000D02*
G75*
G03*
X11450000Y-4826000I-20000J0D01*
G01*
X11450000Y-5080000D02*
G75*
G03*
X11450000Y-5080000I-20000J0D01*
G01*
X11450000Y-5334000D02*
G75*
G03*
X11450000Y-5334000I-20000J0D01*
G01*
X11450000Y-5588000D02*
G75*
G03*
X11450000Y-5588000I-20000J0D01*
G01*
X11450000Y-9906000D02*
G75*
G03*
X11450000Y-9906000I-20000J0D01*
G01*
X11450000Y-10160000D02*
G75*
G03*
X11450000Y-10160000I-20000J0D01*
G01*
X11450000Y-12192000D02*
G75*
G03*
X11450000Y-12192000I-20000J0D01*
G01*
X11704000Y-4064000D02*
G75*
G03*
X11704000Y-4064000I-20000J0D01*
G01*
X11704000Y-4318000D02*
G75*
G03*
X11704000Y-4318000I-20000J0D01*
G01*
X11704000Y-4572000D02*
G75*
G03*
X11704000Y-4572000I-20000J0D01*
G01*
X11704000Y-4826000D02*
G75*
G03*
X11704000Y-4826000I-20000J0D01*
G01*
X11704000Y-5080000D02*
G75*
G03*
X11704000Y-5080000I-20000J0D01*
G01*
X11704000Y-5334000D02*
G75*
G03*
X11704000Y-5334000I-20000J0D01*
G01*
X11704000Y-5588000D02*
G75*
G03*
X11704000Y-5588000I-20000J0D01*
G01*
X11704000Y-10668000D02*
G75*
G03*
X11704000Y-10668000I-20000J0D01*
G01*
X11919900Y-7213600D02*
G75*
G03*
X11919900Y-7213600I-20000J0D01*
G01*
X11958000Y-4572000D02*
G75*
G03*
X11958000Y-4572000I-20000J0D01*
G01*
X11958000Y-4826000D02*
G75*
G03*
X11958000Y-4826000I-20000J0D01*
G01*
X11958000Y-5080000D02*
G75*
G03*
X11958000Y-5080000I-20000J0D01*
G01*
X11958000Y-10668000D02*
G75*
G03*
X11958000Y-10668000I-20000J0D01*
G01*
X12031660Y-7139940D02*
G75*
G03*
X12031660Y-7139940I-20000J0D01*
G01*
X12212000Y-4572000D02*
G75*
G03*
X12212000Y-4572000I-20000J0D01*
G01*
X12212000Y-4826000D02*
G75*
G03*
X12212000Y-4826000I-20000J0D01*
G01*
X12212000Y-5080000D02*
G75*
G03*
X12212000Y-5080000I-20000J0D01*
G01*
X12212000Y-10668000D02*
G75*
G03*
X12212000Y-10668000I-20000J0D01*
G01*
X12466000Y-4572000D02*
G75*
G03*
X12466000Y-4572000I-20000J0D01*
G01*
X12466000Y-4826000D02*
G75*
G03*
X12466000Y-4826000I-20000J0D01*
G01*
X12466000Y-5080000D02*
G75*
G03*
X12466000Y-5080000I-20000J0D01*
G01*
X12466000Y-10668000D02*
G75*
G03*
X12466000Y-10668000I-20000J0D01*
G01*
X12466000Y-10922000D02*
G75*
G03*
X12466000Y-10922000I-20000J0D01*
G01*
X12720000Y-4826000D02*
G75*
G03*
X12720000Y-4826000I-20000J0D01*
G01*
X12720000Y-5080000D02*
G75*
G03*
X12720000Y-5080000I-20000J0D01*
G01*
X12720000Y-7874000D02*
G75*
G03*
X12720000Y-7874000I-20000J0D01*
G01*
X12720000Y-10668000D02*
G75*
G03*
X12720000Y-10668000I-20000J0D01*
G01*
X12720000Y-10922000D02*
G75*
G03*
X12720000Y-10922000I-20000J0D01*
G01*
X12720000Y-11176000D02*
G75*
G03*
X12720000Y-11176000I-20000J0D01*
G01*
X12720000Y-11684000D02*
G75*
G03*
X12720000Y-11684000I-20000J0D01*
G01*
X12880020Y-11559540D02*
G75*
G03*
X12880020Y-11559540I-20000J0D01*
G01*
X12974000Y-5080000D02*
G75*
G03*
X12974000Y-5080000I-20000J0D01*
G01*
X12974000Y-7874000D02*
G75*
G03*
X12974000Y-7874000I-20000J0D01*
G01*
X12974000Y-9906000D02*
G75*
G03*
X12974000Y-9906000I-20000J0D01*
G01*
X13228000Y-5080000D02*
G75*
G03*
X13228000Y-5080000I-20000J0D01*
G01*
X13228000Y-9906000D02*
G75*
G03*
X13228000Y-9906000I-20000J0D01*
G01*
X13228000Y-10668000D02*
G75*
G03*
X13228000Y-10668000I-20000J0D01*
G01*
X13228000Y-10922000D02*
G75*
G03*
X13228000Y-10922000I-20000J0D01*
G01*
X13228000Y-11176000D02*
G75*
G03*
X13228000Y-11176000I-20000J0D01*
G01*
X13482000Y-4064000D02*
G75*
G03*
X13482000Y-4064000I-20000J0D01*
G01*
X13482000Y-4318000D02*
G75*
G03*
X13482000Y-4318000I-20000J0D01*
G01*
X13482000Y-5080000D02*
G75*
G03*
X13482000Y-5080000I-20000J0D01*
G01*
X13482000Y-9398000D02*
G75*
G03*
X13482000Y-9398000I-20000J0D01*
G01*
X13482000Y-9652000D02*
G75*
G03*
X13482000Y-9652000I-20000J0D01*
G01*
X13482000Y-9906000D02*
G75*
G03*
X13482000Y-9906000I-20000J0D01*
G01*
X13482000Y-11176000D02*
G75*
G03*
X13482000Y-11176000I-20000J0D01*
G01*
X13736000Y-5080000D02*
G75*
G03*
X13736000Y-5080000I-20000J0D01*
G01*
X13736000Y-8382000D02*
G75*
G03*
X13736000Y-8382000I-20000J0D01*
G01*
X13736000Y-8636000D02*
G75*
G03*
X13736000Y-8636000I-20000J0D01*
G01*
X13736000Y-8890000D02*
G75*
G03*
X13736000Y-8890000I-20000J0D01*
G01*
X13736000Y-9398000D02*
G75*
G03*
X13736000Y-9398000I-20000J0D01*
G01*
X13736000Y-9906000D02*
G75*
G03*
X13736000Y-9906000I-20000J0D01*
G01*
X13990000Y-6350000D02*
G75*
G03*
X13990000Y-6350000I-20000J0D01*
G01*
X13990000Y-6604000D02*
G75*
G03*
X13990000Y-6604000I-20000J0D01*
G01*
X13990000Y-6858000D02*
G75*
G03*
X13990000Y-6858000I-20000J0D01*
G01*
X13990000Y-7112000D02*
G75*
G03*
X13990000Y-7112000I-20000J0D01*
G01*
X13990000Y-7620000D02*
G75*
G03*
X13990000Y-7620000I-20000J0D01*
G01*
X13990000Y-7874000D02*
G75*
G03*
X13990000Y-7874000I-20000J0D01*
G01*
X13990000Y-8382000D02*
G75*
G03*
X13990000Y-8382000I-20000J0D01*
G01*
X13990000Y-8636000D02*
G75*
G03*
X13990000Y-8636000I-20000J0D01*
G01*
X14244000Y-7366000D02*
G75*
G03*
X14244000Y-7366000I-20000J0D01*
G01*
X14244000Y-7874000D02*
G75*
G03*
X14244000Y-7874000I-20000J0D01*
G01*
X14244000Y-8382000D02*
G75*
G03*
X14244000Y-8382000I-20000J0D01*
G01*
X14244000Y-8636000D02*
G75*
G03*
X14244000Y-8636000I-20000J0D01*
G01*
X14498000Y-6096000D02*
G75*
G03*
X14498000Y-6096000I-20000J0D01*
G01*
X14498000Y-6350000D02*
G75*
G03*
X14498000Y-6350000I-20000J0D01*
G01*
X14498000Y-6604000D02*
G75*
G03*
X14498000Y-6604000I-20000J0D01*
G01*
X14498000Y-6858000D02*
G75*
G03*
X14498000Y-6858000I-20000J0D01*
G01*
X14498000Y-7620000D02*
G75*
G03*
X14498000Y-7620000I-20000J0D01*
G01*
X14498000Y-8382000D02*
G75*
G03*
X14498000Y-8382000I-20000J0D01*
G01*
X14498000Y-8636000D02*
G75*
G03*
X14498000Y-8636000I-20000J0D01*
G01*
X14498000Y-8890000D02*
G75*
G03*
X14498000Y-8890000I-20000J0D01*
G01*
X14498000Y-9144000D02*
G75*
G03*
X14498000Y-9144000I-20000J0D01*
G01*
X14498000Y-9398000D02*
G75*
G03*
X14498000Y-9398000I-20000J0D01*
G01*
X14498000Y-9652000D02*
G75*
G03*
X14498000Y-9652000I-20000J0D01*
G01*
X14498000Y-9906000D02*
G75*
G03*
X14498000Y-9906000I-20000J0D01*
G01*
X14752000Y-4572000D02*
G75*
G03*
X14752000Y-4572000I-20000J0D01*
G01*
X14752000Y-5334000D02*
G75*
G03*
X14752000Y-5334000I-20000J0D01*
G01*
X14752000Y-5842000D02*
G75*
G03*
X14752000Y-5842000I-20000J0D01*
G01*
X14752000Y-6096000D02*
G75*
G03*
X14752000Y-6096000I-20000J0D01*
G01*
X14752000Y-6350000D02*
G75*
G03*
X14752000Y-6350000I-20000J0D01*
G01*
X14752000Y-6604000D02*
G75*
G03*
X14752000Y-6604000I-20000J0D01*
G01*
X14752000Y-6858000D02*
G75*
G03*
X14752000Y-6858000I-20000J0D01*
G01*
X14752000Y-7112000D02*
G75*
G03*
X14752000Y-7112000I-20000J0D01*
G01*
X14752000Y-7874000D02*
G75*
G03*
X14752000Y-7874000I-20000J0D01*
G01*
X14752000Y-12700000D02*
G75*
G03*
X14752000Y-12700000I-20000J0D01*
G01*
X14752000Y-12954000D02*
G75*
G03*
X14752000Y-12954000I-20000J0D01*
G01*
X15006000Y-4064000D02*
G75*
G03*
X15006000Y-4064000I-20000J0D01*
G01*
X15006000Y-4318000D02*
G75*
G03*
X15006000Y-4318000I-20000J0D01*
G01*
X15006000Y-8636000D02*
G75*
G03*
X15006000Y-8636000I-20000J0D01*
G01*
X15006000Y-8890000D02*
G75*
G03*
X15006000Y-8890000I-20000J0D01*
G01*
X15006000Y-9144000D02*
G75*
G03*
X15006000Y-9144000I-20000J0D01*
G01*
X15006000Y-9398000D02*
G75*
G03*
X15006000Y-9398000I-20000J0D01*
G01*
X15010646Y-4571343D02*
G75*
G03*
X15010646Y-4571343I-20000J0D01*
G01*
X15260000Y-4064000D02*
G75*
G03*
X15260000Y-4064000I-20000J0D01*
G01*
X15260000Y-4318000D02*
G75*
G03*
X15260000Y-4318000I-20000J0D01*
G01*
X15260000Y-4572000D02*
G75*
G03*
X15260000Y-4572000I-20000J0D01*
G01*
X15260000Y-5588000D02*
G75*
G03*
X15260000Y-5588000I-20000J0D01*
G01*
X15260000Y-5842000D02*
G75*
G03*
X15260000Y-5842000I-20000J0D01*
G01*
X15260000Y-6096000D02*
G75*
G03*
X15260000Y-6096000I-20000J0D01*
G01*
X15260000Y-6350000D02*
G75*
G03*
X15260000Y-6350000I-20000J0D01*
G01*
X15260000Y-6604000D02*
G75*
G03*
X15260000Y-6604000I-20000J0D01*
G01*
X15260000Y-6858000D02*
G75*
G03*
X15260000Y-6858000I-20000J0D01*
G01*
X15260000Y-7112000D02*
G75*
G03*
X15260000Y-7112000I-20000J0D01*
G01*
X15260000Y-7366000D02*
G75*
G03*
X15260000Y-7366000I-20000J0D01*
G01*
X15260000Y-7874000D02*
G75*
G03*
X15260000Y-7874000I-20000J0D01*
G01*
X15260000Y-8128000D02*
G75*
G03*
X15260000Y-8128000I-20000J0D01*
G01*
X15260000Y-8890000D02*
G75*
G03*
X15260000Y-8890000I-20000J0D01*
G01*
X15260000Y-9144000D02*
G75*
G03*
X15260000Y-9144000I-20000J0D01*
G01*
X15260000Y-9652000D02*
G75*
G03*
X15260000Y-9652000I-20000J0D01*
G01*
X15514000Y-4064000D02*
G75*
G03*
X15514000Y-4064000I-20000J0D01*
G01*
X15514000Y-4318000D02*
G75*
G03*
X15514000Y-4318000I-20000J0D01*
G01*
X15514000Y-4572000D02*
G75*
G03*
X15514000Y-4572000I-20000J0D01*
G01*
X15514000Y-4826000D02*
G75*
G03*
X15514000Y-4826000I-20000J0D01*
G01*
X15514000Y-5588000D02*
G75*
G03*
X15514000Y-5588000I-20000J0D01*
G01*
X15514000Y-5842000D02*
G75*
G03*
X15514000Y-5842000I-20000J0D01*
G01*
X15514000Y-6096000D02*
G75*
G03*
X15514000Y-6096000I-20000J0D01*
G01*
X15514000Y-6350000D02*
G75*
G03*
X15514000Y-6350000I-20000J0D01*
G01*
X15514000Y-6604000D02*
G75*
G03*
X15514000Y-6604000I-20000J0D01*
G01*
X15514000Y-6858000D02*
G75*
G03*
X15514000Y-6858000I-20000J0D01*
G01*
X15514000Y-7112000D02*
G75*
G03*
X15514000Y-7112000I-20000J0D01*
G01*
X15514000Y-7366000D02*
G75*
G03*
X15514000Y-7366000I-20000J0D01*
G01*
X15514000Y-7874000D02*
G75*
G03*
X15514000Y-7874000I-20000J0D01*
G01*
X15514000Y-8128000D02*
G75*
G03*
X15514000Y-8128000I-20000J0D01*
G01*
X15514000Y-8382000D02*
G75*
G03*
X15514000Y-8382000I-20000J0D01*
G01*
X15514000Y-9144000D02*
G75*
G03*
X15514000Y-9144000I-20000J0D01*
G01*
X15514000Y-9652000D02*
G75*
G03*
X15514000Y-9652000I-20000J0D01*
G01*
X15768000Y-4064000D02*
G75*
G03*
X15768000Y-4064000I-20000J0D01*
G01*
X15768000Y-5588000D02*
G75*
G03*
X15768000Y-5588000I-20000J0D01*
G01*
X15768000Y-5842000D02*
G75*
G03*
X15768000Y-5842000I-20000J0D01*
G01*
X15768000Y-6096000D02*
G75*
G03*
X15768000Y-6096000I-20000J0D01*
G01*
X15768000Y-6350000D02*
G75*
G03*
X15768000Y-6350000I-20000J0D01*
G01*
X15768000Y-6604000D02*
G75*
G03*
X15768000Y-6604000I-20000J0D01*
G01*
X15768000Y-6858000D02*
G75*
G03*
X15768000Y-6858000I-20000J0D01*
G01*
X15768000Y-7112000D02*
G75*
G03*
X15768000Y-7112000I-20000J0D01*
G01*
X15768000Y-7366000D02*
G75*
G03*
X15768000Y-7366000I-20000J0D01*
G01*
X15768000Y-7874000D02*
G75*
G03*
X15768000Y-7874000I-20000J0D01*
G01*
X15768000Y-8128000D02*
G75*
G03*
X15768000Y-8128000I-20000J0D01*
G01*
X15768000Y-8382000D02*
G75*
G03*
X15768000Y-8382000I-20000J0D01*
G01*
X15768000Y-8636000D02*
G75*
G03*
X15768000Y-8636000I-20000J0D01*
G01*
X15768000Y-9144000D02*
G75*
G03*
X15768000Y-9144000I-20000J0D01*
G01*
X15768000Y-9652000D02*
G75*
G03*
X15768000Y-9652000I-20000J0D01*
G01*
X16022000Y-4064000D02*
G75*
G03*
X16022000Y-4064000I-20000J0D01*
G01*
X16022000Y-5588000D02*
G75*
G03*
X16022000Y-5588000I-20000J0D01*
G01*
X16022000Y-5842000D02*
G75*
G03*
X16022000Y-5842000I-20000J0D01*
G01*
X16022000Y-6096000D02*
G75*
G03*
X16022000Y-6096000I-20000J0D01*
G01*
X16022000Y-6350000D02*
G75*
G03*
X16022000Y-6350000I-20000J0D01*
G01*
X16022000Y-6604000D02*
G75*
G03*
X16022000Y-6604000I-20000J0D01*
G01*
X16022000Y-6858000D02*
G75*
G03*
X16022000Y-6858000I-20000J0D01*
G01*
X16022000Y-7112000D02*
G75*
G03*
X16022000Y-7112000I-20000J0D01*
G01*
X16022000Y-7366000D02*
G75*
G03*
X16022000Y-7366000I-20000J0D01*
G01*
X16022000Y-7874000D02*
G75*
G03*
X16022000Y-7874000I-20000J0D01*
G01*
X16022000Y-8128000D02*
G75*
G03*
X16022000Y-8128000I-20000J0D01*
G01*
X16022000Y-8382000D02*
G75*
G03*
X16022000Y-8382000I-20000J0D01*
G01*
X16022000Y-8636000D02*
G75*
G03*
X16022000Y-8636000I-20000J0D01*
G01*
X16022000Y-9144000D02*
G75*
G03*
X16022000Y-9144000I-20000J0D01*
G01*
X16022000Y-9652000D02*
G75*
G03*
X16022000Y-9652000I-20000J0D01*
G01*
X16022000Y-11430000D02*
G75*
G03*
X16022000Y-11430000I-20000J0D01*
G01*
X16276000Y-4064000D02*
G75*
G03*
X16276000Y-4064000I-20000J0D01*
G01*
X16276000Y-5842000D02*
G75*
G03*
X16276000Y-5842000I-20000J0D01*
G01*
X16276000Y-7112000D02*
G75*
G03*
X16276000Y-7112000I-20000J0D01*
G01*
X16276000Y-7874000D02*
G75*
G03*
X16276000Y-7874000I-20000J0D01*
G01*
X16276000Y-8128000D02*
G75*
G03*
X16276000Y-8128000I-20000J0D01*
G01*
X16276000Y-8382000D02*
G75*
G03*
X16276000Y-8382000I-20000J0D01*
G01*
X16276000Y-8636000D02*
G75*
G03*
X16276000Y-8636000I-20000J0D01*
G01*
X16276000Y-9144000D02*
G75*
G03*
X16276000Y-9144000I-20000J0D01*
G01*
X16276000Y-9652000D02*
G75*
G03*
X16276000Y-9652000I-20000J0D01*
G01*
X16471580Y-4546600D02*
G75*
G03*
X16471580Y-4546600I-20000J0D01*
G01*
X16479200Y-4386580D02*
G75*
G03*
X16479200Y-4386580I-20000J0D01*
G01*
X16486820Y-4216400D02*
G75*
G03*
X16486820Y-4216400I-20000J0D01*
G01*
X16489360Y-6992620D02*
G75*
G03*
X16489360Y-6992620I-20000J0D01*
G01*
X16530000Y-5842000D02*
G75*
G03*
X16530000Y-5842000I-20000J0D01*
G01*
X16530000Y-7620000D02*
G75*
G03*
X16530000Y-7620000I-20000J0D01*
G01*
X16530000Y-7874000D02*
G75*
G03*
X16530000Y-7874000I-20000J0D01*
G01*
X16530000Y-8128000D02*
G75*
G03*
X16530000Y-8128000I-20000J0D01*
G01*
X16530000Y-8382000D02*
G75*
G03*
X16530000Y-8382000I-20000J0D01*
G01*
X16530000Y-8636000D02*
G75*
G03*
X16530000Y-8636000I-20000J0D01*
G01*
X16530000Y-9144000D02*
G75*
G03*
X16530000Y-9144000I-20000J0D01*
G01*
X16530000Y-9652000D02*
G75*
G03*
X16530000Y-9652000I-20000J0D01*
G01*
X16631600Y-4589780D02*
G75*
G03*
X16631600Y-4589780I-20000J0D01*
G01*
X16644300Y-4386580D02*
G75*
G03*
X16644300Y-4386580I-20000J0D01*
G01*
X16646840Y-4203700D02*
G75*
G03*
X16646840Y-4203700I-20000J0D01*
G01*
X16784000Y-9652000D02*
G75*
G03*
X16784000Y-9652000I-20000J0D01*
G01*
X16809400Y-4414520D02*
G75*
G03*
X16809400Y-4414520I-20000J0D01*
G01*
X16809400Y-4566920D02*
G75*
G03*
X16809400Y-4566920I-20000J0D01*
G01*
X16811940Y-4257040D02*
G75*
G03*
X16811940Y-4257040I-20000J0D01*
G01*
X16811940Y-4711700D02*
G75*
G03*
X16811940Y-4711700I-20000J0D01*
G01*
X16814480Y-4091940D02*
G75*
G03*
X16814480Y-4091940I-20000J0D01*
G01*
X17800000Y-12954000D02*
G75*
G03*
X17800000Y-12954000I-20000J0D01*
G01*
X18054000Y-12954000D02*
G75*
G03*
X18054000Y-12954000I-20000J0D01*
G01*
X18140360Y-4919980D02*
G75*
G03*
X18140360Y-4919980I-20000J0D01*
G01*
X18145440Y-5062220D02*
G75*
G03*
X18145440Y-5062220I-20000J0D01*
G01*
X18145440Y-5201920D02*
G75*
G03*
X18145440Y-5201920I-20000J0D01*
G01*
X18147980Y-5346700D02*
G75*
G03*
X18147980Y-5346700I-20000J0D01*
G01*
X18308000Y-4064000D02*
G75*
G03*
X18308000Y-4064000I-20000J0D01*
G01*
X18308000Y-4318000D02*
G75*
G03*
X18308000Y-4318000I-20000J0D01*
G01*
X18308000Y-4572000D02*
G75*
G03*
X18308000Y-4572000I-20000J0D01*
G01*
X18308000Y-6858000D02*
G75*
G03*
X18308000Y-6858000I-20000J0D01*
G01*
X18308000Y-12954000D02*
G75*
G03*
X18308000Y-12954000I-20000J0D01*
G01*
X18351180Y-4919980D02*
G75*
G03*
X18351180Y-4919980I-20000J0D01*
G01*
X18358800Y-5074920D02*
G75*
G03*
X18358800Y-5074920I-20000J0D01*
G01*
X18358800Y-5359400D02*
G75*
G03*
X18358800Y-5359400I-20000J0D01*
G01*
X18363880Y-5229860D02*
G75*
G03*
X18363880Y-5229860I-20000J0D01*
G01*
X18534060Y-5100320D02*
G75*
G03*
X18534060Y-5100320I-20000J0D01*
G01*
X18536600Y-5250180D02*
G75*
G03*
X18536600Y-5250180I-20000J0D01*
G01*
X18539140Y-4935220D02*
G75*
G03*
X18539140Y-4935220I-20000J0D01*
G01*
X18539140Y-5372100D02*
G75*
G03*
X18539140Y-5372100I-20000J0D01*
G01*
X18562000Y-4064000D02*
G75*
G03*
X18562000Y-4064000I-20000J0D01*
G01*
X18562000Y-4318000D02*
G75*
G03*
X18562000Y-4318000I-20000J0D01*
G01*
X18562000Y-4572000D02*
G75*
G03*
X18562000Y-4572000I-20000J0D01*
G01*
X18562000Y-6604000D02*
G75*
G03*
X18562000Y-6604000I-20000J0D01*
G01*
X18562000Y-6858000D02*
G75*
G03*
X18562000Y-6858000I-20000J0D01*
G01*
X18562000Y-12954000D02*
G75*
G03*
X18562000Y-12954000I-20000J0D01*
G01*
X18816000Y-4064000D02*
G75*
G03*
X18816000Y-4064000I-20000J0D01*
G01*
X18816000Y-4318000D02*
G75*
G03*
X18816000Y-4318000I-20000J0D01*
G01*
X18816000Y-4572000D02*
G75*
G03*
X18816000Y-4572000I-20000J0D01*
G01*
X19070000Y-4064000D02*
G75*
G03*
X19070000Y-4064000I-20000J0D01*
G01*
X19070000Y-4318000D02*
G75*
G03*
X19070000Y-4318000I-20000J0D01*
G01*
X19070000Y-4572000D02*
G75*
G03*
X19070000Y-4572000I-20000J0D01*
G01*
X19070000Y-4826000D02*
G75*
G03*
X19070000Y-4826000I-20000J0D01*
G01*
X19070000Y-6858000D02*
G75*
G03*
X19070000Y-6858000I-20000J0D01*
G01*
X19070000Y-7112000D02*
G75*
G03*
X19070000Y-7112000I-20000J0D01*
G01*
X19070000Y-7620000D02*
G75*
G03*
X19070000Y-7620000I-20000J0D01*
G01*
X19324000Y-4064000D02*
G75*
G03*
X19324000Y-4064000I-20000J0D01*
G01*
X19324000Y-4318000D02*
G75*
G03*
X19324000Y-4318000I-20000J0D01*
G01*
X19324000Y-4572000D02*
G75*
G03*
X19324000Y-4572000I-20000J0D01*
G01*
X19324000Y-4826000D02*
G75*
G03*
X19324000Y-4826000I-20000J0D01*
G01*
X19324000Y-6350000D02*
G75*
G03*
X19324000Y-6350000I-20000J0D01*
G01*
X19324000Y-6858000D02*
G75*
G03*
X19324000Y-6858000I-20000J0D01*
G01*
X19324000Y-7112000D02*
G75*
G03*
X19324000Y-7112000I-20000J0D01*
G01*
X19324000Y-7620000D02*
G75*
G03*
X19324000Y-7620000I-20000J0D01*
G01*
X19324000Y-12954000D02*
G75*
G03*
X19324000Y-12954000I-20000J0D01*
G01*
X19578000Y-4826000D02*
G75*
G03*
X19578000Y-4826000I-20000J0D01*
G01*
X19578000Y-5080000D02*
G75*
G03*
X19578000Y-5080000I-20000J0D01*
G01*
X19578000Y-5334000D02*
G75*
G03*
X19578000Y-5334000I-20000J0D01*
G01*
X19578000Y-5588000D02*
G75*
G03*
X19578000Y-5588000I-20000J0D01*
G01*
X19578000Y-5842000D02*
G75*
G03*
X19578000Y-5842000I-20000J0D01*
G01*
X19578000Y-6096000D02*
G75*
G03*
X19578000Y-6096000I-20000J0D01*
G01*
X19578000Y-6350000D02*
G75*
G03*
X19578000Y-6350000I-20000J0D01*
G01*
X19578000Y-6858000D02*
G75*
G03*
X19578000Y-6858000I-20000J0D01*
G01*
X19578000Y-7112000D02*
G75*
G03*
X19578000Y-7112000I-20000J0D01*
G01*
X19578000Y-12700000D02*
G75*
G03*
X19578000Y-12700000I-20000J0D01*
G01*
X19578000Y-12954000D02*
G75*
G03*
X19578000Y-12954000I-20000J0D01*
G01*
X19832000Y-4826000D02*
G75*
G03*
X19832000Y-4826000I-20000J0D01*
G01*
X19832000Y-5080000D02*
G75*
G03*
X19832000Y-5080000I-20000J0D01*
G01*
X19832000Y-6096000D02*
G75*
G03*
X19832000Y-6096000I-20000J0D01*
G01*
X19832000Y-6350000D02*
G75*
G03*
X19832000Y-6350000I-20000J0D01*
G01*
X19832000Y-6858000D02*
G75*
G03*
X19832000Y-6858000I-20000J0D01*
G01*
X20086000Y-4826000D02*
G75*
G03*
X20086000Y-4826000I-20000J0D01*
G01*
X20086000Y-5080000D02*
G75*
G03*
X20086000Y-5080000I-20000J0D01*
G01*
X20086000Y-6096000D02*
G75*
G03*
X20086000Y-6096000I-20000J0D01*
G01*
X20086000Y-6350000D02*
G75*
G03*
X20086000Y-6350000I-20000J0D01*
G01*
X20086000Y-6604000D02*
G75*
G03*
X20086000Y-6604000I-20000J0D01*
G01*
X20086000Y-6858000D02*
G75*
G03*
X20086000Y-6858000I-20000J0D01*
G01*
X13571220Y-7597540D02*
X13571220Y-7647540D01*
X13546220Y-7622540D02*
X13596220Y-7622540D01*
X13710920Y-7691520D02*
X13710920Y-7741520D01*
X13685920Y-7716520D02*
X13735920Y-7716520D01*
X14132560Y-6045600D02*
X14132560Y-6095600D01*
X14107560Y-6070600D02*
X14157560Y-6070600D01*
X14206220Y-5692540D02*
X14206220Y-5742540D01*
X14181220Y-5717540D02*
X14231220Y-5717540D01*
X14208760Y-5542680D02*
X14208760Y-5592680D01*
X14183760Y-5567680D02*
X14233760Y-5567680D01*
X14267180Y-5949080D02*
X14267180Y-5999080D01*
X14242180Y-5974080D02*
X14292180Y-5974080D01*
X15019020Y-5357260D02*
X15019020Y-5407260D01*
X14994020Y-5382260D02*
X15044020Y-5382260D01*
X15209520Y-5364880D02*
X15209520Y-5414880D01*
X15184520Y-5389880D02*
X15234520Y-5389880D01*
X16860520Y-9192660D02*
X16860520Y-9242660D01*
X16835520Y-9217660D02*
X16885520Y-9217660D01*
X17000220Y-9596520D02*
X17000220Y-9646520D01*
X16975220Y-9621520D02*
X17025220Y-9621520D01*
X17053560Y-9139320D02*
X17053560Y-9189320D01*
X17028560Y-9164320D02*
X17078560Y-9164320D01*
X17127220Y-12448940D02*
X17127220Y-12498940D01*
X17102220Y-12473940D02*
X17152220Y-12473940D01*
X17129760Y-9500000D02*
X17129760Y-9550000D01*
X17104760Y-9525000D02*
X17154760Y-9525000D01*
X18559780Y-11128140D02*
X18559780Y-11178140D01*
X18534780Y-11153140D02*
X18584780Y-11153140D01*
X18633440Y-10957960D02*
X18633440Y-11007960D01*
X18608440Y-10982960D02*
X18658440Y-10982960D01*
X19075400Y-8811660D02*
X19075400Y-8861660D01*
X19050400Y-8836660D02*
X19100400Y-8836660D01*
X19154140Y-8971680D02*
X19154140Y-9021680D01*
X19129140Y-8996680D02*
X19179140Y-8996680D01*
X13355664Y-12131384D02*
X13355664Y-12074815D01*
X13299095Y-12074815D01*
X13299095Y-12131384D01*
X13355664Y-12131384D01*
X13355664Y-12893384D02*
X13355664Y-12836815D01*
X13299095Y-12836815D01*
X13299095Y-12893384D01*
X13355664Y-12893384D01*
X13609664Y-12131384D02*
X13609664Y-12074815D01*
X13553095Y-12074815D01*
X13553095Y-12131384D01*
X13609664Y-12131384D01*
X13609664Y-12893384D02*
X13609664Y-12836815D01*
X13553095Y-12836815D01*
X13553095Y-12893384D01*
X13609664Y-12893384D01*
X13863664Y-12131384D02*
X13863664Y-12074815D01*
X13807095Y-12074815D01*
X13807095Y-12131384D01*
X13863664Y-12131384D01*
X13863664Y-12893384D02*
X13863664Y-12836815D01*
X13807095Y-12836815D01*
X13807095Y-12893384D01*
X13863664Y-12893384D01*
X14117664Y-12131384D02*
X14117664Y-12074815D01*
X14061095Y-12074815D01*
X14061095Y-12131384D01*
X14117664Y-12131384D01*
X14117664Y-12893384D02*
X14117664Y-12836815D01*
X14061095Y-12836815D01*
X14061095Y-12893384D01*
X14117664Y-12893384D01*
X14371664Y-12131384D02*
X14371664Y-12074815D01*
X14315095Y-12074815D01*
X14315095Y-12131384D01*
X14371664Y-12131384D01*
X14371664Y-12893384D02*
X14371664Y-12836815D01*
X14315095Y-12836815D01*
X14315095Y-12893384D01*
X14371664Y-12893384D01*
X12791440Y-4129240D02*
X12841440Y-4079240D01*
X12791440Y-4029240D01*
X12741440Y-4079240D01*
X12791440Y-4129240D01*
X13045440Y-4129240D02*
X13095440Y-4079240D01*
X13045440Y-4029240D01*
X12995440Y-4079240D01*
X13045440Y-4129240D01*
X15746960Y-10441180D02*
X15796960Y-10391180D01*
X15746960Y-10341180D01*
X15696960Y-10391180D01*
X15746960Y-10441180D01*
X16000960Y-10441180D02*
X16050960Y-10391180D01*
X16000960Y-10341180D01*
X15950960Y-10391180D01*
X16000960Y-10441180D01*
X16132040Y-11863540D02*
X16182040Y-11813540D01*
X16132040Y-11763540D01*
X16082040Y-11813540D01*
X16132040Y-11863540D01*
X16254960Y-10441180D02*
X16304960Y-10391180D01*
X16254960Y-10341180D01*
X16204960Y-10391180D01*
X16254960Y-10441180D01*
X16386040Y-11863540D02*
X16436040Y-11813540D01*
X16386040Y-11763540D01*
X16336040Y-11813540D01*
X16386040Y-11863540D01*
X20040600Y-5523700D02*
X20090600Y-5473700D01*
X20040600Y-5423700D01*
X19990600Y-5473700D01*
X20040600Y-5523700D01*
X20040600Y-5777700D02*
X20090600Y-5727700D01*
X20040600Y-5677700D01*
X19990600Y-5727700D01*
X20040600Y-5777700D01*
D12*
X11721680Y-8270720D02*
X11851680Y-8400720D01*
X11851680Y-8270720D02*
X11721680Y-8400720D01*
X11851680Y-8335720D02*
G75*
G03*
X11851680Y-8335720I-65000J0D01*
G01*
X11721680Y-9470720D02*
X11851680Y-9600720D01*
X11851680Y-9470720D02*
X11721680Y-9600720D01*
X11851680Y-9535720D02*
G75*
G03*
X11851680Y-9535720I-65000J0D01*
G01*
X12154800Y-5362420D02*
X12284800Y-5492420D01*
X12284800Y-5362420D02*
X12154800Y-5492420D01*
X12284800Y-5427420D02*
G75*
G03*
X12284800Y-5427420I-65000J0D01*
G01*
X12154800Y-6562420D02*
X12284800Y-6692420D01*
X12284800Y-6562420D02*
X12154800Y-6692420D01*
X12284800Y-6627420D02*
G75*
G03*
X12284800Y-6627420I-65000J0D01*
G01*
X12941680Y-8270720D02*
X13071680Y-8400720D01*
X13071680Y-8270720D02*
X12941680Y-8400720D01*
X13071680Y-8335720D02*
G75*
G03*
X13071680Y-8335720I-65000J0D01*
G01*
X12941680Y-9470720D02*
X13071680Y-9600720D01*
X13071680Y-9470720D02*
X12941680Y-9600720D01*
X13071680Y-9535720D02*
G75*
G03*
X13071680Y-9535720I-65000J0D01*
G01*
X13141680Y-8870720D02*
X13271680Y-9000720D01*
X13271680Y-8870720D02*
X13141680Y-9000720D01*
X13271680Y-8935720D02*
G75*
G03*
X13271680Y-8935720I-65000J0D01*
G01*
X13374800Y-5362420D02*
X13504800Y-5492420D01*
X13504800Y-5362420D02*
X13374800Y-5492420D01*
X13504800Y-5427420D02*
G75*
G03*
X13504800Y-5427420I-65000J0D01*
G01*
X13374800Y-6562420D02*
X13504800Y-6692420D01*
X13504800Y-6562420D02*
X13374800Y-6692420D01*
X13504800Y-6627420D02*
G75*
G03*
X13504800Y-6627420I-65000J0D01*
G01*
X13574800Y-5962420D02*
X13704800Y-6092420D01*
X13704800Y-5962420D02*
X13574800Y-6092420D01*
X13704800Y-6027420D02*
G75*
G03*
X13704800Y-6027420I-65000J0D01*
G01*
X16881880Y-7951240D02*
X17011880Y-8081240D01*
X17011880Y-7951240D02*
X16881880Y-8081240D01*
X17011880Y-8016240D02*
G75*
G03*
X17011880Y-8016240I-65000J0D01*
G01*
X16970960Y-10933200D02*
X17100960Y-11063200D01*
X17100960Y-10933200D02*
X16970960Y-11063200D01*
X17100960Y-10998200D02*
G75*
G03*
X17100960Y-10998200I-65000J0D01*
G01*
X17081880Y-7351240D02*
X17211880Y-7481240D01*
X17211880Y-7351240D02*
X17081880Y-7481240D01*
X17211880Y-7416240D02*
G75*
G03*
X17211880Y-7416240I-65000J0D01*
G01*
X17081880Y-8551240D02*
X17211880Y-8681240D01*
X17211880Y-8551240D02*
X17081880Y-8681240D01*
X17211880Y-8616240D02*
G75*
G03*
X17211880Y-8616240I-65000J0D01*
G01*
X17170960Y-10333200D02*
X17300960Y-10463200D01*
X17300960Y-10333200D02*
X17170960Y-10463200D01*
X17300960Y-10398200D02*
G75*
G03*
X17300960Y-10398200I-65000J0D01*
G01*
X17170960Y-11533200D02*
X17300960Y-11663200D01*
X17300960Y-11533200D02*
X17170960Y-11663200D01*
X17300960Y-11598200D02*
G75*
G03*
X17300960Y-11598200I-65000J0D01*
G01*
X18301880Y-7351240D02*
X18431880Y-7481240D01*
X18431880Y-7351240D02*
X18301880Y-7481240D01*
X18431880Y-7416240D02*
G75*
G03*
X18431880Y-7416240I-65000J0D01*
G01*
X18301880Y-8551240D02*
X18431880Y-8681240D01*
X18431880Y-8551240D02*
X18301880Y-8681240D01*
X18431880Y-8616240D02*
G75*
G03*
X18431880Y-8616240I-65000J0D01*
G01*
X18390960Y-10333200D02*
X18520960Y-10463200D01*
X18520960Y-10333200D02*
X18390960Y-10463200D01*
X18520960Y-10398200D02*
G75*
G03*
X18520960Y-10398200I-65000J0D01*
G01*
X18390960Y-11533200D02*
X18520960Y-11663200D01*
X18520960Y-11533200D02*
X18390960Y-11663200D01*
X18520960Y-11598200D02*
G75*
G03*
X18520960Y-11598200I-65000J0D01*
G01*
D13*
X10626020Y-8670140D02*
X10766020Y-8810140D01*
X10766020Y-8670140D02*
X10626020Y-8810140D01*
X10696020Y-8670140D02*
X10696020Y-8810140D01*
X10626020Y-8740140D02*
X10766020Y-8740140D01*
X10626020Y-9178140D02*
X10766020Y-9318140D01*
X10766020Y-9178140D02*
X10626020Y-9318140D01*
X10696020Y-9178140D02*
X10696020Y-9318140D01*
X10626020Y-9248140D02*
X10766020Y-9248140D01*
X10627160Y-5642460D02*
X10767160Y-5782460D01*
X10767160Y-5642460D02*
X10627160Y-5782460D01*
X10697160Y-5642460D02*
X10697160Y-5782460D01*
X10627160Y-5712460D02*
X10767160Y-5712460D01*
X10627160Y-6150460D02*
X10767160Y-6290460D01*
X10767160Y-6150460D02*
X10627160Y-6290460D01*
X10697160Y-6150460D02*
X10697160Y-6290460D01*
X10627160Y-6220460D02*
X10767160Y-6220460D01*
X10627160Y-6658460D02*
X10767160Y-6798460D01*
X10767160Y-6658460D02*
X10627160Y-6798460D01*
X10697160Y-6658460D02*
X10697160Y-6798460D01*
X10627160Y-6728460D02*
X10767160Y-6728460D01*
X10627160Y-7166460D02*
X10767160Y-7306460D01*
X10767160Y-7166460D02*
X10627160Y-7306460D01*
X10697160Y-7166460D02*
X10697160Y-7306460D01*
X10627160Y-7236460D02*
X10767160Y-7236460D01*
X10627160Y-7674460D02*
X10767160Y-7814460D01*
X10767160Y-7674460D02*
X10627160Y-7814460D01*
X10697160Y-7674460D02*
X10697160Y-7814460D01*
X10627160Y-7744460D02*
X10767160Y-7744460D01*
X13946940Y-3991460D02*
X14086940Y-4131460D01*
X14086940Y-3991460D02*
X13946940Y-4131460D01*
X14016940Y-3991460D02*
X14016940Y-4131460D01*
X13946940Y-4061460D02*
X14086940Y-4061460D01*
X14454940Y-3991460D02*
X14594940Y-4131460D01*
X14594940Y-3991460D02*
X14454940Y-4131460D01*
X14524940Y-3991460D02*
X14524940Y-4131460D01*
X14454940Y-4061460D02*
X14594940Y-4061460D01*
X15200480Y-12754460D02*
X15340480Y-12894460D01*
X15340480Y-12754460D02*
X15200480Y-12894460D01*
X15270480Y-12754460D02*
X15270480Y-12894460D01*
X15200480Y-12824460D02*
X15340480Y-12824460D01*
X15708480Y-12754460D02*
X15848480Y-12894460D01*
X15848480Y-12754460D02*
X15708480Y-12894460D01*
X15778480Y-12754460D02*
X15778480Y-12894460D01*
X15708480Y-12824460D02*
X15848480Y-12824460D01*
X19841060Y-7362040D02*
X19981060Y-7502040D01*
X19981060Y-7362040D02*
X19841060Y-7502040D01*
X19911060Y-7362040D02*
X19911060Y-7502040D01*
X19841060Y-7432040D02*
X19981060Y-7432040D01*
X19841060Y-7870040D02*
X19981060Y-8010040D01*
X19981060Y-7870040D02*
X19841060Y-8010040D01*
X19911060Y-7870040D02*
X19911060Y-8010040D01*
X19841060Y-7940040D02*
X19981060Y-7940040D01*
X19841060Y-8378040D02*
X19981060Y-8518040D01*
X19981060Y-8378040D02*
X19841060Y-8518040D01*
X19911060Y-8378040D02*
X19911060Y-8518040D01*
X19841060Y-8448040D02*
X19981060Y-8448040D01*
X19841060Y-8886040D02*
X19981060Y-9026040D01*
X19981060Y-8886040D02*
X19841060Y-9026040D01*
X19911060Y-8886040D02*
X19911060Y-9026040D01*
X19841060Y-8956040D02*
X19981060Y-8956040D01*
X19841060Y-9394040D02*
X19981060Y-9534040D01*
X19981060Y-9394040D02*
X19841060Y-9534040D01*
X19911060Y-9394040D02*
X19911060Y-9534040D01*
X19841060Y-9464040D02*
X19981060Y-9464040D01*
X19855080Y-10465920D02*
X19995080Y-10605920D01*
X19995080Y-10465920D02*
X19855080Y-10605920D01*
X19925080Y-10465920D02*
X19925080Y-10605920D01*
X19855080Y-10535920D02*
X19995080Y-10535920D01*
X19855080Y-10973920D02*
X19995080Y-11113920D01*
X19995080Y-10973920D02*
X19855080Y-11113920D01*
X19925080Y-10973920D02*
X19925080Y-11113920D01*
X19855080Y-11043920D02*
X19995080Y-11043920D01*
X19855080Y-11481920D02*
X19995080Y-11621920D01*
X19995080Y-11481920D02*
X19855080Y-11621920D01*
X19925080Y-11481920D02*
X19925080Y-11621920D01*
X19855080Y-11551920D02*
X19995080Y-11551920D01*
X19855080Y-11989920D02*
X19995080Y-12129920D01*
X19995080Y-11989920D02*
X19855080Y-12129920D01*
X19925080Y-11989920D02*
X19925080Y-12129920D01*
X19855080Y-12059920D02*
X19995080Y-12059920D01*
X19855080Y-12497920D02*
X19995080Y-12637920D01*
X19995080Y-12497920D02*
X19855080Y-12637920D01*
X19925080Y-12497920D02*
X19925080Y-12637920D01*
X19855080Y-12567920D02*
X19995080Y-12567920D01*
D11*
X10599877Y-13374624D02*
X10599877Y-13174624D01*
X10599877Y-13174624D02*
X10647496Y-13174624D01*
X10647496Y-13174624D02*
X10676067Y-13184148D01*
X10676067Y-13184148D02*
X10695115Y-13203195D01*
X10695115Y-13203195D02*
X10704639Y-13222243D01*
X10704639Y-13222243D02*
X10714163Y-13260338D01*
X10714163Y-13260338D02*
X10714163Y-13288909D01*
X10714163Y-13288909D02*
X10704639Y-13327005D01*
X10704639Y-13327005D02*
X10695115Y-13346052D01*
X10695115Y-13346052D02*
X10676067Y-13365100D01*
X10676067Y-13365100D02*
X10647496Y-13374624D01*
X10647496Y-13374624D02*
X10599877Y-13374624D01*
X10799877Y-13374624D02*
X10799877Y-13241290D01*
X10799877Y-13279386D02*
X10809401Y-13260338D01*
X10809401Y-13260338D02*
X10818924Y-13250814D01*
X10818924Y-13250814D02*
X10837972Y-13241290D01*
X10837972Y-13241290D02*
X10857020Y-13241290D01*
X10923686Y-13374624D02*
X10923686Y-13241290D01*
X10923686Y-13174624D02*
X10914163Y-13184148D01*
X10914163Y-13184148D02*
X10923686Y-13193671D01*
X10923686Y-13193671D02*
X10933210Y-13184148D01*
X10933210Y-13184148D02*
X10923686Y-13174624D01*
X10923686Y-13174624D02*
X10923686Y-13193671D01*
X11047496Y-13374624D02*
X11028448Y-13365100D01*
X11028448Y-13365100D02*
X11018924Y-13346052D01*
X11018924Y-13346052D02*
X11018924Y-13174624D01*
X11152258Y-13374624D02*
X11133210Y-13365100D01*
X11133210Y-13365100D02*
X11123686Y-13346052D01*
X11123686Y-13346052D02*
X11123686Y-13174624D01*
X11380829Y-13374624D02*
X11380829Y-13174624D01*
X11380829Y-13174624D02*
X11447496Y-13317481D01*
X11447496Y-13317481D02*
X11514162Y-13174624D01*
X11514162Y-13174624D02*
X11514162Y-13374624D01*
X11695115Y-13374624D02*
X11695115Y-13269862D01*
X11695115Y-13269862D02*
X11685591Y-13250814D01*
X11685591Y-13250814D02*
X11666543Y-13241290D01*
X11666543Y-13241290D02*
X11628448Y-13241290D01*
X11628448Y-13241290D02*
X11609401Y-13250814D01*
X11695115Y-13365100D02*
X11676067Y-13374624D01*
X11676067Y-13374624D02*
X11628448Y-13374624D01*
X11628448Y-13374624D02*
X11609401Y-13365100D01*
X11609401Y-13365100D02*
X11599877Y-13346052D01*
X11599877Y-13346052D02*
X11599877Y-13327005D01*
X11599877Y-13327005D02*
X11609401Y-13307957D01*
X11609401Y-13307957D02*
X11628448Y-13298433D01*
X11628448Y-13298433D02*
X11676067Y-13298433D01*
X11676067Y-13298433D02*
X11695115Y-13288909D01*
X11790353Y-13241290D02*
X11790353Y-13441290D01*
X11790353Y-13250814D02*
X11809401Y-13241290D01*
X11809401Y-13241290D02*
X11847496Y-13241290D01*
X11847496Y-13241290D02*
X11866543Y-13250814D01*
X11866543Y-13250814D02*
X11876067Y-13260338D01*
X11876067Y-13260338D02*
X11885591Y-13279386D01*
X11885591Y-13279386D02*
X11885591Y-13336528D01*
X11885591Y-13336528D02*
X11876067Y-13355576D01*
X11876067Y-13355576D02*
X11866543Y-13365100D01*
X11866543Y-13365100D02*
X11847496Y-13374624D01*
X11847496Y-13374624D02*
X11809401Y-13374624D01*
X11809401Y-13374624D02*
X11790353Y-13365100D01*
X11971305Y-13355576D02*
X11980829Y-13365100D01*
X11980829Y-13365100D02*
X11971305Y-13374624D01*
X11971305Y-13374624D02*
X11961782Y-13365100D01*
X11961782Y-13365100D02*
X11971305Y-13355576D01*
X11971305Y-13355576D02*
X11971305Y-13374624D01*
X11971305Y-13250814D02*
X11980829Y-13260338D01*
X11980829Y-13260338D02*
X11971305Y-13269862D01*
X11971305Y-13269862D02*
X11961782Y-13260338D01*
X11961782Y-13260338D02*
X11971305Y-13250814D01*
X11971305Y-13250814D02*
X11971305Y-13269862D01*
D10*
X10309100Y-13688140D02*
X10339100Y-13718140D01*
X10339100Y-13688140D02*
X10309100Y-13718140D01*
D11*
X10637972Y-13594624D02*
X10657020Y-13594624D01*
X10657020Y-13594624D02*
X10676067Y-13604148D01*
X10676067Y-13604148D02*
X10685591Y-13613671D01*
X10685591Y-13613671D02*
X10695115Y-13632719D01*
X10695115Y-13632719D02*
X10704639Y-13670814D01*
X10704639Y-13670814D02*
X10704639Y-13718433D01*
X10704639Y-13718433D02*
X10695115Y-13756528D01*
X10695115Y-13756528D02*
X10685591Y-13775576D01*
X10685591Y-13775576D02*
X10676067Y-13785100D01*
X10676067Y-13785100D02*
X10657020Y-13794624D01*
X10657020Y-13794624D02*
X10637972Y-13794624D01*
X10637972Y-13794624D02*
X10618924Y-13785100D01*
X10618924Y-13785100D02*
X10609401Y-13775576D01*
X10609401Y-13775576D02*
X10599877Y-13756528D01*
X10599877Y-13756528D02*
X10590353Y-13718433D01*
X10590353Y-13718433D02*
X10590353Y-13670814D01*
X10590353Y-13670814D02*
X10599877Y-13632719D01*
X10599877Y-13632719D02*
X10609401Y-13613671D01*
X10609401Y-13613671D02*
X10618924Y-13604148D01*
X10618924Y-13604148D02*
X10637972Y-13594624D01*
X10790353Y-13775576D02*
X10799877Y-13785100D01*
X10799877Y-13785100D02*
X10790353Y-13794624D01*
X10790353Y-13794624D02*
X10780829Y-13785100D01*
X10780829Y-13785100D02*
X10790353Y-13775576D01*
X10790353Y-13775576D02*
X10790353Y-13794624D01*
X10866544Y-13594624D02*
X10990353Y-13594624D01*
X10990353Y-13594624D02*
X10923686Y-13670814D01*
X10923686Y-13670814D02*
X10952258Y-13670814D01*
X10952258Y-13670814D02*
X10971305Y-13680338D01*
X10971305Y-13680338D02*
X10980829Y-13689862D01*
X10980829Y-13689862D02*
X10990353Y-13708909D01*
X10990353Y-13708909D02*
X10990353Y-13756528D01*
X10990353Y-13756528D02*
X10980829Y-13775576D01*
X10980829Y-13775576D02*
X10971305Y-13785100D01*
X10971305Y-13785100D02*
X10952258Y-13794624D01*
X10952258Y-13794624D02*
X10895115Y-13794624D01*
X10895115Y-13794624D02*
X10876067Y-13785100D01*
X10876067Y-13785100D02*
X10866544Y-13775576D01*
X11114163Y-13594624D02*
X11133210Y-13594624D01*
X11133210Y-13594624D02*
X11152258Y-13604148D01*
X11152258Y-13604148D02*
X11161782Y-13613671D01*
X11161782Y-13613671D02*
X11171305Y-13632719D01*
X11171305Y-13632719D02*
X11180829Y-13670814D01*
X11180829Y-13670814D02*
X11180829Y-13718433D01*
X11180829Y-13718433D02*
X11171305Y-13756528D01*
X11171305Y-13756528D02*
X11161782Y-13775576D01*
X11161782Y-13775576D02*
X11152258Y-13785100D01*
X11152258Y-13785100D02*
X11133210Y-13794624D01*
X11133210Y-13794624D02*
X11114163Y-13794624D01*
X11114163Y-13794624D02*
X11095115Y-13785100D01*
X11095115Y-13785100D02*
X11085591Y-13775576D01*
X11085591Y-13775576D02*
X11076067Y-13756528D01*
X11076067Y-13756528D02*
X11066544Y-13718433D01*
X11066544Y-13718433D02*
X11066544Y-13670814D01*
X11066544Y-13670814D02*
X11076067Y-13632719D01*
X11076067Y-13632719D02*
X11085591Y-13613671D01*
X11085591Y-13613671D02*
X11095115Y-13604148D01*
X11095115Y-13604148D02*
X11114163Y-13594624D01*
X11304639Y-13594624D02*
X11323686Y-13594624D01*
X11323686Y-13594624D02*
X11342734Y-13604148D01*
X11342734Y-13604148D02*
X11352258Y-13613671D01*
X11352258Y-13613671D02*
X11361782Y-13632719D01*
X11361782Y-13632719D02*
X11371305Y-13670814D01*
X11371305Y-13670814D02*
X11371305Y-13718433D01*
X11371305Y-13718433D02*
X11361782Y-13756528D01*
X11361782Y-13756528D02*
X11352258Y-13775576D01*
X11352258Y-13775576D02*
X11342734Y-13785100D01*
X11342734Y-13785100D02*
X11323686Y-13794624D01*
X11323686Y-13794624D02*
X11304639Y-13794624D01*
X11304639Y-13794624D02*
X11285591Y-13785100D01*
X11285591Y-13785100D02*
X11276067Y-13775576D01*
X11276067Y-13775576D02*
X11266543Y-13756528D01*
X11266543Y-13756528D02*
X11257020Y-13718433D01*
X11257020Y-13718433D02*
X11257020Y-13670814D01*
X11257020Y-13670814D02*
X11266543Y-13632719D01*
X11266543Y-13632719D02*
X11276067Y-13613671D01*
X11276067Y-13613671D02*
X11285591Y-13604148D01*
X11285591Y-13604148D02*
X11304639Y-13594624D01*
X11457020Y-13794624D02*
X11457020Y-13661290D01*
X11457020Y-13680338D02*
X11466543Y-13670814D01*
X11466543Y-13670814D02*
X11485591Y-13661290D01*
X11485591Y-13661290D02*
X11514163Y-13661290D01*
X11514163Y-13661290D02*
X11533210Y-13670814D01*
X11533210Y-13670814D02*
X11542734Y-13689862D01*
X11542734Y-13689862D02*
X11542734Y-13794624D01*
X11542734Y-13689862D02*
X11552258Y-13670814D01*
X11552258Y-13670814D02*
X11571305Y-13661290D01*
X11571305Y-13661290D02*
X11599877Y-13661290D01*
X11599877Y-13661290D02*
X11618924Y-13670814D01*
X11618924Y-13670814D02*
X11628448Y-13689862D01*
X11628448Y-13689862D02*
X11628448Y-13794624D01*
X11723686Y-13794624D02*
X11723686Y-13661290D01*
X11723686Y-13680338D02*
X11733210Y-13670814D01*
X11733210Y-13670814D02*
X11752258Y-13661290D01*
X11752258Y-13661290D02*
X11780829Y-13661290D01*
X11780829Y-13661290D02*
X11799877Y-13670814D01*
X11799877Y-13670814D02*
X11809401Y-13689862D01*
X11809401Y-13689862D02*
X11809401Y-13794624D01*
X11809401Y-13689862D02*
X11818924Y-13670814D01*
X11818924Y-13670814D02*
X11837972Y-13661290D01*
X11837972Y-13661290D02*
X11866543Y-13661290D01*
X11866543Y-13661290D02*
X11885591Y-13670814D01*
X11885591Y-13670814D02*
X11895115Y-13689862D01*
X11895115Y-13689862D02*
X11895115Y-13794624D01*
X12285591Y-13585100D02*
X12114163Y-13842243D01*
X12542734Y-13594624D02*
X12561782Y-13594624D01*
X12561782Y-13594624D02*
X12580829Y-13604148D01*
X12580829Y-13604148D02*
X12590353Y-13613671D01*
X12590353Y-13613671D02*
X12599877Y-13632719D01*
X12599877Y-13632719D02*
X12609401Y-13670814D01*
X12609401Y-13670814D02*
X12609401Y-13718433D01*
X12609401Y-13718433D02*
X12599877Y-13756528D01*
X12599877Y-13756528D02*
X12590353Y-13775576D01*
X12590353Y-13775576D02*
X12580829Y-13785100D01*
X12580829Y-13785100D02*
X12561782Y-13794624D01*
X12561782Y-13794624D02*
X12542734Y-13794624D01*
X12542734Y-13794624D02*
X12523686Y-13785100D01*
X12523686Y-13785100D02*
X12514163Y-13775576D01*
X12514163Y-13775576D02*
X12504639Y-13756528D01*
X12504639Y-13756528D02*
X12495115Y-13718433D01*
X12495115Y-13718433D02*
X12495115Y-13670814D01*
X12495115Y-13670814D02*
X12504639Y-13632719D01*
X12504639Y-13632719D02*
X12514163Y-13613671D01*
X12514163Y-13613671D02*
X12523686Y-13604148D01*
X12523686Y-13604148D02*
X12542734Y-13594624D01*
X12695115Y-13775576D02*
X12704639Y-13785100D01*
X12704639Y-13785100D02*
X12695115Y-13794624D01*
X12695115Y-13794624D02*
X12685591Y-13785100D01*
X12685591Y-13785100D02*
X12695115Y-13775576D01*
X12695115Y-13775576D02*
X12695115Y-13794624D01*
X12828448Y-13594624D02*
X12847496Y-13594624D01*
X12847496Y-13594624D02*
X12866544Y-13604148D01*
X12866544Y-13604148D02*
X12876067Y-13613671D01*
X12876067Y-13613671D02*
X12885591Y-13632719D01*
X12885591Y-13632719D02*
X12895115Y-13670814D01*
X12895115Y-13670814D02*
X12895115Y-13718433D01*
X12895115Y-13718433D02*
X12885591Y-13756528D01*
X12885591Y-13756528D02*
X12876067Y-13775576D01*
X12876067Y-13775576D02*
X12866544Y-13785100D01*
X12866544Y-13785100D02*
X12847496Y-13794624D01*
X12847496Y-13794624D02*
X12828448Y-13794624D01*
X12828448Y-13794624D02*
X12809401Y-13785100D01*
X12809401Y-13785100D02*
X12799877Y-13775576D01*
X12799877Y-13775576D02*
X12790353Y-13756528D01*
X12790353Y-13756528D02*
X12780829Y-13718433D01*
X12780829Y-13718433D02*
X12780829Y-13670814D01*
X12780829Y-13670814D02*
X12790353Y-13632719D01*
X12790353Y-13632719D02*
X12799877Y-13613671D01*
X12799877Y-13613671D02*
X12809401Y-13604148D01*
X12809401Y-13604148D02*
X12828448Y-13594624D01*
X13085591Y-13794624D02*
X12971306Y-13794624D01*
X13028448Y-13794624D02*
X13028448Y-13594624D01*
X13028448Y-13594624D02*
X13009401Y-13623195D01*
X13009401Y-13623195D02*
X12990353Y-13642243D01*
X12990353Y-13642243D02*
X12971306Y-13651767D01*
X13276067Y-13794624D02*
X13161782Y-13794624D01*
X13218925Y-13794624D02*
X13218925Y-13594624D01*
X13218925Y-13594624D02*
X13199877Y-13623195D01*
X13199877Y-13623195D02*
X13180829Y-13642243D01*
X13180829Y-13642243D02*
X13161782Y-13651767D01*
X13390353Y-13680338D02*
X13371306Y-13670814D01*
X13371306Y-13670814D02*
X13361782Y-13661290D01*
X13361782Y-13661290D02*
X13352258Y-13642243D01*
X13352258Y-13642243D02*
X13352258Y-13632719D01*
X13352258Y-13632719D02*
X13361782Y-13613671D01*
X13361782Y-13613671D02*
X13371306Y-13604148D01*
X13371306Y-13604148D02*
X13390353Y-13594624D01*
X13390353Y-13594624D02*
X13428448Y-13594624D01*
X13428448Y-13594624D02*
X13447496Y-13604148D01*
X13447496Y-13604148D02*
X13457020Y-13613671D01*
X13457020Y-13613671D02*
X13466544Y-13632719D01*
X13466544Y-13632719D02*
X13466544Y-13642243D01*
X13466544Y-13642243D02*
X13457020Y-13661290D01*
X13457020Y-13661290D02*
X13447496Y-13670814D01*
X13447496Y-13670814D02*
X13428448Y-13680338D01*
X13428448Y-13680338D02*
X13390353Y-13680338D01*
X13390353Y-13680338D02*
X13371306Y-13689862D01*
X13371306Y-13689862D02*
X13361782Y-13699386D01*
X13361782Y-13699386D02*
X13352258Y-13718433D01*
X13352258Y-13718433D02*
X13352258Y-13756528D01*
X13352258Y-13756528D02*
X13361782Y-13775576D01*
X13361782Y-13775576D02*
X13371306Y-13785100D01*
X13371306Y-13785100D02*
X13390353Y-13794624D01*
X13390353Y-13794624D02*
X13428448Y-13794624D01*
X13428448Y-13794624D02*
X13447496Y-13785100D01*
X13447496Y-13785100D02*
X13457020Y-13775576D01*
X13457020Y-13775576D02*
X13466544Y-13756528D01*
X13466544Y-13756528D02*
X13466544Y-13718433D01*
X13466544Y-13718433D02*
X13457020Y-13699386D01*
X13457020Y-13699386D02*
X13447496Y-13689862D01*
X13447496Y-13689862D02*
X13428448Y-13680338D01*
X13542734Y-13594624D02*
X13542734Y-13632719D01*
X13618925Y-13594624D02*
X13618925Y-13632719D01*
X13914163Y-13870814D02*
X13904639Y-13861290D01*
X13904639Y-13861290D02*
X13885591Y-13832719D01*
X13885591Y-13832719D02*
X13876068Y-13813671D01*
X13876068Y-13813671D02*
X13866544Y-13785100D01*
X13866544Y-13785100D02*
X13857020Y-13737481D01*
X13857020Y-13737481D02*
X13857020Y-13699386D01*
X13857020Y-13699386D02*
X13866544Y-13651767D01*
X13866544Y-13651767D02*
X13876068Y-13623195D01*
X13876068Y-13623195D02*
X13885591Y-13604148D01*
X13885591Y-13604148D02*
X13904639Y-13575576D01*
X13904639Y-13575576D02*
X13914163Y-13566052D01*
X13971306Y-13594624D02*
X14104639Y-13594624D01*
X14104639Y-13594624D02*
X14018925Y-13794624D01*
X14209401Y-13680338D02*
X14190353Y-13670814D01*
X14190353Y-13670814D02*
X14180829Y-13661290D01*
X14180829Y-13661290D02*
X14171306Y-13642243D01*
X14171306Y-13642243D02*
X14171306Y-13632719D01*
X14171306Y-13632719D02*
X14180829Y-13613671D01*
X14180829Y-13613671D02*
X14190353Y-13604148D01*
X14190353Y-13604148D02*
X14209401Y-13594624D01*
X14209401Y-13594624D02*
X14247496Y-13594624D01*
X14247496Y-13594624D02*
X14266544Y-13604148D01*
X14266544Y-13604148D02*
X14276068Y-13613671D01*
X14276068Y-13613671D02*
X14285591Y-13632719D01*
X14285591Y-13632719D02*
X14285591Y-13642243D01*
X14285591Y-13642243D02*
X14276068Y-13661290D01*
X14276068Y-13661290D02*
X14266544Y-13670814D01*
X14266544Y-13670814D02*
X14247496Y-13680338D01*
X14247496Y-13680338D02*
X14209401Y-13680338D01*
X14209401Y-13680338D02*
X14190353Y-13689862D01*
X14190353Y-13689862D02*
X14180829Y-13699386D01*
X14180829Y-13699386D02*
X14171306Y-13718433D01*
X14171306Y-13718433D02*
X14171306Y-13756528D01*
X14171306Y-13756528D02*
X14180829Y-13775576D01*
X14180829Y-13775576D02*
X14190353Y-13785100D01*
X14190353Y-13785100D02*
X14209401Y-13794624D01*
X14209401Y-13794624D02*
X14247496Y-13794624D01*
X14247496Y-13794624D02*
X14266544Y-13785100D01*
X14266544Y-13785100D02*
X14276068Y-13775576D01*
X14276068Y-13775576D02*
X14285591Y-13756528D01*
X14285591Y-13756528D02*
X14285591Y-13718433D01*
X14285591Y-13718433D02*
X14276068Y-13699386D01*
X14276068Y-13699386D02*
X14266544Y-13689862D01*
X14266544Y-13689862D02*
X14247496Y-13680338D01*
X14523687Y-13794624D02*
X14523687Y-13594624D01*
X14609401Y-13794624D02*
X14609401Y-13689862D01*
X14609401Y-13689862D02*
X14599877Y-13670814D01*
X14599877Y-13670814D02*
X14580830Y-13661290D01*
X14580830Y-13661290D02*
X14552258Y-13661290D01*
X14552258Y-13661290D02*
X14533210Y-13670814D01*
X14533210Y-13670814D02*
X14523687Y-13680338D01*
X14733210Y-13794624D02*
X14714163Y-13785100D01*
X14714163Y-13785100D02*
X14704639Y-13775576D01*
X14704639Y-13775576D02*
X14695115Y-13756528D01*
X14695115Y-13756528D02*
X14695115Y-13699386D01*
X14695115Y-13699386D02*
X14704639Y-13680338D01*
X14704639Y-13680338D02*
X14714163Y-13670814D01*
X14714163Y-13670814D02*
X14733210Y-13661290D01*
X14733210Y-13661290D02*
X14761782Y-13661290D01*
X14761782Y-13661290D02*
X14780830Y-13670814D01*
X14780830Y-13670814D02*
X14790353Y-13680338D01*
X14790353Y-13680338D02*
X14799877Y-13699386D01*
X14799877Y-13699386D02*
X14799877Y-13756528D01*
X14799877Y-13756528D02*
X14790353Y-13775576D01*
X14790353Y-13775576D02*
X14780830Y-13785100D01*
X14780830Y-13785100D02*
X14761782Y-13794624D01*
X14761782Y-13794624D02*
X14733210Y-13794624D01*
X14914163Y-13794624D02*
X14895115Y-13785100D01*
X14895115Y-13785100D02*
X14885591Y-13766052D01*
X14885591Y-13766052D02*
X14885591Y-13594624D01*
X15066544Y-13785100D02*
X15047496Y-13794624D01*
X15047496Y-13794624D02*
X15009401Y-13794624D01*
X15009401Y-13794624D02*
X14990353Y-13785100D01*
X14990353Y-13785100D02*
X14980830Y-13766052D01*
X14980830Y-13766052D02*
X14980830Y-13689862D01*
X14980830Y-13689862D02*
X14990353Y-13670814D01*
X14990353Y-13670814D02*
X15009401Y-13661290D01*
X15009401Y-13661290D02*
X15047496Y-13661290D01*
X15047496Y-13661290D02*
X15066544Y-13670814D01*
X15066544Y-13670814D02*
X15076068Y-13689862D01*
X15076068Y-13689862D02*
X15076068Y-13708909D01*
X15076068Y-13708909D02*
X14980830Y-13727957D01*
X15152258Y-13785100D02*
X15171306Y-13794624D01*
X15171306Y-13794624D02*
X15209401Y-13794624D01*
X15209401Y-13794624D02*
X15228449Y-13785100D01*
X15228449Y-13785100D02*
X15237972Y-13766052D01*
X15237972Y-13766052D02*
X15237972Y-13756528D01*
X15237972Y-13756528D02*
X15228449Y-13737481D01*
X15228449Y-13737481D02*
X15209401Y-13727957D01*
X15209401Y-13727957D02*
X15180830Y-13727957D01*
X15180830Y-13727957D02*
X15161782Y-13718433D01*
X15161782Y-13718433D02*
X15152258Y-13699386D01*
X15152258Y-13699386D02*
X15152258Y-13689862D01*
X15152258Y-13689862D02*
X15161782Y-13670814D01*
X15161782Y-13670814D02*
X15180830Y-13661290D01*
X15180830Y-13661290D02*
X15209401Y-13661290D01*
X15209401Y-13661290D02*
X15228449Y-13670814D01*
X15304639Y-13870814D02*
X15314163Y-13861290D01*
X15314163Y-13861290D02*
X15333211Y-13832719D01*
X15333211Y-13832719D02*
X15342734Y-13813671D01*
X15342734Y-13813671D02*
X15352258Y-13785100D01*
X15352258Y-13785100D02*
X15361782Y-13737481D01*
X15361782Y-13737481D02*
X15361782Y-13699386D01*
X15361782Y-13699386D02*
X15352258Y-13651767D01*
X15352258Y-13651767D02*
X15342734Y-13623195D01*
X15342734Y-13623195D02*
X15333211Y-13604148D01*
X15333211Y-13604148D02*
X15314163Y-13575576D01*
X15314163Y-13575576D02*
X15304639Y-13566052D01*
D10*
X10339100Y-13967140D02*
G75*
G03*
X10339100Y-13967140I-20000J0D01*
G01*
D11*
X10637972Y-13858624D02*
X10657020Y-13858624D01*
X10657020Y-13858624D02*
X10676067Y-13868148D01*
X10676067Y-13868148D02*
X10685591Y-13877671D01*
X10685591Y-13877671D02*
X10695115Y-13896719D01*
X10695115Y-13896719D02*
X10704639Y-13934814D01*
X10704639Y-13934814D02*
X10704639Y-13982433D01*
X10704639Y-13982433D02*
X10695115Y-14020528D01*
X10695115Y-14020528D02*
X10685591Y-14039576D01*
X10685591Y-14039576D02*
X10676067Y-14049100D01*
X10676067Y-14049100D02*
X10657020Y-14058624D01*
X10657020Y-14058624D02*
X10637972Y-14058624D01*
X10637972Y-14058624D02*
X10618924Y-14049100D01*
X10618924Y-14049100D02*
X10609401Y-14039576D01*
X10609401Y-14039576D02*
X10599877Y-14020528D01*
X10599877Y-14020528D02*
X10590353Y-13982433D01*
X10590353Y-13982433D02*
X10590353Y-13934814D01*
X10590353Y-13934814D02*
X10599877Y-13896719D01*
X10599877Y-13896719D02*
X10609401Y-13877671D01*
X10609401Y-13877671D02*
X10618924Y-13868148D01*
X10618924Y-13868148D02*
X10637972Y-13858624D01*
X10790353Y-14039576D02*
X10799877Y-14049100D01*
X10799877Y-14049100D02*
X10790353Y-14058624D01*
X10790353Y-14058624D02*
X10780829Y-14049100D01*
X10780829Y-14049100D02*
X10790353Y-14039576D01*
X10790353Y-14039576D02*
X10790353Y-14058624D01*
X10971305Y-13925290D02*
X10971305Y-14058624D01*
X10923686Y-13849100D02*
X10876067Y-13991957D01*
X10876067Y-13991957D02*
X10999877Y-13991957D01*
X11114163Y-13858624D02*
X11133210Y-13858624D01*
X11133210Y-13858624D02*
X11152258Y-13868148D01*
X11152258Y-13868148D02*
X11161782Y-13877671D01*
X11161782Y-13877671D02*
X11171305Y-13896719D01*
X11171305Y-13896719D02*
X11180829Y-13934814D01*
X11180829Y-13934814D02*
X11180829Y-13982433D01*
X11180829Y-13982433D02*
X11171305Y-14020528D01*
X11171305Y-14020528D02*
X11161782Y-14039576D01*
X11161782Y-14039576D02*
X11152258Y-14049100D01*
X11152258Y-14049100D02*
X11133210Y-14058624D01*
X11133210Y-14058624D02*
X11114163Y-14058624D01*
X11114163Y-14058624D02*
X11095115Y-14049100D01*
X11095115Y-14049100D02*
X11085591Y-14039576D01*
X11085591Y-14039576D02*
X11076067Y-14020528D01*
X11076067Y-14020528D02*
X11066544Y-13982433D01*
X11066544Y-13982433D02*
X11066544Y-13934814D01*
X11066544Y-13934814D02*
X11076067Y-13896719D01*
X11076067Y-13896719D02*
X11085591Y-13877671D01*
X11085591Y-13877671D02*
X11095115Y-13868148D01*
X11095115Y-13868148D02*
X11114163Y-13858624D01*
X11304639Y-13858624D02*
X11323686Y-13858624D01*
X11323686Y-13858624D02*
X11342734Y-13868148D01*
X11342734Y-13868148D02*
X11352258Y-13877671D01*
X11352258Y-13877671D02*
X11361782Y-13896719D01*
X11361782Y-13896719D02*
X11371305Y-13934814D01*
X11371305Y-13934814D02*
X11371305Y-13982433D01*
X11371305Y-13982433D02*
X11361782Y-14020528D01*
X11361782Y-14020528D02*
X11352258Y-14039576D01*
X11352258Y-14039576D02*
X11342734Y-14049100D01*
X11342734Y-14049100D02*
X11323686Y-14058624D01*
X11323686Y-14058624D02*
X11304639Y-14058624D01*
X11304639Y-14058624D02*
X11285591Y-14049100D01*
X11285591Y-14049100D02*
X11276067Y-14039576D01*
X11276067Y-14039576D02*
X11266543Y-14020528D01*
X11266543Y-14020528D02*
X11257020Y-13982433D01*
X11257020Y-13982433D02*
X11257020Y-13934814D01*
X11257020Y-13934814D02*
X11266543Y-13896719D01*
X11266543Y-13896719D02*
X11276067Y-13877671D01*
X11276067Y-13877671D02*
X11285591Y-13868148D01*
X11285591Y-13868148D02*
X11304639Y-13858624D01*
X11457020Y-14058624D02*
X11457020Y-13925290D01*
X11457020Y-13944338D02*
X11466543Y-13934814D01*
X11466543Y-13934814D02*
X11485591Y-13925290D01*
X11485591Y-13925290D02*
X11514163Y-13925290D01*
X11514163Y-13925290D02*
X11533210Y-13934814D01*
X11533210Y-13934814D02*
X11542734Y-13953862D01*
X11542734Y-13953862D02*
X11542734Y-14058624D01*
X11542734Y-13953862D02*
X11552258Y-13934814D01*
X11552258Y-13934814D02*
X11571305Y-13925290D01*
X11571305Y-13925290D02*
X11599877Y-13925290D01*
X11599877Y-13925290D02*
X11618924Y-13934814D01*
X11618924Y-13934814D02*
X11628448Y-13953862D01*
X11628448Y-13953862D02*
X11628448Y-14058624D01*
X11723686Y-14058624D02*
X11723686Y-13925290D01*
X11723686Y-13944338D02*
X11733210Y-13934814D01*
X11733210Y-13934814D02*
X11752258Y-13925290D01*
X11752258Y-13925290D02*
X11780829Y-13925290D01*
X11780829Y-13925290D02*
X11799877Y-13934814D01*
X11799877Y-13934814D02*
X11809401Y-13953862D01*
X11809401Y-13953862D02*
X11809401Y-14058624D01*
X11809401Y-13953862D02*
X11818924Y-13934814D01*
X11818924Y-13934814D02*
X11837972Y-13925290D01*
X11837972Y-13925290D02*
X11866543Y-13925290D01*
X11866543Y-13925290D02*
X11885591Y-13934814D01*
X11885591Y-13934814D02*
X11895115Y-13953862D01*
X11895115Y-13953862D02*
X11895115Y-14058624D01*
X12285591Y-13849100D02*
X12114163Y-14106243D01*
X12542734Y-13858624D02*
X12561782Y-13858624D01*
X12561782Y-13858624D02*
X12580829Y-13868148D01*
X12580829Y-13868148D02*
X12590353Y-13877671D01*
X12590353Y-13877671D02*
X12599877Y-13896719D01*
X12599877Y-13896719D02*
X12609401Y-13934814D01*
X12609401Y-13934814D02*
X12609401Y-13982433D01*
X12609401Y-13982433D02*
X12599877Y-14020528D01*
X12599877Y-14020528D02*
X12590353Y-14039576D01*
X12590353Y-14039576D02*
X12580829Y-14049100D01*
X12580829Y-14049100D02*
X12561782Y-14058624D01*
X12561782Y-14058624D02*
X12542734Y-14058624D01*
X12542734Y-14058624D02*
X12523686Y-14049100D01*
X12523686Y-14049100D02*
X12514163Y-14039576D01*
X12514163Y-14039576D02*
X12504639Y-14020528D01*
X12504639Y-14020528D02*
X12495115Y-13982433D01*
X12495115Y-13982433D02*
X12495115Y-13934814D01*
X12495115Y-13934814D02*
X12504639Y-13896719D01*
X12504639Y-13896719D02*
X12514163Y-13877671D01*
X12514163Y-13877671D02*
X12523686Y-13868148D01*
X12523686Y-13868148D02*
X12542734Y-13858624D01*
X12695115Y-14039576D02*
X12704639Y-14049100D01*
X12704639Y-14049100D02*
X12695115Y-14058624D01*
X12695115Y-14058624D02*
X12685591Y-14049100D01*
X12685591Y-14049100D02*
X12695115Y-14039576D01*
X12695115Y-14039576D02*
X12695115Y-14058624D01*
X12828448Y-13858624D02*
X12847496Y-13858624D01*
X12847496Y-13858624D02*
X12866544Y-13868148D01*
X12866544Y-13868148D02*
X12876067Y-13877671D01*
X12876067Y-13877671D02*
X12885591Y-13896719D01*
X12885591Y-13896719D02*
X12895115Y-13934814D01*
X12895115Y-13934814D02*
X12895115Y-13982433D01*
X12895115Y-13982433D02*
X12885591Y-14020528D01*
X12885591Y-14020528D02*
X12876067Y-14039576D01*
X12876067Y-14039576D02*
X12866544Y-14049100D01*
X12866544Y-14049100D02*
X12847496Y-14058624D01*
X12847496Y-14058624D02*
X12828448Y-14058624D01*
X12828448Y-14058624D02*
X12809401Y-14049100D01*
X12809401Y-14049100D02*
X12799877Y-14039576D01*
X12799877Y-14039576D02*
X12790353Y-14020528D01*
X12790353Y-14020528D02*
X12780829Y-13982433D01*
X12780829Y-13982433D02*
X12780829Y-13934814D01*
X12780829Y-13934814D02*
X12790353Y-13896719D01*
X12790353Y-13896719D02*
X12799877Y-13877671D01*
X12799877Y-13877671D02*
X12809401Y-13868148D01*
X12809401Y-13868148D02*
X12828448Y-13858624D01*
X13085591Y-14058624D02*
X12971306Y-14058624D01*
X13028448Y-14058624D02*
X13028448Y-13858624D01*
X13028448Y-13858624D02*
X13009401Y-13887195D01*
X13009401Y-13887195D02*
X12990353Y-13906243D01*
X12990353Y-13906243D02*
X12971306Y-13915767D01*
X13266544Y-13858624D02*
X13171306Y-13858624D01*
X13171306Y-13858624D02*
X13161782Y-13953862D01*
X13161782Y-13953862D02*
X13171306Y-13944338D01*
X13171306Y-13944338D02*
X13190353Y-13934814D01*
X13190353Y-13934814D02*
X13237972Y-13934814D01*
X13237972Y-13934814D02*
X13257020Y-13944338D01*
X13257020Y-13944338D02*
X13266544Y-13953862D01*
X13266544Y-13953862D02*
X13276067Y-13972909D01*
X13276067Y-13972909D02*
X13276067Y-14020528D01*
X13276067Y-14020528D02*
X13266544Y-14039576D01*
X13266544Y-14039576D02*
X13257020Y-14049100D01*
X13257020Y-14049100D02*
X13237972Y-14058624D01*
X13237972Y-14058624D02*
X13190353Y-14058624D01*
X13190353Y-14058624D02*
X13171306Y-14049100D01*
X13171306Y-14049100D02*
X13161782Y-14039576D01*
X13342734Y-13858624D02*
X13476067Y-13858624D01*
X13476067Y-13858624D02*
X13390353Y-14058624D01*
X13542734Y-13858624D02*
X13542734Y-13896719D01*
X13618925Y-13858624D02*
X13618925Y-13896719D01*
X13914163Y-14134814D02*
X13904639Y-14125290D01*
X13904639Y-14125290D02*
X13885591Y-14096719D01*
X13885591Y-14096719D02*
X13876068Y-14077671D01*
X13876068Y-14077671D02*
X13866544Y-14049100D01*
X13866544Y-14049100D02*
X13857020Y-14001481D01*
X13857020Y-14001481D02*
X13857020Y-13963386D01*
X13857020Y-13963386D02*
X13866544Y-13915767D01*
X13866544Y-13915767D02*
X13876068Y-13887195D01*
X13876068Y-13887195D02*
X13885591Y-13868148D01*
X13885591Y-13868148D02*
X13904639Y-13839576D01*
X13904639Y-13839576D02*
X13914163Y-13830052D01*
X13980829Y-13877671D02*
X13990353Y-13868148D01*
X13990353Y-13868148D02*
X14009401Y-13858624D01*
X14009401Y-13858624D02*
X14057020Y-13858624D01*
X14057020Y-13858624D02*
X14076068Y-13868148D01*
X14076068Y-13868148D02*
X14085591Y-13877671D01*
X14085591Y-13877671D02*
X14095115Y-13896719D01*
X14095115Y-13896719D02*
X14095115Y-13915767D01*
X14095115Y-13915767D02*
X14085591Y-13944338D01*
X14085591Y-13944338D02*
X13971306Y-14058624D01*
X13971306Y-14058624D02*
X14095115Y-14058624D01*
X14190353Y-14058624D02*
X14228448Y-14058624D01*
X14228448Y-14058624D02*
X14247496Y-14049100D01*
X14247496Y-14049100D02*
X14257020Y-14039576D01*
X14257020Y-14039576D02*
X14276068Y-14011005D01*
X14276068Y-14011005D02*
X14285591Y-13972909D01*
X14285591Y-13972909D02*
X14285591Y-13896719D01*
X14285591Y-13896719D02*
X14276068Y-13877671D01*
X14276068Y-13877671D02*
X14266544Y-13868148D01*
X14266544Y-13868148D02*
X14247496Y-13858624D01*
X14247496Y-13858624D02*
X14209401Y-13858624D01*
X14209401Y-13858624D02*
X14190353Y-13868148D01*
X14190353Y-13868148D02*
X14180829Y-13877671D01*
X14180829Y-13877671D02*
X14171306Y-13896719D01*
X14171306Y-13896719D02*
X14171306Y-13944338D01*
X14171306Y-13944338D02*
X14180829Y-13963386D01*
X14180829Y-13963386D02*
X14190353Y-13972909D01*
X14190353Y-13972909D02*
X14209401Y-13982433D01*
X14209401Y-13982433D02*
X14247496Y-13982433D01*
X14247496Y-13982433D02*
X14266544Y-13972909D01*
X14266544Y-13972909D02*
X14276068Y-13963386D01*
X14276068Y-13963386D02*
X14285591Y-13944338D01*
X14476068Y-14058624D02*
X14361782Y-14058624D01*
X14418925Y-14058624D02*
X14418925Y-13858624D01*
X14418925Y-13858624D02*
X14399877Y-13887195D01*
X14399877Y-13887195D02*
X14380829Y-13906243D01*
X14380829Y-13906243D02*
X14361782Y-13915767D01*
X14714163Y-14058624D02*
X14714163Y-13858624D01*
X14799877Y-14058624D02*
X14799877Y-13953862D01*
X14799877Y-13953862D02*
X14790353Y-13934814D01*
X14790353Y-13934814D02*
X14771306Y-13925290D01*
X14771306Y-13925290D02*
X14742734Y-13925290D01*
X14742734Y-13925290D02*
X14723687Y-13934814D01*
X14723687Y-13934814D02*
X14714163Y-13944338D01*
X14923687Y-14058624D02*
X14904639Y-14049100D01*
X14904639Y-14049100D02*
X14895115Y-14039576D01*
X14895115Y-14039576D02*
X14885591Y-14020528D01*
X14885591Y-14020528D02*
X14885591Y-13963386D01*
X14885591Y-13963386D02*
X14895115Y-13944338D01*
X14895115Y-13944338D02*
X14904639Y-13934814D01*
X14904639Y-13934814D02*
X14923687Y-13925290D01*
X14923687Y-13925290D02*
X14952258Y-13925290D01*
X14952258Y-13925290D02*
X14971306Y-13934814D01*
X14971306Y-13934814D02*
X14980830Y-13944338D01*
X14980830Y-13944338D02*
X14990353Y-13963386D01*
X14990353Y-13963386D02*
X14990353Y-14020528D01*
X14990353Y-14020528D02*
X14980830Y-14039576D01*
X14980830Y-14039576D02*
X14971306Y-14049100D01*
X14971306Y-14049100D02*
X14952258Y-14058624D01*
X14952258Y-14058624D02*
X14923687Y-14058624D01*
X15104639Y-14058624D02*
X15085591Y-14049100D01*
X15085591Y-14049100D02*
X15076068Y-14030052D01*
X15076068Y-14030052D02*
X15076068Y-13858624D01*
X15257020Y-14049100D02*
X15237972Y-14058624D01*
X15237972Y-14058624D02*
X15199877Y-14058624D01*
X15199877Y-14058624D02*
X15180830Y-14049100D01*
X15180830Y-14049100D02*
X15171306Y-14030052D01*
X15171306Y-14030052D02*
X15171306Y-13953862D01*
X15171306Y-13953862D02*
X15180830Y-13934814D01*
X15180830Y-13934814D02*
X15199877Y-13925290D01*
X15199877Y-13925290D02*
X15237972Y-13925290D01*
X15237972Y-13925290D02*
X15257020Y-13934814D01*
X15257020Y-13934814D02*
X15266544Y-13953862D01*
X15266544Y-13953862D02*
X15266544Y-13972909D01*
X15266544Y-13972909D02*
X15171306Y-13991957D01*
X15342734Y-14049100D02*
X15361782Y-14058624D01*
X15361782Y-14058624D02*
X15399877Y-14058624D01*
X15399877Y-14058624D02*
X15418925Y-14049100D01*
X15418925Y-14049100D02*
X15428449Y-14030052D01*
X15428449Y-14030052D02*
X15428449Y-14020528D01*
X15428449Y-14020528D02*
X15418925Y-14001481D01*
X15418925Y-14001481D02*
X15399877Y-13991957D01*
X15399877Y-13991957D02*
X15371306Y-13991957D01*
X15371306Y-13991957D02*
X15352258Y-13982433D01*
X15352258Y-13982433D02*
X15342734Y-13963386D01*
X15342734Y-13963386D02*
X15342734Y-13953862D01*
X15342734Y-13953862D02*
X15352258Y-13934814D01*
X15352258Y-13934814D02*
X15371306Y-13925290D01*
X15371306Y-13925290D02*
X15399877Y-13925290D01*
X15399877Y-13925290D02*
X15418925Y-13934814D01*
X15495115Y-14134814D02*
X15504639Y-14125290D01*
X15504639Y-14125290D02*
X15523687Y-14096719D01*
X15523687Y-14096719D02*
X15533211Y-14077671D01*
X15533211Y-14077671D02*
X15542734Y-14049100D01*
X15542734Y-14049100D02*
X15552258Y-14001481D01*
X15552258Y-14001481D02*
X15552258Y-13963386D01*
X15552258Y-13963386D02*
X15542734Y-13915767D01*
X15542734Y-13915767D02*
X15533211Y-13887195D01*
X15533211Y-13887195D02*
X15523687Y-13868148D01*
X15523687Y-13868148D02*
X15504639Y-13839576D01*
X15504639Y-13839576D02*
X15495115Y-13830052D01*
D10*
X10314100Y-14206140D02*
X10314100Y-14256140D01*
X10289100Y-14231140D02*
X10339100Y-14231140D01*
D11*
X10637972Y-14122624D02*
X10657020Y-14122624D01*
X10657020Y-14122624D02*
X10676067Y-14132148D01*
X10676067Y-14132148D02*
X10685591Y-14141671D01*
X10685591Y-14141671D02*
X10695115Y-14160719D01*
X10695115Y-14160719D02*
X10704639Y-14198814D01*
X10704639Y-14198814D02*
X10704639Y-14246433D01*
X10704639Y-14246433D02*
X10695115Y-14284528D01*
X10695115Y-14284528D02*
X10685591Y-14303576D01*
X10685591Y-14303576D02*
X10676067Y-14313100D01*
X10676067Y-14313100D02*
X10657020Y-14322624D01*
X10657020Y-14322624D02*
X10637972Y-14322624D01*
X10637972Y-14322624D02*
X10618924Y-14313100D01*
X10618924Y-14313100D02*
X10609401Y-14303576D01*
X10609401Y-14303576D02*
X10599877Y-14284528D01*
X10599877Y-14284528D02*
X10590353Y-14246433D01*
X10590353Y-14246433D02*
X10590353Y-14198814D01*
X10590353Y-14198814D02*
X10599877Y-14160719D01*
X10599877Y-14160719D02*
X10609401Y-14141671D01*
X10609401Y-14141671D02*
X10618924Y-14132148D01*
X10618924Y-14132148D02*
X10637972Y-14122624D01*
X10790353Y-14303576D02*
X10799877Y-14313100D01*
X10799877Y-14313100D02*
X10790353Y-14322624D01*
X10790353Y-14322624D02*
X10780829Y-14313100D01*
X10780829Y-14313100D02*
X10790353Y-14303576D01*
X10790353Y-14303576D02*
X10790353Y-14322624D01*
X10980829Y-14122624D02*
X10885591Y-14122624D01*
X10885591Y-14122624D02*
X10876067Y-14217862D01*
X10876067Y-14217862D02*
X10885591Y-14208338D01*
X10885591Y-14208338D02*
X10904639Y-14198814D01*
X10904639Y-14198814D02*
X10952258Y-14198814D01*
X10952258Y-14198814D02*
X10971305Y-14208338D01*
X10971305Y-14208338D02*
X10980829Y-14217862D01*
X10980829Y-14217862D02*
X10990353Y-14236909D01*
X10990353Y-14236909D02*
X10990353Y-14284528D01*
X10990353Y-14284528D02*
X10980829Y-14303576D01*
X10980829Y-14303576D02*
X10971305Y-14313100D01*
X10971305Y-14313100D02*
X10952258Y-14322624D01*
X10952258Y-14322624D02*
X10904639Y-14322624D01*
X10904639Y-14322624D02*
X10885591Y-14313100D01*
X10885591Y-14313100D02*
X10876067Y-14303576D01*
X11114163Y-14122624D02*
X11133210Y-14122624D01*
X11133210Y-14122624D02*
X11152258Y-14132148D01*
X11152258Y-14132148D02*
X11161782Y-14141671D01*
X11161782Y-14141671D02*
X11171305Y-14160719D01*
X11171305Y-14160719D02*
X11180829Y-14198814D01*
X11180829Y-14198814D02*
X11180829Y-14246433D01*
X11180829Y-14246433D02*
X11171305Y-14284528D01*
X11171305Y-14284528D02*
X11161782Y-14303576D01*
X11161782Y-14303576D02*
X11152258Y-14313100D01*
X11152258Y-14313100D02*
X11133210Y-14322624D01*
X11133210Y-14322624D02*
X11114163Y-14322624D01*
X11114163Y-14322624D02*
X11095115Y-14313100D01*
X11095115Y-14313100D02*
X11085591Y-14303576D01*
X11085591Y-14303576D02*
X11076067Y-14284528D01*
X11076067Y-14284528D02*
X11066544Y-14246433D01*
X11066544Y-14246433D02*
X11066544Y-14198814D01*
X11066544Y-14198814D02*
X11076067Y-14160719D01*
X11076067Y-14160719D02*
X11085591Y-14141671D01*
X11085591Y-14141671D02*
X11095115Y-14132148D01*
X11095115Y-14132148D02*
X11114163Y-14122624D01*
X11304639Y-14122624D02*
X11323686Y-14122624D01*
X11323686Y-14122624D02*
X11342734Y-14132148D01*
X11342734Y-14132148D02*
X11352258Y-14141671D01*
X11352258Y-14141671D02*
X11361782Y-14160719D01*
X11361782Y-14160719D02*
X11371305Y-14198814D01*
X11371305Y-14198814D02*
X11371305Y-14246433D01*
X11371305Y-14246433D02*
X11361782Y-14284528D01*
X11361782Y-14284528D02*
X11352258Y-14303576D01*
X11352258Y-14303576D02*
X11342734Y-14313100D01*
X11342734Y-14313100D02*
X11323686Y-14322624D01*
X11323686Y-14322624D02*
X11304639Y-14322624D01*
X11304639Y-14322624D02*
X11285591Y-14313100D01*
X11285591Y-14313100D02*
X11276067Y-14303576D01*
X11276067Y-14303576D02*
X11266543Y-14284528D01*
X11266543Y-14284528D02*
X11257020Y-14246433D01*
X11257020Y-14246433D02*
X11257020Y-14198814D01*
X11257020Y-14198814D02*
X11266543Y-14160719D01*
X11266543Y-14160719D02*
X11276067Y-14141671D01*
X11276067Y-14141671D02*
X11285591Y-14132148D01*
X11285591Y-14132148D02*
X11304639Y-14122624D01*
X11457020Y-14322624D02*
X11457020Y-14189290D01*
X11457020Y-14208338D02*
X11466543Y-14198814D01*
X11466543Y-14198814D02*
X11485591Y-14189290D01*
X11485591Y-14189290D02*
X11514163Y-14189290D01*
X11514163Y-14189290D02*
X11533210Y-14198814D01*
X11533210Y-14198814D02*
X11542734Y-14217862D01*
X11542734Y-14217862D02*
X11542734Y-14322624D01*
X11542734Y-14217862D02*
X11552258Y-14198814D01*
X11552258Y-14198814D02*
X11571305Y-14189290D01*
X11571305Y-14189290D02*
X11599877Y-14189290D01*
X11599877Y-14189290D02*
X11618924Y-14198814D01*
X11618924Y-14198814D02*
X11628448Y-14217862D01*
X11628448Y-14217862D02*
X11628448Y-14322624D01*
X11723686Y-14322624D02*
X11723686Y-14189290D01*
X11723686Y-14208338D02*
X11733210Y-14198814D01*
X11733210Y-14198814D02*
X11752258Y-14189290D01*
X11752258Y-14189290D02*
X11780829Y-14189290D01*
X11780829Y-14189290D02*
X11799877Y-14198814D01*
X11799877Y-14198814D02*
X11809401Y-14217862D01*
X11809401Y-14217862D02*
X11809401Y-14322624D01*
X11809401Y-14217862D02*
X11818924Y-14198814D01*
X11818924Y-14198814D02*
X11837972Y-14189290D01*
X11837972Y-14189290D02*
X11866543Y-14189290D01*
X11866543Y-14189290D02*
X11885591Y-14198814D01*
X11885591Y-14198814D02*
X11895115Y-14217862D01*
X11895115Y-14217862D02*
X11895115Y-14322624D01*
X12285591Y-14113100D02*
X12114163Y-14370243D01*
X12542734Y-14122624D02*
X12561782Y-14122624D01*
X12561782Y-14122624D02*
X12580829Y-14132148D01*
X12580829Y-14132148D02*
X12590353Y-14141671D01*
X12590353Y-14141671D02*
X12599877Y-14160719D01*
X12599877Y-14160719D02*
X12609401Y-14198814D01*
X12609401Y-14198814D02*
X12609401Y-14246433D01*
X12609401Y-14246433D02*
X12599877Y-14284528D01*
X12599877Y-14284528D02*
X12590353Y-14303576D01*
X12590353Y-14303576D02*
X12580829Y-14313100D01*
X12580829Y-14313100D02*
X12561782Y-14322624D01*
X12561782Y-14322624D02*
X12542734Y-14322624D01*
X12542734Y-14322624D02*
X12523686Y-14313100D01*
X12523686Y-14313100D02*
X12514163Y-14303576D01*
X12514163Y-14303576D02*
X12504639Y-14284528D01*
X12504639Y-14284528D02*
X12495115Y-14246433D01*
X12495115Y-14246433D02*
X12495115Y-14198814D01*
X12495115Y-14198814D02*
X12504639Y-14160719D01*
X12504639Y-14160719D02*
X12514163Y-14141671D01*
X12514163Y-14141671D02*
X12523686Y-14132148D01*
X12523686Y-14132148D02*
X12542734Y-14122624D01*
X12695115Y-14303576D02*
X12704639Y-14313100D01*
X12704639Y-14313100D02*
X12695115Y-14322624D01*
X12695115Y-14322624D02*
X12685591Y-14313100D01*
X12685591Y-14313100D02*
X12695115Y-14303576D01*
X12695115Y-14303576D02*
X12695115Y-14322624D01*
X12828448Y-14122624D02*
X12847496Y-14122624D01*
X12847496Y-14122624D02*
X12866544Y-14132148D01*
X12866544Y-14132148D02*
X12876067Y-14141671D01*
X12876067Y-14141671D02*
X12885591Y-14160719D01*
X12885591Y-14160719D02*
X12895115Y-14198814D01*
X12895115Y-14198814D02*
X12895115Y-14246433D01*
X12895115Y-14246433D02*
X12885591Y-14284528D01*
X12885591Y-14284528D02*
X12876067Y-14303576D01*
X12876067Y-14303576D02*
X12866544Y-14313100D01*
X12866544Y-14313100D02*
X12847496Y-14322624D01*
X12847496Y-14322624D02*
X12828448Y-14322624D01*
X12828448Y-14322624D02*
X12809401Y-14313100D01*
X12809401Y-14313100D02*
X12799877Y-14303576D01*
X12799877Y-14303576D02*
X12790353Y-14284528D01*
X12790353Y-14284528D02*
X12780829Y-14246433D01*
X12780829Y-14246433D02*
X12780829Y-14198814D01*
X12780829Y-14198814D02*
X12790353Y-14160719D01*
X12790353Y-14160719D02*
X12799877Y-14141671D01*
X12799877Y-14141671D02*
X12809401Y-14132148D01*
X12809401Y-14132148D02*
X12828448Y-14122624D01*
X13085591Y-14322624D02*
X12971306Y-14322624D01*
X13028448Y-14322624D02*
X13028448Y-14122624D01*
X13028448Y-14122624D02*
X13009401Y-14151195D01*
X13009401Y-14151195D02*
X12990353Y-14170243D01*
X12990353Y-14170243D02*
X12971306Y-14179767D01*
X13180829Y-14322624D02*
X13218925Y-14322624D01*
X13218925Y-14322624D02*
X13237972Y-14313100D01*
X13237972Y-14313100D02*
X13247496Y-14303576D01*
X13247496Y-14303576D02*
X13266544Y-14275005D01*
X13266544Y-14275005D02*
X13276067Y-14236909D01*
X13276067Y-14236909D02*
X13276067Y-14160719D01*
X13276067Y-14160719D02*
X13266544Y-14141671D01*
X13266544Y-14141671D02*
X13257020Y-14132148D01*
X13257020Y-14132148D02*
X13237972Y-14122624D01*
X13237972Y-14122624D02*
X13199877Y-14122624D01*
X13199877Y-14122624D02*
X13180829Y-14132148D01*
X13180829Y-14132148D02*
X13171306Y-14141671D01*
X13171306Y-14141671D02*
X13161782Y-14160719D01*
X13161782Y-14160719D02*
X13161782Y-14208338D01*
X13161782Y-14208338D02*
X13171306Y-14227386D01*
X13171306Y-14227386D02*
X13180829Y-14236909D01*
X13180829Y-14236909D02*
X13199877Y-14246433D01*
X13199877Y-14246433D02*
X13237972Y-14246433D01*
X13237972Y-14246433D02*
X13257020Y-14236909D01*
X13257020Y-14236909D02*
X13266544Y-14227386D01*
X13266544Y-14227386D02*
X13276067Y-14208338D01*
X13342734Y-14122624D02*
X13476067Y-14122624D01*
X13476067Y-14122624D02*
X13390353Y-14322624D01*
X13542734Y-14122624D02*
X13542734Y-14160719D01*
X13618925Y-14122624D02*
X13618925Y-14160719D01*
X13914163Y-14398814D02*
X13904639Y-14389290D01*
X13904639Y-14389290D02*
X13885591Y-14360719D01*
X13885591Y-14360719D02*
X13876068Y-14341671D01*
X13876068Y-14341671D02*
X13866544Y-14313100D01*
X13866544Y-14313100D02*
X13857020Y-14265481D01*
X13857020Y-14265481D02*
X13857020Y-14227386D01*
X13857020Y-14227386D02*
X13866544Y-14179767D01*
X13866544Y-14179767D02*
X13876068Y-14151195D01*
X13876068Y-14151195D02*
X13885591Y-14132148D01*
X13885591Y-14132148D02*
X13904639Y-14103576D01*
X13904639Y-14103576D02*
X13914163Y-14094052D01*
X14095115Y-14322624D02*
X13980829Y-14322624D01*
X14037972Y-14322624D02*
X14037972Y-14122624D01*
X14037972Y-14122624D02*
X14018925Y-14151195D01*
X14018925Y-14151195D02*
X13999877Y-14170243D01*
X13999877Y-14170243D02*
X13980829Y-14179767D01*
X14161782Y-14122624D02*
X14295115Y-14122624D01*
X14295115Y-14122624D02*
X14209401Y-14322624D01*
X14523687Y-14322624D02*
X14523687Y-14122624D01*
X14609401Y-14322624D02*
X14609401Y-14217862D01*
X14609401Y-14217862D02*
X14599877Y-14198814D01*
X14599877Y-14198814D02*
X14580830Y-14189290D01*
X14580830Y-14189290D02*
X14552258Y-14189290D01*
X14552258Y-14189290D02*
X14533210Y-14198814D01*
X14533210Y-14198814D02*
X14523687Y-14208338D01*
X14733210Y-14322624D02*
X14714163Y-14313100D01*
X14714163Y-14313100D02*
X14704639Y-14303576D01*
X14704639Y-14303576D02*
X14695115Y-14284528D01*
X14695115Y-14284528D02*
X14695115Y-14227386D01*
X14695115Y-14227386D02*
X14704639Y-14208338D01*
X14704639Y-14208338D02*
X14714163Y-14198814D01*
X14714163Y-14198814D02*
X14733210Y-14189290D01*
X14733210Y-14189290D02*
X14761782Y-14189290D01*
X14761782Y-14189290D02*
X14780830Y-14198814D01*
X14780830Y-14198814D02*
X14790353Y-14208338D01*
X14790353Y-14208338D02*
X14799877Y-14227386D01*
X14799877Y-14227386D02*
X14799877Y-14284528D01*
X14799877Y-14284528D02*
X14790353Y-14303576D01*
X14790353Y-14303576D02*
X14780830Y-14313100D01*
X14780830Y-14313100D02*
X14761782Y-14322624D01*
X14761782Y-14322624D02*
X14733210Y-14322624D01*
X14914163Y-14322624D02*
X14895115Y-14313100D01*
X14895115Y-14313100D02*
X14885591Y-14294052D01*
X14885591Y-14294052D02*
X14885591Y-14122624D01*
X15066544Y-14313100D02*
X15047496Y-14322624D01*
X15047496Y-14322624D02*
X15009401Y-14322624D01*
X15009401Y-14322624D02*
X14990353Y-14313100D01*
X14990353Y-14313100D02*
X14980830Y-14294052D01*
X14980830Y-14294052D02*
X14980830Y-14217862D01*
X14980830Y-14217862D02*
X14990353Y-14198814D01*
X14990353Y-14198814D02*
X15009401Y-14189290D01*
X15009401Y-14189290D02*
X15047496Y-14189290D01*
X15047496Y-14189290D02*
X15066544Y-14198814D01*
X15066544Y-14198814D02*
X15076068Y-14217862D01*
X15076068Y-14217862D02*
X15076068Y-14236909D01*
X15076068Y-14236909D02*
X14980830Y-14255957D01*
X15152258Y-14313100D02*
X15171306Y-14322624D01*
X15171306Y-14322624D02*
X15209401Y-14322624D01*
X15209401Y-14322624D02*
X15228449Y-14313100D01*
X15228449Y-14313100D02*
X15237972Y-14294052D01*
X15237972Y-14294052D02*
X15237972Y-14284528D01*
X15237972Y-14284528D02*
X15228449Y-14265481D01*
X15228449Y-14265481D02*
X15209401Y-14255957D01*
X15209401Y-14255957D02*
X15180830Y-14255957D01*
X15180830Y-14255957D02*
X15161782Y-14246433D01*
X15161782Y-14246433D02*
X15152258Y-14227386D01*
X15152258Y-14227386D02*
X15152258Y-14217862D01*
X15152258Y-14217862D02*
X15161782Y-14198814D01*
X15161782Y-14198814D02*
X15180830Y-14189290D01*
X15180830Y-14189290D02*
X15209401Y-14189290D01*
X15209401Y-14189290D02*
X15228449Y-14198814D01*
X15304639Y-14398814D02*
X15314163Y-14389290D01*
X15314163Y-14389290D02*
X15333211Y-14360719D01*
X15333211Y-14360719D02*
X15342734Y-14341671D01*
X15342734Y-14341671D02*
X15352258Y-14313100D01*
X15352258Y-14313100D02*
X15361782Y-14265481D01*
X15361782Y-14265481D02*
X15361782Y-14227386D01*
X15361782Y-14227386D02*
X15352258Y-14179767D01*
X15352258Y-14179767D02*
X15342734Y-14151195D01*
X15342734Y-14151195D02*
X15333211Y-14132148D01*
X15333211Y-14132148D02*
X15314163Y-14103576D01*
X15314163Y-14103576D02*
X15304639Y-14094052D01*
D10*
X10327385Y-14523424D02*
X10327385Y-14466855D01*
X10270816Y-14466855D01*
X10270816Y-14523424D01*
X10327385Y-14523424D01*
D11*
X10637972Y-14386624D02*
X10657020Y-14386624D01*
X10657020Y-14386624D02*
X10676067Y-14396148D01*
X10676067Y-14396148D02*
X10685591Y-14405671D01*
X10685591Y-14405671D02*
X10695115Y-14424719D01*
X10695115Y-14424719D02*
X10704639Y-14462814D01*
X10704639Y-14462814D02*
X10704639Y-14510433D01*
X10704639Y-14510433D02*
X10695115Y-14548528D01*
X10695115Y-14548528D02*
X10685591Y-14567576D01*
X10685591Y-14567576D02*
X10676067Y-14577100D01*
X10676067Y-14577100D02*
X10657020Y-14586624D01*
X10657020Y-14586624D02*
X10637972Y-14586624D01*
X10637972Y-14586624D02*
X10618924Y-14577100D01*
X10618924Y-14577100D02*
X10609401Y-14567576D01*
X10609401Y-14567576D02*
X10599877Y-14548528D01*
X10599877Y-14548528D02*
X10590353Y-14510433D01*
X10590353Y-14510433D02*
X10590353Y-14462814D01*
X10590353Y-14462814D02*
X10599877Y-14424719D01*
X10599877Y-14424719D02*
X10609401Y-14405671D01*
X10609401Y-14405671D02*
X10618924Y-14396148D01*
X10618924Y-14396148D02*
X10637972Y-14386624D01*
X10790353Y-14567576D02*
X10799877Y-14577100D01*
X10799877Y-14577100D02*
X10790353Y-14586624D01*
X10790353Y-14586624D02*
X10780829Y-14577100D01*
X10780829Y-14577100D02*
X10790353Y-14567576D01*
X10790353Y-14567576D02*
X10790353Y-14586624D01*
X10914163Y-14472338D02*
X10895115Y-14462814D01*
X10895115Y-14462814D02*
X10885591Y-14453290D01*
X10885591Y-14453290D02*
X10876067Y-14434243D01*
X10876067Y-14434243D02*
X10876067Y-14424719D01*
X10876067Y-14424719D02*
X10885591Y-14405671D01*
X10885591Y-14405671D02*
X10895115Y-14396148D01*
X10895115Y-14396148D02*
X10914163Y-14386624D01*
X10914163Y-14386624D02*
X10952258Y-14386624D01*
X10952258Y-14386624D02*
X10971305Y-14396148D01*
X10971305Y-14396148D02*
X10980829Y-14405671D01*
X10980829Y-14405671D02*
X10990353Y-14424719D01*
X10990353Y-14424719D02*
X10990353Y-14434243D01*
X10990353Y-14434243D02*
X10980829Y-14453290D01*
X10980829Y-14453290D02*
X10971305Y-14462814D01*
X10971305Y-14462814D02*
X10952258Y-14472338D01*
X10952258Y-14472338D02*
X10914163Y-14472338D01*
X10914163Y-14472338D02*
X10895115Y-14481862D01*
X10895115Y-14481862D02*
X10885591Y-14491386D01*
X10885591Y-14491386D02*
X10876067Y-14510433D01*
X10876067Y-14510433D02*
X10876067Y-14548528D01*
X10876067Y-14548528D02*
X10885591Y-14567576D01*
X10885591Y-14567576D02*
X10895115Y-14577100D01*
X10895115Y-14577100D02*
X10914163Y-14586624D01*
X10914163Y-14586624D02*
X10952258Y-14586624D01*
X10952258Y-14586624D02*
X10971305Y-14577100D01*
X10971305Y-14577100D02*
X10980829Y-14567576D01*
X10980829Y-14567576D02*
X10990353Y-14548528D01*
X10990353Y-14548528D02*
X10990353Y-14510433D01*
X10990353Y-14510433D02*
X10980829Y-14491386D01*
X10980829Y-14491386D02*
X10971305Y-14481862D01*
X10971305Y-14481862D02*
X10952258Y-14472338D01*
X11114163Y-14386624D02*
X11133210Y-14386624D01*
X11133210Y-14386624D02*
X11152258Y-14396148D01*
X11152258Y-14396148D02*
X11161782Y-14405671D01*
X11161782Y-14405671D02*
X11171305Y-14424719D01*
X11171305Y-14424719D02*
X11180829Y-14462814D01*
X11180829Y-14462814D02*
X11180829Y-14510433D01*
X11180829Y-14510433D02*
X11171305Y-14548528D01*
X11171305Y-14548528D02*
X11161782Y-14567576D01*
X11161782Y-14567576D02*
X11152258Y-14577100D01*
X11152258Y-14577100D02*
X11133210Y-14586624D01*
X11133210Y-14586624D02*
X11114163Y-14586624D01*
X11114163Y-14586624D02*
X11095115Y-14577100D01*
X11095115Y-14577100D02*
X11085591Y-14567576D01*
X11085591Y-14567576D02*
X11076067Y-14548528D01*
X11076067Y-14548528D02*
X11066544Y-14510433D01*
X11066544Y-14510433D02*
X11066544Y-14462814D01*
X11066544Y-14462814D02*
X11076067Y-14424719D01*
X11076067Y-14424719D02*
X11085591Y-14405671D01*
X11085591Y-14405671D02*
X11095115Y-14396148D01*
X11095115Y-14396148D02*
X11114163Y-14386624D01*
X11304639Y-14386624D02*
X11323686Y-14386624D01*
X11323686Y-14386624D02*
X11342734Y-14396148D01*
X11342734Y-14396148D02*
X11352258Y-14405671D01*
X11352258Y-14405671D02*
X11361782Y-14424719D01*
X11361782Y-14424719D02*
X11371305Y-14462814D01*
X11371305Y-14462814D02*
X11371305Y-14510433D01*
X11371305Y-14510433D02*
X11361782Y-14548528D01*
X11361782Y-14548528D02*
X11352258Y-14567576D01*
X11352258Y-14567576D02*
X11342734Y-14577100D01*
X11342734Y-14577100D02*
X11323686Y-14586624D01*
X11323686Y-14586624D02*
X11304639Y-14586624D01*
X11304639Y-14586624D02*
X11285591Y-14577100D01*
X11285591Y-14577100D02*
X11276067Y-14567576D01*
X11276067Y-14567576D02*
X11266543Y-14548528D01*
X11266543Y-14548528D02*
X11257020Y-14510433D01*
X11257020Y-14510433D02*
X11257020Y-14462814D01*
X11257020Y-14462814D02*
X11266543Y-14424719D01*
X11266543Y-14424719D02*
X11276067Y-14405671D01*
X11276067Y-14405671D02*
X11285591Y-14396148D01*
X11285591Y-14396148D02*
X11304639Y-14386624D01*
X11457020Y-14586624D02*
X11457020Y-14453290D01*
X11457020Y-14472338D02*
X11466543Y-14462814D01*
X11466543Y-14462814D02*
X11485591Y-14453290D01*
X11485591Y-14453290D02*
X11514163Y-14453290D01*
X11514163Y-14453290D02*
X11533210Y-14462814D01*
X11533210Y-14462814D02*
X11542734Y-14481862D01*
X11542734Y-14481862D02*
X11542734Y-14586624D01*
X11542734Y-14481862D02*
X11552258Y-14462814D01*
X11552258Y-14462814D02*
X11571305Y-14453290D01*
X11571305Y-14453290D02*
X11599877Y-14453290D01*
X11599877Y-14453290D02*
X11618924Y-14462814D01*
X11618924Y-14462814D02*
X11628448Y-14481862D01*
X11628448Y-14481862D02*
X11628448Y-14586624D01*
X11723686Y-14586624D02*
X11723686Y-14453290D01*
X11723686Y-14472338D02*
X11733210Y-14462814D01*
X11733210Y-14462814D02*
X11752258Y-14453290D01*
X11752258Y-14453290D02*
X11780829Y-14453290D01*
X11780829Y-14453290D02*
X11799877Y-14462814D01*
X11799877Y-14462814D02*
X11809401Y-14481862D01*
X11809401Y-14481862D02*
X11809401Y-14586624D01*
X11809401Y-14481862D02*
X11818924Y-14462814D01*
X11818924Y-14462814D02*
X11837972Y-14453290D01*
X11837972Y-14453290D02*
X11866543Y-14453290D01*
X11866543Y-14453290D02*
X11885591Y-14462814D01*
X11885591Y-14462814D02*
X11895115Y-14481862D01*
X11895115Y-14481862D02*
X11895115Y-14586624D01*
X12285591Y-14377100D02*
X12114163Y-14634243D01*
X12542734Y-14386624D02*
X12561782Y-14386624D01*
X12561782Y-14386624D02*
X12580829Y-14396148D01*
X12580829Y-14396148D02*
X12590353Y-14405671D01*
X12590353Y-14405671D02*
X12599877Y-14424719D01*
X12599877Y-14424719D02*
X12609401Y-14462814D01*
X12609401Y-14462814D02*
X12609401Y-14510433D01*
X12609401Y-14510433D02*
X12599877Y-14548528D01*
X12599877Y-14548528D02*
X12590353Y-14567576D01*
X12590353Y-14567576D02*
X12580829Y-14577100D01*
X12580829Y-14577100D02*
X12561782Y-14586624D01*
X12561782Y-14586624D02*
X12542734Y-14586624D01*
X12542734Y-14586624D02*
X12523686Y-14577100D01*
X12523686Y-14577100D02*
X12514163Y-14567576D01*
X12514163Y-14567576D02*
X12504639Y-14548528D01*
X12504639Y-14548528D02*
X12495115Y-14510433D01*
X12495115Y-14510433D02*
X12495115Y-14462814D01*
X12495115Y-14462814D02*
X12504639Y-14424719D01*
X12504639Y-14424719D02*
X12514163Y-14405671D01*
X12514163Y-14405671D02*
X12523686Y-14396148D01*
X12523686Y-14396148D02*
X12542734Y-14386624D01*
X12695115Y-14567576D02*
X12704639Y-14577100D01*
X12704639Y-14577100D02*
X12695115Y-14586624D01*
X12695115Y-14586624D02*
X12685591Y-14577100D01*
X12685591Y-14577100D02*
X12695115Y-14567576D01*
X12695115Y-14567576D02*
X12695115Y-14586624D01*
X12828448Y-14386624D02*
X12847496Y-14386624D01*
X12847496Y-14386624D02*
X12866544Y-14396148D01*
X12866544Y-14396148D02*
X12876067Y-14405671D01*
X12876067Y-14405671D02*
X12885591Y-14424719D01*
X12885591Y-14424719D02*
X12895115Y-14462814D01*
X12895115Y-14462814D02*
X12895115Y-14510433D01*
X12895115Y-14510433D02*
X12885591Y-14548528D01*
X12885591Y-14548528D02*
X12876067Y-14567576D01*
X12876067Y-14567576D02*
X12866544Y-14577100D01*
X12866544Y-14577100D02*
X12847496Y-14586624D01*
X12847496Y-14586624D02*
X12828448Y-14586624D01*
X12828448Y-14586624D02*
X12809401Y-14577100D01*
X12809401Y-14577100D02*
X12799877Y-14567576D01*
X12799877Y-14567576D02*
X12790353Y-14548528D01*
X12790353Y-14548528D02*
X12780829Y-14510433D01*
X12780829Y-14510433D02*
X12780829Y-14462814D01*
X12780829Y-14462814D02*
X12790353Y-14424719D01*
X12790353Y-14424719D02*
X12799877Y-14405671D01*
X12799877Y-14405671D02*
X12809401Y-14396148D01*
X12809401Y-14396148D02*
X12828448Y-14386624D01*
X12961782Y-14386624D02*
X13085591Y-14386624D01*
X13085591Y-14386624D02*
X13018925Y-14462814D01*
X13018925Y-14462814D02*
X13047496Y-14462814D01*
X13047496Y-14462814D02*
X13066544Y-14472338D01*
X13066544Y-14472338D02*
X13076067Y-14481862D01*
X13076067Y-14481862D02*
X13085591Y-14500909D01*
X13085591Y-14500909D02*
X13085591Y-14548528D01*
X13085591Y-14548528D02*
X13076067Y-14567576D01*
X13076067Y-14567576D02*
X13066544Y-14577100D01*
X13066544Y-14577100D02*
X13047496Y-14586624D01*
X13047496Y-14586624D02*
X12990353Y-14586624D01*
X12990353Y-14586624D02*
X12971306Y-14577100D01*
X12971306Y-14577100D02*
X12961782Y-14567576D01*
X13276067Y-14586624D02*
X13161782Y-14586624D01*
X13218925Y-14586624D02*
X13218925Y-14386624D01*
X13218925Y-14386624D02*
X13199877Y-14415195D01*
X13199877Y-14415195D02*
X13180829Y-14434243D01*
X13180829Y-14434243D02*
X13161782Y-14443767D01*
X13457020Y-14386624D02*
X13361782Y-14386624D01*
X13361782Y-14386624D02*
X13352258Y-14481862D01*
X13352258Y-14481862D02*
X13361782Y-14472338D01*
X13361782Y-14472338D02*
X13380829Y-14462814D01*
X13380829Y-14462814D02*
X13428448Y-14462814D01*
X13428448Y-14462814D02*
X13447496Y-14472338D01*
X13447496Y-14472338D02*
X13457020Y-14481862D01*
X13457020Y-14481862D02*
X13466544Y-14500909D01*
X13466544Y-14500909D02*
X13466544Y-14548528D01*
X13466544Y-14548528D02*
X13457020Y-14567576D01*
X13457020Y-14567576D02*
X13447496Y-14577100D01*
X13447496Y-14577100D02*
X13428448Y-14586624D01*
X13428448Y-14586624D02*
X13380829Y-14586624D01*
X13380829Y-14586624D02*
X13361782Y-14577100D01*
X13361782Y-14577100D02*
X13352258Y-14567576D01*
X13542734Y-14386624D02*
X13542734Y-14424719D01*
X13618925Y-14386624D02*
X13618925Y-14424719D01*
X13914163Y-14662814D02*
X13904639Y-14653290D01*
X13904639Y-14653290D02*
X13885591Y-14624719D01*
X13885591Y-14624719D02*
X13876068Y-14605671D01*
X13876068Y-14605671D02*
X13866544Y-14577100D01*
X13866544Y-14577100D02*
X13857020Y-14529481D01*
X13857020Y-14529481D02*
X13857020Y-14491386D01*
X13857020Y-14491386D02*
X13866544Y-14443767D01*
X13866544Y-14443767D02*
X13876068Y-14415195D01*
X13876068Y-14415195D02*
X13885591Y-14396148D01*
X13885591Y-14396148D02*
X13904639Y-14367576D01*
X13904639Y-14367576D02*
X13914163Y-14358052D01*
X14095115Y-14586624D02*
X13980829Y-14586624D01*
X14037972Y-14586624D02*
X14037972Y-14386624D01*
X14037972Y-14386624D02*
X14018925Y-14415195D01*
X14018925Y-14415195D02*
X13999877Y-14434243D01*
X13999877Y-14434243D02*
X13980829Y-14443767D01*
X14218925Y-14386624D02*
X14237972Y-14386624D01*
X14237972Y-14386624D02*
X14257020Y-14396148D01*
X14257020Y-14396148D02*
X14266544Y-14405671D01*
X14266544Y-14405671D02*
X14276068Y-14424719D01*
X14276068Y-14424719D02*
X14285591Y-14462814D01*
X14285591Y-14462814D02*
X14285591Y-14510433D01*
X14285591Y-14510433D02*
X14276068Y-14548528D01*
X14276068Y-14548528D02*
X14266544Y-14567576D01*
X14266544Y-14567576D02*
X14257020Y-14577100D01*
X14257020Y-14577100D02*
X14237972Y-14586624D01*
X14237972Y-14586624D02*
X14218925Y-14586624D01*
X14218925Y-14586624D02*
X14199877Y-14577100D01*
X14199877Y-14577100D02*
X14190353Y-14567576D01*
X14190353Y-14567576D02*
X14180829Y-14548528D01*
X14180829Y-14548528D02*
X14171306Y-14510433D01*
X14171306Y-14510433D02*
X14171306Y-14462814D01*
X14171306Y-14462814D02*
X14180829Y-14424719D01*
X14180829Y-14424719D02*
X14190353Y-14405671D01*
X14190353Y-14405671D02*
X14199877Y-14396148D01*
X14199877Y-14396148D02*
X14218925Y-14386624D01*
X14523687Y-14586624D02*
X14523687Y-14386624D01*
X14609401Y-14586624D02*
X14609401Y-14481862D01*
X14609401Y-14481862D02*
X14599877Y-14462814D01*
X14599877Y-14462814D02*
X14580830Y-14453290D01*
X14580830Y-14453290D02*
X14552258Y-14453290D01*
X14552258Y-14453290D02*
X14533210Y-14462814D01*
X14533210Y-14462814D02*
X14523687Y-14472338D01*
X14733210Y-14586624D02*
X14714163Y-14577100D01*
X14714163Y-14577100D02*
X14704639Y-14567576D01*
X14704639Y-14567576D02*
X14695115Y-14548528D01*
X14695115Y-14548528D02*
X14695115Y-14491386D01*
X14695115Y-14491386D02*
X14704639Y-14472338D01*
X14704639Y-14472338D02*
X14714163Y-14462814D01*
X14714163Y-14462814D02*
X14733210Y-14453290D01*
X14733210Y-14453290D02*
X14761782Y-14453290D01*
X14761782Y-14453290D02*
X14780830Y-14462814D01*
X14780830Y-14462814D02*
X14790353Y-14472338D01*
X14790353Y-14472338D02*
X14799877Y-14491386D01*
X14799877Y-14491386D02*
X14799877Y-14548528D01*
X14799877Y-14548528D02*
X14790353Y-14567576D01*
X14790353Y-14567576D02*
X14780830Y-14577100D01*
X14780830Y-14577100D02*
X14761782Y-14586624D01*
X14761782Y-14586624D02*
X14733210Y-14586624D01*
X14914163Y-14586624D02*
X14895115Y-14577100D01*
X14895115Y-14577100D02*
X14885591Y-14558052D01*
X14885591Y-14558052D02*
X14885591Y-14386624D01*
X15066544Y-14577100D02*
X15047496Y-14586624D01*
X15047496Y-14586624D02*
X15009401Y-14586624D01*
X15009401Y-14586624D02*
X14990353Y-14577100D01*
X14990353Y-14577100D02*
X14980830Y-14558052D01*
X14980830Y-14558052D02*
X14980830Y-14481862D01*
X14980830Y-14481862D02*
X14990353Y-14462814D01*
X14990353Y-14462814D02*
X15009401Y-14453290D01*
X15009401Y-14453290D02*
X15047496Y-14453290D01*
X15047496Y-14453290D02*
X15066544Y-14462814D01*
X15066544Y-14462814D02*
X15076068Y-14481862D01*
X15076068Y-14481862D02*
X15076068Y-14500909D01*
X15076068Y-14500909D02*
X14980830Y-14519957D01*
X15152258Y-14577100D02*
X15171306Y-14586624D01*
X15171306Y-14586624D02*
X15209401Y-14586624D01*
X15209401Y-14586624D02*
X15228449Y-14577100D01*
X15228449Y-14577100D02*
X15237972Y-14558052D01*
X15237972Y-14558052D02*
X15237972Y-14548528D01*
X15237972Y-14548528D02*
X15228449Y-14529481D01*
X15228449Y-14529481D02*
X15209401Y-14519957D01*
X15209401Y-14519957D02*
X15180830Y-14519957D01*
X15180830Y-14519957D02*
X15161782Y-14510433D01*
X15161782Y-14510433D02*
X15152258Y-14491386D01*
X15152258Y-14491386D02*
X15152258Y-14481862D01*
X15152258Y-14481862D02*
X15161782Y-14462814D01*
X15161782Y-14462814D02*
X15180830Y-14453290D01*
X15180830Y-14453290D02*
X15209401Y-14453290D01*
X15209401Y-14453290D02*
X15228449Y-14462814D01*
X15304639Y-14662814D02*
X15314163Y-14653290D01*
X15314163Y-14653290D02*
X15333211Y-14624719D01*
X15333211Y-14624719D02*
X15342734Y-14605671D01*
X15342734Y-14605671D02*
X15352258Y-14577100D01*
X15352258Y-14577100D02*
X15361782Y-14529481D01*
X15361782Y-14529481D02*
X15361782Y-14491386D01*
X15361782Y-14491386D02*
X15352258Y-14443767D01*
X15352258Y-14443767D02*
X15342734Y-14415195D01*
X15342734Y-14415195D02*
X15333211Y-14396148D01*
X15333211Y-14396148D02*
X15314163Y-14367576D01*
X15314163Y-14367576D02*
X15304639Y-14358052D01*
D10*
X10289100Y-14809140D02*
X10339100Y-14759140D01*
X10289100Y-14709140D01*
X10239100Y-14759140D01*
X10289100Y-14809140D01*
D11*
X10704639Y-14850624D02*
X10590353Y-14850624D01*
X10647496Y-14850624D02*
X10647496Y-14650624D01*
X10647496Y-14650624D02*
X10628448Y-14679195D01*
X10628448Y-14679195D02*
X10609401Y-14698243D01*
X10609401Y-14698243D02*
X10590353Y-14707767D01*
X10790353Y-14831576D02*
X10799877Y-14841100D01*
X10799877Y-14841100D02*
X10790353Y-14850624D01*
X10790353Y-14850624D02*
X10780829Y-14841100D01*
X10780829Y-14841100D02*
X10790353Y-14831576D01*
X10790353Y-14831576D02*
X10790353Y-14850624D01*
X10923686Y-14650624D02*
X10942734Y-14650624D01*
X10942734Y-14650624D02*
X10961782Y-14660148D01*
X10961782Y-14660148D02*
X10971305Y-14669671D01*
X10971305Y-14669671D02*
X10980829Y-14688719D01*
X10980829Y-14688719D02*
X10990353Y-14726814D01*
X10990353Y-14726814D02*
X10990353Y-14774433D01*
X10990353Y-14774433D02*
X10980829Y-14812528D01*
X10980829Y-14812528D02*
X10971305Y-14831576D01*
X10971305Y-14831576D02*
X10961782Y-14841100D01*
X10961782Y-14841100D02*
X10942734Y-14850624D01*
X10942734Y-14850624D02*
X10923686Y-14850624D01*
X10923686Y-14850624D02*
X10904639Y-14841100D01*
X10904639Y-14841100D02*
X10895115Y-14831576D01*
X10895115Y-14831576D02*
X10885591Y-14812528D01*
X10885591Y-14812528D02*
X10876067Y-14774433D01*
X10876067Y-14774433D02*
X10876067Y-14726814D01*
X10876067Y-14726814D02*
X10885591Y-14688719D01*
X10885591Y-14688719D02*
X10895115Y-14669671D01*
X10895115Y-14669671D02*
X10904639Y-14660148D01*
X10904639Y-14660148D02*
X10923686Y-14650624D01*
X11114163Y-14650624D02*
X11133210Y-14650624D01*
X11133210Y-14650624D02*
X11152258Y-14660148D01*
X11152258Y-14660148D02*
X11161782Y-14669671D01*
X11161782Y-14669671D02*
X11171305Y-14688719D01*
X11171305Y-14688719D02*
X11180829Y-14726814D01*
X11180829Y-14726814D02*
X11180829Y-14774433D01*
X11180829Y-14774433D02*
X11171305Y-14812528D01*
X11171305Y-14812528D02*
X11161782Y-14831576D01*
X11161782Y-14831576D02*
X11152258Y-14841100D01*
X11152258Y-14841100D02*
X11133210Y-14850624D01*
X11133210Y-14850624D02*
X11114163Y-14850624D01*
X11114163Y-14850624D02*
X11095115Y-14841100D01*
X11095115Y-14841100D02*
X11085591Y-14831576D01*
X11085591Y-14831576D02*
X11076067Y-14812528D01*
X11076067Y-14812528D02*
X11066544Y-14774433D01*
X11066544Y-14774433D02*
X11066544Y-14726814D01*
X11066544Y-14726814D02*
X11076067Y-14688719D01*
X11076067Y-14688719D02*
X11085591Y-14669671D01*
X11085591Y-14669671D02*
X11095115Y-14660148D01*
X11095115Y-14660148D02*
X11114163Y-14650624D01*
X11304639Y-14650624D02*
X11323686Y-14650624D01*
X11323686Y-14650624D02*
X11342734Y-14660148D01*
X11342734Y-14660148D02*
X11352258Y-14669671D01*
X11352258Y-14669671D02*
X11361782Y-14688719D01*
X11361782Y-14688719D02*
X11371305Y-14726814D01*
X11371305Y-14726814D02*
X11371305Y-14774433D01*
X11371305Y-14774433D02*
X11361782Y-14812528D01*
X11361782Y-14812528D02*
X11352258Y-14831576D01*
X11352258Y-14831576D02*
X11342734Y-14841100D01*
X11342734Y-14841100D02*
X11323686Y-14850624D01*
X11323686Y-14850624D02*
X11304639Y-14850624D01*
X11304639Y-14850624D02*
X11285591Y-14841100D01*
X11285591Y-14841100D02*
X11276067Y-14831576D01*
X11276067Y-14831576D02*
X11266543Y-14812528D01*
X11266543Y-14812528D02*
X11257020Y-14774433D01*
X11257020Y-14774433D02*
X11257020Y-14726814D01*
X11257020Y-14726814D02*
X11266543Y-14688719D01*
X11266543Y-14688719D02*
X11276067Y-14669671D01*
X11276067Y-14669671D02*
X11285591Y-14660148D01*
X11285591Y-14660148D02*
X11304639Y-14650624D01*
X11457020Y-14850624D02*
X11457020Y-14717290D01*
X11457020Y-14736338D02*
X11466543Y-14726814D01*
X11466543Y-14726814D02*
X11485591Y-14717290D01*
X11485591Y-14717290D02*
X11514163Y-14717290D01*
X11514163Y-14717290D02*
X11533210Y-14726814D01*
X11533210Y-14726814D02*
X11542734Y-14745862D01*
X11542734Y-14745862D02*
X11542734Y-14850624D01*
X11542734Y-14745862D02*
X11552258Y-14726814D01*
X11552258Y-14726814D02*
X11571305Y-14717290D01*
X11571305Y-14717290D02*
X11599877Y-14717290D01*
X11599877Y-14717290D02*
X11618924Y-14726814D01*
X11618924Y-14726814D02*
X11628448Y-14745862D01*
X11628448Y-14745862D02*
X11628448Y-14850624D01*
X11723686Y-14850624D02*
X11723686Y-14717290D01*
X11723686Y-14736338D02*
X11733210Y-14726814D01*
X11733210Y-14726814D02*
X11752258Y-14717290D01*
X11752258Y-14717290D02*
X11780829Y-14717290D01*
X11780829Y-14717290D02*
X11799877Y-14726814D01*
X11799877Y-14726814D02*
X11809401Y-14745862D01*
X11809401Y-14745862D02*
X11809401Y-14850624D01*
X11809401Y-14745862D02*
X11818924Y-14726814D01*
X11818924Y-14726814D02*
X11837972Y-14717290D01*
X11837972Y-14717290D02*
X11866543Y-14717290D01*
X11866543Y-14717290D02*
X11885591Y-14726814D01*
X11885591Y-14726814D02*
X11895115Y-14745862D01*
X11895115Y-14745862D02*
X11895115Y-14850624D01*
X12285591Y-14641100D02*
X12114163Y-14898243D01*
X12542734Y-14650624D02*
X12561782Y-14650624D01*
X12561782Y-14650624D02*
X12580829Y-14660148D01*
X12580829Y-14660148D02*
X12590353Y-14669671D01*
X12590353Y-14669671D02*
X12599877Y-14688719D01*
X12599877Y-14688719D02*
X12609401Y-14726814D01*
X12609401Y-14726814D02*
X12609401Y-14774433D01*
X12609401Y-14774433D02*
X12599877Y-14812528D01*
X12599877Y-14812528D02*
X12590353Y-14831576D01*
X12590353Y-14831576D02*
X12580829Y-14841100D01*
X12580829Y-14841100D02*
X12561782Y-14850624D01*
X12561782Y-14850624D02*
X12542734Y-14850624D01*
X12542734Y-14850624D02*
X12523686Y-14841100D01*
X12523686Y-14841100D02*
X12514163Y-14831576D01*
X12514163Y-14831576D02*
X12504639Y-14812528D01*
X12504639Y-14812528D02*
X12495115Y-14774433D01*
X12495115Y-14774433D02*
X12495115Y-14726814D01*
X12495115Y-14726814D02*
X12504639Y-14688719D01*
X12504639Y-14688719D02*
X12514163Y-14669671D01*
X12514163Y-14669671D02*
X12523686Y-14660148D01*
X12523686Y-14660148D02*
X12542734Y-14650624D01*
X12695115Y-14831576D02*
X12704639Y-14841100D01*
X12704639Y-14841100D02*
X12695115Y-14850624D01*
X12695115Y-14850624D02*
X12685591Y-14841100D01*
X12685591Y-14841100D02*
X12695115Y-14831576D01*
X12695115Y-14831576D02*
X12695115Y-14850624D01*
X12828448Y-14650624D02*
X12847496Y-14650624D01*
X12847496Y-14650624D02*
X12866544Y-14660148D01*
X12866544Y-14660148D02*
X12876067Y-14669671D01*
X12876067Y-14669671D02*
X12885591Y-14688719D01*
X12885591Y-14688719D02*
X12895115Y-14726814D01*
X12895115Y-14726814D02*
X12895115Y-14774433D01*
X12895115Y-14774433D02*
X12885591Y-14812528D01*
X12885591Y-14812528D02*
X12876067Y-14831576D01*
X12876067Y-14831576D02*
X12866544Y-14841100D01*
X12866544Y-14841100D02*
X12847496Y-14850624D01*
X12847496Y-14850624D02*
X12828448Y-14850624D01*
X12828448Y-14850624D02*
X12809401Y-14841100D01*
X12809401Y-14841100D02*
X12799877Y-14831576D01*
X12799877Y-14831576D02*
X12790353Y-14812528D01*
X12790353Y-14812528D02*
X12780829Y-14774433D01*
X12780829Y-14774433D02*
X12780829Y-14726814D01*
X12780829Y-14726814D02*
X12790353Y-14688719D01*
X12790353Y-14688719D02*
X12799877Y-14669671D01*
X12799877Y-14669671D02*
X12809401Y-14660148D01*
X12809401Y-14660148D02*
X12828448Y-14650624D01*
X12961782Y-14650624D02*
X13085591Y-14650624D01*
X13085591Y-14650624D02*
X13018925Y-14726814D01*
X13018925Y-14726814D02*
X13047496Y-14726814D01*
X13047496Y-14726814D02*
X13066544Y-14736338D01*
X13066544Y-14736338D02*
X13076067Y-14745862D01*
X13076067Y-14745862D02*
X13085591Y-14764909D01*
X13085591Y-14764909D02*
X13085591Y-14812528D01*
X13085591Y-14812528D02*
X13076067Y-14831576D01*
X13076067Y-14831576D02*
X13066544Y-14841100D01*
X13066544Y-14841100D02*
X13047496Y-14850624D01*
X13047496Y-14850624D02*
X12990353Y-14850624D01*
X12990353Y-14850624D02*
X12971306Y-14841100D01*
X12971306Y-14841100D02*
X12961782Y-14831576D01*
X13180829Y-14850624D02*
X13218925Y-14850624D01*
X13218925Y-14850624D02*
X13237972Y-14841100D01*
X13237972Y-14841100D02*
X13247496Y-14831576D01*
X13247496Y-14831576D02*
X13266544Y-14803005D01*
X13266544Y-14803005D02*
X13276067Y-14764909D01*
X13276067Y-14764909D02*
X13276067Y-14688719D01*
X13276067Y-14688719D02*
X13266544Y-14669671D01*
X13266544Y-14669671D02*
X13257020Y-14660148D01*
X13257020Y-14660148D02*
X13237972Y-14650624D01*
X13237972Y-14650624D02*
X13199877Y-14650624D01*
X13199877Y-14650624D02*
X13180829Y-14660148D01*
X13180829Y-14660148D02*
X13171306Y-14669671D01*
X13171306Y-14669671D02*
X13161782Y-14688719D01*
X13161782Y-14688719D02*
X13161782Y-14736338D01*
X13161782Y-14736338D02*
X13171306Y-14755386D01*
X13171306Y-14755386D02*
X13180829Y-14764909D01*
X13180829Y-14764909D02*
X13199877Y-14774433D01*
X13199877Y-14774433D02*
X13237972Y-14774433D01*
X13237972Y-14774433D02*
X13257020Y-14764909D01*
X13257020Y-14764909D02*
X13266544Y-14755386D01*
X13266544Y-14755386D02*
X13276067Y-14736338D01*
X13447496Y-14717290D02*
X13447496Y-14850624D01*
X13399877Y-14641100D02*
X13352258Y-14783957D01*
X13352258Y-14783957D02*
X13476067Y-14783957D01*
X13542734Y-14650624D02*
X13542734Y-14688719D01*
X13618925Y-14650624D02*
X13618925Y-14688719D01*
X13914163Y-14926814D02*
X13904639Y-14917290D01*
X13904639Y-14917290D02*
X13885591Y-14888719D01*
X13885591Y-14888719D02*
X13876068Y-14869671D01*
X13876068Y-14869671D02*
X13866544Y-14841100D01*
X13866544Y-14841100D02*
X13857020Y-14793481D01*
X13857020Y-14793481D02*
X13857020Y-14755386D01*
X13857020Y-14755386D02*
X13866544Y-14707767D01*
X13866544Y-14707767D02*
X13876068Y-14679195D01*
X13876068Y-14679195D02*
X13885591Y-14660148D01*
X13885591Y-14660148D02*
X13904639Y-14631576D01*
X13904639Y-14631576D02*
X13914163Y-14622052D01*
X13999877Y-14850624D02*
X14037972Y-14850624D01*
X14037972Y-14850624D02*
X14057020Y-14841100D01*
X14057020Y-14841100D02*
X14066544Y-14831576D01*
X14066544Y-14831576D02*
X14085591Y-14803005D01*
X14085591Y-14803005D02*
X14095115Y-14764909D01*
X14095115Y-14764909D02*
X14095115Y-14688719D01*
X14095115Y-14688719D02*
X14085591Y-14669671D01*
X14085591Y-14669671D02*
X14076068Y-14660148D01*
X14076068Y-14660148D02*
X14057020Y-14650624D01*
X14057020Y-14650624D02*
X14018925Y-14650624D01*
X14018925Y-14650624D02*
X13999877Y-14660148D01*
X13999877Y-14660148D02*
X13990353Y-14669671D01*
X13990353Y-14669671D02*
X13980829Y-14688719D01*
X13980829Y-14688719D02*
X13980829Y-14736338D01*
X13980829Y-14736338D02*
X13990353Y-14755386D01*
X13990353Y-14755386D02*
X13999877Y-14764909D01*
X13999877Y-14764909D02*
X14018925Y-14774433D01*
X14018925Y-14774433D02*
X14057020Y-14774433D01*
X14057020Y-14774433D02*
X14076068Y-14764909D01*
X14076068Y-14764909D02*
X14085591Y-14755386D01*
X14085591Y-14755386D02*
X14095115Y-14736338D01*
X14333210Y-14850624D02*
X14333210Y-14650624D01*
X14418925Y-14850624D02*
X14418925Y-14745862D01*
X14418925Y-14745862D02*
X14409401Y-14726814D01*
X14409401Y-14726814D02*
X14390353Y-14717290D01*
X14390353Y-14717290D02*
X14361782Y-14717290D01*
X14361782Y-14717290D02*
X14342734Y-14726814D01*
X14342734Y-14726814D02*
X14333210Y-14736338D01*
X14542734Y-14850624D02*
X14523687Y-14841100D01*
X14523687Y-14841100D02*
X14514163Y-14831576D01*
X14514163Y-14831576D02*
X14504639Y-14812528D01*
X14504639Y-14812528D02*
X14504639Y-14755386D01*
X14504639Y-14755386D02*
X14514163Y-14736338D01*
X14514163Y-14736338D02*
X14523687Y-14726814D01*
X14523687Y-14726814D02*
X14542734Y-14717290D01*
X14542734Y-14717290D02*
X14571306Y-14717290D01*
X14571306Y-14717290D02*
X14590353Y-14726814D01*
X14590353Y-14726814D02*
X14599877Y-14736338D01*
X14599877Y-14736338D02*
X14609401Y-14755386D01*
X14609401Y-14755386D02*
X14609401Y-14812528D01*
X14609401Y-14812528D02*
X14599877Y-14831576D01*
X14599877Y-14831576D02*
X14590353Y-14841100D01*
X14590353Y-14841100D02*
X14571306Y-14850624D01*
X14571306Y-14850624D02*
X14542734Y-14850624D01*
X14723687Y-14850624D02*
X14704639Y-14841100D01*
X14704639Y-14841100D02*
X14695115Y-14822052D01*
X14695115Y-14822052D02*
X14695115Y-14650624D01*
X14876068Y-14841100D02*
X14857020Y-14850624D01*
X14857020Y-14850624D02*
X14818925Y-14850624D01*
X14818925Y-14850624D02*
X14799877Y-14841100D01*
X14799877Y-14841100D02*
X14790353Y-14822052D01*
X14790353Y-14822052D02*
X14790353Y-14745862D01*
X14790353Y-14745862D02*
X14799877Y-14726814D01*
X14799877Y-14726814D02*
X14818925Y-14717290D01*
X14818925Y-14717290D02*
X14857020Y-14717290D01*
X14857020Y-14717290D02*
X14876068Y-14726814D01*
X14876068Y-14726814D02*
X14885591Y-14745862D01*
X14885591Y-14745862D02*
X14885591Y-14764909D01*
X14885591Y-14764909D02*
X14790353Y-14783957D01*
X14961782Y-14841100D02*
X14980830Y-14850624D01*
X14980830Y-14850624D02*
X15018925Y-14850624D01*
X15018925Y-14850624D02*
X15037972Y-14841100D01*
X15037972Y-14841100D02*
X15047496Y-14822052D01*
X15047496Y-14822052D02*
X15047496Y-14812528D01*
X15047496Y-14812528D02*
X15037972Y-14793481D01*
X15037972Y-14793481D02*
X15018925Y-14783957D01*
X15018925Y-14783957D02*
X14990353Y-14783957D01*
X14990353Y-14783957D02*
X14971306Y-14774433D01*
X14971306Y-14774433D02*
X14961782Y-14755386D01*
X14961782Y-14755386D02*
X14961782Y-14745862D01*
X14961782Y-14745862D02*
X14971306Y-14726814D01*
X14971306Y-14726814D02*
X14990353Y-14717290D01*
X14990353Y-14717290D02*
X15018925Y-14717290D01*
X15018925Y-14717290D02*
X15037972Y-14726814D01*
X15114163Y-14926814D02*
X15123687Y-14917290D01*
X15123687Y-14917290D02*
X15142734Y-14888719D01*
X15142734Y-14888719D02*
X15152258Y-14869671D01*
X15152258Y-14869671D02*
X15161782Y-14841100D01*
X15161782Y-14841100D02*
X15171306Y-14793481D01*
X15171306Y-14793481D02*
X15171306Y-14755386D01*
X15171306Y-14755386D02*
X15161782Y-14707767D01*
X15161782Y-14707767D02*
X15152258Y-14679195D01*
X15152258Y-14679195D02*
X15142734Y-14660148D01*
X15142734Y-14660148D02*
X15123687Y-14631576D01*
X15123687Y-14631576D02*
X15114163Y-14622052D01*
D12*
X10209100Y-14958140D02*
X10339100Y-15088140D01*
X10339100Y-14958140D02*
X10209100Y-15088140D01*
X10339100Y-15023140D02*
G75*
G03*
X10339100Y-15023140I-65000J0D01*
G01*
D11*
X10704639Y-15114624D02*
X10590353Y-15114624D01*
X10647496Y-15114624D02*
X10647496Y-14914624D01*
X10647496Y-14914624D02*
X10628448Y-14943195D01*
X10628448Y-14943195D02*
X10609401Y-14962243D01*
X10609401Y-14962243D02*
X10590353Y-14971767D01*
X10790353Y-15095576D02*
X10799877Y-15105100D01*
X10799877Y-15105100D02*
X10790353Y-15114624D01*
X10790353Y-15114624D02*
X10780829Y-15105100D01*
X10780829Y-15105100D02*
X10790353Y-15095576D01*
X10790353Y-15095576D02*
X10790353Y-15114624D01*
X10866544Y-14914624D02*
X10990353Y-14914624D01*
X10990353Y-14914624D02*
X10923686Y-14990814D01*
X10923686Y-14990814D02*
X10952258Y-14990814D01*
X10952258Y-14990814D02*
X10971305Y-15000338D01*
X10971305Y-15000338D02*
X10980829Y-15009862D01*
X10980829Y-15009862D02*
X10990353Y-15028909D01*
X10990353Y-15028909D02*
X10990353Y-15076528D01*
X10990353Y-15076528D02*
X10980829Y-15095576D01*
X10980829Y-15095576D02*
X10971305Y-15105100D01*
X10971305Y-15105100D02*
X10952258Y-15114624D01*
X10952258Y-15114624D02*
X10895115Y-15114624D01*
X10895115Y-15114624D02*
X10876067Y-15105100D01*
X10876067Y-15105100D02*
X10866544Y-15095576D01*
X11114163Y-14914624D02*
X11133210Y-14914624D01*
X11133210Y-14914624D02*
X11152258Y-14924148D01*
X11152258Y-14924148D02*
X11161782Y-14933671D01*
X11161782Y-14933671D02*
X11171305Y-14952719D01*
X11171305Y-14952719D02*
X11180829Y-14990814D01*
X11180829Y-14990814D02*
X11180829Y-15038433D01*
X11180829Y-15038433D02*
X11171305Y-15076528D01*
X11171305Y-15076528D02*
X11161782Y-15095576D01*
X11161782Y-15095576D02*
X11152258Y-15105100D01*
X11152258Y-15105100D02*
X11133210Y-15114624D01*
X11133210Y-15114624D02*
X11114163Y-15114624D01*
X11114163Y-15114624D02*
X11095115Y-15105100D01*
X11095115Y-15105100D02*
X11085591Y-15095576D01*
X11085591Y-15095576D02*
X11076067Y-15076528D01*
X11076067Y-15076528D02*
X11066544Y-15038433D01*
X11066544Y-15038433D02*
X11066544Y-14990814D01*
X11066544Y-14990814D02*
X11076067Y-14952719D01*
X11076067Y-14952719D02*
X11085591Y-14933671D01*
X11085591Y-14933671D02*
X11095115Y-14924148D01*
X11095115Y-14924148D02*
X11114163Y-14914624D01*
X11304639Y-14914624D02*
X11323686Y-14914624D01*
X11323686Y-14914624D02*
X11342734Y-14924148D01*
X11342734Y-14924148D02*
X11352258Y-14933671D01*
X11352258Y-14933671D02*
X11361782Y-14952719D01*
X11361782Y-14952719D02*
X11371305Y-14990814D01*
X11371305Y-14990814D02*
X11371305Y-15038433D01*
X11371305Y-15038433D02*
X11361782Y-15076528D01*
X11361782Y-15076528D02*
X11352258Y-15095576D01*
X11352258Y-15095576D02*
X11342734Y-15105100D01*
X11342734Y-15105100D02*
X11323686Y-15114624D01*
X11323686Y-15114624D02*
X11304639Y-15114624D01*
X11304639Y-15114624D02*
X11285591Y-15105100D01*
X11285591Y-15105100D02*
X11276067Y-15095576D01*
X11276067Y-15095576D02*
X11266543Y-15076528D01*
X11266543Y-15076528D02*
X11257020Y-15038433D01*
X11257020Y-15038433D02*
X11257020Y-14990814D01*
X11257020Y-14990814D02*
X11266543Y-14952719D01*
X11266543Y-14952719D02*
X11276067Y-14933671D01*
X11276067Y-14933671D02*
X11285591Y-14924148D01*
X11285591Y-14924148D02*
X11304639Y-14914624D01*
X11457020Y-15114624D02*
X11457020Y-14981290D01*
X11457020Y-15000338D02*
X11466543Y-14990814D01*
X11466543Y-14990814D02*
X11485591Y-14981290D01*
X11485591Y-14981290D02*
X11514163Y-14981290D01*
X11514163Y-14981290D02*
X11533210Y-14990814D01*
X11533210Y-14990814D02*
X11542734Y-15009862D01*
X11542734Y-15009862D02*
X11542734Y-15114624D01*
X11542734Y-15009862D02*
X11552258Y-14990814D01*
X11552258Y-14990814D02*
X11571305Y-14981290D01*
X11571305Y-14981290D02*
X11599877Y-14981290D01*
X11599877Y-14981290D02*
X11618924Y-14990814D01*
X11618924Y-14990814D02*
X11628448Y-15009862D01*
X11628448Y-15009862D02*
X11628448Y-15114624D01*
X11723686Y-15114624D02*
X11723686Y-14981290D01*
X11723686Y-15000338D02*
X11733210Y-14990814D01*
X11733210Y-14990814D02*
X11752258Y-14981290D01*
X11752258Y-14981290D02*
X11780829Y-14981290D01*
X11780829Y-14981290D02*
X11799877Y-14990814D01*
X11799877Y-14990814D02*
X11809401Y-15009862D01*
X11809401Y-15009862D02*
X11809401Y-15114624D01*
X11809401Y-15009862D02*
X11818924Y-14990814D01*
X11818924Y-14990814D02*
X11837972Y-14981290D01*
X11837972Y-14981290D02*
X11866543Y-14981290D01*
X11866543Y-14981290D02*
X11885591Y-14990814D01*
X11885591Y-14990814D02*
X11895115Y-15009862D01*
X11895115Y-15009862D02*
X11895115Y-15114624D01*
X12285591Y-14905100D02*
X12114163Y-15162243D01*
X12542734Y-14914624D02*
X12561782Y-14914624D01*
X12561782Y-14914624D02*
X12580829Y-14924148D01*
X12580829Y-14924148D02*
X12590353Y-14933671D01*
X12590353Y-14933671D02*
X12599877Y-14952719D01*
X12599877Y-14952719D02*
X12609401Y-14990814D01*
X12609401Y-14990814D02*
X12609401Y-15038433D01*
X12609401Y-15038433D02*
X12599877Y-15076528D01*
X12599877Y-15076528D02*
X12590353Y-15095576D01*
X12590353Y-15095576D02*
X12580829Y-15105100D01*
X12580829Y-15105100D02*
X12561782Y-15114624D01*
X12561782Y-15114624D02*
X12542734Y-15114624D01*
X12542734Y-15114624D02*
X12523686Y-15105100D01*
X12523686Y-15105100D02*
X12514163Y-15095576D01*
X12514163Y-15095576D02*
X12504639Y-15076528D01*
X12504639Y-15076528D02*
X12495115Y-15038433D01*
X12495115Y-15038433D02*
X12495115Y-14990814D01*
X12495115Y-14990814D02*
X12504639Y-14952719D01*
X12504639Y-14952719D02*
X12514163Y-14933671D01*
X12514163Y-14933671D02*
X12523686Y-14924148D01*
X12523686Y-14924148D02*
X12542734Y-14914624D01*
X12695115Y-15095576D02*
X12704639Y-15105100D01*
X12704639Y-15105100D02*
X12695115Y-15114624D01*
X12695115Y-15114624D02*
X12685591Y-15105100D01*
X12685591Y-15105100D02*
X12695115Y-15095576D01*
X12695115Y-15095576D02*
X12695115Y-15114624D01*
X12828448Y-14914624D02*
X12847496Y-14914624D01*
X12847496Y-14914624D02*
X12866544Y-14924148D01*
X12866544Y-14924148D02*
X12876067Y-14933671D01*
X12876067Y-14933671D02*
X12885591Y-14952719D01*
X12885591Y-14952719D02*
X12895115Y-14990814D01*
X12895115Y-14990814D02*
X12895115Y-15038433D01*
X12895115Y-15038433D02*
X12885591Y-15076528D01*
X12885591Y-15076528D02*
X12876067Y-15095576D01*
X12876067Y-15095576D02*
X12866544Y-15105100D01*
X12866544Y-15105100D02*
X12847496Y-15114624D01*
X12847496Y-15114624D02*
X12828448Y-15114624D01*
X12828448Y-15114624D02*
X12809401Y-15105100D01*
X12809401Y-15105100D02*
X12799877Y-15095576D01*
X12799877Y-15095576D02*
X12790353Y-15076528D01*
X12790353Y-15076528D02*
X12780829Y-15038433D01*
X12780829Y-15038433D02*
X12780829Y-14990814D01*
X12780829Y-14990814D02*
X12790353Y-14952719D01*
X12790353Y-14952719D02*
X12799877Y-14933671D01*
X12799877Y-14933671D02*
X12809401Y-14924148D01*
X12809401Y-14924148D02*
X12828448Y-14914624D01*
X13076067Y-14914624D02*
X12980829Y-14914624D01*
X12980829Y-14914624D02*
X12971306Y-15009862D01*
X12971306Y-15009862D02*
X12980829Y-15000338D01*
X12980829Y-15000338D02*
X12999877Y-14990814D01*
X12999877Y-14990814D02*
X13047496Y-14990814D01*
X13047496Y-14990814D02*
X13066544Y-15000338D01*
X13066544Y-15000338D02*
X13076067Y-15009862D01*
X13076067Y-15009862D02*
X13085591Y-15028909D01*
X13085591Y-15028909D02*
X13085591Y-15076528D01*
X13085591Y-15076528D02*
X13076067Y-15095576D01*
X13076067Y-15095576D02*
X13066544Y-15105100D01*
X13066544Y-15105100D02*
X13047496Y-15114624D01*
X13047496Y-15114624D02*
X12999877Y-15114624D01*
X12999877Y-15114624D02*
X12980829Y-15105100D01*
X12980829Y-15105100D02*
X12971306Y-15095576D01*
X13276067Y-15114624D02*
X13161782Y-15114624D01*
X13218925Y-15114624D02*
X13218925Y-14914624D01*
X13218925Y-14914624D02*
X13199877Y-14943195D01*
X13199877Y-14943195D02*
X13180829Y-14962243D01*
X13180829Y-14962243D02*
X13161782Y-14971767D01*
X13352258Y-14933671D02*
X13361782Y-14924148D01*
X13361782Y-14924148D02*
X13380829Y-14914624D01*
X13380829Y-14914624D02*
X13428448Y-14914624D01*
X13428448Y-14914624D02*
X13447496Y-14924148D01*
X13447496Y-14924148D02*
X13457020Y-14933671D01*
X13457020Y-14933671D02*
X13466544Y-14952719D01*
X13466544Y-14952719D02*
X13466544Y-14971767D01*
X13466544Y-14971767D02*
X13457020Y-15000338D01*
X13457020Y-15000338D02*
X13342734Y-15114624D01*
X13342734Y-15114624D02*
X13466544Y-15114624D01*
X13542734Y-14914624D02*
X13542734Y-14952719D01*
X13618925Y-14914624D02*
X13618925Y-14952719D01*
X13914163Y-15190814D02*
X13904639Y-15181290D01*
X13904639Y-15181290D02*
X13885591Y-15152719D01*
X13885591Y-15152719D02*
X13876068Y-15133671D01*
X13876068Y-15133671D02*
X13866544Y-15105100D01*
X13866544Y-15105100D02*
X13857020Y-15057481D01*
X13857020Y-15057481D02*
X13857020Y-15019386D01*
X13857020Y-15019386D02*
X13866544Y-14971767D01*
X13866544Y-14971767D02*
X13876068Y-14943195D01*
X13876068Y-14943195D02*
X13885591Y-14924148D01*
X13885591Y-14924148D02*
X13904639Y-14895576D01*
X13904639Y-14895576D02*
X13914163Y-14886052D01*
X13980829Y-14933671D02*
X13990353Y-14924148D01*
X13990353Y-14924148D02*
X14009401Y-14914624D01*
X14009401Y-14914624D02*
X14057020Y-14914624D01*
X14057020Y-14914624D02*
X14076068Y-14924148D01*
X14076068Y-14924148D02*
X14085591Y-14933671D01*
X14085591Y-14933671D02*
X14095115Y-14952719D01*
X14095115Y-14952719D02*
X14095115Y-14971767D01*
X14095115Y-14971767D02*
X14085591Y-15000338D01*
X14085591Y-15000338D02*
X13971306Y-15114624D01*
X13971306Y-15114624D02*
X14095115Y-15114624D01*
X14218925Y-14914624D02*
X14237972Y-14914624D01*
X14237972Y-14914624D02*
X14257020Y-14924148D01*
X14257020Y-14924148D02*
X14266544Y-14933671D01*
X14266544Y-14933671D02*
X14276068Y-14952719D01*
X14276068Y-14952719D02*
X14285591Y-14990814D01*
X14285591Y-14990814D02*
X14285591Y-15038433D01*
X14285591Y-15038433D02*
X14276068Y-15076528D01*
X14276068Y-15076528D02*
X14266544Y-15095576D01*
X14266544Y-15095576D02*
X14257020Y-15105100D01*
X14257020Y-15105100D02*
X14237972Y-15114624D01*
X14237972Y-15114624D02*
X14218925Y-15114624D01*
X14218925Y-15114624D02*
X14199877Y-15105100D01*
X14199877Y-15105100D02*
X14190353Y-15095576D01*
X14190353Y-15095576D02*
X14180829Y-15076528D01*
X14180829Y-15076528D02*
X14171306Y-15038433D01*
X14171306Y-15038433D02*
X14171306Y-14990814D01*
X14171306Y-14990814D02*
X14180829Y-14952719D01*
X14180829Y-14952719D02*
X14190353Y-14933671D01*
X14190353Y-14933671D02*
X14199877Y-14924148D01*
X14199877Y-14924148D02*
X14218925Y-14914624D01*
X14523687Y-15114624D02*
X14523687Y-14914624D01*
X14609401Y-15114624D02*
X14609401Y-15009862D01*
X14609401Y-15009862D02*
X14599877Y-14990814D01*
X14599877Y-14990814D02*
X14580830Y-14981290D01*
X14580830Y-14981290D02*
X14552258Y-14981290D01*
X14552258Y-14981290D02*
X14533210Y-14990814D01*
X14533210Y-14990814D02*
X14523687Y-15000338D01*
X14733210Y-15114624D02*
X14714163Y-15105100D01*
X14714163Y-15105100D02*
X14704639Y-15095576D01*
X14704639Y-15095576D02*
X14695115Y-15076528D01*
X14695115Y-15076528D02*
X14695115Y-15019386D01*
X14695115Y-15019386D02*
X14704639Y-15000338D01*
X14704639Y-15000338D02*
X14714163Y-14990814D01*
X14714163Y-14990814D02*
X14733210Y-14981290D01*
X14733210Y-14981290D02*
X14761782Y-14981290D01*
X14761782Y-14981290D02*
X14780830Y-14990814D01*
X14780830Y-14990814D02*
X14790353Y-15000338D01*
X14790353Y-15000338D02*
X14799877Y-15019386D01*
X14799877Y-15019386D02*
X14799877Y-15076528D01*
X14799877Y-15076528D02*
X14790353Y-15095576D01*
X14790353Y-15095576D02*
X14780830Y-15105100D01*
X14780830Y-15105100D02*
X14761782Y-15114624D01*
X14761782Y-15114624D02*
X14733210Y-15114624D01*
X14914163Y-15114624D02*
X14895115Y-15105100D01*
X14895115Y-15105100D02*
X14885591Y-15086052D01*
X14885591Y-15086052D02*
X14885591Y-14914624D01*
X15066544Y-15105100D02*
X15047496Y-15114624D01*
X15047496Y-15114624D02*
X15009401Y-15114624D01*
X15009401Y-15114624D02*
X14990353Y-15105100D01*
X14990353Y-15105100D02*
X14980830Y-15086052D01*
X14980830Y-15086052D02*
X14980830Y-15009862D01*
X14980830Y-15009862D02*
X14990353Y-14990814D01*
X14990353Y-14990814D02*
X15009401Y-14981290D01*
X15009401Y-14981290D02*
X15047496Y-14981290D01*
X15047496Y-14981290D02*
X15066544Y-14990814D01*
X15066544Y-14990814D02*
X15076068Y-15009862D01*
X15076068Y-15009862D02*
X15076068Y-15028909D01*
X15076068Y-15028909D02*
X14980830Y-15047957D01*
X15152258Y-15105100D02*
X15171306Y-15114624D01*
X15171306Y-15114624D02*
X15209401Y-15114624D01*
X15209401Y-15114624D02*
X15228449Y-15105100D01*
X15228449Y-15105100D02*
X15237972Y-15086052D01*
X15237972Y-15086052D02*
X15237972Y-15076528D01*
X15237972Y-15076528D02*
X15228449Y-15057481D01*
X15228449Y-15057481D02*
X15209401Y-15047957D01*
X15209401Y-15047957D02*
X15180830Y-15047957D01*
X15180830Y-15047957D02*
X15161782Y-15038433D01*
X15161782Y-15038433D02*
X15152258Y-15019386D01*
X15152258Y-15019386D02*
X15152258Y-15009862D01*
X15152258Y-15009862D02*
X15161782Y-14990814D01*
X15161782Y-14990814D02*
X15180830Y-14981290D01*
X15180830Y-14981290D02*
X15209401Y-14981290D01*
X15209401Y-14981290D02*
X15228449Y-14990814D01*
X15304639Y-15190814D02*
X15314163Y-15181290D01*
X15314163Y-15181290D02*
X15333211Y-15152719D01*
X15333211Y-15152719D02*
X15342734Y-15133671D01*
X15342734Y-15133671D02*
X15352258Y-15105100D01*
X15352258Y-15105100D02*
X15361782Y-15057481D01*
X15361782Y-15057481D02*
X15361782Y-15019386D01*
X15361782Y-15019386D02*
X15352258Y-14971767D01*
X15352258Y-14971767D02*
X15342734Y-14943195D01*
X15342734Y-14943195D02*
X15333211Y-14924148D01*
X15333211Y-14924148D02*
X15314163Y-14895576D01*
X15314163Y-14895576D02*
X15304639Y-14886052D01*
D13*
X10199100Y-15217140D02*
X10339100Y-15357140D01*
X10339100Y-15217140D02*
X10199100Y-15357140D01*
X10269100Y-15217140D02*
X10269100Y-15357140D01*
X10199100Y-15287140D02*
X10339100Y-15287140D01*
D11*
X10704639Y-15378624D02*
X10590353Y-15378624D01*
X10647496Y-15378624D02*
X10647496Y-15178624D01*
X10647496Y-15178624D02*
X10628448Y-15207195D01*
X10628448Y-15207195D02*
X10609401Y-15226243D01*
X10609401Y-15226243D02*
X10590353Y-15235767D01*
X10790353Y-15359576D02*
X10799877Y-15369100D01*
X10799877Y-15369100D02*
X10790353Y-15378624D01*
X10790353Y-15378624D02*
X10780829Y-15369100D01*
X10780829Y-15369100D02*
X10790353Y-15359576D01*
X10790353Y-15359576D02*
X10790353Y-15378624D01*
X10971305Y-15245290D02*
X10971305Y-15378624D01*
X10923686Y-15169100D02*
X10876067Y-15311957D01*
X10876067Y-15311957D02*
X10999877Y-15311957D01*
X11114163Y-15178624D02*
X11133210Y-15178624D01*
X11133210Y-15178624D02*
X11152258Y-15188148D01*
X11152258Y-15188148D02*
X11161782Y-15197671D01*
X11161782Y-15197671D02*
X11171305Y-15216719D01*
X11171305Y-15216719D02*
X11180829Y-15254814D01*
X11180829Y-15254814D02*
X11180829Y-15302433D01*
X11180829Y-15302433D02*
X11171305Y-15340528D01*
X11171305Y-15340528D02*
X11161782Y-15359576D01*
X11161782Y-15359576D02*
X11152258Y-15369100D01*
X11152258Y-15369100D02*
X11133210Y-15378624D01*
X11133210Y-15378624D02*
X11114163Y-15378624D01*
X11114163Y-15378624D02*
X11095115Y-15369100D01*
X11095115Y-15369100D02*
X11085591Y-15359576D01*
X11085591Y-15359576D02*
X11076067Y-15340528D01*
X11076067Y-15340528D02*
X11066544Y-15302433D01*
X11066544Y-15302433D02*
X11066544Y-15254814D01*
X11066544Y-15254814D02*
X11076067Y-15216719D01*
X11076067Y-15216719D02*
X11085591Y-15197671D01*
X11085591Y-15197671D02*
X11095115Y-15188148D01*
X11095115Y-15188148D02*
X11114163Y-15178624D01*
X11304639Y-15178624D02*
X11323686Y-15178624D01*
X11323686Y-15178624D02*
X11342734Y-15188148D01*
X11342734Y-15188148D02*
X11352258Y-15197671D01*
X11352258Y-15197671D02*
X11361782Y-15216719D01*
X11361782Y-15216719D02*
X11371305Y-15254814D01*
X11371305Y-15254814D02*
X11371305Y-15302433D01*
X11371305Y-15302433D02*
X11361782Y-15340528D01*
X11361782Y-15340528D02*
X11352258Y-15359576D01*
X11352258Y-15359576D02*
X11342734Y-15369100D01*
X11342734Y-15369100D02*
X11323686Y-15378624D01*
X11323686Y-15378624D02*
X11304639Y-15378624D01*
X11304639Y-15378624D02*
X11285591Y-15369100D01*
X11285591Y-15369100D02*
X11276067Y-15359576D01*
X11276067Y-15359576D02*
X11266543Y-15340528D01*
X11266543Y-15340528D02*
X11257020Y-15302433D01*
X11257020Y-15302433D02*
X11257020Y-15254814D01*
X11257020Y-15254814D02*
X11266543Y-15216719D01*
X11266543Y-15216719D02*
X11276067Y-15197671D01*
X11276067Y-15197671D02*
X11285591Y-15188148D01*
X11285591Y-15188148D02*
X11304639Y-15178624D01*
X11457020Y-15378624D02*
X11457020Y-15245290D01*
X11457020Y-15264338D02*
X11466543Y-15254814D01*
X11466543Y-15254814D02*
X11485591Y-15245290D01*
X11485591Y-15245290D02*
X11514163Y-15245290D01*
X11514163Y-15245290D02*
X11533210Y-15254814D01*
X11533210Y-15254814D02*
X11542734Y-15273862D01*
X11542734Y-15273862D02*
X11542734Y-15378624D01*
X11542734Y-15273862D02*
X11552258Y-15254814D01*
X11552258Y-15254814D02*
X11571305Y-15245290D01*
X11571305Y-15245290D02*
X11599877Y-15245290D01*
X11599877Y-15245290D02*
X11618924Y-15254814D01*
X11618924Y-15254814D02*
X11628448Y-15273862D01*
X11628448Y-15273862D02*
X11628448Y-15378624D01*
X11723686Y-15378624D02*
X11723686Y-15245290D01*
X11723686Y-15264338D02*
X11733210Y-15254814D01*
X11733210Y-15254814D02*
X11752258Y-15245290D01*
X11752258Y-15245290D02*
X11780829Y-15245290D01*
X11780829Y-15245290D02*
X11799877Y-15254814D01*
X11799877Y-15254814D02*
X11809401Y-15273862D01*
X11809401Y-15273862D02*
X11809401Y-15378624D01*
X11809401Y-15273862D02*
X11818924Y-15254814D01*
X11818924Y-15254814D02*
X11837972Y-15245290D01*
X11837972Y-15245290D02*
X11866543Y-15245290D01*
X11866543Y-15245290D02*
X11885591Y-15254814D01*
X11885591Y-15254814D02*
X11895115Y-15273862D01*
X11895115Y-15273862D02*
X11895115Y-15378624D01*
X12285591Y-15169100D02*
X12114163Y-15426243D01*
X12542734Y-15178624D02*
X12561782Y-15178624D01*
X12561782Y-15178624D02*
X12580829Y-15188148D01*
X12580829Y-15188148D02*
X12590353Y-15197671D01*
X12590353Y-15197671D02*
X12599877Y-15216719D01*
X12599877Y-15216719D02*
X12609401Y-15254814D01*
X12609401Y-15254814D02*
X12609401Y-15302433D01*
X12609401Y-15302433D02*
X12599877Y-15340528D01*
X12599877Y-15340528D02*
X12590353Y-15359576D01*
X12590353Y-15359576D02*
X12580829Y-15369100D01*
X12580829Y-15369100D02*
X12561782Y-15378624D01*
X12561782Y-15378624D02*
X12542734Y-15378624D01*
X12542734Y-15378624D02*
X12523686Y-15369100D01*
X12523686Y-15369100D02*
X12514163Y-15359576D01*
X12514163Y-15359576D02*
X12504639Y-15340528D01*
X12504639Y-15340528D02*
X12495115Y-15302433D01*
X12495115Y-15302433D02*
X12495115Y-15254814D01*
X12495115Y-15254814D02*
X12504639Y-15216719D01*
X12504639Y-15216719D02*
X12514163Y-15197671D01*
X12514163Y-15197671D02*
X12523686Y-15188148D01*
X12523686Y-15188148D02*
X12542734Y-15178624D01*
X12695115Y-15359576D02*
X12704639Y-15369100D01*
X12704639Y-15369100D02*
X12695115Y-15378624D01*
X12695115Y-15378624D02*
X12685591Y-15369100D01*
X12685591Y-15369100D02*
X12695115Y-15359576D01*
X12695115Y-15359576D02*
X12695115Y-15378624D01*
X12828448Y-15178624D02*
X12847496Y-15178624D01*
X12847496Y-15178624D02*
X12866544Y-15188148D01*
X12866544Y-15188148D02*
X12876067Y-15197671D01*
X12876067Y-15197671D02*
X12885591Y-15216719D01*
X12885591Y-15216719D02*
X12895115Y-15254814D01*
X12895115Y-15254814D02*
X12895115Y-15302433D01*
X12895115Y-15302433D02*
X12885591Y-15340528D01*
X12885591Y-15340528D02*
X12876067Y-15359576D01*
X12876067Y-15359576D02*
X12866544Y-15369100D01*
X12866544Y-15369100D02*
X12847496Y-15378624D01*
X12847496Y-15378624D02*
X12828448Y-15378624D01*
X12828448Y-15378624D02*
X12809401Y-15369100D01*
X12809401Y-15369100D02*
X12799877Y-15359576D01*
X12799877Y-15359576D02*
X12790353Y-15340528D01*
X12790353Y-15340528D02*
X12780829Y-15302433D01*
X12780829Y-15302433D02*
X12780829Y-15254814D01*
X12780829Y-15254814D02*
X12790353Y-15216719D01*
X12790353Y-15216719D02*
X12799877Y-15197671D01*
X12799877Y-15197671D02*
X12809401Y-15188148D01*
X12809401Y-15188148D02*
X12828448Y-15178624D01*
X13076067Y-15178624D02*
X12980829Y-15178624D01*
X12980829Y-15178624D02*
X12971306Y-15273862D01*
X12971306Y-15273862D02*
X12980829Y-15264338D01*
X12980829Y-15264338D02*
X12999877Y-15254814D01*
X12999877Y-15254814D02*
X13047496Y-15254814D01*
X13047496Y-15254814D02*
X13066544Y-15264338D01*
X13066544Y-15264338D02*
X13076067Y-15273862D01*
X13076067Y-15273862D02*
X13085591Y-15292909D01*
X13085591Y-15292909D02*
X13085591Y-15340528D01*
X13085591Y-15340528D02*
X13076067Y-15359576D01*
X13076067Y-15359576D02*
X13066544Y-15369100D01*
X13066544Y-15369100D02*
X13047496Y-15378624D01*
X13047496Y-15378624D02*
X12999877Y-15378624D01*
X12999877Y-15378624D02*
X12980829Y-15369100D01*
X12980829Y-15369100D02*
X12971306Y-15359576D01*
X13266544Y-15178624D02*
X13171306Y-15178624D01*
X13171306Y-15178624D02*
X13161782Y-15273862D01*
X13161782Y-15273862D02*
X13171306Y-15264338D01*
X13171306Y-15264338D02*
X13190353Y-15254814D01*
X13190353Y-15254814D02*
X13237972Y-15254814D01*
X13237972Y-15254814D02*
X13257020Y-15264338D01*
X13257020Y-15264338D02*
X13266544Y-15273862D01*
X13266544Y-15273862D02*
X13276067Y-15292909D01*
X13276067Y-15292909D02*
X13276067Y-15340528D01*
X13276067Y-15340528D02*
X13266544Y-15359576D01*
X13266544Y-15359576D02*
X13257020Y-15369100D01*
X13257020Y-15369100D02*
X13237972Y-15378624D01*
X13237972Y-15378624D02*
X13190353Y-15378624D01*
X13190353Y-15378624D02*
X13171306Y-15369100D01*
X13171306Y-15369100D02*
X13161782Y-15359576D01*
X13466544Y-15378624D02*
X13352258Y-15378624D01*
X13409401Y-15378624D02*
X13409401Y-15178624D01*
X13409401Y-15178624D02*
X13390353Y-15207195D01*
X13390353Y-15207195D02*
X13371306Y-15226243D01*
X13371306Y-15226243D02*
X13352258Y-15235767D01*
X13542734Y-15178624D02*
X13542734Y-15216719D01*
X13618925Y-15178624D02*
X13618925Y-15216719D01*
X13914163Y-15454814D02*
X13904639Y-15445290D01*
X13904639Y-15445290D02*
X13885591Y-15416719D01*
X13885591Y-15416719D02*
X13876068Y-15397671D01*
X13876068Y-15397671D02*
X13866544Y-15369100D01*
X13866544Y-15369100D02*
X13857020Y-15321481D01*
X13857020Y-15321481D02*
X13857020Y-15283386D01*
X13857020Y-15283386D02*
X13866544Y-15235767D01*
X13866544Y-15235767D02*
X13876068Y-15207195D01*
X13876068Y-15207195D02*
X13885591Y-15188148D01*
X13885591Y-15188148D02*
X13904639Y-15159576D01*
X13904639Y-15159576D02*
X13914163Y-15150052D01*
X13980829Y-15197671D02*
X13990353Y-15188148D01*
X13990353Y-15188148D02*
X14009401Y-15178624D01*
X14009401Y-15178624D02*
X14057020Y-15178624D01*
X14057020Y-15178624D02*
X14076068Y-15188148D01*
X14076068Y-15188148D02*
X14085591Y-15197671D01*
X14085591Y-15197671D02*
X14095115Y-15216719D01*
X14095115Y-15216719D02*
X14095115Y-15235767D01*
X14095115Y-15235767D02*
X14085591Y-15264338D01*
X14085591Y-15264338D02*
X13971306Y-15378624D01*
X13971306Y-15378624D02*
X14095115Y-15378624D01*
X14285591Y-15378624D02*
X14171306Y-15378624D01*
X14228448Y-15378624D02*
X14228448Y-15178624D01*
X14228448Y-15178624D02*
X14209401Y-15207195D01*
X14209401Y-15207195D02*
X14190353Y-15226243D01*
X14190353Y-15226243D02*
X14171306Y-15235767D01*
X14523687Y-15378624D02*
X14523687Y-15178624D01*
X14609401Y-15378624D02*
X14609401Y-15273862D01*
X14609401Y-15273862D02*
X14599877Y-15254814D01*
X14599877Y-15254814D02*
X14580830Y-15245290D01*
X14580830Y-15245290D02*
X14552258Y-15245290D01*
X14552258Y-15245290D02*
X14533210Y-15254814D01*
X14533210Y-15254814D02*
X14523687Y-15264338D01*
X14733210Y-15378624D02*
X14714163Y-15369100D01*
X14714163Y-15369100D02*
X14704639Y-15359576D01*
X14704639Y-15359576D02*
X14695115Y-15340528D01*
X14695115Y-15340528D02*
X14695115Y-15283386D01*
X14695115Y-15283386D02*
X14704639Y-15264338D01*
X14704639Y-15264338D02*
X14714163Y-15254814D01*
X14714163Y-15254814D02*
X14733210Y-15245290D01*
X14733210Y-15245290D02*
X14761782Y-15245290D01*
X14761782Y-15245290D02*
X14780830Y-15254814D01*
X14780830Y-15254814D02*
X14790353Y-15264338D01*
X14790353Y-15264338D02*
X14799877Y-15283386D01*
X14799877Y-15283386D02*
X14799877Y-15340528D01*
X14799877Y-15340528D02*
X14790353Y-15359576D01*
X14790353Y-15359576D02*
X14780830Y-15369100D01*
X14780830Y-15369100D02*
X14761782Y-15378624D01*
X14761782Y-15378624D02*
X14733210Y-15378624D01*
X14914163Y-15378624D02*
X14895115Y-15369100D01*
X14895115Y-15369100D02*
X14885591Y-15350052D01*
X14885591Y-15350052D02*
X14885591Y-15178624D01*
X15066544Y-15369100D02*
X15047496Y-15378624D01*
X15047496Y-15378624D02*
X15009401Y-15378624D01*
X15009401Y-15378624D02*
X14990353Y-15369100D01*
X14990353Y-15369100D02*
X14980830Y-15350052D01*
X14980830Y-15350052D02*
X14980830Y-15273862D01*
X14980830Y-15273862D02*
X14990353Y-15254814D01*
X14990353Y-15254814D02*
X15009401Y-15245290D01*
X15009401Y-15245290D02*
X15047496Y-15245290D01*
X15047496Y-15245290D02*
X15066544Y-15254814D01*
X15066544Y-15254814D02*
X15076068Y-15273862D01*
X15076068Y-15273862D02*
X15076068Y-15292909D01*
X15076068Y-15292909D02*
X14980830Y-15311957D01*
X15152258Y-15369100D02*
X15171306Y-15378624D01*
X15171306Y-15378624D02*
X15209401Y-15378624D01*
X15209401Y-15378624D02*
X15228449Y-15369100D01*
X15228449Y-15369100D02*
X15237972Y-15350052D01*
X15237972Y-15350052D02*
X15237972Y-15340528D01*
X15237972Y-15340528D02*
X15228449Y-15321481D01*
X15228449Y-15321481D02*
X15209401Y-15311957D01*
X15209401Y-15311957D02*
X15180830Y-15311957D01*
X15180830Y-15311957D02*
X15161782Y-15302433D01*
X15161782Y-15302433D02*
X15152258Y-15283386D01*
X15152258Y-15283386D02*
X15152258Y-15273862D01*
X15152258Y-15273862D02*
X15161782Y-15254814D01*
X15161782Y-15254814D02*
X15180830Y-15245290D01*
X15180830Y-15245290D02*
X15209401Y-15245290D01*
X15209401Y-15245290D02*
X15228449Y-15254814D01*
X15304639Y-15454814D02*
X15314163Y-15445290D01*
X15314163Y-15445290D02*
X15333211Y-15416719D01*
X15333211Y-15416719D02*
X15342734Y-15397671D01*
X15342734Y-15397671D02*
X15352258Y-15369100D01*
X15352258Y-15369100D02*
X15361782Y-15321481D01*
X15361782Y-15321481D02*
X15361782Y-15283386D01*
X15361782Y-15283386D02*
X15352258Y-15235767D01*
X15352258Y-15235767D02*
X15342734Y-15207195D01*
X15342734Y-15207195D02*
X15333211Y-15188148D01*
X15333211Y-15188148D02*
X15314163Y-15159576D01*
X15314163Y-15159576D02*
X15304639Y-15150052D01*
M02*
