G04 #@! TF.GenerationSoftware,KiCad,Pcbnew,7.0.9*
G04 #@! TF.CreationDate,2023-12-12T15:15:29-05:00*
G04 #@! TF.ProjectId,Cabina,43616269-6e61-42e6-9b69-6361645f7063,rev?*
G04 #@! TF.SameCoordinates,Original*
G04 #@! TF.FileFunction,Copper,L1,Top*
G04 #@! TF.FilePolarity,Positive*
%FSLAX46Y46*%
G04 Gerber Fmt 4.6, Leading zero omitted, Abs format (unit mm)*
G04 Created by KiCad (PCBNEW 7.0.9) date 2023-12-12 15:15:29*
%MOMM*%
%LPD*%
G01*
G04 APERTURE LIST*
G04 Aperture macros list*
%AMRoundRect*
0 Rectangle with rounded corners*
0 $1 Rounding radius*
0 $2 $3 $4 $5 $6 $7 $8 $9 X,Y pos of 4 corners*
0 Add a 4 corners polygon primitive as box body*
4,1,4,$2,$3,$4,$5,$6,$7,$8,$9,$2,$3,0*
0 Add four circle primitives for the rounded corners*
1,1,$1+$1,$2,$3*
1,1,$1+$1,$4,$5*
1,1,$1+$1,$6,$7*
1,1,$1+$1,$8,$9*
0 Add four rect primitives between the rounded corners*
20,1,$1+$1,$2,$3,$4,$5,0*
20,1,$1+$1,$4,$5,$6,$7,0*
20,1,$1+$1,$6,$7,$8,$9,0*
20,1,$1+$1,$8,$9,$2,$3,0*%
G04 Aperture macros list end*
G04 #@! TA.AperFunction,SMDPad,CuDef*
%ADD10RoundRect,0.250000X-0.450000X0.262500X-0.450000X-0.262500X0.450000X-0.262500X0.450000X0.262500X0*%
G04 #@! TD*
G04 #@! TA.AperFunction,SMDPad,CuDef*
%ADD11RoundRect,0.150000X0.150000X-0.587500X0.150000X0.587500X-0.150000X0.587500X-0.150000X-0.587500X0*%
G04 #@! TD*
G04 #@! TA.AperFunction,SMDPad,CuDef*
%ADD12RoundRect,0.075000X-0.662500X-0.075000X0.662500X-0.075000X0.662500X0.075000X-0.662500X0.075000X0*%
G04 #@! TD*
G04 #@! TA.AperFunction,SMDPad,CuDef*
%ADD13RoundRect,0.075000X-0.075000X-0.662500X0.075000X-0.662500X0.075000X0.662500X-0.075000X0.662500X0*%
G04 #@! TD*
G04 #@! TA.AperFunction,SMDPad,CuDef*
%ADD14R,1.400000X2.100000*%
G04 #@! TD*
G04 #@! TA.AperFunction,SMDPad,CuDef*
%ADD15RoundRect,0.140000X0.140000X0.170000X-0.140000X0.170000X-0.140000X-0.170000X0.140000X-0.170000X0*%
G04 #@! TD*
G04 #@! TA.AperFunction,ComponentPad*
%ADD16RoundRect,0.249999X-1.550001X0.790001X-1.550001X-0.790001X1.550001X-0.790001X1.550001X0.790001X0*%
G04 #@! TD*
G04 #@! TA.AperFunction,ComponentPad*
%ADD17O,3.600000X2.080000*%
G04 #@! TD*
G04 #@! TA.AperFunction,SMDPad,CuDef*
%ADD18RoundRect,0.140000X0.170000X-0.140000X0.170000X0.140000X-0.170000X0.140000X-0.170000X-0.140000X0*%
G04 #@! TD*
G04 #@! TA.AperFunction,SMDPad,CuDef*
%ADD19RoundRect,0.250000X-0.250000X-0.475000X0.250000X-0.475000X0.250000X0.475000X-0.250000X0.475000X0*%
G04 #@! TD*
G04 #@! TA.AperFunction,SMDPad,CuDef*
%ADD20R,1.220000X0.910000*%
G04 #@! TD*
G04 #@! TA.AperFunction,SMDPad,CuDef*
%ADD21C,2.000000*%
G04 #@! TD*
G04 #@! TA.AperFunction,SMDPad,CuDef*
%ADD22RoundRect,0.250000X0.450000X-0.262500X0.450000X0.262500X-0.450000X0.262500X-0.450000X-0.262500X0*%
G04 #@! TD*
G04 #@! TA.AperFunction,SMDPad,CuDef*
%ADD23RoundRect,0.150000X0.587500X0.150000X-0.587500X0.150000X-0.587500X-0.150000X0.587500X-0.150000X0*%
G04 #@! TD*
G04 #@! TA.AperFunction,SMDPad,CuDef*
%ADD24RoundRect,0.200000X-0.275000X0.200000X-0.275000X-0.200000X0.275000X-0.200000X0.275000X0.200000X0*%
G04 #@! TD*
G04 #@! TA.AperFunction,ComponentPad*
%ADD25C,3.000000*%
G04 #@! TD*
G04 #@! TA.AperFunction,SMDPad,CuDef*
%ADD26R,1.800000X2.500000*%
G04 #@! TD*
G04 #@! TA.AperFunction,SMDPad,CuDef*
%ADD27RoundRect,0.225000X0.250000X-0.225000X0.250000X0.225000X-0.250000X0.225000X-0.250000X-0.225000X0*%
G04 #@! TD*
G04 #@! TA.AperFunction,SMDPad,CuDef*
%ADD28R,1.100000X4.600000*%
G04 #@! TD*
G04 #@! TA.AperFunction,SMDPad,CuDef*
%ADD29R,10.800000X9.400000*%
G04 #@! TD*
G04 #@! TA.AperFunction,SMDPad,CuDef*
%ADD30RoundRect,0.250000X1.000000X-1.950000X1.000000X1.950000X-1.000000X1.950000X-1.000000X-1.950000X0*%
G04 #@! TD*
G04 #@! TA.AperFunction,ComponentPad*
%ADD31R,1.700000X1.700000*%
G04 #@! TD*
G04 #@! TA.AperFunction,ComponentPad*
%ADD32O,1.700000X1.700000*%
G04 #@! TD*
G04 #@! TA.AperFunction,SMDPad,CuDef*
%ADD33R,2.899999X5.399999*%
G04 #@! TD*
G04 #@! TA.AperFunction,SMDPad,CuDef*
%ADD34RoundRect,0.140000X-0.140000X-0.170000X0.140000X-0.170000X0.140000X0.170000X-0.140000X0.170000X0*%
G04 #@! TD*
G04 #@! TA.AperFunction,SMDPad,CuDef*
%ADD35RoundRect,0.200000X0.200000X0.275000X-0.200000X0.275000X-0.200000X-0.275000X0.200000X-0.275000X0*%
G04 #@! TD*
G04 #@! TA.AperFunction,SMDPad,CuDef*
%ADD36R,1.500000X2.000000*%
G04 #@! TD*
G04 #@! TA.AperFunction,SMDPad,CuDef*
%ADD37R,3.800000X2.000000*%
G04 #@! TD*
G04 #@! TA.AperFunction,SMDPad,CuDef*
%ADD38RoundRect,0.150000X-0.150000X0.825000X-0.150000X-0.825000X0.150000X-0.825000X0.150000X0.825000X0*%
G04 #@! TD*
G04 #@! TA.AperFunction,SMDPad,CuDef*
%ADD39RoundRect,0.250000X-0.262500X-0.450000X0.262500X-0.450000X0.262500X0.450000X-0.262500X0.450000X0*%
G04 #@! TD*
G04 #@! TA.AperFunction,SMDPad,CuDef*
%ADD40RoundRect,0.140000X-0.170000X0.140000X-0.170000X-0.140000X0.170000X-0.140000X0.170000X0.140000X0*%
G04 #@! TD*
G04 #@! TA.AperFunction,SMDPad,CuDef*
%ADD41RoundRect,0.218750X0.218750X0.256250X-0.218750X0.256250X-0.218750X-0.256250X0.218750X-0.256250X0*%
G04 #@! TD*
G04 #@! TA.AperFunction,ComponentPad*
%ADD42RoundRect,0.249999X1.550001X-0.790001X1.550001X0.790001X-1.550001X0.790001X-1.550001X-0.790001X0*%
G04 #@! TD*
G04 #@! TA.AperFunction,SMDPad,CuDef*
%ADD43RoundRect,0.250001X0.799999X-2.049999X0.799999X2.049999X-0.799999X2.049999X-0.799999X-2.049999X0*%
G04 #@! TD*
G04 #@! TA.AperFunction,ComponentPad*
%ADD44RoundRect,0.249999X0.790001X1.550001X-0.790001X1.550001X-0.790001X-1.550001X0.790001X-1.550001X0*%
G04 #@! TD*
G04 #@! TA.AperFunction,ComponentPad*
%ADD45O,2.080000X3.600000*%
G04 #@! TD*
G04 #@! TA.AperFunction,ComponentPad*
%ADD46RoundRect,0.249999X-0.790001X-1.550001X0.790001X-1.550001X0.790001X1.550001X-0.790001X1.550001X0*%
G04 #@! TD*
G04 #@! TA.AperFunction,SMDPad,CuDef*
%ADD47R,1.200000X0.900000*%
G04 #@! TD*
G04 #@! TA.AperFunction,SMDPad,CuDef*
%ADD48RoundRect,0.250000X0.475000X-0.250000X0.475000X0.250000X-0.475000X0.250000X-0.475000X-0.250000X0*%
G04 #@! TD*
G04 #@! TA.AperFunction,SMDPad,CuDef*
%ADD49RoundRect,0.218750X-0.256250X0.218750X-0.256250X-0.218750X0.256250X-0.218750X0.256250X0.218750X0*%
G04 #@! TD*
G04 #@! TA.AperFunction,SMDPad,CuDef*
%ADD50RoundRect,0.135000X0.185000X-0.135000X0.185000X0.135000X-0.185000X0.135000X-0.185000X-0.135000X0*%
G04 #@! TD*
G04 #@! TA.AperFunction,SMDPad,CuDef*
%ADD51R,1.400000X1.200000*%
G04 #@! TD*
G04 #@! TA.AperFunction,SMDPad,CuDef*
%ADD52R,0.750000X1.000000*%
G04 #@! TD*
G04 #@! TA.AperFunction,ComponentPad*
%ADD53R,1.600000X1.600000*%
G04 #@! TD*
G04 #@! TA.AperFunction,ComponentPad*
%ADD54O,1.600000X1.600000*%
G04 #@! TD*
G04 #@! TA.AperFunction,SMDPad,CuDef*
%ADD55R,0.910000X1.220000*%
G04 #@! TD*
G04 #@! TA.AperFunction,SMDPad,CuDef*
%ADD56RoundRect,0.250000X0.312500X0.625000X-0.312500X0.625000X-0.312500X-0.625000X0.312500X-0.625000X0*%
G04 #@! TD*
G04 #@! TA.AperFunction,ViaPad*
%ADD57C,1.000000*%
G04 #@! TD*
G04 #@! TA.AperFunction,ViaPad*
%ADD58C,0.800000*%
G04 #@! TD*
G04 #@! TA.AperFunction,ViaPad*
%ADD59C,0.700000*%
G04 #@! TD*
G04 #@! TA.AperFunction,Conductor*
%ADD60C,0.700000*%
G04 #@! TD*
G04 #@! TA.AperFunction,Conductor*
%ADD61C,0.300000*%
G04 #@! TD*
G04 #@! TA.AperFunction,Conductor*
%ADD62C,0.293370*%
G04 #@! TD*
G04 #@! TA.AperFunction,Conductor*
%ADD63C,0.500000*%
G04 #@! TD*
G04 APERTURE END LIST*
D10*
X176682400Y-98503100D03*
X176682400Y-100328100D03*
X131394200Y-77370300D03*
X131394200Y-79195300D03*
D11*
X182502000Y-122247900D03*
X184402000Y-122247900D03*
X183452000Y-120372900D03*
D12*
X144033300Y-107460600D03*
X144033300Y-107960600D03*
X144033300Y-108460600D03*
X144033300Y-108960600D03*
X144033300Y-109460600D03*
X144033300Y-109960600D03*
X144033300Y-110460600D03*
X144033300Y-110960600D03*
X144033300Y-111460600D03*
X144033300Y-111960600D03*
X144033300Y-112460600D03*
X144033300Y-112960600D03*
D13*
X145445800Y-114373100D03*
X145945800Y-114373100D03*
X146445800Y-114373100D03*
X146945800Y-114373100D03*
X147445800Y-114373100D03*
X147945800Y-114373100D03*
X148445800Y-114373100D03*
X148945800Y-114373100D03*
X149445800Y-114373100D03*
X149945800Y-114373100D03*
X150445800Y-114373100D03*
X150945800Y-114373100D03*
D12*
X152358300Y-112960600D03*
X152358300Y-112460600D03*
X152358300Y-111960600D03*
X152358300Y-111460600D03*
X152358300Y-110960600D03*
X152358300Y-110460600D03*
X152358300Y-109960600D03*
X152358300Y-109460600D03*
X152358300Y-108960600D03*
X152358300Y-108460600D03*
X152358300Y-107960600D03*
X152358300Y-107460600D03*
D13*
X150945800Y-106048100D03*
X150445800Y-106048100D03*
X149945800Y-106048100D03*
X149445800Y-106048100D03*
X148945800Y-106048100D03*
X148445800Y-106048100D03*
X147945800Y-106048100D03*
X147445800Y-106048100D03*
X146945800Y-106048100D03*
X146445800Y-106048100D03*
X145945800Y-106048100D03*
X145445800Y-106048100D03*
D14*
X192827000Y-120878600D03*
X188427000Y-120878600D03*
D15*
X137335200Y-108508800D03*
X136375200Y-108508800D03*
D16*
X106960200Y-87401400D03*
D17*
X106960200Y-92481400D03*
D18*
X142036800Y-107439400D03*
X142036800Y-106479400D03*
D19*
X115509000Y-108991400D03*
X117409000Y-108991400D03*
D20*
X180377600Y-93837000D03*
X180377600Y-90567000D03*
D21*
X164388800Y-128651000D03*
D22*
X173685200Y-100328100D03*
X173685200Y-98503100D03*
D23*
X143482300Y-49337000D03*
X143482300Y-47437000D03*
X141607300Y-48387000D03*
D24*
X173101000Y-120790200D03*
X173101000Y-122440200D03*
D15*
X151203600Y-116332000D03*
X150243600Y-116332000D03*
D21*
X105562400Y-117410200D03*
X120726200Y-128549400D03*
X105562400Y-109042200D03*
D25*
X136398000Y-60274200D03*
X134398000Y-54274200D03*
X122198000Y-54274200D03*
X122198000Y-66274200D03*
X134398000Y-66274200D03*
D26*
X164693600Y-63481200D03*
X164693600Y-67481200D03*
D27*
X140462000Y-112103200D03*
X140462000Y-110553200D03*
D21*
X113131600Y-128524000D03*
D22*
X173126400Y-129436500D03*
X173126400Y-127611500D03*
D10*
X175818800Y-127586100D03*
X175818800Y-129411100D03*
D28*
X171148800Y-52993600D03*
X172848800Y-52993600D03*
X174548800Y-52993600D03*
D29*
X174548800Y-43843600D03*
D28*
X176248800Y-52993600D03*
X177948800Y-52993600D03*
D30*
X188493400Y-60283200D03*
X188493400Y-51883200D03*
D31*
X200406000Y-54737000D03*
D32*
X200406000Y-57277000D03*
D31*
X130454400Y-40792400D03*
D32*
X127914400Y-40792400D03*
D33*
X170030600Y-62966599D03*
X179930600Y-62966599D03*
D34*
X144604800Y-104190800D03*
X145564800Y-104190800D03*
X134038400Y-108508800D03*
X134998400Y-108508800D03*
D20*
X194868800Y-110353600D03*
X194868800Y-113623600D03*
X194728600Y-79991200D03*
X194728600Y-83261200D03*
D35*
X130415800Y-74752200D03*
X128765800Y-74752200D03*
D36*
X120105200Y-111785000D03*
X117805200Y-111785000D03*
D37*
X117805200Y-118085000D03*
D36*
X115505200Y-111785000D03*
D21*
X123291600Y-41579800D03*
D24*
X128473200Y-102527600D03*
X128473200Y-104177600D03*
D38*
X157122400Y-118748000D03*
X155852400Y-118748000D03*
X154582400Y-118748000D03*
X153312400Y-118748000D03*
X153312400Y-123698000D03*
X154582400Y-123698000D03*
X155852400Y-123698000D03*
X157122400Y-123698000D03*
D14*
X192954000Y-99466400D03*
X188554000Y-99466400D03*
D39*
X161596700Y-121488200D03*
X163421700Y-121488200D03*
D40*
X154305000Y-106606400D03*
X154305000Y-107566400D03*
D20*
X118389400Y-103057200D03*
X118389400Y-99787200D03*
D27*
X140487400Y-107505800D03*
X140487400Y-105955800D03*
D24*
X133045200Y-73063600D03*
X133045200Y-74713600D03*
D39*
X133580500Y-79248000D03*
X135405500Y-79248000D03*
D24*
X173812200Y-92090100D03*
X173812200Y-93740100D03*
D31*
X157469600Y-103911800D03*
D32*
X160009600Y-103911800D03*
X162549600Y-103911800D03*
D41*
X193548100Y-66014600D03*
X191973100Y-66014600D03*
D27*
X138328400Y-112103200D03*
X138328400Y-110553200D03*
D24*
X183489600Y-94094800D03*
X183489600Y-95744800D03*
D42*
X199250800Y-125679200D03*
D17*
X199250800Y-120599200D03*
X199250800Y-115519200D03*
X199250800Y-110439200D03*
X199250800Y-105359200D03*
D14*
X112963600Y-78384400D03*
X117363600Y-78384400D03*
D21*
X116916200Y-128549400D03*
D24*
X121513600Y-102959400D03*
X121513600Y-104609400D03*
D43*
X162102800Y-52304400D03*
X162102800Y-43504400D03*
D35*
X125462800Y-104190800D03*
X123812800Y-104190800D03*
D18*
X151561800Y-123695400D03*
X151561800Y-122735400D03*
D44*
X145249400Y-40614600D03*
D45*
X140169400Y-40614600D03*
D41*
X140411300Y-113893600D03*
X138836300Y-113893600D03*
D11*
X186121000Y-92555300D03*
X188021000Y-92555300D03*
X187071000Y-90680300D03*
D20*
X111353600Y-62601600D03*
X111353600Y-65871600D03*
D46*
X152704800Y-128244600D03*
D45*
X157784800Y-128244600D03*
D47*
X147193000Y-48413400D03*
X147193000Y-51713400D03*
D25*
X132066800Y-89357200D03*
X130066800Y-83357200D03*
X117866800Y-83357200D03*
X117866800Y-95357200D03*
X130066800Y-95357200D03*
D14*
X112074600Y-73507600D03*
X116474600Y-73507600D03*
D42*
X199110600Y-94640400D03*
D17*
X199110600Y-89560400D03*
X199110600Y-84480400D03*
X199110600Y-79400400D03*
X199110600Y-74320400D03*
D20*
X111340400Y-88408000D03*
X111340400Y-91678000D03*
D35*
X187870600Y-95123000D03*
X186220600Y-95123000D03*
D48*
X122910600Y-114157800D03*
X122910600Y-112257800D03*
D49*
X183489600Y-90500100D03*
X183489600Y-92075100D03*
D24*
X126238000Y-73470000D03*
X126238000Y-75120000D03*
D34*
X154712000Y-116727200D03*
X155672000Y-116727200D03*
D21*
X168224200Y-128676400D03*
D25*
X170359600Y-109982000D03*
X172359600Y-115982000D03*
X184559600Y-115982000D03*
X184559600Y-103982000D03*
X172359600Y-103982000D03*
D31*
X163860400Y-118135400D03*
D32*
X161320400Y-118135400D03*
D11*
X123764000Y-101343700D03*
X125664000Y-101343700D03*
X124714000Y-99468700D03*
D20*
X123266200Y-73313800D03*
X123266200Y-70043800D03*
D18*
X142036800Y-111706600D03*
X142036800Y-110746600D03*
D49*
X126224800Y-70078500D03*
X126224800Y-71653500D03*
D21*
X119481600Y-41579800D03*
X105562400Y-113157000D03*
X124307600Y-128600200D03*
D49*
X179830000Y-120063400D03*
X179830000Y-121638400D03*
D15*
X140937400Y-89272300D03*
X139977400Y-89272300D03*
D16*
X106971600Y-57124600D03*
D17*
X106971600Y-62204600D03*
X106971600Y-67284600D03*
X106971600Y-72364600D03*
X106971600Y-77444600D03*
D50*
X146507200Y-99874800D03*
X146507200Y-98854800D03*
D20*
X176871400Y-123374900D03*
X176871400Y-120104900D03*
D35*
X197243200Y-66014600D03*
X195593200Y-66014600D03*
D21*
X127863600Y-128651000D03*
D51*
X136786800Y-105093400D03*
X134586800Y-105093400D03*
X134586800Y-106793400D03*
X136786800Y-106793400D03*
D52*
X138557000Y-97155000D03*
X138557000Y-91155000D03*
X142307000Y-97155000D03*
X142307000Y-91155000D03*
D53*
X133273800Y-128651000D03*
D54*
X135813800Y-128651000D03*
X138353800Y-128651000D03*
X140893800Y-128651000D03*
X143433800Y-128651000D03*
X143433800Y-121031000D03*
X140893800Y-121031000D03*
X138353800Y-121031000D03*
X135813800Y-121031000D03*
X133273800Y-121031000D03*
D11*
X128590000Y-72133700D03*
X130490000Y-72133700D03*
X129540000Y-70258700D03*
D25*
X169468800Y-80162400D03*
X171468800Y-86162400D03*
X183668800Y-86162400D03*
X183668800Y-74162400D03*
X171468800Y-74162400D03*
D55*
X141023600Y-44678600D03*
X144293600Y-44678600D03*
D56*
X144083500Y-52755800D03*
X141158500Y-52755800D03*
D49*
X121513600Y-99263100D03*
X121513600Y-100838100D03*
D24*
X179842200Y-123302500D03*
X179842200Y-124952500D03*
D35*
X184263800Y-124688600D03*
X182613800Y-124688600D03*
D57*
X142062200Y-57175400D03*
X150190200Y-53822600D03*
X185597800Y-111531400D03*
X190754000Y-88366600D03*
D58*
X193040000Y-68580000D03*
X127000000Y-106680000D03*
D59*
X179146200Y-39852600D03*
D58*
X157480000Y-40640000D03*
X147320000Y-45720000D03*
X160020000Y-96520000D03*
X200660000Y-68580000D03*
D59*
X140462000Y-102768400D03*
D58*
X111760000Y-48260000D03*
X144780000Y-96520000D03*
X139700000Y-66040000D03*
D59*
X123113800Y-110744000D03*
D58*
X154940000Y-43180000D03*
X187960000Y-45720000D03*
X157480000Y-96520000D03*
X152400000Y-45720000D03*
X154940000Y-71120000D03*
X106680000Y-101600000D03*
X128600200Y-115595400D03*
X142240000Y-78740000D03*
X134620000Y-99060000D03*
X160020000Y-91440000D03*
X147320000Y-60960000D03*
D59*
X138577800Y-95698500D03*
X179146200Y-45694600D03*
X173786800Y-90703400D03*
D58*
X129540000Y-50800000D03*
D59*
X198551800Y-66040000D03*
X111339600Y-64541400D03*
D57*
X191541400Y-89966800D03*
D58*
X144780000Y-76200000D03*
X160020000Y-68580000D03*
X152400000Y-58420000D03*
X164693600Y-69926200D03*
D59*
X169951400Y-45694600D03*
X141452600Y-110159800D03*
D58*
X144780000Y-83820000D03*
X116840000Y-50800000D03*
X165100000Y-96520000D03*
X116840000Y-43180000D03*
X164668200Y-42164000D03*
X111760000Y-111760000D03*
X139700000Y-68580000D03*
X183311800Y-49199800D03*
X193040000Y-40640000D03*
X154940000Y-58420000D03*
X166116000Y-45897800D03*
X193040000Y-71120000D03*
X154940000Y-63500000D03*
X137160000Y-88900000D03*
D59*
X158126200Y-123686800D03*
D57*
X142671800Y-59740800D03*
D58*
X139700000Y-71120000D03*
X198120000Y-50800000D03*
X111760000Y-106680000D03*
X109220000Y-48260000D03*
X106680000Y-99060000D03*
X152400000Y-71120000D03*
X195580000Y-48260000D03*
X114300000Y-48260000D03*
D59*
X173685200Y-97155000D03*
D58*
X149860000Y-93980000D03*
X111760000Y-121920000D03*
X164592000Y-43865800D03*
D59*
X170332400Y-126009400D03*
D58*
X160020000Y-83820000D03*
D59*
X121996200Y-109829600D03*
D58*
X124460000Y-45720000D03*
D59*
X139395200Y-110515400D03*
D58*
X198120000Y-68580000D03*
X152400000Y-73660000D03*
X121920000Y-50800000D03*
X111760000Y-53340000D03*
X149860000Y-88900000D03*
X185420000Y-129540000D03*
X144780000Y-88900000D03*
D59*
X194894200Y-112369600D03*
D58*
X181254400Y-50622200D03*
D59*
X179146200Y-47853600D03*
D58*
X165100000Y-83820000D03*
X124460000Y-106680000D03*
X195580000Y-71120000D03*
D59*
X150469600Y-122707400D03*
D58*
X127000000Y-78740000D03*
X195580000Y-127000000D03*
X147320000Y-129540000D03*
X154940000Y-45720000D03*
X147320000Y-71120000D03*
D59*
X171069000Y-99288600D03*
D58*
X162560000Y-83820000D03*
D59*
X175742600Y-91795600D03*
D58*
X181203600Y-49199800D03*
D59*
X174523400Y-39852600D03*
D58*
X144780000Y-63500000D03*
X139700000Y-78740000D03*
X154940000Y-48260000D03*
X157480000Y-91440000D03*
X193040000Y-129540000D03*
X137160000Y-99060000D03*
X167894000Y-45669200D03*
X157480000Y-78740000D03*
D59*
X141452600Y-105664000D03*
D58*
X137160000Y-83820000D03*
D59*
X179146200Y-41808400D03*
D58*
X119380000Y-48260000D03*
D59*
X136779000Y-79248000D03*
D58*
X162560000Y-71120000D03*
X185191400Y-53721000D03*
X185140600Y-51003200D03*
X116840000Y-55880000D03*
X193040000Y-48260000D03*
X152400000Y-63500000D03*
X121920000Y-48260000D03*
X134620000Y-96520000D03*
X134620000Y-43180000D03*
X200660000Y-60960000D03*
X119380000Y-45720000D03*
X132080000Y-109220000D03*
X182880000Y-68580000D03*
X190500000Y-76200000D03*
X195580000Y-63500000D03*
D59*
X169951400Y-41808400D03*
D58*
X166268400Y-42037000D03*
X154940000Y-68580000D03*
D59*
X108254800Y-113131600D03*
D58*
X165100000Y-91440000D03*
X160020000Y-40640000D03*
X160020000Y-73660000D03*
X132080000Y-50800000D03*
X147320000Y-68580000D03*
X185420000Y-68580000D03*
X116840000Y-40640000D03*
X193040000Y-43180000D03*
X111760000Y-58420000D03*
X147320000Y-127000000D03*
X111760000Y-119380000D03*
X109220000Y-106680000D03*
X154940000Y-78740000D03*
X154940000Y-91440000D03*
X114300000Y-101600000D03*
X157480000Y-58420000D03*
X165100000Y-86360000D03*
X193040000Y-76200000D03*
X154940000Y-60960000D03*
X144780000Y-68580000D03*
X198120000Y-63500000D03*
D59*
X160020000Y-101574600D03*
D58*
X200660000Y-50800000D03*
X121920000Y-106680000D03*
X157480000Y-63500000D03*
D59*
X169951400Y-47853600D03*
D58*
X109220000Y-111760000D03*
X165100000Y-58420000D03*
X144780000Y-91440000D03*
X152400000Y-68580000D03*
X149906462Y-45713428D03*
X106680000Y-48260000D03*
X152400000Y-43180000D03*
X162560000Y-58420000D03*
X114300000Y-99060000D03*
X200660000Y-48260000D03*
X162560000Y-78740000D03*
X190500000Y-40640000D03*
X160020000Y-60960000D03*
X160020000Y-114300000D03*
D59*
X185674000Y-120675400D03*
D58*
X165100000Y-76200000D03*
X121920000Y-45720000D03*
X183388000Y-53594000D03*
D59*
X176911000Y-39852600D03*
D58*
X147320000Y-53340000D03*
X177800000Y-129540000D03*
X120116600Y-71399400D03*
X152400000Y-88900000D03*
D59*
X194741800Y-81991200D03*
D58*
X152400000Y-66040000D03*
X114300000Y-53340000D03*
X114300000Y-55880000D03*
X114300000Y-45720000D03*
X127000000Y-50800000D03*
X116840000Y-48260000D03*
X106680000Y-43180000D03*
X185420000Y-43180000D03*
D59*
X127127000Y-101371400D03*
D58*
X124460000Y-50800000D03*
D59*
X155067000Y-111379000D03*
X155651200Y-115595400D03*
D58*
X127000000Y-109220000D03*
D59*
X139623800Y-52755800D03*
D58*
X200660000Y-63500000D03*
X162560000Y-81280000D03*
X185420000Y-66040000D03*
D59*
X119126000Y-109118400D03*
X169951400Y-39852600D03*
D58*
X106680000Y-104140000D03*
X114300000Y-50800000D03*
D57*
X152095200Y-53898800D03*
D58*
X134620000Y-93980000D03*
D59*
X147116800Y-110769400D03*
D58*
X160020000Y-86360000D03*
X185420000Y-40640000D03*
X166243000Y-43865800D03*
X142240000Y-83820000D03*
D57*
X168605200Y-92176600D03*
D58*
X137160000Y-50800000D03*
X149860000Y-43180000D03*
X109220000Y-99060000D03*
D57*
X142087600Y-55676800D03*
D59*
X109880400Y-92557600D03*
D57*
X170002200Y-96215200D03*
D58*
X162560000Y-86360000D03*
X106680000Y-40640000D03*
X139700000Y-76200000D03*
X160020000Y-66040000D03*
D59*
X189433200Y-92557600D03*
X150469600Y-113004600D03*
D58*
X111760000Y-50800000D03*
X124460000Y-109220000D03*
X157480000Y-73660000D03*
X144780000Y-99060000D03*
X109220000Y-104140000D03*
X137160000Y-86360000D03*
X142240000Y-86360000D03*
X106680000Y-45720000D03*
X154940000Y-55880000D03*
D59*
X174574200Y-47853600D03*
D58*
X154940000Y-83820000D03*
X183388000Y-50749200D03*
X190500000Y-45720000D03*
D59*
X144145000Y-43256200D03*
X131775200Y-72059800D03*
X120573800Y-109499400D03*
D58*
X182880000Y-43180000D03*
X160020000Y-71120000D03*
X157480000Y-83820000D03*
X160020000Y-63500000D03*
X134620000Y-111760000D03*
X165100000Y-81280000D03*
D59*
X145948400Y-107365800D03*
D58*
X187960000Y-43180000D03*
D59*
X145161000Y-43307000D03*
D58*
X134620000Y-40640000D03*
X167919400Y-47117000D03*
D59*
X169951400Y-43713400D03*
D58*
X144780000Y-66040000D03*
X154940000Y-96520000D03*
X157480000Y-86360000D03*
X157480000Y-55880000D03*
D59*
X178079400Y-74422000D03*
D58*
X139700000Y-83820000D03*
X160020000Y-78740000D03*
D59*
X176733200Y-47853600D03*
D58*
X195580000Y-55880000D03*
X144780000Y-86360000D03*
X152400000Y-81280000D03*
X193040000Y-45720000D03*
D59*
X147193000Y-122859800D03*
D58*
X182880000Y-40640000D03*
X109220000Y-119380000D03*
X157480000Y-81280000D03*
D57*
X137109200Y-77165200D03*
D58*
X185191400Y-49352200D03*
X152400000Y-40640000D03*
D59*
X171983400Y-47853600D03*
D58*
X167640000Y-96520000D03*
X187960000Y-40640000D03*
X195580000Y-60960000D03*
X129540000Y-99060000D03*
X147320000Y-66040000D03*
X149860000Y-91440000D03*
X180340000Y-129540000D03*
X111760000Y-114300000D03*
X195580000Y-50800000D03*
D59*
X125120400Y-116408200D03*
D58*
X132080000Y-99060000D03*
X157480000Y-71120000D03*
D57*
X186334400Y-109829600D03*
D58*
X181279800Y-53467000D03*
X109220000Y-114300000D03*
X195580000Y-58420000D03*
X149860000Y-40640000D03*
X190500000Y-43180000D03*
X154940000Y-40640000D03*
D59*
X135686800Y-108127800D03*
D58*
X193040000Y-63500000D03*
X139700000Y-63500000D03*
X167919400Y-42570400D03*
D59*
X146532600Y-97866200D03*
D58*
X134620000Y-50800000D03*
X109220000Y-50800000D03*
X157480000Y-60960000D03*
X181254400Y-52019200D03*
D59*
X173075600Y-119456200D03*
D58*
X167944800Y-40919400D03*
X183438800Y-52298600D03*
X154940000Y-81280000D03*
X167894000Y-44145200D03*
X185166000Y-52501800D03*
X116840000Y-45720000D03*
D59*
X179146200Y-43713400D03*
D58*
X185420000Y-45720000D03*
X144780000Y-93980000D03*
X144780000Y-60960000D03*
X198120000Y-60960000D03*
D59*
X139979400Y-88265000D03*
D58*
X106680000Y-106680000D03*
X160020000Y-58420000D03*
X132080000Y-106680000D03*
X182880000Y-45720000D03*
X124460000Y-48260000D03*
X132080000Y-111760000D03*
X114300000Y-121920000D03*
X157480000Y-66040000D03*
D59*
X151028400Y-107950000D03*
D58*
X162560000Y-96520000D03*
X195580000Y-129540000D03*
X116840000Y-106680000D03*
X111760000Y-55880000D03*
X129540000Y-78740000D03*
X127000000Y-111760000D03*
X157480000Y-68580000D03*
X149860000Y-86360000D03*
X119380000Y-106680000D03*
X152400000Y-91440000D03*
X162560000Y-40640000D03*
X152400000Y-60960000D03*
X165100000Y-78740000D03*
X162560000Y-91440000D03*
X147320000Y-58420000D03*
X152400000Y-96520000D03*
X147320000Y-78740000D03*
X182880000Y-129540000D03*
X127000000Y-116840000D03*
X116840000Y-53340000D03*
X152400000Y-78740000D03*
X127000000Y-48260000D03*
X119380000Y-50800000D03*
D59*
X123291600Y-43891200D03*
D58*
X106680000Y-121920000D03*
X152400000Y-55880000D03*
X200660000Y-66040000D03*
X106680000Y-50800000D03*
X160020000Y-81280000D03*
X190500000Y-48260000D03*
X198120000Y-48260000D03*
X147320000Y-63500000D03*
X195580000Y-68580000D03*
X154940000Y-73660000D03*
X190500000Y-68580000D03*
X142240000Y-73660000D03*
X109220000Y-101600000D03*
X190500000Y-71120000D03*
X160020000Y-55880000D03*
X154940000Y-66040000D03*
X164515800Y-45466000D03*
D59*
X171958000Y-39852600D03*
D58*
X137160000Y-93980000D03*
X195580000Y-53340000D03*
X139700000Y-86360000D03*
D59*
X153238200Y-104876600D03*
X133019800Y-105105200D03*
X176987200Y-74396600D03*
X112166400Y-104902000D03*
X155117800Y-112623600D03*
D57*
X141325600Y-60706000D03*
D59*
X177114200Y-91795600D03*
X124485400Y-74777600D03*
D58*
X118999000Y-72136000D03*
D59*
X147345400Y-124409200D03*
X154305000Y-104749600D03*
X140436600Y-101752400D03*
X124993400Y-117906800D03*
X141528800Y-99187000D03*
X145846800Y-110083600D03*
D57*
X170535600Y-91643200D03*
X171297600Y-95250000D03*
X135712200Y-76225400D03*
X171272200Y-124739400D03*
D59*
X171096300Y-100328100D03*
X147878800Y-111429800D03*
X129794000Y-115214400D03*
X135966200Y-98094800D03*
D60*
X194728600Y-79991200D02*
X198519800Y-79991200D01*
X147193000Y-48413400D02*
X148081000Y-49301400D01*
X150164800Y-49301400D02*
X151384000Y-49301400D01*
X190398400Y-111531400D02*
X191576200Y-110353600D01*
X120100600Y-62601600D02*
X125526800Y-57175400D01*
X148081000Y-49301400D02*
X150164800Y-49301400D01*
X111353600Y-62601600D02*
X120100600Y-62601600D01*
X150190200Y-49326800D02*
X150164800Y-49301400D01*
X107368600Y-62601600D02*
X111353600Y-62601600D01*
X199165200Y-110353600D02*
X199250800Y-110439200D01*
X143482300Y-47437000D02*
X146216600Y-47437000D01*
X151384000Y-49301400D02*
X153987000Y-51904400D01*
X192703200Y-79991200D02*
X194728600Y-79991200D01*
X194868800Y-110353600D02*
X199165200Y-110353600D01*
X198519800Y-79991200D02*
X199110600Y-79400400D01*
X185597800Y-111531400D02*
X190398400Y-111531400D01*
X125526800Y-57175400D02*
X142062200Y-57175400D01*
X106971600Y-62204600D02*
X107368600Y-62601600D01*
X194725400Y-79994400D02*
X194728600Y-79991200D01*
X190754000Y-88366600D02*
X190754000Y-81940400D01*
X191576200Y-110353600D02*
X194868800Y-110353600D01*
X190754000Y-81940400D02*
X192703200Y-79991200D01*
X150190200Y-53822600D02*
X150190200Y-49326800D01*
X153987000Y-51904400D02*
X162102800Y-51904400D01*
X146216600Y-47437000D02*
X147193000Y-48413400D01*
D61*
X152358300Y-107960600D02*
X151039000Y-107960600D01*
X170332400Y-126009400D02*
X171934500Y-127611500D01*
X173101000Y-119481600D02*
X173101000Y-120702700D01*
X108229400Y-113157000D02*
X108254800Y-113131600D01*
X150497600Y-122735400D02*
X150469600Y-122707400D01*
X111353600Y-65871600D02*
X111353600Y-64555400D01*
X145945800Y-106048100D02*
X145945800Y-107363200D01*
X189433200Y-92557600D02*
X188023300Y-92557600D01*
X138557000Y-90692700D02*
X139977400Y-89272300D01*
X150445800Y-115314400D02*
X150243600Y-115516600D01*
D62*
X160009600Y-103911800D02*
X160009600Y-101585000D01*
D63*
X155672000Y-117321000D02*
X155672000Y-116727200D01*
D61*
X150445800Y-114373100D02*
X150445800Y-113028400D01*
X145945800Y-106048100D02*
X145945800Y-105051800D01*
X194868800Y-112395000D02*
X194894200Y-112369600D01*
X145945800Y-105051800D02*
X145564800Y-104670800D01*
X138557000Y-95719300D02*
X138577800Y-95698500D01*
X188023300Y-92557600D02*
X188021000Y-92555300D01*
X194868800Y-113623600D02*
X194868800Y-112395000D01*
X184402000Y-122247900D02*
X184402000Y-121287000D01*
X185013600Y-120675400D02*
X185674000Y-120675400D01*
X194728600Y-82004400D02*
X194741800Y-81991200D01*
X139623800Y-52755800D02*
X141158500Y-52755800D01*
X153850400Y-107566400D02*
X154305000Y-107566400D01*
D63*
X158115000Y-123698000D02*
X158126200Y-123686800D01*
D61*
X146532600Y-98829400D02*
X146507200Y-98854800D01*
X151561800Y-122735400D02*
X150497600Y-122735400D01*
D63*
X155852400Y-117501400D02*
X155672000Y-117321000D01*
D61*
X150445800Y-114373100D02*
X150445800Y-115314400D01*
X142877600Y-110746600D02*
X142036800Y-110746600D01*
X173685200Y-98503100D02*
X173685200Y-97155000D01*
X105562400Y-113157000D02*
X108229400Y-113157000D01*
X145945800Y-107363200D02*
X145948400Y-107365800D01*
X171934500Y-127611500D02*
X173126400Y-127611500D01*
X111353600Y-64555400D02*
X111339600Y-64541400D01*
D63*
X155672000Y-115616200D02*
X155651200Y-115595400D01*
D61*
X145564800Y-104670800D02*
X145564800Y-104190800D01*
X133031600Y-105093400D02*
X133019800Y-105105200D01*
X153456200Y-107960600D02*
X153850400Y-107566400D01*
D63*
X155672000Y-116727200D02*
X155672000Y-115616200D01*
D61*
X173812200Y-92002600D02*
X173812200Y-90728800D01*
X138557000Y-97155000D02*
X138557000Y-95719300D01*
X152358300Y-107960600D02*
X153456200Y-107960600D01*
X150445800Y-113028400D02*
X150469600Y-113004600D01*
X173075600Y-119456200D02*
X173101000Y-119481600D01*
X143091600Y-110960600D02*
X142877600Y-110746600D01*
D63*
X197243200Y-66014600D02*
X198526400Y-66014600D01*
D62*
X135686800Y-107893400D02*
X136786800Y-106793400D01*
D61*
X138557000Y-91155000D02*
X138557000Y-90692700D01*
X135405500Y-79248000D02*
X136779000Y-79248000D01*
X139977400Y-89272300D02*
X139977400Y-88267000D01*
X150243600Y-115516600D02*
X150243600Y-116332000D01*
D60*
X164693600Y-67481200D02*
X164693600Y-69951600D01*
D61*
X123291600Y-41579800D02*
X123291600Y-43891200D01*
X144033300Y-110960600D02*
X143091600Y-110960600D01*
X173812200Y-90728800D02*
X173786800Y-90703400D01*
X139977400Y-88267000D02*
X139979400Y-88265000D01*
D62*
X135686800Y-108127800D02*
X135686800Y-107893400D01*
D63*
X155852400Y-118748000D02*
X155852400Y-117501400D01*
X198526400Y-66014600D02*
X198551800Y-66040000D01*
D60*
X164693600Y-69951600D02*
X164693600Y-69926200D01*
D61*
X134586800Y-105093400D02*
X133031600Y-105093400D01*
D63*
X157122400Y-123698000D02*
X158115000Y-123698000D01*
D61*
X146532600Y-97866200D02*
X146532600Y-98829400D01*
X151039000Y-107960600D02*
X151028400Y-107950000D01*
X194728600Y-83261200D02*
X194728600Y-82004400D01*
X184402000Y-121287000D02*
X185013600Y-120675400D01*
D62*
X160009600Y-101585000D02*
X160020000Y-101574600D01*
D61*
X144180600Y-49337000D02*
X145262600Y-50419000D01*
X145262600Y-50419000D02*
X145262600Y-52755800D01*
X146150600Y-52755800D02*
X147193000Y-51713400D01*
X143482300Y-49337000D02*
X144180600Y-49337000D01*
X144083500Y-52755800D02*
X145262600Y-52755800D01*
X145262600Y-52755800D02*
X146150600Y-52755800D01*
D63*
X177114200Y-90652600D02*
X177114200Y-91795600D01*
D61*
X105562400Y-109042200D02*
X115458200Y-109042200D01*
D63*
X176987200Y-74396600D02*
X176987200Y-70916800D01*
X148818600Y-76200000D02*
X142062200Y-69443600D01*
X174904400Y-121407900D02*
X176871400Y-123374900D01*
D61*
X115458200Y-109042200D02*
X115509000Y-108991400D01*
D63*
X180377600Y-94881200D02*
X180377600Y-93837000D01*
X176987200Y-70916800D02*
X166522400Y-70916800D01*
X154712000Y-117398200D02*
X154712000Y-116727200D01*
X188518800Y-66090800D02*
X188518800Y-69570600D01*
X188518800Y-60508600D02*
X188518800Y-66090800D01*
X115509000Y-108991400D02*
X115509000Y-105526800D01*
X187172600Y-70916800D02*
X176987200Y-70916800D01*
X174904400Y-118526800D02*
X174904400Y-121407900D01*
X188518800Y-69570600D02*
X187172600Y-70916800D01*
X154582400Y-117527800D02*
X154712000Y-117398200D01*
X155117800Y-114858800D02*
X155117800Y-112623600D01*
X180377600Y-92874600D02*
X180377600Y-93837000D01*
X188493400Y-59683200D02*
X191077400Y-57099200D01*
X142062200Y-69443600D02*
X142062200Y-61442600D01*
X176871400Y-124115300D02*
X176871400Y-123374900D01*
X142062200Y-61442600D02*
X141325600Y-60706000D01*
X178155600Y-90652600D02*
X177114200Y-90652600D01*
X112791200Y-105526800D02*
X115509000Y-105526800D01*
X180377600Y-92874600D02*
X178155600Y-90652600D01*
X119287800Y-103057200D02*
X120827800Y-104597200D01*
X112166400Y-104902000D02*
X112791200Y-105526800D01*
X177114200Y-90652600D02*
X177114200Y-87884000D01*
X181241200Y-95744800D02*
X183489600Y-95744800D01*
X154712000Y-115264600D02*
X154838400Y-115138200D01*
X177114200Y-87884000D02*
X175392600Y-86162400D01*
X120176800Y-73313800D02*
X118999000Y-72136000D01*
X172359600Y-115982000D02*
X174904400Y-118526800D01*
X166522400Y-70916800D02*
X161239200Y-76200000D01*
X116119400Y-103057200D02*
X118389400Y-103057200D01*
X188493400Y-60483200D02*
X188518800Y-60508600D01*
X177708600Y-124952500D02*
X179842200Y-124952500D01*
X175392600Y-86162400D02*
X171468800Y-86162400D01*
X115509000Y-105526800D02*
X115509000Y-103667600D01*
X154838400Y-115138200D02*
X155117800Y-114858800D01*
X161239200Y-76200000D02*
X148818600Y-76200000D01*
X154712000Y-116727200D02*
X154712000Y-115264600D01*
X200228200Y-57099200D02*
X200406000Y-57277000D01*
X154582400Y-118748000D02*
X154582400Y-117527800D01*
X121501400Y-104597200D02*
X121513600Y-104609400D01*
X180377600Y-94881200D02*
X181241200Y-95744800D01*
X118389400Y-103057200D02*
X119287800Y-103057200D01*
X191973100Y-66014600D02*
X188595000Y-66014600D01*
X188595000Y-66014600D02*
X188518800Y-66090800D01*
X191077400Y-57099200D02*
X200228200Y-57099200D01*
X176871400Y-124115300D02*
X177708600Y-124952500D01*
X115509000Y-103667600D02*
X116119400Y-103057200D01*
X123266200Y-73313800D02*
X120176800Y-73313800D01*
X120827800Y-104597200D02*
X121501400Y-104597200D01*
D62*
X144604800Y-104190800D02*
X139268200Y-104190800D01*
D61*
X150945800Y-115385800D02*
X151203600Y-115643600D01*
X148059200Y-123695400D02*
X148973600Y-123695400D01*
X140411200Y-101727000D02*
X140436600Y-101752400D01*
X150945800Y-114373100D02*
X150945800Y-115385800D01*
X139192000Y-104267000D02*
X139192000Y-106934000D01*
X129174200Y-114157800D02*
X129174200Y-106969600D01*
X139763800Y-107505800D02*
X140487400Y-107505800D01*
D62*
X144604800Y-104549000D02*
X144604800Y-104190800D01*
D61*
X117130400Y-117410200D02*
X117805200Y-118085000D01*
X139141200Y-101727000D02*
X140411200Y-101727000D01*
X134965400Y-114157800D02*
X135229600Y-113893600D01*
X129174200Y-114157800D02*
X134965400Y-114157800D01*
X139192000Y-101777800D02*
X139141200Y-101727000D01*
X134416800Y-101727000D02*
X139141200Y-101727000D01*
D62*
X139268200Y-104190800D02*
X139192000Y-104267000D01*
D61*
X105562400Y-117410200D02*
X117130400Y-117410200D01*
X147345400Y-124409200D02*
X148059200Y-123695400D01*
X122910600Y-114157800D02*
X129174200Y-114157800D01*
X154305000Y-104749600D02*
X154305000Y-106606400D01*
X142058000Y-107460600D02*
X142036800Y-107439400D01*
X122910600Y-114157800D02*
X122910600Y-115824000D01*
X139192000Y-104267000D02*
X139192000Y-101777800D01*
X122910600Y-115824000D02*
X124993400Y-117906800D01*
D62*
X152358300Y-107460600D02*
X152991000Y-107460600D01*
D61*
X151203600Y-119128600D02*
X151203600Y-116332000D01*
D62*
X145445800Y-105390000D02*
X144604800Y-104549000D01*
D61*
X144033300Y-107460600D02*
X142058000Y-107460600D01*
X129174200Y-106969600D02*
X134416800Y-101727000D01*
X151203600Y-115643600D02*
X151203600Y-116332000D01*
X139192000Y-106934000D02*
X139763800Y-107505800D01*
X148973600Y-121358600D02*
X151203600Y-119128600D01*
X148973600Y-123695400D02*
X151561800Y-123695400D01*
D62*
X153845200Y-106606400D02*
X154305000Y-106606400D01*
D61*
X148973600Y-123695400D02*
X148973600Y-121358600D01*
D62*
X145445800Y-106048100D02*
X145445800Y-105390000D01*
X152991000Y-107460600D02*
X153845200Y-106606400D01*
D61*
X135229600Y-113893600D02*
X138836300Y-113893600D01*
X142776000Y-111706600D02*
X142036800Y-111706600D01*
X144033300Y-111460600D02*
X143022000Y-111460600D01*
X143022000Y-111460600D02*
X142776000Y-111706600D01*
X145469800Y-110460600D02*
X145846800Y-110083600D01*
X142307000Y-98408800D02*
X142307000Y-97155000D01*
X141528800Y-99187000D02*
X142307000Y-98408800D01*
X142307000Y-97155000D02*
X142307000Y-91155000D01*
X142307000Y-90641900D02*
X142307000Y-91155000D01*
X144033300Y-110460600D02*
X145469800Y-110460600D01*
X140937400Y-89272300D02*
X142307000Y-90641900D01*
D62*
X137335200Y-108508800D02*
X137335200Y-108105000D01*
X137427600Y-105093400D02*
X136786800Y-105093400D01*
X138226800Y-105892600D02*
X137427600Y-105093400D01*
X138226800Y-107213400D02*
X138226800Y-105892600D01*
X137335200Y-108105000D02*
X138226800Y-107213400D01*
X137360600Y-108534200D02*
X137335200Y-108508800D01*
X143178330Y-109460600D02*
X142251930Y-108534200D01*
X142251930Y-108534200D02*
X137360600Y-108534200D01*
X144033300Y-109460600D02*
X143178330Y-109460600D01*
X134038400Y-108508800D02*
X134038400Y-108226800D01*
X134038400Y-108226800D02*
X134586800Y-107678400D01*
X142392400Y-109372400D02*
X134315200Y-109372400D01*
X142980600Y-109960600D02*
X142392400Y-109372400D01*
X144033300Y-109960600D02*
X142980600Y-109960600D01*
X134038400Y-109095600D02*
X134038400Y-108508800D01*
X134586800Y-107678400D02*
X134586800Y-106793400D01*
X134315200Y-109372400D02*
X134038400Y-109095600D01*
D60*
X120955400Y-38963000D02*
X119481600Y-40436800D01*
X130454400Y-44399200D02*
X130454400Y-40792400D01*
X131800600Y-45745400D02*
X130454400Y-44399200D01*
X140169400Y-40614600D02*
X140169400Y-42227000D01*
X141023600Y-43081200D02*
X141023600Y-44678600D01*
X129437800Y-38963000D02*
X120955400Y-38963000D01*
X130454400Y-39979600D02*
X129437800Y-38963000D01*
X141023600Y-45387000D02*
X140665200Y-45745400D01*
X130454400Y-40792400D02*
X130454400Y-39979600D01*
X141023600Y-44678600D02*
X141023600Y-45387000D01*
X140169400Y-42227000D02*
X141023600Y-43081200D01*
X140665200Y-45745400D02*
X131800600Y-45745400D01*
X119481600Y-40436800D02*
X119481600Y-41579800D01*
D63*
X193548100Y-66014600D02*
X195593200Y-66014600D01*
D60*
X176682400Y-98503100D02*
X182602500Y-98503100D01*
X171297600Y-95250000D02*
X171831000Y-95783400D01*
X171831000Y-95783400D02*
X175564800Y-95783400D01*
X175564800Y-95783400D02*
X176682400Y-96901000D01*
X170535600Y-91643200D02*
X170535600Y-90855800D01*
X170535600Y-90855800D02*
X167792400Y-88112600D01*
X167792400Y-88112600D02*
X167792400Y-81838800D01*
X182602500Y-98503100D02*
X183565800Y-99466400D01*
X183565800Y-99466400D02*
X188554000Y-99466400D01*
X167792400Y-81838800D02*
X169468800Y-80162400D01*
X176682400Y-96901000D02*
X176682400Y-98503100D01*
D62*
X183489600Y-94094800D02*
X183489600Y-92075100D01*
D60*
X121667900Y-77370300D02*
X131394200Y-77370300D01*
X116474600Y-73507600D02*
X117805200Y-73507600D01*
X117805200Y-73507600D02*
X121667900Y-77370300D01*
X131394200Y-77370300D02*
X134567300Y-77370300D01*
X134567300Y-77370300D02*
X135712200Y-76225400D01*
D62*
X126238000Y-71666700D02*
X126224800Y-71653500D01*
X126238000Y-73470000D02*
X126238000Y-71666700D01*
D60*
X172364400Y-125831600D02*
X174421800Y-125831600D01*
X175818800Y-127586100D02*
X185367300Y-127586100D01*
X171272200Y-124739400D02*
X172364400Y-125831600D01*
X174421800Y-125831600D02*
X175818800Y-127228600D01*
X175818800Y-127228600D02*
X175818800Y-127586100D01*
X186740800Y-126212600D02*
X186740800Y-122564800D01*
X186740800Y-122564800D02*
X188427000Y-120878600D01*
X185367300Y-127586100D02*
X186740800Y-126212600D01*
D62*
X179842200Y-123302500D02*
X179842200Y-121650600D01*
X179842200Y-121650600D02*
X179830000Y-121638400D01*
D60*
X107966800Y-88408000D02*
X111340400Y-88408000D01*
X111340400Y-80007600D02*
X112963600Y-78384400D01*
X111340400Y-88408000D02*
X111340400Y-80007600D01*
X106960200Y-87401400D02*
X107966800Y-88408000D01*
X117363600Y-82854000D02*
X117866800Y-83357200D01*
X117363600Y-78384400D02*
X117363600Y-82854000D01*
D62*
X150945800Y-106048100D02*
X150945800Y-104781400D01*
X151815400Y-103911800D02*
X157469600Y-103911800D01*
X150945800Y-104781400D02*
X151815400Y-103911800D01*
X154912000Y-108460600D02*
X156362400Y-107010200D01*
X152358300Y-108460600D02*
X154912000Y-108460600D01*
X156362400Y-107010200D02*
X161544000Y-107010200D01*
X161544000Y-107010200D02*
X162549600Y-106004600D01*
X162549600Y-106004600D02*
X162549600Y-103911800D01*
D61*
X143433800Y-124434600D02*
X143433800Y-121031000D01*
X127863600Y-127685800D02*
X129057400Y-126492000D01*
D62*
X143433800Y-121031000D02*
X143450900Y-121013900D01*
X143450900Y-121013900D02*
X146244900Y-121013900D01*
X146244900Y-121013900D02*
X148259800Y-118999000D01*
X148259800Y-116306600D02*
X147445800Y-115492600D01*
D61*
X127863600Y-128651000D02*
X127863600Y-127685800D01*
X129057400Y-126492000D02*
X141376400Y-126492000D01*
D62*
X147445800Y-115492600D02*
X147445800Y-114373100D01*
X148259800Y-118999000D02*
X148259800Y-116306600D01*
D61*
X141376400Y-126492000D02*
X143433800Y-124434600D01*
D62*
X146945800Y-116034000D02*
X147396200Y-116484400D01*
X141782800Y-118922800D02*
X140893800Y-119811800D01*
X147396200Y-118135400D02*
X146608800Y-118922800D01*
X147396200Y-116484400D02*
X147396200Y-118135400D01*
D61*
X139369800Y-125222000D02*
X140893800Y-123698000D01*
D62*
X140893800Y-119811800D02*
X140893800Y-121031000D01*
X146608800Y-118922800D02*
X141782800Y-118922800D01*
D61*
X124307600Y-128600200D02*
X124307600Y-126568200D01*
D62*
X146945800Y-114373100D02*
X146945800Y-116034000D01*
D61*
X140893800Y-123698000D02*
X140893800Y-121031000D01*
X125653800Y-125222000D02*
X139369800Y-125222000D01*
X124307600Y-126568200D02*
X125653800Y-125222000D01*
D62*
X140182600Y-118008400D02*
X138353800Y-119837200D01*
D61*
X120726200Y-125247400D02*
X122174000Y-123799600D01*
D62*
X146442485Y-114376415D02*
X146442485Y-117006315D01*
X145440400Y-118008400D02*
X140182600Y-118008400D01*
D61*
X120726200Y-128549400D02*
X120726200Y-125247400D01*
D62*
X146442485Y-117006315D02*
X145440400Y-118008400D01*
X138353800Y-119837200D02*
X138353800Y-121031000D01*
D61*
X137617200Y-123799600D02*
X138353800Y-123063000D01*
X122174000Y-123799600D02*
X137617200Y-123799600D01*
X138353800Y-123063000D02*
X138353800Y-121031000D01*
D62*
X146445800Y-114373100D02*
X146442485Y-114376415D01*
X145945800Y-116029800D02*
X144957800Y-117017800D01*
X138125200Y-117017800D02*
X135813800Y-119329200D01*
D61*
X135813800Y-122199400D02*
X135813800Y-121031000D01*
D62*
X144957800Y-117017800D02*
X138125200Y-117017800D01*
D61*
X116916200Y-128549400D02*
X116916200Y-124536200D01*
X116916200Y-124536200D02*
X118897400Y-122555000D01*
X118897400Y-122555000D02*
X135458200Y-122555000D01*
X135458200Y-122555000D02*
X135813800Y-122199400D01*
D62*
X145945800Y-114373100D02*
X145945800Y-116029800D01*
X135813800Y-119329200D02*
X135813800Y-121031000D01*
D61*
X113131600Y-125425200D02*
X117500400Y-121056400D01*
D62*
X144805400Y-116027200D02*
X136144000Y-116027200D01*
X145445800Y-114373100D02*
X145445800Y-115386800D01*
D61*
X113131600Y-128524000D02*
X113131600Y-125425200D01*
X117500400Y-121056400D02*
X133248400Y-121056400D01*
X133248400Y-121056400D02*
X133273800Y-121031000D01*
D62*
X145445800Y-115386800D02*
X144805400Y-116027200D01*
X136144000Y-116027200D02*
X133273800Y-118897400D01*
X133273800Y-118897400D02*
X133273800Y-121031000D01*
D63*
X155852400Y-123698000D02*
X155852400Y-125093000D01*
X160096200Y-121716800D02*
X160324800Y-121488200D01*
X160324800Y-121488200D02*
X161596700Y-121488200D01*
X161596700Y-121488200D02*
X161596700Y-123268100D01*
X156616400Y-121716800D02*
X160096200Y-121716800D01*
X155852400Y-125093000D02*
X157784800Y-127025400D01*
X155852400Y-123698000D02*
X155852400Y-122480800D01*
X161596700Y-123268100D02*
X164388800Y-126060200D01*
X164388800Y-126060200D02*
X164388800Y-128651000D01*
X157784800Y-127025400D02*
X157784800Y-128244600D01*
X155852400Y-122480800D02*
X156616400Y-121716800D01*
X154582400Y-123698000D02*
X154582400Y-121820400D01*
X166141400Y-116611400D02*
X166141400Y-126593600D01*
X161320400Y-118135400D02*
X161320400Y-116606400D01*
X162255200Y-115671600D02*
X165201600Y-115671600D01*
X159766000Y-118135400D02*
X161320400Y-118135400D01*
X152704800Y-127355600D02*
X154582400Y-125478000D01*
X154582400Y-121820400D02*
X155625800Y-120777000D01*
X166141400Y-126593600D02*
X168224200Y-128676400D01*
X158826200Y-120294400D02*
X158826200Y-119075200D01*
X154582400Y-125478000D02*
X154582400Y-123698000D01*
X158343600Y-120777000D02*
X158826200Y-120294400D01*
X152704800Y-128244600D02*
X152704800Y-127355600D01*
X158826200Y-119075200D02*
X159766000Y-118135400D01*
X165201600Y-115671600D02*
X166141400Y-116611400D01*
X161320400Y-116606400D02*
X162255200Y-115671600D01*
X155625800Y-120777000D02*
X158343600Y-120777000D01*
D62*
X121513600Y-102959400D02*
X121513600Y-100838100D01*
D63*
X163421700Y-121488200D02*
X163421700Y-120296300D01*
X163421700Y-120296300D02*
X163906200Y-119811800D01*
X163860400Y-119766000D02*
X163860400Y-118135400D01*
X163906200Y-119811800D02*
X163860400Y-119766000D01*
D62*
X186121000Y-95110900D02*
X186121000Y-92555300D01*
X186133100Y-95123000D02*
X186121000Y-95110900D01*
X128590000Y-74663900D02*
X128590000Y-72133700D01*
X128678300Y-74752200D02*
X128590000Y-74663900D01*
X182526300Y-122272200D02*
X182502000Y-122247900D01*
X182526300Y-124688600D02*
X182526300Y-122272200D01*
X123776100Y-101355800D02*
X123764000Y-101343700D01*
D61*
X123812800Y-101392500D02*
X123764000Y-101343700D01*
X123812800Y-104190800D02*
X123812800Y-101392500D01*
D62*
X187172600Y-97078800D02*
X187958100Y-96293300D01*
X176860200Y-93827600D02*
X180111400Y-97078800D01*
X180111400Y-97078800D02*
X187172600Y-97078800D01*
X153060400Y-93827600D02*
X173812200Y-93827600D01*
X187958100Y-96293300D02*
X187958100Y-95123000D01*
X148945800Y-106048100D02*
X148945800Y-97942200D01*
X148945800Y-97942200D02*
X153060400Y-93827600D01*
X173812200Y-93827600D02*
X176860200Y-93827600D01*
X147945800Y-106048100D02*
X147945800Y-81575600D01*
X133045200Y-74713600D02*
X130454400Y-74713600D01*
X141095100Y-74724900D02*
X133056500Y-74724900D01*
X133056500Y-74724900D02*
X133045200Y-74713600D01*
X147945800Y-81575600D02*
X141095100Y-74724900D01*
X130454400Y-74713600D02*
X130415800Y-74752200D01*
X153517600Y-98552000D02*
X164414200Y-98552000D01*
X149945800Y-106048100D02*
X149945800Y-102123800D01*
X149945800Y-102123800D02*
X153517600Y-98552000D01*
X172159300Y-122527700D02*
X173101000Y-122527700D01*
D61*
X184351300Y-125681100D02*
X183642000Y-126390400D01*
D62*
X166522400Y-100660200D02*
X166522400Y-111150400D01*
X169494200Y-114122200D02*
X169494200Y-119862600D01*
D61*
X176963700Y-126390400D02*
X173101000Y-122527700D01*
D62*
X166522400Y-111150400D02*
X169494200Y-114122200D01*
X169494200Y-119862600D02*
X172159300Y-122527700D01*
X164414200Y-98552000D02*
X166522400Y-100660200D01*
D61*
X184351300Y-124688600D02*
X184351300Y-125681100D01*
X183642000Y-126390400D02*
X176963700Y-126390400D01*
D62*
X130403600Y-101396800D02*
X130403600Y-103632000D01*
X125476000Y-104177600D02*
X125462800Y-104190800D01*
X129858000Y-104177600D02*
X128473200Y-104177600D01*
X130403600Y-103632000D02*
X129858000Y-104177600D01*
X140843000Y-100736400D02*
X131064000Y-100736400D01*
X146445800Y-106048100D02*
X146445800Y-103545200D01*
X128473200Y-104177600D02*
X125476000Y-104177600D01*
X131064000Y-100736400D02*
X130403600Y-101396800D01*
X146445800Y-103545200D02*
X145872200Y-102971600D01*
X145872200Y-102971600D02*
X143078200Y-102971600D01*
X143078200Y-102971600D02*
X140843000Y-100736400D01*
X146507200Y-100431600D02*
X146507200Y-99874800D01*
X147445800Y-106048100D02*
X147445800Y-101370200D01*
X147445800Y-101370200D02*
X146507200Y-100431600D01*
X173685200Y-100328100D02*
X176682400Y-100328100D01*
X146848000Y-112460600D02*
X147878800Y-111429800D01*
X144033300Y-112460600D02*
X146848000Y-112460600D01*
X171096300Y-100328100D02*
X173685200Y-100328100D01*
X135966200Y-82448400D02*
X133580500Y-80062700D01*
X129794000Y-115214400D02*
X143306800Y-115214400D01*
X143306800Y-115214400D02*
X144033300Y-114487900D01*
X131446900Y-79248000D02*
X131394200Y-79195300D01*
X133580500Y-80062700D02*
X133580500Y-79248000D01*
X133580500Y-79248000D02*
X131446900Y-79248000D01*
X135966200Y-98094800D02*
X135966200Y-82448400D01*
X144033300Y-114487900D02*
X144033300Y-112960600D01*
X165100000Y-111963200D02*
X165100000Y-101574600D01*
X173126400Y-129436500D02*
X172159300Y-129436500D01*
X168478200Y-125755400D02*
X168478200Y-115341400D01*
X150445800Y-103732000D02*
X150445800Y-106048100D01*
X172159300Y-129436500D02*
X168478200Y-125755400D01*
X163525200Y-99999800D02*
X154178000Y-99999800D01*
X168478200Y-115341400D02*
X165100000Y-111963200D01*
X173151800Y-129411100D02*
X175818800Y-129411100D01*
X173126400Y-129436500D02*
X173151800Y-129411100D01*
X154178000Y-99999800D02*
X150445800Y-103732000D01*
X165100000Y-101574600D02*
X163525200Y-99999800D01*
X153312400Y-115470400D02*
X153312400Y-118748000D01*
X153478800Y-109460600D02*
X154127200Y-110109000D01*
X154127200Y-114655600D02*
X153312400Y-115470400D01*
X154127200Y-110109000D02*
X154127200Y-114655600D01*
X152358300Y-109460600D02*
X153478800Y-109460600D01*
X157122400Y-115618800D02*
X157122400Y-118748000D01*
X156235400Y-109550200D02*
X156235400Y-114731800D01*
X152358300Y-108960600D02*
X155645800Y-108960600D01*
X155645800Y-108960600D02*
X156235400Y-109550200D01*
X156235400Y-114731800D02*
X157122400Y-115618800D01*
D60*
X127914400Y-40792400D02*
X127914400Y-45796200D01*
X127914400Y-45796200D02*
X130505200Y-48387000D01*
X130505200Y-48387000D02*
X141607300Y-48387000D01*
X183668800Y-74162400D02*
X198952600Y-74162400D01*
X198952600Y-74162400D02*
X199110600Y-74320400D01*
X107378000Y-67691000D02*
X120781200Y-67691000D01*
X120781200Y-67691000D02*
X122198000Y-66274200D01*
X106971600Y-67284600D02*
X107378000Y-67691000D01*
X184559600Y-103982000D02*
X197873600Y-103982000D01*
X197873600Y-103982000D02*
X199250800Y-105359200D01*
X197320400Y-117449600D02*
X199250800Y-115519200D01*
X186027200Y-117449600D02*
X197320400Y-117449600D01*
X184559600Y-115982000D02*
X186027200Y-117449600D01*
D63*
X183422700Y-90567000D02*
X183489600Y-90500100D01*
X183489600Y-90500100D02*
X183489600Y-89560400D01*
X183489600Y-89560400D02*
X184200800Y-88849200D01*
X187071000Y-89357200D02*
X187071000Y-90680300D01*
X180377600Y-83071200D02*
X171468800Y-74162400D01*
X184200800Y-88849200D02*
X186563000Y-88849200D01*
X180377600Y-90567000D02*
X180377600Y-83071200D01*
X186563000Y-88849200D02*
X187071000Y-89357200D01*
X180377600Y-90567000D02*
X183422700Y-90567000D01*
X129540000Y-70258700D02*
X129540000Y-66776600D01*
X129540000Y-66776600D02*
X129540000Y-66294000D01*
X126224800Y-67958200D02*
X127908800Y-66274200D01*
X129559800Y-66274200D02*
X129966200Y-66274200D01*
X126190100Y-70043800D02*
X126224800Y-70078500D01*
X129540000Y-66686200D02*
X129128000Y-66274200D01*
X129540000Y-66686200D02*
X129554200Y-66686200D01*
X129540000Y-66776600D02*
X129540000Y-66686200D01*
X123266200Y-70043800D02*
X126190100Y-70043800D01*
X129966200Y-66274200D02*
X134398000Y-66274200D01*
X129540000Y-66294000D02*
X129559800Y-66274200D01*
X129128000Y-66274200D02*
X129559800Y-66274200D01*
X127908800Y-66274200D02*
X129128000Y-66274200D01*
X129554200Y-66686200D02*
X129966200Y-66274200D01*
X126224800Y-70078500D02*
X126224800Y-67958200D01*
D61*
X180390800Y-118516400D02*
X183032400Y-118516400D01*
X176871400Y-108493800D02*
X172359600Y-103982000D01*
X183032400Y-118516400D02*
X183452000Y-118936000D01*
X176871400Y-120104900D02*
X179788500Y-120104900D01*
X176871400Y-120104900D02*
X176871400Y-108493800D01*
X183452000Y-118936000D02*
X183452000Y-120372900D01*
X179788500Y-120104900D02*
X179830000Y-120063400D01*
X179830000Y-120063400D02*
X179830000Y-119077200D01*
X179830000Y-119077200D02*
X180390800Y-118516400D01*
D63*
X121513600Y-99263100D02*
X121513600Y-97332800D01*
X121513600Y-97332800D02*
X123489200Y-95357200D01*
X124714000Y-95362800D02*
X124708400Y-95357200D01*
X123489200Y-95357200D02*
X124708400Y-95357200D01*
X124714000Y-99468700D02*
X124714000Y-95362800D01*
X121513600Y-99263100D02*
X120989500Y-99787200D01*
X120989500Y-99787200D02*
X118389400Y-99787200D01*
X124708400Y-95357200D02*
X130066800Y-95357200D01*
D60*
X194284600Y-99466400D02*
X199110600Y-94640400D01*
X192954000Y-99466400D02*
X194284600Y-99466400D01*
X107680400Y-77444600D02*
X111617400Y-73507600D01*
X106971600Y-77444600D02*
X107680400Y-77444600D01*
X111617400Y-73507600D02*
X112074600Y-73507600D01*
X192827000Y-120878600D02*
X194450200Y-120878600D01*
X194450200Y-120878600D02*
X199250800Y-125679200D01*
G04 #@! TA.AperFunction,Conductor*
G36*
X118661721Y-110586202D02*
G01*
X118708214Y-110639858D01*
X118719600Y-110692200D01*
X118719600Y-113487200D01*
X123800600Y-113487200D01*
X123868721Y-113507202D01*
X123915214Y-113560858D01*
X123926600Y-113613200D01*
X123926600Y-119381000D01*
X123906598Y-119449121D01*
X123852942Y-119495614D01*
X123800600Y-119507000D01*
X115823000Y-119507000D01*
X115754879Y-119486998D01*
X115708386Y-119433342D01*
X115697000Y-119381000D01*
X115697000Y-116835637D01*
X115703835Y-116794702D01*
X116840000Y-113487200D01*
X116864314Y-110691104D01*
X116884907Y-110623160D01*
X116938965Y-110577136D01*
X116990309Y-110566200D01*
X118593600Y-110566200D01*
X118661721Y-110586202D01*
G37*
G04 #@! TD.AperFunction*
G04 #@! TA.AperFunction,Conductor*
G36*
X132698520Y-71286376D02*
G01*
X132761257Y-71303466D01*
X134066952Y-72063143D01*
X134115773Y-72114689D01*
X134129585Y-72171328D01*
X134134485Y-73025164D01*
X134136673Y-73406277D01*
X134117062Y-73474511D01*
X134063674Y-73521311D01*
X134010675Y-73533000D01*
X131462230Y-73533000D01*
X131428404Y-73528375D01*
X129987774Y-73126887D01*
X129927524Y-73089331D01*
X129897142Y-73025164D01*
X129895600Y-73005512D01*
X129895600Y-71399029D01*
X129915602Y-71330908D01*
X129969258Y-71284415D01*
X130022226Y-71273031D01*
X132698520Y-71286376D01*
G37*
G04 #@! TD.AperFunction*
G04 #@! TA.AperFunction,Conductor*
G36*
X146255303Y-38602602D02*
G01*
X146290777Y-38636878D01*
X146459397Y-38880440D01*
X146481726Y-38947831D01*
X146481800Y-38952158D01*
X146481800Y-42505567D01*
X146461798Y-42573688D01*
X146459320Y-42577397D01*
X145618200Y-43789598D01*
X145618200Y-45479200D01*
X145598198Y-45547321D01*
X145567800Y-45580000D01*
X145245400Y-45821800D01*
X145178902Y-45846671D01*
X145169800Y-45847000D01*
X143813263Y-45847000D01*
X143745142Y-45826998D01*
X143727807Y-45813591D01*
X143474335Y-45579617D01*
X143437848Y-45518715D01*
X143433800Y-45487033D01*
X143433800Y-42810070D01*
X143453802Y-42741949D01*
X143482755Y-42710370D01*
X143992600Y-42316400D01*
X143992600Y-39010602D01*
X144012602Y-38942481D01*
X144023383Y-38928081D01*
X144036627Y-38912800D01*
X144285118Y-38626078D01*
X144344848Y-38587701D01*
X144380335Y-38582600D01*
X146187182Y-38582600D01*
X146255303Y-38602602D01*
G37*
G04 #@! TD.AperFunction*
G04 #@! TA.AperFunction,Conductor*
G36*
X153635131Y-122600402D02*
G01*
X153656105Y-122617305D01*
X153709295Y-122670495D01*
X153743321Y-122732807D01*
X153746200Y-122759590D01*
X153746200Y-124585610D01*
X153726198Y-124653731D01*
X153709295Y-124674705D01*
X153605305Y-124778695D01*
X153542993Y-124812721D01*
X153516210Y-124815600D01*
X153112590Y-124815600D01*
X153044469Y-124795598D01*
X153023495Y-124778695D01*
X152919505Y-124674705D01*
X152885479Y-124612393D01*
X152882600Y-124585610D01*
X152882600Y-124180601D01*
X152882599Y-124180599D01*
X152755600Y-124028200D01*
X151317299Y-124028200D01*
X151252472Y-124010243D01*
X151216572Y-123988703D01*
X151168451Y-123936503D01*
X151155400Y-123880660D01*
X151155400Y-123445390D01*
X151175402Y-123377269D01*
X151192305Y-123356295D01*
X151194695Y-123353905D01*
X151257007Y-123319879D01*
X151283790Y-123317000D01*
X152679399Y-123317000D01*
X152679400Y-123317000D01*
X152831800Y-123139200D01*
X152831800Y-122790751D01*
X152851802Y-122722630D01*
X152875798Y-122695087D01*
X152974212Y-122610732D01*
X153038949Y-122581588D01*
X153056210Y-122580400D01*
X153567010Y-122580400D01*
X153635131Y-122600402D01*
G37*
G04 #@! TD.AperFunction*
G04 #@! TA.AperFunction,Conductor*
G36*
X176825331Y-50515202D02*
G01*
X176846305Y-50532105D01*
X176973395Y-50659195D01*
X177007421Y-50721507D01*
X177010300Y-50748290D01*
X177010300Y-55229472D01*
X177010404Y-55234088D01*
X177011013Y-55247689D01*
X177012087Y-55256056D01*
X177012600Y-55264081D01*
X177012600Y-56413399D01*
X177012600Y-56413400D01*
X181256289Y-57317951D01*
X189683707Y-57226787D01*
X189752039Y-57246051D01*
X189775714Y-57265261D01*
X190413845Y-57926182D01*
X190446771Y-57989082D01*
X190449200Y-58013701D01*
X190449200Y-62920660D01*
X190429198Y-62988781D01*
X190388027Y-63028703D01*
X189844125Y-63355044D01*
X189779301Y-63373000D01*
X187147198Y-63373000D01*
X183134003Y-65684396D01*
X183134001Y-65684398D01*
X182816050Y-66047772D01*
X182756139Y-66085866D01*
X182721225Y-66090800D01*
X177422788Y-66090800D01*
X177354667Y-66070798D01*
X177330866Y-66050976D01*
X177021278Y-65720748D01*
X176989280Y-65657372D01*
X176987200Y-65634572D01*
X176987200Y-59994801D01*
X175550149Y-56742526D01*
X175539400Y-56691601D01*
X175539400Y-50740400D01*
X175559402Y-50672279D01*
X175564600Y-50664800D01*
X175654000Y-50545600D01*
X175710874Y-50503105D01*
X175754800Y-50495200D01*
X176757210Y-50495200D01*
X176825331Y-50515202D01*
G37*
G04 #@! TD.AperFunction*
G04 #@! TA.AperFunction,Conductor*
G36*
X142436121Y-111348202D02*
G01*
X142482614Y-111401858D01*
X142494000Y-111454200D01*
X142494000Y-114326400D01*
X142473998Y-114394521D01*
X142420342Y-114441014D01*
X142368000Y-114452400D01*
X139875709Y-114452400D01*
X139807588Y-114432398D01*
X139761095Y-114378742D01*
X139749714Y-114327496D01*
X139726505Y-111658496D01*
X139745914Y-111590204D01*
X139799163Y-111543246D01*
X139852500Y-111531400D01*
X141249398Y-111531400D01*
X141249400Y-111531400D01*
X141549227Y-111346890D01*
X141615263Y-111328200D01*
X142368000Y-111328200D01*
X142436121Y-111348202D01*
G37*
G04 #@! TD.AperFunction*
G04 #@! TA.AperFunction,Conductor*
G36*
X140959647Y-106963161D02*
G01*
X141554200Y-107111800D01*
X142342600Y-107111800D01*
X142410721Y-107131802D01*
X142457214Y-107185458D01*
X142468600Y-107237800D01*
X142468600Y-107773200D01*
X142448598Y-107841321D01*
X142394942Y-107887814D01*
X142342600Y-107899200D01*
X141554198Y-107899200D01*
X141169195Y-108043577D01*
X141124953Y-108051600D01*
X139927600Y-108051600D01*
X139859479Y-108031598D01*
X139812986Y-107977942D01*
X139801600Y-107925600D01*
X139801600Y-107085400D01*
X139821602Y-107017279D01*
X139875258Y-106970786D01*
X139927600Y-106959400D01*
X140929089Y-106959400D01*
X140959647Y-106963161D01*
G37*
G04 #@! TD.AperFunction*
G04 #@! TA.AperFunction,Conductor*
G36*
X116096321Y-107919202D02*
G01*
X116142814Y-107972858D01*
X116154200Y-108025200D01*
X116154200Y-110261400D01*
X116344575Y-110555616D01*
X116413803Y-110662605D01*
X116434009Y-110729639D01*
X116457568Y-112826384D01*
X116438333Y-112894726D01*
X116385203Y-112941818D01*
X116331576Y-112953800D01*
X114680000Y-112953800D01*
X114611879Y-112933798D01*
X114565386Y-112880142D01*
X114554000Y-112827800D01*
X114554000Y-108025200D01*
X114574002Y-107957079D01*
X114627658Y-107910586D01*
X114680000Y-107899200D01*
X116028200Y-107899200D01*
X116096321Y-107919202D01*
G37*
G04 #@! TD.AperFunction*
G04 #@! TA.AperFunction,Conductor*
G36*
X142311566Y-109798802D02*
G01*
X142358059Y-109852458D01*
X142369421Y-109902330D01*
X142389881Y-110945730D01*
X142371218Y-111014230D01*
X142318484Y-111061765D01*
X142263905Y-111074200D01*
X137717800Y-111074200D01*
X137649679Y-111054198D01*
X137603186Y-111000542D01*
X137591800Y-110948200D01*
X137591800Y-109904800D01*
X137611802Y-109836679D01*
X137665458Y-109790186D01*
X137717800Y-109778800D01*
X142243445Y-109778800D01*
X142311566Y-109798802D01*
G37*
G04 #@! TD.AperFunction*
G04 #@! TA.AperFunction,Conductor*
G36*
X179988026Y-38963489D02*
G01*
X180056098Y-38983651D01*
X180070702Y-38994664D01*
X181008347Y-39815104D01*
X181046441Y-39875015D01*
X181051374Y-39909542D01*
X181076599Y-48132999D01*
X181076600Y-48133000D01*
X187172600Y-49098200D01*
X189618723Y-49098200D01*
X189653391Y-49103062D01*
X190430683Y-49325522D01*
X190490670Y-49363495D01*
X190520605Y-49427872D01*
X190522013Y-49446489D01*
X190527879Y-53807345D01*
X190512153Y-53868469D01*
X189805658Y-55146587D01*
X189755198Y-55196530D01*
X189694565Y-55211629D01*
X179197002Y-55143399D01*
X179196998Y-55143400D01*
X178538476Y-55484857D01*
X178480476Y-55499000D01*
X177455225Y-55499000D01*
X177387104Y-55478998D01*
X177355767Y-55450357D01*
X177242342Y-55304525D01*
X177216308Y-55238473D01*
X177215800Y-55227168D01*
X177215800Y-49657001D01*
X177215800Y-49657000D01*
X177114200Y-49530000D01*
X177114199Y-49530000D01*
X175412398Y-49530000D01*
X175310800Y-49631598D01*
X175310800Y-55264024D01*
X175290798Y-55332145D01*
X175267772Y-55358848D01*
X175143229Y-55467824D01*
X175078792Y-55497629D01*
X175060257Y-55499000D01*
X174063306Y-55499000D01*
X173995185Y-55478998D01*
X173979596Y-55467173D01*
X173829212Y-55333498D01*
X173791587Y-55273292D01*
X173786924Y-55239963D01*
X173786800Y-55215568D01*
X173786800Y-49682401D01*
X173786799Y-49682399D01*
X173659800Y-49530000D01*
X169241872Y-49530000D01*
X169173751Y-49509998D01*
X169129174Y-49460349D01*
X169080748Y-49363495D01*
X168656000Y-48514000D01*
X168655999Y-48513999D01*
X163398200Y-46101000D01*
X160910390Y-46101000D01*
X160842269Y-46080998D01*
X160821295Y-46064095D01*
X160691905Y-45934705D01*
X160657879Y-45872393D01*
X160655000Y-45845610D01*
X160655000Y-41962190D01*
X160675002Y-41894069D01*
X160691905Y-41873095D01*
X160821295Y-41743705D01*
X160883607Y-41709679D01*
X160910390Y-41706800D01*
X163372799Y-41706800D01*
X163372800Y-41706800D01*
X169138083Y-38950589D01*
X169192722Y-38938267D01*
X179988026Y-38963489D01*
G37*
G04 #@! TD.AperFunction*
G04 #@! TA.AperFunction,Conductor*
G36*
X112057721Y-90952002D02*
G01*
X112104214Y-91005658D01*
X112115600Y-91058000D01*
X112115600Y-92446894D01*
X112095598Y-92515015D01*
X112041942Y-92561508D01*
X112036395Y-92563882D01*
X108582567Y-93945413D01*
X108534866Y-93954422D01*
X105154094Y-93930099D01*
X105086118Y-93909607D01*
X105040013Y-93855618D01*
X105029000Y-93804102D01*
X105029000Y-91058000D01*
X105049002Y-90989879D01*
X105102658Y-90943386D01*
X105155000Y-90932000D01*
X111989600Y-90932000D01*
X112057721Y-90952002D01*
G37*
G04 #@! TD.AperFunction*
G04 #@! TA.AperFunction,Conductor*
G36*
X124183316Y-72424353D02*
G01*
X124251327Y-72444718D01*
X124297533Y-72498621D01*
X124301342Y-72508085D01*
X124478100Y-73004497D01*
X124485400Y-73046763D01*
X124485400Y-74244200D01*
X124485399Y-74244200D01*
X125450600Y-74523600D01*
X126759200Y-74523600D01*
X126827321Y-74543602D01*
X126860000Y-74574000D01*
X126949400Y-74693200D01*
X126974271Y-74759698D01*
X126974600Y-74768800D01*
X126974600Y-75619256D01*
X126954598Y-75687377D01*
X126943425Y-75702227D01*
X126834450Y-75826771D01*
X126774539Y-75864866D01*
X126739625Y-75869800D01*
X125724498Y-75869800D01*
X125685668Y-75863667D01*
X122184970Y-74729638D01*
X122126329Y-74689617D01*
X122098634Y-74624244D01*
X122097800Y-74609771D01*
X122097800Y-73015173D01*
X122117802Y-72947052D01*
X122121888Y-72941077D01*
X122466214Y-72467630D01*
X122522455Y-72424305D01*
X122568782Y-72415744D01*
X124183316Y-72424353D01*
G37*
G04 #@! TD.AperFunction*
G04 #@! TA.AperFunction,Conductor*
G36*
X173415969Y-50515202D02*
G01*
X173443514Y-50539200D01*
X173528103Y-50637887D01*
X173557249Y-50702625D01*
X173558435Y-50719246D01*
X173634132Y-65606434D01*
X173614477Y-65674656D01*
X173597230Y-65696170D01*
X173163303Y-66130096D01*
X173100993Y-66164120D01*
X173074210Y-66167000D01*
X168613169Y-66167000D01*
X168550805Y-66150484D01*
X166573200Y-65024000D01*
X163624140Y-65024000D01*
X163556019Y-65003998D01*
X163540124Y-64991900D01*
X163135384Y-64629764D01*
X163097955Y-64569435D01*
X163093400Y-64535864D01*
X163093400Y-62180590D01*
X163113402Y-62112469D01*
X163130305Y-62091495D01*
X163437495Y-61784305D01*
X163499807Y-61750279D01*
X163526590Y-61747400D01*
X166547799Y-61747400D01*
X166547800Y-61747400D01*
X168263198Y-59957420D01*
X168324773Y-59922077D01*
X168354169Y-59918600D01*
X171678600Y-59918600D01*
X172211999Y-59563001D01*
X172212000Y-59563000D01*
X172212000Y-50706462D01*
X172228601Y-50643949D01*
X172277322Y-50558687D01*
X172328486Y-50509465D01*
X172386721Y-50495200D01*
X173347848Y-50495200D01*
X173415969Y-50515202D01*
G37*
G04 #@! TD.AperFunction*
G04 #@! TA.AperFunction,Conductor*
G36*
X142436121Y-105277602D02*
G01*
X142482614Y-105331258D01*
X142494000Y-105383600D01*
X142494000Y-106677640D01*
X142473998Y-106745761D01*
X142420342Y-106792254D01*
X142364686Y-106803596D01*
X141559393Y-106782405D01*
X141501985Y-106766852D01*
X141020801Y-106502200D01*
X139899629Y-106479318D01*
X139831931Y-106457930D01*
X139786542Y-106403337D01*
X139776200Y-106353344D01*
X139776200Y-105383600D01*
X139796202Y-105315479D01*
X139849858Y-105268986D01*
X139902200Y-105257600D01*
X142368000Y-105257600D01*
X142436121Y-105277602D01*
G37*
G04 #@! TD.AperFunction*
G04 #@! TA.AperFunction,Conductor*
G36*
X136619521Y-108071602D02*
G01*
X136666014Y-108125258D01*
X136677400Y-108177600D01*
X136677400Y-108789200D01*
X136657398Y-108857321D01*
X136603742Y-108903814D01*
X136551400Y-108915200D01*
X134822200Y-108915200D01*
X134754079Y-108895198D01*
X134707586Y-108841542D01*
X134696200Y-108789200D01*
X134696200Y-108253604D01*
X134716202Y-108185483D01*
X134733105Y-108164509D01*
X134809109Y-108088505D01*
X134871421Y-108054479D01*
X134898204Y-108051600D01*
X136551400Y-108051600D01*
X136619521Y-108071602D01*
G37*
G04 #@! TD.AperFunction*
G04 #@! TA.AperFunction,Conductor*
G36*
X127330958Y-100545967D02*
G01*
X129367668Y-101540076D01*
X129420112Y-101587931D01*
X129438400Y-101653308D01*
X129438400Y-102845600D01*
X129418398Y-102913721D01*
X129364742Y-102960214D01*
X129312400Y-102971600D01*
X127019421Y-102971600D01*
X126981478Y-102965751D01*
X125157657Y-102389807D01*
X125098722Y-102350220D01*
X125070545Y-102285055D01*
X125069600Y-102269656D01*
X125069600Y-100659200D01*
X125089602Y-100591079D01*
X125143258Y-100544586D01*
X125195600Y-100533200D01*
X127275691Y-100533200D01*
X127330958Y-100545967D01*
G37*
G04 #@! TD.AperFunction*
G04 #@! TA.AperFunction,Conductor*
G36*
X138981721Y-111475202D02*
G01*
X139028214Y-111528858D01*
X139039600Y-111581200D01*
X139039600Y-113004600D01*
X139347047Y-113246165D01*
X139388252Y-113303978D01*
X139395200Y-113345240D01*
X139395200Y-114477037D01*
X139375198Y-114545158D01*
X139321542Y-114591651D01*
X139267450Y-114603025D01*
X137690650Y-114581125D01*
X137622814Y-114560179D01*
X137577071Y-114505883D01*
X137566400Y-114455137D01*
X137566400Y-111581200D01*
X137586402Y-111513079D01*
X137640058Y-111466586D01*
X137692400Y-111455200D01*
X138913600Y-111455200D01*
X138981721Y-111475202D01*
G37*
G04 #@! TD.AperFunction*
G04 #@! TA.AperFunction,Conductor*
G36*
X164182477Y-49575402D02*
G01*
X164195325Y-49584860D01*
X164947600Y-50215800D01*
X171705000Y-50215800D01*
X171773121Y-50235802D01*
X171819614Y-50289458D01*
X171831000Y-50341800D01*
X171831000Y-55271400D01*
X171810998Y-55339521D01*
X171757342Y-55386014D01*
X171705000Y-55397400D01*
X164338000Y-55397400D01*
X163906200Y-55397400D01*
X161121931Y-55397400D01*
X161053810Y-55377398D01*
X161007317Y-55323742D01*
X161004628Y-55317401D01*
X160536697Y-54124177D01*
X160528000Y-54078176D01*
X160528000Y-50137341D01*
X160548002Y-50069220D01*
X160560566Y-50052806D01*
X160973084Y-49596865D01*
X161033620Y-49559771D01*
X161066518Y-49555400D01*
X164114356Y-49555400D01*
X164182477Y-49575402D01*
G37*
G04 #@! TD.AperFunction*
G04 #@! TA.AperFunction,Conductor*
G36*
X118199143Y-107876549D02*
G01*
X123826779Y-109071799D01*
X123889256Y-109105516D01*
X123923587Y-109167660D01*
X123926600Y-109195049D01*
X123926600Y-112904000D01*
X123906598Y-112972121D01*
X123852942Y-113018614D01*
X123800600Y-113030000D01*
X119226600Y-113030000D01*
X119158479Y-113009998D01*
X119111986Y-112956342D01*
X119100600Y-112904000D01*
X119100600Y-109982000D01*
X116813600Y-109982000D01*
X116745479Y-109961998D01*
X116698986Y-109908342D01*
X116687600Y-109856000D01*
X116687600Y-107999800D01*
X116707602Y-107931679D01*
X116761258Y-107885186D01*
X116813600Y-107873800D01*
X118172966Y-107873800D01*
X118199143Y-107876549D01*
G37*
G04 #@! TD.AperFunction*
M02*
