M48
; DRILL file {KiCad (6.0.11)} date Tue Aug 29 14:16:51 2023
; FORMAT={-:-/ absolute / metric / decimal}
; #@! TF.CreationDate,2023-08-29T14:16:51-05:00
; #@! TF.GenerationSoftware,Kicad,Pcbnew,(6.0.11)
; #@! TF.FileFunction,Plated,1,4,PTH
FMAT,2
METRIC
; #@! TA.AperFunction,Plated,PTH,ViaDrill
T1C0.300
; #@! TA.AperFunction,Plated,PTH,ViaDrill
T2C0.400
; #@! TA.AperFunction,Plated,PTH,ViaDrill
T3C0.500
; #@! TA.AperFunction,Plated,PTH,ComponentDrill
T4C0.800
; #@! TA.AperFunction,Plated,PTH,ComponentDrill
T5C1.000
; #@! TA.AperFunction,Plated,PTH,ComponentDrill
T6C1.300
; #@! TA.AperFunction,Plated,PTH,ComponentDrill
T7C1.400
%
G90
G05
T1
X108.255Y-113.132
X109.88Y-92.558
X110.044Y-72.212
X111.34Y-64.541
X112.166Y-104.902
X119.761Y-109.068
X119.786Y-110.007
X120.777Y-109.118
X120.802Y-110.007
X121.818Y-109.169
X121.844Y-110.058
X122.961Y-110.592
X122.987Y-109.525
X123.292Y-43.891
X124.485Y-74.778
X124.993Y-117.907
X125.12Y-116.408
X127.127Y-101.371
X129.794Y-115.214
X131.47Y-71.806
X133.02Y-105.105
X135.687Y-108.128
X135.966Y-98.095
X136.779Y-79.248
X138.578Y-95.698
X139.395Y-110.515
X139.624Y-52.756
X139.979Y-88.265
X140.437Y-101.752
X140.462Y-102.768
X141.453Y-105.664
X141.453Y-110.16
X141.529Y-99.187
X144.145Y-43.256
X145.161Y-43.307
X145.847Y-110.084
X145.948Y-107.366
X146.533Y-97.866
X147.117Y-110.769
X147.193Y-122.86
X147.345Y-124.409
X147.879Y-111.43
X150.47Y-113.005
X150.47Y-122.707
X151.028Y-107.95
X153.238Y-104.877
X154.305Y-104.75
X155.067Y-111.379
X155.118Y-112.624
X155.651Y-115.595
X158.126Y-123.687
X160.02Y-101.575
X170.332Y-126.009
X171.069Y-99.289
X171.096Y-100.328
X173.076Y-119.456
X173.685Y-97.155
X173.787Y-90.703
X175.743Y-91.796
X177.114Y-91.796
X182.626Y-74.193
X183.718Y-74.219
X185.674Y-122.25
X189.433Y-92.558
X194.742Y-81.991
X194.894Y-112.37
X196.19Y-88.9
X196.215Y-120.472
X198.552Y-66.04
T2
X106.68Y-40.64
X106.68Y-43.18
X106.68Y-45.72
X106.68Y-48.26
X106.68Y-50.8
X106.68Y-99.06
X106.68Y-101.6
X106.68Y-104.14
X106.68Y-106.68
X106.68Y-121.92
X109.22Y-48.26
X109.22Y-50.8
X109.22Y-99.06
X109.22Y-101.6
X109.22Y-104.14
X109.22Y-106.68
X109.22Y-111.76
X109.22Y-114.3
X109.22Y-119.38
X111.76Y-48.26
X111.76Y-50.8
X111.76Y-53.34
X111.76Y-55.88
X111.76Y-58.42
X111.76Y-60.96
X111.76Y-71.12
X111.76Y-81.28
X111.76Y-83.82
X111.76Y-86.36
X111.76Y-106.68
X111.76Y-111.76
X111.76Y-114.3
X111.76Y-119.38
X114.3Y-45.72
X114.3Y-48.26
X114.3Y-50.8
X114.3Y-71.12
X114.3Y-73.66
X114.3Y-76.2
X114.3Y-78.74
X114.3Y-99.06
X114.3Y-101.6
X116.84Y-40.64
X116.84Y-43.18
X116.84Y-45.72
X116.84Y-48.26
X116.84Y-50.8
X116.84Y-71.12
X116.84Y-73.66
X116.84Y-76.2
X116.84Y-78.74
X116.84Y-106.68
X119.38Y-45.72
X119.38Y-48.26
X119.38Y-50.8
X119.38Y-71.12
X119.38Y-73.66
X119.38Y-76.2
X119.38Y-78.74
X119.38Y-106.68
X121.92Y-45.72
X121.92Y-48.26
X121.92Y-50.8
X121.92Y-76.2
X121.92Y-78.74
X121.92Y-106.68
X124.46Y-45.72
X124.46Y-48.26
X124.46Y-50.8
X124.46Y-106.68
X124.46Y-109.22
X127.0Y-48.26
X127.0Y-50.8
X127.0Y-78.74
X127.0Y-106.68
X127.0Y-109.22
X127.0Y-111.76
X127.0Y-116.84
X128.6Y-115.595
X129.54Y-50.8
X129.54Y-78.74
X129.54Y-99.06
X132.08Y-50.8
X132.08Y-99.06
X132.08Y-106.68
X132.08Y-109.22
X132.08Y-111.76
X134.62Y-40.64
X134.62Y-43.18
X134.62Y-50.8
X134.62Y-93.98
X134.62Y-96.52
X134.62Y-99.06
X134.62Y-111.76
X137.16Y-60.96
X137.16Y-63.5
X137.16Y-66.04
X137.16Y-68.58
X137.16Y-71.12
X137.16Y-73.66
X137.16Y-83.82
X137.16Y-86.36
X137.16Y-88.9
X137.16Y-93.98
X137.16Y-99.06
X139.7Y-60.96
X139.7Y-63.5
X139.7Y-71.12
X139.7Y-73.66
X139.7Y-76.2
X139.7Y-78.74
X139.7Y-83.82
X139.7Y-86.36
X142.24Y-55.88
X142.24Y-60.96
X142.24Y-63.5
X142.24Y-66.04
X142.24Y-73.66
X142.24Y-78.74
X142.24Y-83.82
X142.24Y-86.36
X144.78Y-55.88
X144.78Y-60.96
X144.78Y-63.5
X144.78Y-66.04
X144.78Y-68.58
X144.78Y-76.2
X144.78Y-83.82
X144.78Y-86.36
X144.78Y-88.9
X144.78Y-91.44
X144.78Y-93.98
X144.78Y-96.52
X144.78Y-99.06
X147.32Y-45.72
X147.32Y-53.34
X147.32Y-55.88
X147.32Y-60.96
X147.32Y-63.5
X147.32Y-66.04
X147.32Y-68.58
X147.32Y-71.12
X147.32Y-78.74
X147.32Y-127.0
X147.32Y-129.54
X149.86Y-40.64
X149.86Y-43.18
X149.86Y-86.36
X149.86Y-88.9
X149.86Y-91.44
X149.86Y-93.98
X149.906Y-45.713
X152.4Y-40.64
X152.4Y-43.18
X152.4Y-45.72
X152.4Y-55.88
X152.4Y-58.42
X152.4Y-60.96
X152.4Y-63.5
X152.4Y-66.04
X152.4Y-68.58
X152.4Y-71.12
X152.4Y-73.66
X152.4Y-78.74
X152.4Y-81.28
X152.4Y-88.9
X152.4Y-91.44
X152.4Y-96.52
X154.94Y-40.64
X154.94Y-43.18
X154.94Y-45.72
X154.94Y-48.26
X154.94Y-55.88
X154.94Y-58.42
X154.94Y-60.96
X154.94Y-63.5
X154.94Y-66.04
X154.94Y-68.58
X154.94Y-71.12
X154.94Y-73.66
X154.94Y-78.74
X154.94Y-81.28
X154.94Y-83.82
X154.94Y-91.44
X154.94Y-96.52
X157.48Y-40.64
X157.48Y-55.88
X157.48Y-58.42
X157.48Y-60.96
X157.48Y-63.5
X157.48Y-66.04
X157.48Y-68.58
X157.48Y-71.12
X157.48Y-73.66
X157.48Y-78.74
X157.48Y-81.28
X157.48Y-83.82
X157.48Y-86.36
X157.48Y-91.44
X157.48Y-96.52
X160.02Y-40.64
X160.02Y-55.88
X160.02Y-58.42
X160.02Y-60.96
X160.02Y-63.5
X160.02Y-66.04
X160.02Y-68.58
X160.02Y-71.12
X160.02Y-73.66
X160.02Y-78.74
X160.02Y-81.28
X160.02Y-83.82
X160.02Y-86.36
X160.02Y-91.44
X160.02Y-96.52
X160.02Y-114.3
X162.56Y-40.64
X162.56Y-58.42
X162.56Y-71.12
X162.56Y-73.66
X162.56Y-78.74
X162.56Y-81.28
X162.56Y-83.82
X162.56Y-86.36
X162.56Y-91.44
X162.56Y-96.52
X164.516Y-45.466
X164.592Y-43.866
X164.668Y-42.164
X164.694Y-69.926
X165.1Y-58.42
X165.1Y-73.66
X165.1Y-78.74
X165.1Y-81.28
X165.1Y-83.82
X165.1Y-86.36
X165.1Y-91.44
X165.1Y-96.52
X166.116Y-45.898
X166.243Y-43.866
X166.268Y-42.037
X167.64Y-71.12
X167.64Y-78.74
X167.64Y-81.28
X167.64Y-83.82
X167.64Y-86.36
X167.64Y-96.52
X167.894Y-44.145
X167.894Y-45.669
X167.919Y-42.57
X167.919Y-47.117
X167.945Y-40.919
X170.18Y-76.2
X170.18Y-78.74
X170.18Y-81.28
X177.8Y-129.54
X180.34Y-129.54
X181.204Y-49.2
X181.254Y-50.622
X181.254Y-52.019
X181.28Y-53.467
X182.88Y-40.64
X182.88Y-43.18
X182.88Y-45.72
X182.88Y-68.58
X182.88Y-101.6
X182.88Y-129.54
X183.312Y-49.2
X183.388Y-50.749
X183.388Y-53.594
X183.439Y-52.299
X185.141Y-51.003
X185.166Y-52.502
X185.191Y-49.352
X185.191Y-53.721
X185.42Y-40.64
X185.42Y-43.18
X185.42Y-45.72
X185.42Y-66.04
X185.42Y-68.58
X185.42Y-101.6
X185.42Y-129.54
X187.96Y-40.64
X187.96Y-43.18
X187.96Y-45.72
X187.96Y-101.6
X187.96Y-119.38
X187.96Y-121.92
X190.5Y-40.64
X190.5Y-43.18
X190.5Y-45.72
X190.5Y-48.26
X190.5Y-68.58
X190.5Y-71.12
X190.5Y-91.44
X190.5Y-101.6
X190.5Y-119.38
X190.5Y-121.92
X193.04Y-40.64
X193.04Y-43.18
X193.04Y-45.72
X193.04Y-48.26
X193.04Y-63.5
X193.04Y-68.58
X193.04Y-71.12
X193.04Y-99.06
X193.04Y-101.6
X193.04Y-119.38
X193.04Y-121.92
X193.04Y-129.54
X195.58Y-48.26
X195.58Y-50.8
X195.58Y-53.34
X195.58Y-55.88
X195.58Y-58.42
X195.58Y-60.96
X195.58Y-63.5
X195.58Y-68.58
X195.58Y-71.12
X195.58Y-96.52
X195.58Y-99.06
X195.58Y-101.6
X195.58Y-127.0
X195.58Y-129.54
X198.12Y-48.26
X198.12Y-50.8
X198.12Y-60.96
X198.12Y-63.5
X198.12Y-68.58
X200.66Y-48.26
X200.66Y-50.8
X200.66Y-60.96
X200.66Y-63.5
X200.66Y-66.04
X200.66Y-68.58
T3
X115.418Y-60.681
X115.748Y-62.433
X135.712Y-76.225
X137.135Y-76.581
X150.19Y-53.823
X152.095Y-53.899
X169.012Y-91.694
X170.002Y-96.215
X170.536Y-91.643
X171.272Y-124.739
X171.298Y-95.25
X189.687Y-108.915
X189.687Y-110.338
X191.44Y-78.359
X191.465Y-79.985
T4
X133.274Y-121.031
X133.274Y-128.651
X135.814Y-121.031
X135.814Y-128.651
X138.354Y-121.031
X138.354Y-128.651
X140.894Y-121.031
X140.894Y-128.651
X143.434Y-121.031
X143.434Y-128.651
T5
X127.914Y-40.792
X130.454Y-40.792
X157.47Y-103.912
X160.01Y-103.912
X161.32Y-118.135
X162.55Y-103.912
X163.86Y-118.135
X200.406Y-54.737
X200.406Y-57.277
T6
X117.867Y-83.357
X117.867Y-95.357
X117.905Y-53.614
X117.905Y-65.614
X130.067Y-83.357
X130.067Y-95.357
X130.105Y-53.614
X130.105Y-65.614
X132.067Y-89.357
X132.105Y-59.614
X174.447Y-110.007
X175.108Y-79.959
X176.447Y-104.007
X176.447Y-116.007
X177.108Y-73.959
X177.108Y-85.959
X188.647Y-104.007
X188.647Y-116.007
X189.308Y-73.959
X189.308Y-85.959
T7
X106.96Y-87.401
X106.96Y-92.481
X106.972Y-57.125
X106.972Y-62.205
X106.972Y-67.285
X106.972Y-72.365
X106.972Y-77.445
X140.169Y-40.615
X145.249Y-40.615
X152.705Y-128.245
X157.785Y-128.245
X199.111Y-74.32
X199.111Y-79.4
X199.111Y-84.48
X199.111Y-89.56
X199.111Y-94.64
X199.251Y-105.359
X199.251Y-110.439
X199.251Y-115.519
X199.251Y-120.599
X199.251Y-125.679
T0
M30
