G04 #@! TF.GenerationSoftware,KiCad,Pcbnew,7.0.9*
G04 #@! TF.CreationDate,2023-12-12T15:15:29-05:00*
G04 #@! TF.ProjectId,Cabina,43616269-6e61-42e6-9b69-6361645f7063,rev?*
G04 #@! TF.SameCoordinates,Original*
G04 #@! TF.FileFunction,Copper,L3,Inr*
G04 #@! TF.FilePolarity,Positive*
%FSLAX46Y46*%
G04 Gerber Fmt 4.6, Leading zero omitted, Abs format (unit mm)*
G04 Created by KiCad (PCBNEW 7.0.9) date 2023-12-12 15:15:29*
%MOMM*%
%LPD*%
G01*
G04 APERTURE LIST*
G04 Aperture macros list*
%AMRoundRect*
0 Rectangle with rounded corners*
0 $1 Rounding radius*
0 $2 $3 $4 $5 $6 $7 $8 $9 X,Y pos of 4 corners*
0 Add a 4 corners polygon primitive as box body*
4,1,4,$2,$3,$4,$5,$6,$7,$8,$9,$2,$3,0*
0 Add four circle primitives for the rounded corners*
1,1,$1+$1,$2,$3*
1,1,$1+$1,$4,$5*
1,1,$1+$1,$6,$7*
1,1,$1+$1,$8,$9*
0 Add four rect primitives between the rounded corners*
20,1,$1+$1,$2,$3,$4,$5,0*
20,1,$1+$1,$4,$5,$6,$7,0*
20,1,$1+$1,$6,$7,$8,$9,0*
20,1,$1+$1,$8,$9,$2,$3,0*%
G04 Aperture macros list end*
G04 #@! TA.AperFunction,ComponentPad*
%ADD10RoundRect,0.249999X-1.550001X0.790001X-1.550001X-0.790001X1.550001X-0.790001X1.550001X0.790001X0*%
G04 #@! TD*
G04 #@! TA.AperFunction,ComponentPad*
%ADD11O,3.600000X2.080000*%
G04 #@! TD*
G04 #@! TA.AperFunction,ComponentPad*
%ADD12C,3.000000*%
G04 #@! TD*
G04 #@! TA.AperFunction,ComponentPad*
%ADD13R,1.700000X1.700000*%
G04 #@! TD*
G04 #@! TA.AperFunction,ComponentPad*
%ADD14O,1.700000X1.700000*%
G04 #@! TD*
G04 #@! TA.AperFunction,ComponentPad*
%ADD15RoundRect,0.249999X1.550001X-0.790001X1.550001X0.790001X-1.550001X0.790001X-1.550001X-0.790001X0*%
G04 #@! TD*
G04 #@! TA.AperFunction,ComponentPad*
%ADD16RoundRect,0.249999X0.790001X1.550001X-0.790001X1.550001X-0.790001X-1.550001X0.790001X-1.550001X0*%
G04 #@! TD*
G04 #@! TA.AperFunction,ComponentPad*
%ADD17O,2.080000X3.600000*%
G04 #@! TD*
G04 #@! TA.AperFunction,ComponentPad*
%ADD18RoundRect,0.249999X-0.790001X-1.550001X0.790001X-1.550001X0.790001X1.550001X-0.790001X1.550001X0*%
G04 #@! TD*
G04 #@! TA.AperFunction,ComponentPad*
%ADD19R,1.600000X1.600000*%
G04 #@! TD*
G04 #@! TA.AperFunction,ComponentPad*
%ADD20O,1.600000X1.600000*%
G04 #@! TD*
G04 #@! TA.AperFunction,ViaPad*
%ADD21C,1.000000*%
G04 #@! TD*
G04 #@! TA.AperFunction,ViaPad*
%ADD22C,0.800000*%
G04 #@! TD*
G04 #@! TA.AperFunction,ViaPad*
%ADD23C,0.700000*%
G04 #@! TD*
G04 APERTURE END LIST*
D10*
X106960200Y-87401400D03*
D11*
X106960200Y-92481400D03*
D12*
X136398000Y-60274200D03*
X134398000Y-54274200D03*
X122198000Y-54274200D03*
X122198000Y-66274200D03*
X134398000Y-66274200D03*
D13*
X200406000Y-54737000D03*
D14*
X200406000Y-57277000D03*
D13*
X130454400Y-40792400D03*
D14*
X127914400Y-40792400D03*
D13*
X157469600Y-103911800D03*
D14*
X160009600Y-103911800D03*
X162549600Y-103911800D03*
D15*
X199250800Y-125679200D03*
D11*
X199250800Y-120599200D03*
X199250800Y-115519200D03*
X199250800Y-110439200D03*
X199250800Y-105359200D03*
D16*
X145249400Y-40614600D03*
D17*
X140169400Y-40614600D03*
D18*
X152704800Y-128244600D03*
D17*
X157784800Y-128244600D03*
D12*
X132066800Y-89357200D03*
X130066800Y-83357200D03*
X117866800Y-83357200D03*
X117866800Y-95357200D03*
X130066800Y-95357200D03*
D15*
X199110600Y-94640400D03*
D11*
X199110600Y-89560400D03*
X199110600Y-84480400D03*
X199110600Y-79400400D03*
X199110600Y-74320400D03*
D12*
X170359600Y-109982000D03*
X172359600Y-115982000D03*
X184559600Y-115982000D03*
X184559600Y-103982000D03*
X172359600Y-103982000D03*
D13*
X163860400Y-118135400D03*
D14*
X161320400Y-118135400D03*
D10*
X106971600Y-57124600D03*
D11*
X106971600Y-62204600D03*
X106971600Y-67284600D03*
X106971600Y-72364600D03*
X106971600Y-77444600D03*
D19*
X133273800Y-128651000D03*
D20*
X135813800Y-128651000D03*
X138353800Y-128651000D03*
X140893800Y-128651000D03*
X143433800Y-128651000D03*
X143433800Y-121031000D03*
X140893800Y-121031000D03*
X138353800Y-121031000D03*
X135813800Y-121031000D03*
X133273800Y-121031000D03*
D12*
X169468800Y-80162400D03*
X171468800Y-86162400D03*
X183668800Y-86162400D03*
X183668800Y-74162400D03*
X171468800Y-74162400D03*
D21*
X142062200Y-57175400D03*
X150190200Y-53822600D03*
X185597800Y-111531400D03*
X190754000Y-88366600D03*
D22*
X193040000Y-68580000D03*
X127000000Y-106680000D03*
D23*
X179146200Y-39852600D03*
D22*
X157480000Y-40640000D03*
X147320000Y-45720000D03*
X160020000Y-96520000D03*
X200660000Y-68580000D03*
D23*
X140462000Y-102768400D03*
D22*
X111760000Y-48260000D03*
X144780000Y-96520000D03*
X139700000Y-66040000D03*
D23*
X123113800Y-110744000D03*
D22*
X154940000Y-43180000D03*
X187960000Y-45720000D03*
X157480000Y-96520000D03*
X152400000Y-45720000D03*
X154940000Y-71120000D03*
X106680000Y-101600000D03*
X128600200Y-115595400D03*
X142240000Y-78740000D03*
X134620000Y-99060000D03*
X160020000Y-91440000D03*
X147320000Y-60960000D03*
D23*
X138577800Y-95698500D03*
X179146200Y-45694600D03*
X173786800Y-90703400D03*
D22*
X129540000Y-50800000D03*
D23*
X198551800Y-66040000D03*
X111339600Y-64541400D03*
D21*
X191541400Y-89966800D03*
D22*
X144780000Y-76200000D03*
X160020000Y-68580000D03*
X152400000Y-58420000D03*
X164693600Y-69926200D03*
D23*
X169951400Y-45694600D03*
X141452600Y-110159800D03*
D22*
X144780000Y-83820000D03*
X116840000Y-50800000D03*
X165100000Y-96520000D03*
X116840000Y-43180000D03*
X164668200Y-42164000D03*
X111760000Y-111760000D03*
X139700000Y-68580000D03*
X183311800Y-49199800D03*
X193040000Y-40640000D03*
X154940000Y-58420000D03*
X166116000Y-45897800D03*
X193040000Y-71120000D03*
X154940000Y-63500000D03*
X137160000Y-88900000D03*
D23*
X158126200Y-123686800D03*
D21*
X142671800Y-59740800D03*
D22*
X139700000Y-71120000D03*
X198120000Y-50800000D03*
X111760000Y-106680000D03*
X109220000Y-48260000D03*
X106680000Y-99060000D03*
X152400000Y-71120000D03*
X195580000Y-48260000D03*
X114300000Y-48260000D03*
D23*
X173685200Y-97155000D03*
D22*
X149860000Y-93980000D03*
X111760000Y-121920000D03*
X164592000Y-43865800D03*
D23*
X170332400Y-126009400D03*
D22*
X160020000Y-83820000D03*
D23*
X121996200Y-109829600D03*
D22*
X124460000Y-45720000D03*
D23*
X139395200Y-110515400D03*
D22*
X198120000Y-68580000D03*
X152400000Y-73660000D03*
X121920000Y-50800000D03*
X111760000Y-53340000D03*
X149860000Y-88900000D03*
X185420000Y-129540000D03*
X144780000Y-88900000D03*
D23*
X194894200Y-112369600D03*
D22*
X181254400Y-50622200D03*
D23*
X179146200Y-47853600D03*
D22*
X165100000Y-83820000D03*
X124460000Y-106680000D03*
X195580000Y-71120000D03*
D23*
X150469600Y-122707400D03*
D22*
X127000000Y-78740000D03*
X195580000Y-127000000D03*
X147320000Y-129540000D03*
X154940000Y-45720000D03*
X147320000Y-71120000D03*
D23*
X171069000Y-99288600D03*
D22*
X162560000Y-83820000D03*
D23*
X175742600Y-91795600D03*
D22*
X181203600Y-49199800D03*
D23*
X174523400Y-39852600D03*
D22*
X144780000Y-63500000D03*
X139700000Y-78740000D03*
X154940000Y-48260000D03*
X157480000Y-91440000D03*
X193040000Y-129540000D03*
X137160000Y-99060000D03*
X167894000Y-45669200D03*
X157480000Y-78740000D03*
D23*
X141452600Y-105664000D03*
D22*
X137160000Y-83820000D03*
D23*
X179146200Y-41808400D03*
D22*
X119380000Y-48260000D03*
D23*
X136779000Y-79248000D03*
D22*
X162560000Y-71120000D03*
X185191400Y-53721000D03*
X185140600Y-51003200D03*
X116840000Y-55880000D03*
X193040000Y-48260000D03*
X152400000Y-63500000D03*
X121920000Y-48260000D03*
X134620000Y-96520000D03*
X134620000Y-43180000D03*
X200660000Y-60960000D03*
X119380000Y-45720000D03*
X132080000Y-109220000D03*
X182880000Y-68580000D03*
X190500000Y-76200000D03*
X195580000Y-63500000D03*
D23*
X169951400Y-41808400D03*
D22*
X166268400Y-42037000D03*
X154940000Y-68580000D03*
D23*
X108254800Y-113131600D03*
D22*
X165100000Y-91440000D03*
X160020000Y-40640000D03*
X160020000Y-73660000D03*
X132080000Y-50800000D03*
X147320000Y-68580000D03*
X185420000Y-68580000D03*
X116840000Y-40640000D03*
X193040000Y-43180000D03*
X111760000Y-58420000D03*
X147320000Y-127000000D03*
X111760000Y-119380000D03*
X109220000Y-106680000D03*
X154940000Y-78740000D03*
X154940000Y-91440000D03*
X114300000Y-101600000D03*
X157480000Y-58420000D03*
X165100000Y-86360000D03*
X193040000Y-76200000D03*
X154940000Y-60960000D03*
X144780000Y-68580000D03*
X198120000Y-63500000D03*
D23*
X160020000Y-101574600D03*
D22*
X200660000Y-50800000D03*
X121920000Y-106680000D03*
X157480000Y-63500000D03*
D23*
X169951400Y-47853600D03*
D22*
X109220000Y-111760000D03*
X165100000Y-58420000D03*
X144780000Y-91440000D03*
X152400000Y-68580000D03*
X149906462Y-45713428D03*
X106680000Y-48260000D03*
X152400000Y-43180000D03*
X162560000Y-58420000D03*
X114300000Y-99060000D03*
X200660000Y-48260000D03*
X162560000Y-78740000D03*
X190500000Y-40640000D03*
X160020000Y-60960000D03*
X160020000Y-114300000D03*
D23*
X185674000Y-120675400D03*
D22*
X165100000Y-76200000D03*
X121920000Y-45720000D03*
X183388000Y-53594000D03*
D23*
X176911000Y-39852600D03*
D22*
X147320000Y-53340000D03*
X177800000Y-129540000D03*
X120116600Y-71399400D03*
X152400000Y-88900000D03*
D23*
X194741800Y-81991200D03*
D22*
X152400000Y-66040000D03*
X114300000Y-53340000D03*
X114300000Y-55880000D03*
X114300000Y-45720000D03*
X127000000Y-50800000D03*
X116840000Y-48260000D03*
X106680000Y-43180000D03*
X185420000Y-43180000D03*
D23*
X127127000Y-101371400D03*
D22*
X124460000Y-50800000D03*
D23*
X155067000Y-111379000D03*
X155651200Y-115595400D03*
D22*
X127000000Y-109220000D03*
D23*
X139623800Y-52755800D03*
D22*
X200660000Y-63500000D03*
X162560000Y-81280000D03*
X185420000Y-66040000D03*
D23*
X119126000Y-109118400D03*
X169951400Y-39852600D03*
D22*
X106680000Y-104140000D03*
X114300000Y-50800000D03*
D21*
X152095200Y-53898800D03*
D22*
X134620000Y-93980000D03*
D23*
X147116800Y-110769400D03*
D22*
X160020000Y-86360000D03*
X185420000Y-40640000D03*
X166243000Y-43865800D03*
X142240000Y-83820000D03*
D21*
X168605200Y-92176600D03*
D22*
X137160000Y-50800000D03*
X149860000Y-43180000D03*
X109220000Y-99060000D03*
D21*
X142087600Y-55676800D03*
D23*
X109880400Y-92557600D03*
D21*
X170002200Y-96215200D03*
D22*
X162560000Y-86360000D03*
X106680000Y-40640000D03*
X139700000Y-76200000D03*
X160020000Y-66040000D03*
D23*
X189433200Y-92557600D03*
X150469600Y-113004600D03*
D22*
X111760000Y-50800000D03*
X124460000Y-109220000D03*
X157480000Y-73660000D03*
X144780000Y-99060000D03*
X109220000Y-104140000D03*
X137160000Y-86360000D03*
X142240000Y-86360000D03*
X106680000Y-45720000D03*
X154940000Y-55880000D03*
D23*
X174574200Y-47853600D03*
D22*
X154940000Y-83820000D03*
X183388000Y-50749200D03*
X190500000Y-45720000D03*
D23*
X144145000Y-43256200D03*
X131775200Y-72059800D03*
X120573800Y-109499400D03*
D22*
X182880000Y-43180000D03*
X160020000Y-71120000D03*
X157480000Y-83820000D03*
X160020000Y-63500000D03*
X134620000Y-111760000D03*
X165100000Y-81280000D03*
D23*
X145948400Y-107365800D03*
D22*
X187960000Y-43180000D03*
D23*
X145161000Y-43307000D03*
D22*
X134620000Y-40640000D03*
X167919400Y-47117000D03*
D23*
X169951400Y-43713400D03*
D22*
X144780000Y-66040000D03*
X154940000Y-96520000D03*
X157480000Y-86360000D03*
X157480000Y-55880000D03*
D23*
X178079400Y-74422000D03*
D22*
X139700000Y-83820000D03*
X160020000Y-78740000D03*
D23*
X176733200Y-47853600D03*
D22*
X195580000Y-55880000D03*
X144780000Y-86360000D03*
X152400000Y-81280000D03*
X193040000Y-45720000D03*
D23*
X147193000Y-122859800D03*
D22*
X182880000Y-40640000D03*
X109220000Y-119380000D03*
X157480000Y-81280000D03*
D21*
X137109200Y-77165200D03*
D22*
X185191400Y-49352200D03*
X152400000Y-40640000D03*
D23*
X171983400Y-47853600D03*
D22*
X167640000Y-96520000D03*
X187960000Y-40640000D03*
X195580000Y-60960000D03*
X129540000Y-99060000D03*
X147320000Y-66040000D03*
X149860000Y-91440000D03*
X180340000Y-129540000D03*
X111760000Y-114300000D03*
X195580000Y-50800000D03*
D23*
X125120400Y-116408200D03*
D22*
X132080000Y-99060000D03*
X157480000Y-71120000D03*
D21*
X186334400Y-109829600D03*
D22*
X181279800Y-53467000D03*
X109220000Y-114300000D03*
X195580000Y-58420000D03*
X149860000Y-40640000D03*
X190500000Y-43180000D03*
X154940000Y-40640000D03*
D23*
X135686800Y-108127800D03*
D22*
X193040000Y-63500000D03*
X139700000Y-63500000D03*
X167919400Y-42570400D03*
D23*
X146532600Y-97866200D03*
D22*
X134620000Y-50800000D03*
X109220000Y-50800000D03*
X157480000Y-60960000D03*
X181254400Y-52019200D03*
D23*
X173075600Y-119456200D03*
D22*
X167944800Y-40919400D03*
X183438800Y-52298600D03*
X154940000Y-81280000D03*
X167894000Y-44145200D03*
X185166000Y-52501800D03*
X116840000Y-45720000D03*
D23*
X179146200Y-43713400D03*
D22*
X185420000Y-45720000D03*
X144780000Y-93980000D03*
X144780000Y-60960000D03*
X198120000Y-60960000D03*
D23*
X139979400Y-88265000D03*
D22*
X106680000Y-106680000D03*
X160020000Y-58420000D03*
X132080000Y-106680000D03*
X182880000Y-45720000D03*
X124460000Y-48260000D03*
X132080000Y-111760000D03*
X114300000Y-121920000D03*
X157480000Y-66040000D03*
D23*
X151028400Y-107950000D03*
D22*
X162560000Y-96520000D03*
X195580000Y-129540000D03*
X116840000Y-106680000D03*
X111760000Y-55880000D03*
X129540000Y-78740000D03*
X127000000Y-111760000D03*
X157480000Y-68580000D03*
X149860000Y-86360000D03*
X119380000Y-106680000D03*
X152400000Y-91440000D03*
X162560000Y-40640000D03*
X152400000Y-60960000D03*
X165100000Y-78740000D03*
X162560000Y-91440000D03*
X147320000Y-58420000D03*
X152400000Y-96520000D03*
X147320000Y-78740000D03*
X182880000Y-129540000D03*
X127000000Y-116840000D03*
X116840000Y-53340000D03*
X152400000Y-78740000D03*
X127000000Y-48260000D03*
X119380000Y-50800000D03*
D23*
X123291600Y-43891200D03*
D22*
X106680000Y-121920000D03*
X152400000Y-55880000D03*
X200660000Y-66040000D03*
X106680000Y-50800000D03*
X160020000Y-81280000D03*
X190500000Y-48260000D03*
X198120000Y-48260000D03*
X147320000Y-63500000D03*
X195580000Y-68580000D03*
X154940000Y-73660000D03*
X190500000Y-68580000D03*
X142240000Y-73660000D03*
X109220000Y-101600000D03*
X190500000Y-71120000D03*
X160020000Y-55880000D03*
X154940000Y-66040000D03*
X164515800Y-45466000D03*
D23*
X171958000Y-39852600D03*
D22*
X137160000Y-93980000D03*
X195580000Y-53340000D03*
X139700000Y-86360000D03*
D23*
X153238200Y-104876600D03*
X133019800Y-105105200D03*
X176987200Y-74396600D03*
X112166400Y-104902000D03*
X155117800Y-112623600D03*
D21*
X141325600Y-60706000D03*
D23*
X177114200Y-91795600D03*
X124485400Y-74777600D03*
D22*
X118999000Y-72136000D03*
D23*
X147345400Y-124409200D03*
X154305000Y-104749600D03*
X140436600Y-101752400D03*
X124993400Y-117906800D03*
X141528800Y-99187000D03*
X145846800Y-110083600D03*
D21*
X170535600Y-91643200D03*
X171297600Y-95250000D03*
X135712200Y-76225400D03*
X171272200Y-124739400D03*
D23*
X171096300Y-100328100D03*
X147878800Y-111429800D03*
X129794000Y-115214400D03*
X135966200Y-98094800D03*
G04 #@! TA.AperFunction,Conductor*
G36*
X139299165Y-38446662D02*
G01*
X139353703Y-38501200D01*
X139373665Y-38575700D01*
X139353703Y-38650200D01*
X139316182Y-38693282D01*
X139190436Y-38791152D01*
X139190433Y-38791155D01*
X139028751Y-38966789D01*
X139028749Y-38966791D01*
X139028747Y-38966794D01*
X138997844Y-39014095D01*
X138898174Y-39166650D01*
X138802281Y-39385264D01*
X138743676Y-39616693D01*
X138736334Y-39705300D01*
X138728900Y-39795020D01*
X138728900Y-41434180D01*
X138730635Y-41455117D01*
X138743676Y-41612506D01*
X138802281Y-41843935D01*
X138898174Y-42062549D01*
X138898176Y-42062552D01*
X139028747Y-42262406D01*
X139187366Y-42434712D01*
X139190433Y-42438044D01*
X139190436Y-42438047D01*
X139253494Y-42487126D01*
X139378821Y-42584671D01*
X139588775Y-42698293D01*
X139777945Y-42763235D01*
X139814566Y-42775807D01*
X139814570Y-42775808D01*
X139873329Y-42785612D01*
X140050037Y-42815100D01*
X140050039Y-42815100D01*
X140288761Y-42815100D01*
X140288763Y-42815100D01*
X140494957Y-42780692D01*
X140524229Y-42775808D01*
X140524230Y-42775807D01*
X140524234Y-42775807D01*
X140750025Y-42698293D01*
X140959979Y-42584671D01*
X141148368Y-42438043D01*
X141310053Y-42262406D01*
X141440624Y-42062552D01*
X141536519Y-41843933D01*
X141595123Y-41612511D01*
X141609900Y-41434180D01*
X141609900Y-39795020D01*
X141595123Y-39616689D01*
X141536519Y-39385267D01*
X141440624Y-39166648D01*
X141310053Y-38966794D01*
X141148368Y-38791157D01*
X141148367Y-38791156D01*
X141148366Y-38791155D01*
X141148363Y-38791152D01*
X141022618Y-38693282D01*
X140976088Y-38631771D01*
X140966547Y-38555235D01*
X140996553Y-38484183D01*
X141058064Y-38437653D01*
X141114135Y-38426700D01*
X143695299Y-38426700D01*
X143769799Y-38446662D01*
X143824337Y-38501200D01*
X143844299Y-38575700D01*
X143824337Y-38650200D01*
X143822116Y-38653921D01*
X143767742Y-38742074D01*
X143712006Y-38910274D01*
X143701400Y-39014095D01*
X143701400Y-40360600D01*
X144592157Y-40360600D01*
X144590082Y-40364554D01*
X144549400Y-40529605D01*
X144549400Y-40699595D01*
X144590082Y-40864646D01*
X144592157Y-40868600D01*
X143701401Y-40868600D01*
X143701401Y-42215103D01*
X143712006Y-42318925D01*
X143767742Y-42487126D01*
X143860764Y-42637937D01*
X143986062Y-42763235D01*
X144136873Y-42856257D01*
X144305074Y-42911993D01*
X144408895Y-42922599D01*
X144995400Y-42922599D01*
X144995400Y-41266920D01*
X145080649Y-41299251D01*
X145207060Y-41314600D01*
X145291740Y-41314600D01*
X145418151Y-41299251D01*
X145503400Y-41266920D01*
X145503400Y-42922599D01*
X146089904Y-42922599D01*
X146193725Y-42911993D01*
X146361926Y-42856257D01*
X146512737Y-42763235D01*
X146638035Y-42637937D01*
X146731057Y-42487126D01*
X146786793Y-42318925D01*
X146797400Y-42215104D01*
X146797400Y-40868600D01*
X145906643Y-40868600D01*
X145908718Y-40864646D01*
X145949400Y-40699595D01*
X145949400Y-40529605D01*
X145908718Y-40364554D01*
X145906643Y-40360600D01*
X146797399Y-40360600D01*
X146797399Y-39014096D01*
X146786793Y-38910274D01*
X146731057Y-38742074D01*
X146676684Y-38653921D01*
X146654564Y-38580033D01*
X146672351Y-38504984D01*
X146725280Y-38448883D01*
X146799168Y-38426763D01*
X146803501Y-38426700D01*
X202507900Y-38426700D01*
X202582400Y-38446662D01*
X202636938Y-38501200D01*
X202656900Y-38575700D01*
X202656900Y-130181900D01*
X202636938Y-130256400D01*
X202582400Y-130310938D01*
X202507900Y-130330900D01*
X158860072Y-130330900D01*
X158785572Y-130310938D01*
X158731034Y-130256400D01*
X158711072Y-130181900D01*
X158731034Y-130107400D01*
X158760478Y-130073572D01*
X158759232Y-130072219D01*
X158763762Y-130068047D01*
X158763768Y-130068043D01*
X158925453Y-129892406D01*
X159056024Y-129692552D01*
X159151919Y-129473933D01*
X159210523Y-129242511D01*
X159225300Y-129064180D01*
X159225300Y-127425020D01*
X159210523Y-127246689D01*
X159151919Y-127015267D01*
X159147709Y-127005670D01*
X159056025Y-126796650D01*
X159018625Y-126739405D01*
X187681287Y-126739405D01*
X187711711Y-127015911D01*
X187711714Y-127015925D01*
X187775974Y-127261723D01*
X187782080Y-127285076D01*
X187890884Y-127541114D01*
X187890886Y-127541118D01*
X187890889Y-127541123D01*
X188035807Y-127778581D01*
X188035810Y-127778585D01*
X188213755Y-127992409D01*
X188213767Y-127992421D01*
X188420949Y-128178056D01*
X188420957Y-128178063D01*
X188652973Y-128331563D01*
X188904867Y-128449646D01*
X189171269Y-128529795D01*
X189446501Y-128570300D01*
X189446508Y-128570300D01*
X189655061Y-128570300D01*
X189655063Y-128570300D01*
X189863055Y-128555077D01*
X190134597Y-128494588D01*
X190134603Y-128494585D01*
X190134609Y-128494584D01*
X190394435Y-128395209D01*
X190394433Y-128395209D01*
X190394438Y-128395208D01*
X190637040Y-128259053D01*
X190857232Y-128089026D01*
X191050322Y-127888751D01*
X191212193Y-127662496D01*
X191339397Y-127415083D01*
X191429221Y-127151786D01*
X191479752Y-126878216D01*
X191489913Y-126600204D01*
X191486785Y-126571772D01*
X191459488Y-126323688D01*
X191459486Y-126323681D01*
X191459486Y-126323676D01*
X191389120Y-126054524D01*
X191280316Y-125798486D01*
X191280310Y-125798476D01*
X191135392Y-125561018D01*
X191135389Y-125561014D01*
X190957444Y-125347190D01*
X190957432Y-125347178D01*
X190750250Y-125161543D01*
X190750247Y-125161541D01*
X190750243Y-125161537D01*
X190518227Y-125008037D01*
X190266332Y-124889953D01*
X190116953Y-124845012D01*
X190045477Y-124823508D01*
X197050300Y-124823508D01*
X197050301Y-126534889D01*
X197053201Y-126571765D01*
X197053201Y-126571768D01*
X197053202Y-126571770D01*
X197069802Y-126628906D01*
X197099056Y-126729599D01*
X197182716Y-126871061D01*
X197182717Y-126871062D01*
X197182719Y-126871065D01*
X197298935Y-126987281D01*
X197440401Y-127070944D01*
X197598230Y-127116798D01*
X197635105Y-127119700D01*
X200866494Y-127119699D01*
X200903370Y-127116798D01*
X201061199Y-127070944D01*
X201202665Y-126987281D01*
X201318881Y-126871065D01*
X201402544Y-126729599D01*
X201448398Y-126571770D01*
X201451300Y-126534895D01*
X201451299Y-124823506D01*
X201448398Y-124786630D01*
X201402544Y-124628801D01*
X201344352Y-124530404D01*
X201318883Y-124487338D01*
X201318882Y-124487337D01*
X201318881Y-124487335D01*
X201202665Y-124371119D01*
X201202662Y-124371117D01*
X201202661Y-124371116D01*
X201061199Y-124287456D01*
X200903372Y-124241602D01*
X200891078Y-124240634D01*
X200866495Y-124238700D01*
X200866491Y-124238700D01*
X199430322Y-124238700D01*
X197635106Y-124238701D01*
X197621663Y-124239758D01*
X197598234Y-124241601D01*
X197598230Y-124241602D01*
X197440400Y-124287456D01*
X197298938Y-124371116D01*
X197182716Y-124487338D01*
X197099056Y-124628800D01*
X197053202Y-124786627D01*
X197050300Y-124823508D01*
X190045477Y-124823508D01*
X189999931Y-124809805D01*
X189999925Y-124809804D01*
X189724708Y-124769301D01*
X189724704Y-124769300D01*
X189724699Y-124769300D01*
X189516137Y-124769300D01*
X189308145Y-124784523D01*
X189308137Y-124784524D01*
X189036605Y-124845011D01*
X189036590Y-124845015D01*
X188776764Y-124944390D01*
X188776758Y-124944393D01*
X188534161Y-125080545D01*
X188313969Y-125250572D01*
X188313964Y-125250577D01*
X188120877Y-125450849D01*
X187959007Y-125677102D01*
X187831805Y-125924512D01*
X187741979Y-126187812D01*
X187741977Y-126187821D01*
X187691448Y-126461377D01*
X187691448Y-126461384D01*
X187681393Y-126736511D01*
X187681287Y-126739405D01*
X159018625Y-126739405D01*
X159018619Y-126739396D01*
X158925453Y-126596794D01*
X158763768Y-126421157D01*
X158763767Y-126421156D01*
X158763766Y-126421155D01*
X158763763Y-126421152D01*
X158575383Y-126274532D01*
X158575377Y-126274528D01*
X158415144Y-126187814D01*
X158365425Y-126160907D01*
X158139633Y-126083392D01*
X158139629Y-126083391D01*
X157933649Y-126049020D01*
X157904163Y-126044100D01*
X157665437Y-126044100D01*
X157429970Y-126083391D01*
X157429966Y-126083392D01*
X157204174Y-126160907D01*
X156994222Y-126274528D01*
X156994216Y-126274532D01*
X156805836Y-126421152D01*
X156805833Y-126421155D01*
X156644151Y-126596789D01*
X156644149Y-126596791D01*
X156644147Y-126596794D01*
X156623166Y-126628908D01*
X156513574Y-126796650D01*
X156417681Y-127015264D01*
X156359076Y-127246693D01*
X156355896Y-127285076D01*
X156345124Y-127415083D01*
X156344300Y-127425025D01*
X156344300Y-129064175D01*
X156359076Y-129242506D01*
X156417681Y-129473935D01*
X156513574Y-129692549D01*
X156513576Y-129692552D01*
X156644147Y-129892406D01*
X156793824Y-130054999D01*
X156805833Y-130068044D01*
X156810368Y-130072219D01*
X156808541Y-130074203D01*
X156847607Y-130125906D01*
X156857104Y-130202447D01*
X156827059Y-130273483D01*
X156765522Y-130319979D01*
X156709528Y-130330900D01*
X154194601Y-130330900D01*
X154120101Y-130310938D01*
X154065563Y-130256400D01*
X154045601Y-130181900D01*
X154065563Y-130107400D01*
X154066351Y-130106052D01*
X154096544Y-130054999D01*
X154142398Y-129897170D01*
X154145300Y-129860295D01*
X154145299Y-126628906D01*
X154142398Y-126592030D01*
X154096544Y-126434201D01*
X154012881Y-126292735D01*
X153896665Y-126176519D01*
X153896662Y-126176517D01*
X153896661Y-126176516D01*
X153755199Y-126092856D01*
X153597372Y-126047002D01*
X153585078Y-126046034D01*
X153560495Y-126044100D01*
X153560491Y-126044100D01*
X152799877Y-126044100D01*
X151849106Y-126044101D01*
X151835663Y-126045158D01*
X151812234Y-126047001D01*
X151812230Y-126047002D01*
X151654400Y-126092856D01*
X151512938Y-126176516D01*
X151396716Y-126292738D01*
X151313056Y-126434200D01*
X151267202Y-126592027D01*
X151264300Y-126628908D01*
X151264301Y-129860289D01*
X151267201Y-129897165D01*
X151267201Y-129897168D01*
X151267202Y-129897170D01*
X151313056Y-130054999D01*
X151343249Y-130106052D01*
X151363991Y-130180339D01*
X151344810Y-130255044D01*
X151290847Y-130310150D01*
X151216560Y-130330892D01*
X151214999Y-130330900D01*
X103840500Y-130330900D01*
X103766000Y-130310938D01*
X103711462Y-130256400D01*
X103691500Y-130181900D01*
X103691500Y-129482518D01*
X132073300Y-129482518D01*
X132088154Y-129576304D01*
X132145750Y-129689342D01*
X132235458Y-129779050D01*
X132348496Y-129836646D01*
X132442281Y-129851500D01*
X134105318Y-129851499D01*
X134199104Y-129836646D01*
X134312142Y-129779050D01*
X134401850Y-129689342D01*
X134459446Y-129576304D01*
X134474300Y-129482519D01*
X134474299Y-129287711D01*
X134494261Y-129213215D01*
X134548798Y-129158677D01*
X134623298Y-129138714D01*
X134697798Y-129158676D01*
X134752336Y-129213213D01*
X134756678Y-129221298D01*
X134788740Y-129285687D01*
X134922819Y-129463236D01*
X135087238Y-129613124D01*
X135276399Y-129730247D01*
X135276401Y-129730247D01*
X135276403Y-129730249D01*
X135276405Y-129730250D01*
X135466163Y-129803762D01*
X135483860Y-129810618D01*
X135702557Y-129851500D01*
X135702559Y-129851500D01*
X135925041Y-129851500D01*
X135925043Y-129851500D01*
X136143740Y-129810618D01*
X136270249Y-129761607D01*
X136351194Y-129730250D01*
X136351196Y-129730249D01*
X136351196Y-129730248D01*
X136351201Y-129730247D01*
X136540362Y-129613124D01*
X136704781Y-129463236D01*
X136838858Y-129285689D01*
X136938029Y-129086528D01*
X136940488Y-129077887D01*
X136980075Y-129011694D01*
X137047456Y-128974163D01*
X137124575Y-128975350D01*
X137190768Y-129014937D01*
X137227112Y-129077887D01*
X137229570Y-129086528D01*
X137328739Y-129285685D01*
X137328741Y-129285687D01*
X137328742Y-129285689D01*
X137462819Y-129463236D01*
X137627238Y-129613124D01*
X137816399Y-129730247D01*
X137816401Y-129730247D01*
X137816403Y-129730249D01*
X137816405Y-129730250D01*
X138006163Y-129803762D01*
X138023860Y-129810618D01*
X138242557Y-129851500D01*
X138242559Y-129851500D01*
X138465041Y-129851500D01*
X138465043Y-129851500D01*
X138683740Y-129810618D01*
X138810249Y-129761607D01*
X138891194Y-129730250D01*
X138891196Y-129730249D01*
X138891196Y-129730248D01*
X138891201Y-129730247D01*
X139080362Y-129613124D01*
X139244781Y-129463236D01*
X139378858Y-129285689D01*
X139478029Y-129086528D01*
X139480488Y-129077887D01*
X139520075Y-129011694D01*
X139587456Y-128974163D01*
X139664575Y-128975350D01*
X139730768Y-129014937D01*
X139767112Y-129077887D01*
X139769570Y-129086528D01*
X139868739Y-129285685D01*
X139868741Y-129285687D01*
X139868742Y-129285689D01*
X140002819Y-129463236D01*
X140167238Y-129613124D01*
X140356399Y-129730247D01*
X140356401Y-129730247D01*
X140356403Y-129730249D01*
X140356405Y-129730250D01*
X140546163Y-129803762D01*
X140563860Y-129810618D01*
X140782557Y-129851500D01*
X140782559Y-129851500D01*
X141005041Y-129851500D01*
X141005043Y-129851500D01*
X141223740Y-129810618D01*
X141350249Y-129761607D01*
X141431194Y-129730250D01*
X141431196Y-129730249D01*
X141431196Y-129730248D01*
X141431201Y-129730247D01*
X141620362Y-129613124D01*
X141784781Y-129463236D01*
X141918858Y-129285689D01*
X142018029Y-129086528D01*
X142020488Y-129077887D01*
X142060075Y-129011694D01*
X142127456Y-128974163D01*
X142204575Y-128975350D01*
X142270768Y-129014937D01*
X142307112Y-129077887D01*
X142309570Y-129086528D01*
X142408739Y-129285685D01*
X142408741Y-129285687D01*
X142408742Y-129285689D01*
X142542819Y-129463236D01*
X142707238Y-129613124D01*
X142896399Y-129730247D01*
X142896401Y-129730247D01*
X142896403Y-129730249D01*
X142896405Y-129730250D01*
X143086163Y-129803762D01*
X143103860Y-129810618D01*
X143322557Y-129851500D01*
X143322559Y-129851500D01*
X143545041Y-129851500D01*
X143545043Y-129851500D01*
X143763740Y-129810618D01*
X143890249Y-129761607D01*
X143971194Y-129730250D01*
X143971196Y-129730249D01*
X143971196Y-129730248D01*
X143971201Y-129730247D01*
X144160362Y-129613124D01*
X144324781Y-129463236D01*
X144458858Y-129285689D01*
X144558029Y-129086528D01*
X144618915Y-128872536D01*
X144639443Y-128651000D01*
X144630554Y-128555076D01*
X144628038Y-128527924D01*
X144618915Y-128429464D01*
X144570429Y-128259053D01*
X144558029Y-128215471D01*
X144458860Y-128016314D01*
X144457329Y-128014287D01*
X144324781Y-127838764D01*
X144160362Y-127688876D01*
X143971201Y-127571753D01*
X143971200Y-127571752D01*
X143971196Y-127571750D01*
X143971194Y-127571749D01*
X143763744Y-127491383D01*
X143763741Y-127491382D01*
X143763740Y-127491382D01*
X143708575Y-127481069D01*
X143545047Y-127450500D01*
X143545043Y-127450500D01*
X143322557Y-127450500D01*
X143322552Y-127450500D01*
X143103855Y-127491383D01*
X142896405Y-127571749D01*
X142896403Y-127571750D01*
X142707236Y-127688877D01*
X142542819Y-127838763D01*
X142408739Y-128016314D01*
X142309571Y-128215469D01*
X142307112Y-128224114D01*
X142267523Y-128290307D01*
X142200142Y-128327837D01*
X142123023Y-128326649D01*
X142056830Y-128287060D01*
X142020488Y-128224114D01*
X142018028Y-128215469D01*
X141918860Y-128016314D01*
X141917329Y-128014287D01*
X141784781Y-127838764D01*
X141620362Y-127688876D01*
X141431201Y-127571753D01*
X141431200Y-127571752D01*
X141431196Y-127571750D01*
X141431194Y-127571749D01*
X141223744Y-127491383D01*
X141223741Y-127491382D01*
X141223740Y-127491382D01*
X141168575Y-127481069D01*
X141005047Y-127450500D01*
X141005043Y-127450500D01*
X140782557Y-127450500D01*
X140782552Y-127450500D01*
X140563855Y-127491383D01*
X140356405Y-127571749D01*
X140356403Y-127571750D01*
X140167236Y-127688877D01*
X140002819Y-127838763D01*
X139868739Y-128016314D01*
X139769571Y-128215469D01*
X139767112Y-128224114D01*
X139727523Y-128290307D01*
X139660142Y-128327837D01*
X139583023Y-128326649D01*
X139516830Y-128287060D01*
X139480488Y-128224114D01*
X139478028Y-128215469D01*
X139378860Y-128016314D01*
X139377329Y-128014287D01*
X139244781Y-127838764D01*
X139080362Y-127688876D01*
X138891201Y-127571753D01*
X138891200Y-127571752D01*
X138891196Y-127571750D01*
X138891194Y-127571749D01*
X138683744Y-127491383D01*
X138683741Y-127491382D01*
X138683740Y-127491382D01*
X138628575Y-127481069D01*
X138465047Y-127450500D01*
X138465043Y-127450500D01*
X138242557Y-127450500D01*
X138242552Y-127450500D01*
X138023855Y-127491383D01*
X137816405Y-127571749D01*
X137816403Y-127571750D01*
X137627236Y-127688877D01*
X137462819Y-127838763D01*
X137328739Y-128016314D01*
X137229571Y-128215469D01*
X137227112Y-128224114D01*
X137187523Y-128290307D01*
X137120142Y-128327837D01*
X137043023Y-128326649D01*
X136976830Y-128287060D01*
X136940488Y-128224114D01*
X136938028Y-128215469D01*
X136838860Y-128016314D01*
X136837329Y-128014287D01*
X136704781Y-127838764D01*
X136540362Y-127688876D01*
X136351201Y-127571753D01*
X136351200Y-127571752D01*
X136351196Y-127571750D01*
X136351194Y-127571749D01*
X136143744Y-127491383D01*
X136143741Y-127491382D01*
X136143740Y-127491382D01*
X136088575Y-127481069D01*
X135925047Y-127450500D01*
X135925043Y-127450500D01*
X135702557Y-127450500D01*
X135702552Y-127450500D01*
X135483855Y-127491383D01*
X135276405Y-127571749D01*
X135276403Y-127571750D01*
X135087236Y-127688877D01*
X134922819Y-127838763D01*
X134788739Y-128016314D01*
X134756678Y-128080702D01*
X134705601Y-128138494D01*
X134632471Y-128163004D01*
X134556884Y-128147666D01*
X134499092Y-128096589D01*
X134474582Y-128023459D01*
X134474299Y-128014287D01*
X134474299Y-127819481D01*
X134467821Y-127778581D01*
X134459446Y-127725696D01*
X134401850Y-127612658D01*
X134312142Y-127522950D01*
X134250187Y-127491382D01*
X134199105Y-127465354D01*
X134183473Y-127462878D01*
X134105319Y-127450500D01*
X134105314Y-127450500D01*
X132442281Y-127450500D01*
X132348495Y-127465354D01*
X132348493Y-127465355D01*
X132235457Y-127522950D01*
X132145750Y-127612657D01*
X132088154Y-127725694D01*
X132088154Y-127725696D01*
X132073300Y-127819481D01*
X132073300Y-127819482D01*
X132073300Y-127819485D01*
X132073300Y-129482518D01*
X103691500Y-129482518D01*
X103691500Y-126460005D01*
X105639287Y-126460005D01*
X105669711Y-126736511D01*
X105669714Y-126736525D01*
X105735270Y-126987281D01*
X105740080Y-127005676D01*
X105848884Y-127261714D01*
X105848886Y-127261718D01*
X105848889Y-127261723D01*
X105993807Y-127499181D01*
X105993810Y-127499185D01*
X106171755Y-127713009D01*
X106171767Y-127713021D01*
X106378949Y-127898656D01*
X106378957Y-127898663D01*
X106610973Y-128052163D01*
X106862867Y-128170246D01*
X107129269Y-128250395D01*
X107404501Y-128290900D01*
X107404508Y-128290900D01*
X107613061Y-128290900D01*
X107613063Y-128290900D01*
X107821055Y-128275677D01*
X108092597Y-128215188D01*
X108092603Y-128215185D01*
X108092609Y-128215184D01*
X108352435Y-128115809D01*
X108352433Y-128115809D01*
X108352438Y-128115808D01*
X108595040Y-127979653D01*
X108815232Y-127809626D01*
X109008322Y-127609351D01*
X109170193Y-127383096D01*
X109297397Y-127135683D01*
X109387221Y-126872386D01*
X109437496Y-126600204D01*
X109437751Y-126598822D01*
X109437751Y-126598821D01*
X109437752Y-126598816D01*
X109447913Y-126320804D01*
X109433280Y-126187812D01*
X109417488Y-126044288D01*
X109417486Y-126044281D01*
X109417486Y-126044276D01*
X109347120Y-125775124D01*
X109238316Y-125519086D01*
X109164238Y-125397704D01*
X109093392Y-125281618D01*
X109093389Y-125281614D01*
X108915444Y-125067790D01*
X108915432Y-125067778D01*
X108708250Y-124882143D01*
X108708247Y-124882141D01*
X108708243Y-124882137D01*
X108476227Y-124728637D01*
X108224332Y-124610553D01*
X108074953Y-124565612D01*
X107957931Y-124530405D01*
X107957925Y-124530404D01*
X107682708Y-124489901D01*
X107682704Y-124489900D01*
X107682699Y-124489900D01*
X107474137Y-124489900D01*
X107266145Y-124505123D01*
X107266137Y-124505124D01*
X106994605Y-124565611D01*
X106994590Y-124565615D01*
X106734764Y-124664990D01*
X106734758Y-124664993D01*
X106492161Y-124801145D01*
X106271969Y-124971172D01*
X106271964Y-124971177D01*
X106078877Y-125171449D01*
X105917007Y-125397702D01*
X105789805Y-125645112D01*
X105699979Y-125908412D01*
X105699977Y-125908421D01*
X105649448Y-126181977D01*
X105639287Y-126460005D01*
X103691500Y-126460005D01*
X103691500Y-124409200D01*
X146590151Y-124409200D01*
X146609086Y-124577256D01*
X146609086Y-124577258D01*
X146609087Y-124577259D01*
X146664944Y-124736890D01*
X146754923Y-124880090D01*
X146874510Y-124999677D01*
X147017710Y-125089656D01*
X147177341Y-125145513D01*
X147289380Y-125158137D01*
X147345399Y-125164449D01*
X147345400Y-125164449D01*
X147345401Y-125164449D01*
X147387414Y-125159715D01*
X147513459Y-125145513D01*
X147673090Y-125089656D01*
X147816290Y-124999677D01*
X147935877Y-124880090D01*
X148024279Y-124739400D01*
X170366740Y-124739400D01*
X170386525Y-124927654D01*
X170436203Y-125080545D01*
X170445021Y-125107684D01*
X170477794Y-125164449D01*
X170539669Y-125271620D01*
X170653197Y-125397704D01*
X170666329Y-125412288D01*
X170819470Y-125523551D01*
X170992397Y-125600544D01*
X171133515Y-125630539D01*
X171177552Y-125639900D01*
X171177554Y-125639900D01*
X171366848Y-125639900D01*
X171406204Y-125631534D01*
X171552003Y-125600544D01*
X171724930Y-125523551D01*
X171878071Y-125412288D01*
X171950395Y-125331963D01*
X172004730Y-125271620D01*
X172004731Y-125271618D01*
X172004733Y-125271616D01*
X172099379Y-125107684D01*
X172157874Y-124927656D01*
X172177660Y-124739400D01*
X172157874Y-124551144D01*
X172099379Y-124371116D01*
X172004733Y-124207184D01*
X172004732Y-124207183D01*
X172004730Y-124207179D01*
X171878072Y-124066513D01*
X171724927Y-123955247D01*
X171552005Y-123878257D01*
X171552003Y-123878256D01*
X171445560Y-123855631D01*
X171366848Y-123838900D01*
X171366846Y-123838900D01*
X171177554Y-123838900D01*
X171177552Y-123838900D01*
X171077592Y-123860147D01*
X170992397Y-123878256D01*
X170992395Y-123878256D01*
X170992394Y-123878257D01*
X170819472Y-123955247D01*
X170666327Y-124066513D01*
X170539669Y-124207179D01*
X170445022Y-124371114D01*
X170445019Y-124371121D01*
X170386525Y-124551145D01*
X170366740Y-124739400D01*
X148024279Y-124739400D01*
X148025856Y-124736890D01*
X148081713Y-124577259D01*
X148100649Y-124409200D01*
X148081713Y-124241141D01*
X148025856Y-124081510D01*
X147935877Y-123938310D01*
X147816290Y-123818723D01*
X147673090Y-123728744D01*
X147513459Y-123672887D01*
X147513458Y-123672886D01*
X147513456Y-123672886D01*
X147345401Y-123653951D01*
X147345399Y-123653951D01*
X147177343Y-123672886D01*
X147017709Y-123728744D01*
X146874510Y-123818723D01*
X146754923Y-123938310D01*
X146664944Y-124081509D01*
X146609086Y-124241143D01*
X146590151Y-124409199D01*
X146590151Y-124409200D01*
X103691500Y-124409200D01*
X103691500Y-121031004D01*
X132068157Y-121031004D01*
X132088684Y-121252531D01*
X132088684Y-121252534D01*
X132149570Y-121466528D01*
X132248739Y-121665685D01*
X132248741Y-121665688D01*
X132248742Y-121665689D01*
X132382819Y-121843236D01*
X132547238Y-121993124D01*
X132736399Y-122110247D01*
X132736401Y-122110247D01*
X132736403Y-122110249D01*
X132736405Y-122110250D01*
X132831785Y-122147200D01*
X132943860Y-122190618D01*
X133162557Y-122231500D01*
X133162559Y-122231500D01*
X133385041Y-122231500D01*
X133385043Y-122231500D01*
X133603740Y-122190618D01*
X133730249Y-122141607D01*
X133811194Y-122110250D01*
X133811196Y-122110249D01*
X133811196Y-122110248D01*
X133811201Y-122110247D01*
X134000362Y-121993124D01*
X134164781Y-121843236D01*
X134298858Y-121665689D01*
X134398029Y-121466528D01*
X134400488Y-121457887D01*
X134440075Y-121391694D01*
X134507456Y-121354163D01*
X134584575Y-121355350D01*
X134650768Y-121394937D01*
X134687112Y-121457887D01*
X134689570Y-121466528D01*
X134788739Y-121665685D01*
X134788741Y-121665688D01*
X134788742Y-121665689D01*
X134922819Y-121843236D01*
X135087238Y-121993124D01*
X135276399Y-122110247D01*
X135276401Y-122110247D01*
X135276403Y-122110249D01*
X135276405Y-122110250D01*
X135371785Y-122147200D01*
X135483860Y-122190618D01*
X135702557Y-122231500D01*
X135702559Y-122231500D01*
X135925041Y-122231500D01*
X135925043Y-122231500D01*
X136143740Y-122190618D01*
X136270249Y-122141607D01*
X136351194Y-122110250D01*
X136351196Y-122110249D01*
X136351196Y-122110248D01*
X136351201Y-122110247D01*
X136540362Y-121993124D01*
X136704781Y-121843236D01*
X136838858Y-121665689D01*
X136938029Y-121466528D01*
X136940488Y-121457887D01*
X136980075Y-121391694D01*
X137047456Y-121354163D01*
X137124575Y-121355350D01*
X137190768Y-121394937D01*
X137227112Y-121457887D01*
X137229570Y-121466528D01*
X137328739Y-121665685D01*
X137328741Y-121665688D01*
X137328742Y-121665689D01*
X137462819Y-121843236D01*
X137627238Y-121993124D01*
X137816399Y-122110247D01*
X137816401Y-122110247D01*
X137816403Y-122110249D01*
X137816405Y-122110250D01*
X137911785Y-122147200D01*
X138023860Y-122190618D01*
X138242557Y-122231500D01*
X138242559Y-122231500D01*
X138465041Y-122231500D01*
X138465043Y-122231500D01*
X138683740Y-122190618D01*
X138810249Y-122141607D01*
X138891194Y-122110250D01*
X138891196Y-122110249D01*
X138891196Y-122110248D01*
X138891201Y-122110247D01*
X139080362Y-121993124D01*
X139244781Y-121843236D01*
X139378858Y-121665689D01*
X139478029Y-121466528D01*
X139480488Y-121457887D01*
X139520075Y-121391694D01*
X139587456Y-121354163D01*
X139664575Y-121355350D01*
X139730768Y-121394937D01*
X139767112Y-121457887D01*
X139769570Y-121466528D01*
X139868739Y-121665685D01*
X139868741Y-121665688D01*
X139868742Y-121665689D01*
X140002819Y-121843236D01*
X140167238Y-121993124D01*
X140356399Y-122110247D01*
X140356401Y-122110247D01*
X140356403Y-122110249D01*
X140356405Y-122110250D01*
X140451785Y-122147200D01*
X140563860Y-122190618D01*
X140782557Y-122231500D01*
X140782559Y-122231500D01*
X141005041Y-122231500D01*
X141005043Y-122231500D01*
X141223740Y-122190618D01*
X141350249Y-122141607D01*
X141431194Y-122110250D01*
X141431196Y-122110249D01*
X141431196Y-122110248D01*
X141431201Y-122110247D01*
X141620362Y-121993124D01*
X141784781Y-121843236D01*
X141918858Y-121665689D01*
X142018029Y-121466528D01*
X142020488Y-121457887D01*
X142060075Y-121391694D01*
X142127456Y-121354163D01*
X142204575Y-121355350D01*
X142270768Y-121394937D01*
X142307112Y-121457887D01*
X142309570Y-121466528D01*
X142408739Y-121665685D01*
X142408741Y-121665688D01*
X142408742Y-121665689D01*
X142542819Y-121843236D01*
X142707238Y-121993124D01*
X142896399Y-122110247D01*
X142896401Y-122110247D01*
X142896403Y-122110249D01*
X142896405Y-122110250D01*
X142991785Y-122147200D01*
X143103860Y-122190618D01*
X143322557Y-122231500D01*
X143322559Y-122231500D01*
X143545041Y-122231500D01*
X143545043Y-122231500D01*
X143763740Y-122190618D01*
X143890249Y-122141607D01*
X143971194Y-122110250D01*
X143971196Y-122110249D01*
X143971196Y-122110248D01*
X143971201Y-122110247D01*
X144160362Y-121993124D01*
X144324781Y-121843236D01*
X144458858Y-121665689D01*
X144558029Y-121466528D01*
X144618915Y-121252536D01*
X144639443Y-121031000D01*
X144622968Y-120853200D01*
X196962272Y-120853200D01*
X196969150Y-120909852D01*
X197038683Y-121149907D01*
X197038684Y-121149911D01*
X197145828Y-121375712D01*
X197145832Y-121375719D01*
X197287810Y-121581409D01*
X197460946Y-121761663D01*
X197660757Y-121911812D01*
X197882058Y-122027959D01*
X198119138Y-122107108D01*
X198119139Y-122107109D01*
X198365826Y-122147199D01*
X198365830Y-122147200D01*
X198996800Y-122147200D01*
X198996800Y-121251520D01*
X199082049Y-121283851D01*
X199208460Y-121299200D01*
X199293140Y-121299200D01*
X199419551Y-121283851D01*
X199504800Y-121251520D01*
X199504800Y-122147200D01*
X200073179Y-122147200D01*
X200259923Y-122132125D01*
X200502594Y-122072311D01*
X200732531Y-121974344D01*
X200732533Y-121974343D01*
X200943778Y-121840759D01*
X201130847Y-121675032D01*
X201288925Y-121481423D01*
X201413891Y-121264974D01*
X201413892Y-121264972D01*
X201502515Y-121031292D01*
X201502519Y-121031280D01*
X201538875Y-120853200D01*
X199908043Y-120853200D01*
X199910118Y-120849246D01*
X199950800Y-120684195D01*
X199950800Y-120514205D01*
X199910118Y-120349154D01*
X199908043Y-120345200D01*
X201539328Y-120345200D01*
X201532449Y-120288547D01*
X201462916Y-120048492D01*
X201462915Y-120048488D01*
X201355771Y-119822687D01*
X201355767Y-119822680D01*
X201213789Y-119616990D01*
X201040653Y-119436736D01*
X200840842Y-119286587D01*
X200619541Y-119170440D01*
X200382461Y-119091291D01*
X200382460Y-119091290D01*
X200135773Y-119051200D01*
X199504800Y-119051200D01*
X199504800Y-119946879D01*
X199419551Y-119914549D01*
X199293140Y-119899200D01*
X199208460Y-119899200D01*
X199082049Y-119914549D01*
X198996800Y-119946879D01*
X198996800Y-119051200D01*
X198428421Y-119051200D01*
X198241676Y-119066274D01*
X197999005Y-119126088D01*
X197769068Y-119224055D01*
X197769066Y-119224056D01*
X197557821Y-119357640D01*
X197370752Y-119523367D01*
X197212674Y-119716976D01*
X197087708Y-119933425D01*
X197087707Y-119933427D01*
X196999084Y-120167107D01*
X196999080Y-120167119D01*
X196962725Y-120345199D01*
X196962725Y-120345200D01*
X198593557Y-120345200D01*
X198591482Y-120349154D01*
X198550800Y-120514205D01*
X198550800Y-120684195D01*
X198591482Y-120849246D01*
X198593557Y-120853200D01*
X196962272Y-120853200D01*
X144622968Y-120853200D01*
X144618915Y-120809464D01*
X144558029Y-120595472D01*
X144517563Y-120514205D01*
X144458860Y-120396314D01*
X144423246Y-120349154D01*
X144324781Y-120218764D01*
X144302699Y-120198634D01*
X144160363Y-120068877D01*
X144160362Y-120068876D01*
X143971201Y-119951753D01*
X143971200Y-119951752D01*
X143971196Y-119951750D01*
X143971194Y-119951749D01*
X143763744Y-119871383D01*
X143763741Y-119871382D01*
X143763740Y-119871382D01*
X143708575Y-119861069D01*
X143545047Y-119830500D01*
X143545043Y-119830500D01*
X143322557Y-119830500D01*
X143322552Y-119830500D01*
X143103855Y-119871383D01*
X142896405Y-119951749D01*
X142896403Y-119951750D01*
X142707236Y-120068877D01*
X142542819Y-120218763D01*
X142408739Y-120396314D01*
X142309571Y-120595469D01*
X142307112Y-120604114D01*
X142267523Y-120670307D01*
X142200142Y-120707837D01*
X142123023Y-120706649D01*
X142056830Y-120667060D01*
X142020488Y-120604114D01*
X142018028Y-120595469D01*
X141918860Y-120396314D01*
X141883246Y-120349154D01*
X141784781Y-120218764D01*
X141762699Y-120198634D01*
X141620363Y-120068877D01*
X141620362Y-120068876D01*
X141431201Y-119951753D01*
X141431200Y-119951752D01*
X141431196Y-119951750D01*
X141431194Y-119951749D01*
X141223744Y-119871383D01*
X141223741Y-119871382D01*
X141223740Y-119871382D01*
X141168575Y-119861069D01*
X141005047Y-119830500D01*
X141005043Y-119830500D01*
X140782557Y-119830500D01*
X140782552Y-119830500D01*
X140563855Y-119871383D01*
X140356405Y-119951749D01*
X140356403Y-119951750D01*
X140167236Y-120068877D01*
X140002819Y-120218763D01*
X139868739Y-120396314D01*
X139769571Y-120595469D01*
X139767112Y-120604114D01*
X139727523Y-120670307D01*
X139660142Y-120707837D01*
X139583023Y-120706649D01*
X139516830Y-120667060D01*
X139480488Y-120604114D01*
X139478028Y-120595469D01*
X139378860Y-120396314D01*
X139343246Y-120349154D01*
X139244781Y-120218764D01*
X139222699Y-120198634D01*
X139080363Y-120068877D01*
X139080362Y-120068876D01*
X138891201Y-119951753D01*
X138891200Y-119951752D01*
X138891196Y-119951750D01*
X138891194Y-119951749D01*
X138683744Y-119871383D01*
X138683741Y-119871382D01*
X138683740Y-119871382D01*
X138628575Y-119861069D01*
X138465047Y-119830500D01*
X138465043Y-119830500D01*
X138242557Y-119830500D01*
X138242552Y-119830500D01*
X138023855Y-119871383D01*
X137816405Y-119951749D01*
X137816403Y-119951750D01*
X137627236Y-120068877D01*
X137462819Y-120218763D01*
X137328739Y-120396314D01*
X137229571Y-120595469D01*
X137227112Y-120604114D01*
X137187523Y-120670307D01*
X137120142Y-120707837D01*
X137043023Y-120706649D01*
X136976830Y-120667060D01*
X136940488Y-120604114D01*
X136938028Y-120595469D01*
X136838860Y-120396314D01*
X136803246Y-120349154D01*
X136704781Y-120218764D01*
X136682699Y-120198634D01*
X136540363Y-120068877D01*
X136540362Y-120068876D01*
X136351201Y-119951753D01*
X136351200Y-119951752D01*
X136351196Y-119951750D01*
X136351194Y-119951749D01*
X136143744Y-119871383D01*
X136143741Y-119871382D01*
X136143740Y-119871382D01*
X136088575Y-119861069D01*
X135925047Y-119830500D01*
X135925043Y-119830500D01*
X135702557Y-119830500D01*
X135702552Y-119830500D01*
X135483855Y-119871383D01*
X135276405Y-119951749D01*
X135276403Y-119951750D01*
X135087236Y-120068877D01*
X134922819Y-120218763D01*
X134788739Y-120396314D01*
X134689571Y-120595469D01*
X134687112Y-120604114D01*
X134647523Y-120670307D01*
X134580142Y-120707837D01*
X134503023Y-120706649D01*
X134436830Y-120667060D01*
X134400488Y-120604114D01*
X134398028Y-120595469D01*
X134298860Y-120396314D01*
X134263246Y-120349154D01*
X134164781Y-120218764D01*
X134142699Y-120198634D01*
X134000363Y-120068877D01*
X134000362Y-120068876D01*
X133811201Y-119951753D01*
X133811200Y-119951752D01*
X133811196Y-119951750D01*
X133811194Y-119951749D01*
X133603744Y-119871383D01*
X133603741Y-119871382D01*
X133603740Y-119871382D01*
X133548575Y-119861069D01*
X133385047Y-119830500D01*
X133385043Y-119830500D01*
X133162557Y-119830500D01*
X133162552Y-119830500D01*
X132943855Y-119871383D01*
X132736405Y-119951749D01*
X132736403Y-119951750D01*
X132547236Y-120068877D01*
X132382819Y-120218763D01*
X132248739Y-120396314D01*
X132149570Y-120595471D01*
X132088684Y-120809465D01*
X132088684Y-120809468D01*
X132068157Y-121030995D01*
X132068157Y-121031004D01*
X103691500Y-121031004D01*
X103691500Y-117906800D01*
X124238151Y-117906800D01*
X124257086Y-118074856D01*
X124257086Y-118074858D01*
X124257087Y-118074859D01*
X124312944Y-118234490D01*
X124402923Y-118377690D01*
X124522510Y-118497277D01*
X124665710Y-118587256D01*
X124825341Y-118643113D01*
X124937380Y-118655737D01*
X124993399Y-118662049D01*
X124993400Y-118662049D01*
X124993401Y-118662049D01*
X125035414Y-118657315D01*
X125161459Y-118643113D01*
X125321090Y-118587256D01*
X125464290Y-118497277D01*
X125583877Y-118377690D01*
X125673856Y-118234490D01*
X125708529Y-118135400D01*
X160065123Y-118135400D01*
X160084193Y-118353378D01*
X160140824Y-118564728D01*
X160140825Y-118564730D01*
X160233294Y-118763033D01*
X160233297Y-118763038D01*
X160276331Y-118824496D01*
X160358802Y-118942277D01*
X160513523Y-119096998D01*
X160555068Y-119126088D01*
X160692761Y-119222502D01*
X160692766Y-119222505D01*
X160803033Y-119273922D01*
X160891070Y-119314975D01*
X161102423Y-119371607D01*
X161320400Y-119390677D01*
X161538377Y-119371607D01*
X161749730Y-119314975D01*
X161914686Y-119238054D01*
X161948033Y-119222505D01*
X161948034Y-119222504D01*
X161948039Y-119222502D01*
X162127277Y-119096998D01*
X162281998Y-118942277D01*
X162338849Y-118861085D01*
X162397929Y-118811511D01*
X162473885Y-118798117D01*
X162546362Y-118824496D01*
X162595939Y-118883579D01*
X162609900Y-118946548D01*
X162609900Y-119016918D01*
X162622583Y-119096996D01*
X162624754Y-119110704D01*
X162682350Y-119223742D01*
X162772058Y-119313450D01*
X162885096Y-119371046D01*
X162978881Y-119385900D01*
X164741918Y-119385899D01*
X164835704Y-119371046D01*
X164948742Y-119313450D01*
X165038450Y-119223742D01*
X165096046Y-119110704D01*
X165110900Y-119016919D01*
X165110899Y-117253882D01*
X165096046Y-117160096D01*
X165038450Y-117047058D01*
X164948742Y-116957350D01*
X164924353Y-116944923D01*
X164835705Y-116899754D01*
X164820073Y-116897278D01*
X164741919Y-116884900D01*
X164741914Y-116884900D01*
X162978881Y-116884900D01*
X162885095Y-116899754D01*
X162885093Y-116899755D01*
X162772057Y-116957350D01*
X162682350Y-117047057D01*
X162624754Y-117160094D01*
X162624754Y-117160096D01*
X162609900Y-117253881D01*
X162609900Y-117253882D01*
X162609900Y-117253885D01*
X162609900Y-117324248D01*
X162589938Y-117398748D01*
X162535400Y-117453286D01*
X162460900Y-117473248D01*
X162386400Y-117453286D01*
X162338846Y-117409711D01*
X162331170Y-117398748D01*
X162281998Y-117328523D01*
X162127277Y-117173802D01*
X161948039Y-117048298D01*
X161948040Y-117048298D01*
X161948038Y-117048297D01*
X161948033Y-117048294D01*
X161749730Y-116955825D01*
X161749728Y-116955824D01*
X161538377Y-116899193D01*
X161538378Y-116899193D01*
X161320400Y-116880123D01*
X161102421Y-116899193D01*
X160891073Y-116955824D01*
X160891072Y-116955824D01*
X160891070Y-116955825D01*
X160692762Y-117048298D01*
X160692759Y-117048299D01*
X160692759Y-117048300D01*
X160513520Y-117173804D01*
X160358804Y-117328520D01*
X160358802Y-117328523D01*
X160233298Y-117507762D01*
X160140825Y-117706070D01*
X160140824Y-117706073D01*
X160084193Y-117917421D01*
X160065123Y-118135399D01*
X160065123Y-118135400D01*
X125708529Y-118135400D01*
X125729713Y-118074859D01*
X125748649Y-117906800D01*
X125729713Y-117738741D01*
X125673856Y-117579110D01*
X125583877Y-117435910D01*
X125464290Y-117316323D01*
X125321090Y-117226344D01*
X125161459Y-117170487D01*
X125161458Y-117170486D01*
X125161456Y-117170486D01*
X124993401Y-117151551D01*
X124993399Y-117151551D01*
X124825343Y-117170486D01*
X124665709Y-117226344D01*
X124522510Y-117316323D01*
X124402923Y-117435910D01*
X124312944Y-117579109D01*
X124257086Y-117738743D01*
X124238151Y-117906799D01*
X124238151Y-117906800D01*
X103691500Y-117906800D01*
X103691500Y-115982005D01*
X170454245Y-115982005D01*
X170473637Y-116253146D01*
X170473639Y-116253162D01*
X170531423Y-116518795D01*
X170626429Y-116773517D01*
X170756711Y-117012111D01*
X170919626Y-117229739D01*
X171111860Y-117421973D01*
X171329488Y-117584888D01*
X171568082Y-117715170D01*
X171568086Y-117715171D01*
X171568087Y-117715172D01*
X171822799Y-117810175D01*
X172088440Y-117867961D01*
X172088451Y-117867961D01*
X172088453Y-117867962D01*
X172359595Y-117887355D01*
X172359600Y-117887355D01*
X172359605Y-117887355D01*
X172630746Y-117867962D01*
X172630745Y-117867962D01*
X172630760Y-117867961D01*
X172896401Y-117810175D01*
X173151113Y-117715172D01*
X173389713Y-117584887D01*
X173607342Y-117421971D01*
X173799571Y-117229742D01*
X173962487Y-117012113D01*
X174024146Y-116899193D01*
X174092770Y-116773517D01*
X174092770Y-116773515D01*
X174092772Y-116773513D01*
X174187775Y-116518801D01*
X174245561Y-116253160D01*
X174264955Y-115982005D01*
X182654245Y-115982005D01*
X182673637Y-116253146D01*
X182673639Y-116253162D01*
X182731423Y-116518795D01*
X182826429Y-116773517D01*
X182956711Y-117012111D01*
X183119626Y-117229739D01*
X183311860Y-117421973D01*
X183529488Y-117584888D01*
X183768082Y-117715170D01*
X183768086Y-117715171D01*
X183768087Y-117715172D01*
X184022799Y-117810175D01*
X184288440Y-117867961D01*
X184288451Y-117867961D01*
X184288453Y-117867962D01*
X184559595Y-117887355D01*
X184559600Y-117887355D01*
X184559605Y-117887355D01*
X184830746Y-117867962D01*
X184830745Y-117867962D01*
X184830760Y-117867961D01*
X185096401Y-117810175D01*
X185351113Y-117715172D01*
X185589713Y-117584887D01*
X185807342Y-117421971D01*
X185999571Y-117229742D01*
X186162487Y-117012113D01*
X186224146Y-116899193D01*
X186292770Y-116773517D01*
X186292770Y-116773515D01*
X186292772Y-116773513D01*
X186387775Y-116518801D01*
X186445561Y-116253160D01*
X186464955Y-115982000D01*
X186462717Y-115950713D01*
X186445562Y-115710853D01*
X186445561Y-115710851D01*
X186445561Y-115710840D01*
X186429838Y-115638562D01*
X197050300Y-115638562D01*
X197089591Y-115874029D01*
X197089592Y-115874033D01*
X197167107Y-116099825D01*
X197280728Y-116309777D01*
X197280732Y-116309783D01*
X197427352Y-116498163D01*
X197427355Y-116498166D01*
X197427357Y-116498168D01*
X197602994Y-116659853D01*
X197802848Y-116790424D01*
X197802850Y-116790425D01*
X198021464Y-116886318D01*
X198021465Y-116886318D01*
X198021467Y-116886319D01*
X198252889Y-116944923D01*
X198431220Y-116959700D01*
X198431225Y-116959700D01*
X200070375Y-116959700D01*
X200070380Y-116959700D01*
X200248711Y-116944923D01*
X200480133Y-116886319D01*
X200698752Y-116790424D01*
X200898606Y-116659853D01*
X201074243Y-116498168D01*
X201220871Y-116309779D01*
X201334493Y-116099825D01*
X201412007Y-115874034D01*
X201451300Y-115638563D01*
X201451300Y-115399837D01*
X201412007Y-115164366D01*
X201334493Y-114938575D01*
X201220871Y-114728621D01*
X201139382Y-114623923D01*
X201074247Y-114540236D01*
X201074244Y-114540233D01*
X200986165Y-114459151D01*
X200898606Y-114378547D01*
X200698752Y-114247976D01*
X200698749Y-114247974D01*
X200480135Y-114152081D01*
X200388498Y-114128876D01*
X200248711Y-114093477D01*
X200248706Y-114093476D01*
X200248708Y-114093476D01*
X200133756Y-114083951D01*
X200070380Y-114078700D01*
X198431220Y-114078700D01*
X198362993Y-114084353D01*
X198252893Y-114093476D01*
X198021464Y-114152081D01*
X197802850Y-114247974D01*
X197705721Y-114311431D01*
X197602994Y-114378547D01*
X197602991Y-114378549D01*
X197602989Y-114378551D01*
X197427355Y-114540233D01*
X197427352Y-114540236D01*
X197280732Y-114728616D01*
X197280728Y-114728622D01*
X197167107Y-114938574D01*
X197089592Y-115164366D01*
X197089591Y-115164370D01*
X197050300Y-115399837D01*
X197050300Y-115638562D01*
X186429838Y-115638562D01*
X186387775Y-115445199D01*
X186292772Y-115190487D01*
X186292771Y-115190486D01*
X186292770Y-115190482D01*
X186162488Y-114951888D01*
X185999573Y-114734260D01*
X185807339Y-114542026D01*
X185589711Y-114379111D01*
X185351117Y-114248829D01*
X185179424Y-114184791D01*
X185096401Y-114153825D01*
X185096399Y-114153824D01*
X185096395Y-114153823D01*
X184830762Y-114096039D01*
X184830746Y-114096037D01*
X184559605Y-114076645D01*
X184559595Y-114076645D01*
X184288453Y-114096037D01*
X184288437Y-114096039D01*
X184022804Y-114153823D01*
X183768082Y-114248829D01*
X183529488Y-114379111D01*
X183311860Y-114542026D01*
X183119626Y-114734260D01*
X182956711Y-114951888D01*
X182826429Y-115190482D01*
X182731423Y-115445204D01*
X182673639Y-115710837D01*
X182673637Y-115710853D01*
X182654245Y-115981994D01*
X182654245Y-115982005D01*
X174264955Y-115982005D01*
X174264955Y-115982000D01*
X174262717Y-115950713D01*
X174245562Y-115710853D01*
X174245561Y-115710851D01*
X174245561Y-115710840D01*
X174187775Y-115445199D01*
X174092772Y-115190487D01*
X174092771Y-115190486D01*
X174092770Y-115190482D01*
X173962488Y-114951888D01*
X173799573Y-114734260D01*
X173607339Y-114542026D01*
X173389711Y-114379111D01*
X173151117Y-114248829D01*
X172979424Y-114184791D01*
X172896401Y-114153825D01*
X172896399Y-114153824D01*
X172896395Y-114153823D01*
X172630762Y-114096039D01*
X172630746Y-114096037D01*
X172359605Y-114076645D01*
X172359595Y-114076645D01*
X172088453Y-114096037D01*
X172088437Y-114096039D01*
X171822804Y-114153823D01*
X171568082Y-114248829D01*
X171329488Y-114379111D01*
X171111860Y-114542026D01*
X170919626Y-114734260D01*
X170756711Y-114951888D01*
X170626429Y-115190482D01*
X170531423Y-115445204D01*
X170473639Y-115710837D01*
X170473637Y-115710853D01*
X170454245Y-115981994D01*
X170454245Y-115982005D01*
X103691500Y-115982005D01*
X103691500Y-115214400D01*
X129038751Y-115214400D01*
X129057686Y-115382456D01*
X129057686Y-115382458D01*
X129057687Y-115382459D01*
X129113544Y-115542090D01*
X129203523Y-115685290D01*
X129323110Y-115804877D01*
X129466310Y-115894856D01*
X129625941Y-115950713D01*
X129737980Y-115963337D01*
X129793999Y-115969649D01*
X129794000Y-115969649D01*
X129794001Y-115969649D01*
X129836014Y-115964915D01*
X129962059Y-115950713D01*
X130121690Y-115894856D01*
X130264890Y-115804877D01*
X130384477Y-115685290D01*
X130474456Y-115542090D01*
X130530313Y-115382459D01*
X130549249Y-115214400D01*
X130530313Y-115046341D01*
X130474456Y-114886710D01*
X130384477Y-114743510D01*
X130264890Y-114623923D01*
X130121690Y-114533944D01*
X129962059Y-114478087D01*
X129962058Y-114478086D01*
X129962056Y-114478086D01*
X129794001Y-114459151D01*
X129793999Y-114459151D01*
X129625943Y-114478086D01*
X129466309Y-114533944D01*
X129323110Y-114623923D01*
X129203523Y-114743510D01*
X129113544Y-114886709D01*
X129057686Y-115046343D01*
X129038751Y-115214399D01*
X129038751Y-115214400D01*
X103691500Y-115214400D01*
X103691500Y-112623600D01*
X154362551Y-112623600D01*
X154381486Y-112791656D01*
X154381486Y-112791658D01*
X154381487Y-112791659D01*
X154437344Y-112951290D01*
X154527323Y-113094490D01*
X154646910Y-113214077D01*
X154790110Y-113304056D01*
X154949741Y-113359913D01*
X155061780Y-113372537D01*
X155117799Y-113378849D01*
X155117800Y-113378849D01*
X155117801Y-113378849D01*
X155159814Y-113374115D01*
X155285859Y-113359913D01*
X155445490Y-113304056D01*
X155588690Y-113214077D01*
X155708277Y-113094490D01*
X155798256Y-112951290D01*
X155854113Y-112791659D01*
X155873049Y-112623600D01*
X155854113Y-112455541D01*
X155798256Y-112295910D01*
X155708277Y-112152710D01*
X155588690Y-112033123D01*
X155445490Y-111943144D01*
X155285859Y-111887287D01*
X155285858Y-111887286D01*
X155285856Y-111887286D01*
X155117801Y-111868351D01*
X155117799Y-111868351D01*
X154949743Y-111887286D01*
X154790109Y-111943144D01*
X154646910Y-112033123D01*
X154527323Y-112152710D01*
X154437344Y-112295909D01*
X154381486Y-112455543D01*
X154362551Y-112623599D01*
X154362551Y-112623600D01*
X103691500Y-112623600D01*
X103691500Y-111429800D01*
X147123551Y-111429800D01*
X147142486Y-111597856D01*
X147142486Y-111597858D01*
X147142487Y-111597859D01*
X147198344Y-111757490D01*
X147288323Y-111900690D01*
X147407910Y-112020277D01*
X147551110Y-112110256D01*
X147710741Y-112166113D01*
X147822780Y-112178737D01*
X147878799Y-112185049D01*
X147878800Y-112185049D01*
X147878801Y-112185049D01*
X147920814Y-112180315D01*
X148046859Y-112166113D01*
X148206490Y-112110256D01*
X148349690Y-112020277D01*
X148469277Y-111900690D01*
X148559256Y-111757490D01*
X148615113Y-111597859D01*
X148634049Y-111429800D01*
X148615113Y-111261741D01*
X148559256Y-111102110D01*
X148469277Y-110958910D01*
X148349690Y-110839323D01*
X148206490Y-110749344D01*
X148046859Y-110693487D01*
X148046858Y-110693486D01*
X148046856Y-110693486D01*
X147878801Y-110674551D01*
X147878799Y-110674551D01*
X147710743Y-110693486D01*
X147551109Y-110749344D01*
X147407910Y-110839323D01*
X147288323Y-110958910D01*
X147198344Y-111102109D01*
X147142486Y-111261743D01*
X147123551Y-111429799D01*
X147123551Y-111429800D01*
X103691500Y-111429800D01*
X103691500Y-110083600D01*
X145091551Y-110083600D01*
X145110486Y-110251656D01*
X145110486Y-110251658D01*
X145110487Y-110251659D01*
X145166344Y-110411290D01*
X145256323Y-110554490D01*
X145375910Y-110674077D01*
X145519110Y-110764056D01*
X145678741Y-110819913D01*
X145790780Y-110832537D01*
X145846799Y-110838849D01*
X145846800Y-110838849D01*
X145846801Y-110838849D01*
X145888814Y-110834115D01*
X146014859Y-110819913D01*
X146174490Y-110764056D01*
X146317690Y-110674077D01*
X146437277Y-110554490D01*
X146527256Y-110411290D01*
X146583113Y-110251659D01*
X146602049Y-110083600D01*
X146590602Y-109982005D01*
X168454245Y-109982005D01*
X168473637Y-110253146D01*
X168473639Y-110253162D01*
X168531423Y-110518795D01*
X168531424Y-110518799D01*
X168531425Y-110518801D01*
X168546255Y-110558562D01*
X168626429Y-110773517D01*
X168756711Y-111012111D01*
X168919626Y-111229739D01*
X169111860Y-111421973D01*
X169329488Y-111584888D01*
X169568082Y-111715170D01*
X169568086Y-111715171D01*
X169568087Y-111715172D01*
X169822799Y-111810175D01*
X170088440Y-111867961D01*
X170088451Y-111867961D01*
X170088453Y-111867962D01*
X170359595Y-111887355D01*
X170359600Y-111887355D01*
X170359605Y-111887355D01*
X170630746Y-111867962D01*
X170630745Y-111867962D01*
X170630760Y-111867961D01*
X170896401Y-111810175D01*
X171151113Y-111715172D01*
X171159809Y-111710424D01*
X171389711Y-111584888D01*
X171389710Y-111584888D01*
X171389713Y-111584887D01*
X171461163Y-111531400D01*
X184692340Y-111531400D01*
X184712125Y-111719654D01*
X184760314Y-111867962D01*
X184770621Y-111899684D01*
X184795713Y-111943144D01*
X184865269Y-112063620D01*
X184974606Y-112185049D01*
X184991929Y-112204288D01*
X185145070Y-112315551D01*
X185317997Y-112392544D01*
X185459115Y-112422539D01*
X185503152Y-112431900D01*
X185503154Y-112431900D01*
X185692448Y-112431900D01*
X185731804Y-112423534D01*
X185877603Y-112392544D01*
X186050530Y-112315551D01*
X186203671Y-112204288D01*
X186288339Y-112110255D01*
X186330330Y-112063620D01*
X186330331Y-112063618D01*
X186330333Y-112063616D01*
X186424979Y-111899684D01*
X186483474Y-111719656D01*
X186503260Y-111531400D01*
X186483474Y-111343144D01*
X186424979Y-111163116D01*
X186330333Y-110999184D01*
X186330332Y-110999183D01*
X186330330Y-110999179D01*
X186203672Y-110858513D01*
X186177259Y-110839323D01*
X186050530Y-110747249D01*
X186050529Y-110747248D01*
X186050527Y-110747247D01*
X185902081Y-110681154D01*
X185877603Y-110670256D01*
X185771160Y-110647631D01*
X185692448Y-110630900D01*
X185692446Y-110630900D01*
X185503154Y-110630900D01*
X185503152Y-110630900D01*
X185403192Y-110652147D01*
X185317997Y-110670256D01*
X185317995Y-110670256D01*
X185317994Y-110670257D01*
X185145072Y-110747247D01*
X184991927Y-110858513D01*
X184865269Y-110999179D01*
X184770622Y-111163114D01*
X184770619Y-111163121D01*
X184712125Y-111343145D01*
X184692340Y-111531400D01*
X171461163Y-111531400D01*
X171607342Y-111421971D01*
X171799571Y-111229742D01*
X171962487Y-111012113D01*
X172081567Y-110794033D01*
X172092770Y-110773517D01*
X172092770Y-110773515D01*
X172092772Y-110773513D01*
X172172945Y-110558562D01*
X197050300Y-110558562D01*
X197089591Y-110794029D01*
X197089592Y-110794033D01*
X197167107Y-111019825D01*
X197280728Y-111229777D01*
X197280732Y-111229783D01*
X197427352Y-111418163D01*
X197427355Y-111418166D01*
X197427357Y-111418168D01*
X197602994Y-111579853D01*
X197802848Y-111710424D01*
X197802850Y-111710425D01*
X198021464Y-111806318D01*
X198021465Y-111806318D01*
X198021467Y-111806319D01*
X198252889Y-111864923D01*
X198431220Y-111879700D01*
X198431225Y-111879700D01*
X200070375Y-111879700D01*
X200070380Y-111879700D01*
X200248711Y-111864923D01*
X200480133Y-111806319D01*
X200698752Y-111710424D01*
X200898606Y-111579853D01*
X201074243Y-111418168D01*
X201220871Y-111229779D01*
X201334493Y-111019825D01*
X201412007Y-110794034D01*
X201451300Y-110558563D01*
X201451300Y-110319837D01*
X201412007Y-110084366D01*
X201334493Y-109858575D01*
X201220871Y-109648621D01*
X201099844Y-109493124D01*
X201074247Y-109460236D01*
X201074244Y-109460233D01*
X200951552Y-109347287D01*
X200898606Y-109298547D01*
X200698752Y-109167976D01*
X200698749Y-109167974D01*
X200480135Y-109072081D01*
X200388498Y-109048876D01*
X200248711Y-109013477D01*
X200248706Y-109013476D01*
X200248708Y-109013476D01*
X200133756Y-109003951D01*
X200070380Y-108998700D01*
X198431220Y-108998700D01*
X198362993Y-109004353D01*
X198252893Y-109013476D01*
X198021464Y-109072081D01*
X197802850Y-109167974D01*
X197768392Y-109190487D01*
X197602994Y-109298547D01*
X197602991Y-109298549D01*
X197602989Y-109298551D01*
X197427355Y-109460233D01*
X197427352Y-109460236D01*
X197280732Y-109648616D01*
X197280728Y-109648622D01*
X197167107Y-109858574D01*
X197089592Y-110084366D01*
X197089591Y-110084370D01*
X197050300Y-110319837D01*
X197050300Y-110558562D01*
X172172945Y-110558562D01*
X172187775Y-110518801D01*
X172245561Y-110253160D01*
X172257634Y-110084366D01*
X172264955Y-109982005D01*
X172264955Y-109981994D01*
X172245562Y-109710853D01*
X172245561Y-109710851D01*
X172245561Y-109710840D01*
X172187775Y-109445199D01*
X172092772Y-109190487D01*
X172092771Y-109190486D01*
X172092770Y-109190482D01*
X171962488Y-108951888D01*
X171799573Y-108734260D01*
X171607339Y-108542026D01*
X171389711Y-108379111D01*
X171151117Y-108248829D01*
X170979424Y-108184791D01*
X170896401Y-108153825D01*
X170896399Y-108153824D01*
X170896395Y-108153823D01*
X170630762Y-108096039D01*
X170630746Y-108096037D01*
X170359605Y-108076645D01*
X170359595Y-108076645D01*
X170088453Y-108096037D01*
X170088437Y-108096039D01*
X169822804Y-108153823D01*
X169568082Y-108248829D01*
X169329488Y-108379111D01*
X169111860Y-108542026D01*
X168919626Y-108734260D01*
X168756711Y-108951888D01*
X168626429Y-109190482D01*
X168531423Y-109445204D01*
X168473639Y-109710837D01*
X168473637Y-109710853D01*
X168454245Y-109981994D01*
X168454245Y-109982005D01*
X146590602Y-109982005D01*
X146583113Y-109915541D01*
X146527256Y-109755910D01*
X146437277Y-109612710D01*
X146317690Y-109493123D01*
X146174490Y-109403144D01*
X146014859Y-109347287D01*
X146014858Y-109347286D01*
X146014856Y-109347286D01*
X145846801Y-109328351D01*
X145846799Y-109328351D01*
X145678743Y-109347286D01*
X145519109Y-109403144D01*
X145375910Y-109493123D01*
X145256323Y-109612710D01*
X145166344Y-109755909D01*
X145110486Y-109915543D01*
X145091551Y-110083599D01*
X145091551Y-110083600D01*
X103691500Y-110083600D01*
X103691500Y-104902000D01*
X111411151Y-104902000D01*
X111430086Y-105070056D01*
X111430086Y-105070058D01*
X111430087Y-105070059D01*
X111485944Y-105229690D01*
X111575923Y-105372890D01*
X111695510Y-105492477D01*
X111838710Y-105582456D01*
X111998341Y-105638313D01*
X112110380Y-105650937D01*
X112166399Y-105657249D01*
X112166400Y-105657249D01*
X112166401Y-105657249D01*
X112208414Y-105652515D01*
X112334459Y-105638313D01*
X112494090Y-105582456D01*
X112637290Y-105492477D01*
X112756877Y-105372890D01*
X112846856Y-105229690D01*
X112902713Y-105070059D01*
X112921649Y-104902000D01*
X112904477Y-104749600D01*
X153549751Y-104749600D01*
X153568686Y-104917656D01*
X153568686Y-104917658D01*
X153568687Y-104917659D01*
X153624544Y-105077290D01*
X153714523Y-105220490D01*
X153834110Y-105340077D01*
X153977310Y-105430056D01*
X154136941Y-105485913D01*
X154248980Y-105498537D01*
X154304999Y-105504849D01*
X154305000Y-105504849D01*
X154305001Y-105504849D01*
X154347014Y-105500115D01*
X154473059Y-105485913D01*
X154632690Y-105430056D01*
X154775890Y-105340077D01*
X154895477Y-105220490D01*
X154985456Y-105077290D01*
X155041313Y-104917659D01*
X155055323Y-104793318D01*
X156219100Y-104793318D01*
X156231783Y-104873396D01*
X156233954Y-104887104D01*
X156291550Y-105000142D01*
X156381258Y-105089850D01*
X156494296Y-105147446D01*
X156588081Y-105162300D01*
X158351118Y-105162299D01*
X158444904Y-105147446D01*
X158557942Y-105089850D01*
X158647650Y-105000142D01*
X158705246Y-104887104D01*
X158709379Y-104861008D01*
X158740748Y-104790551D01*
X158803146Y-104745215D01*
X158879851Y-104737152D01*
X158950311Y-104768522D01*
X158966167Y-104783403D01*
X159086700Y-104914337D01*
X159264297Y-105052566D01*
X159264298Y-105052567D01*
X159462227Y-105159681D01*
X159675088Y-105232757D01*
X159675092Y-105232758D01*
X159755599Y-105246191D01*
X159755600Y-105246191D01*
X159755600Y-104345474D01*
X159867285Y-104396480D01*
X159973837Y-104411800D01*
X160045363Y-104411800D01*
X160151915Y-104396480D01*
X160263600Y-104345474D01*
X160263600Y-105246191D01*
X160344107Y-105232758D01*
X160344111Y-105232757D01*
X160556972Y-105159681D01*
X160754901Y-105052567D01*
X160754902Y-105052566D01*
X160932499Y-104914337D01*
X161084925Y-104748758D01*
X161208018Y-104560350D01*
X161210565Y-104555645D01*
X161263580Y-104499626D01*
X161337501Y-104477619D01*
X161412523Y-104495521D01*
X161463659Y-104541099D01*
X161588000Y-104718675D01*
X161588002Y-104718677D01*
X161742723Y-104873398D01*
X161921961Y-104998902D01*
X161921966Y-104998905D01*
X162032233Y-105050322D01*
X162120270Y-105091375D01*
X162331623Y-105148007D01*
X162549600Y-105167077D01*
X162767577Y-105148007D01*
X162978930Y-105091375D01*
X163165513Y-105004370D01*
X163177233Y-104998905D01*
X163177234Y-104998904D01*
X163177239Y-104998902D01*
X163356477Y-104873398D01*
X163511198Y-104718677D01*
X163636702Y-104539439D01*
X163646329Y-104518795D01*
X163665529Y-104477619D01*
X163729175Y-104341130D01*
X163785807Y-104129777D01*
X163798735Y-103982005D01*
X170454245Y-103982005D01*
X170473637Y-104253146D01*
X170473639Y-104253162D01*
X170531423Y-104518795D01*
X170531424Y-104518799D01*
X170531425Y-104518801D01*
X170552129Y-104574310D01*
X170626429Y-104773517D01*
X170756711Y-105012111D01*
X170919626Y-105229739D01*
X171111860Y-105421973D01*
X171329488Y-105584888D01*
X171568082Y-105715170D01*
X171568086Y-105715171D01*
X171568087Y-105715172D01*
X171822799Y-105810175D01*
X172088440Y-105867961D01*
X172088451Y-105867961D01*
X172088453Y-105867962D01*
X172359595Y-105887355D01*
X172359600Y-105887355D01*
X172359605Y-105887355D01*
X172630746Y-105867962D01*
X172630745Y-105867962D01*
X172630760Y-105867961D01*
X172896401Y-105810175D01*
X173151113Y-105715172D01*
X173153207Y-105714029D01*
X173389711Y-105584888D01*
X173389710Y-105584888D01*
X173389713Y-105584887D01*
X173607342Y-105421971D01*
X173799571Y-105229742D01*
X173962487Y-105012113D01*
X174090008Y-104778575D01*
X174092770Y-104773517D01*
X174092770Y-104773515D01*
X174092772Y-104773513D01*
X174187775Y-104518801D01*
X174245561Y-104253160D01*
X174254386Y-104129777D01*
X174264955Y-103982005D01*
X182654245Y-103982005D01*
X182673637Y-104253146D01*
X182673639Y-104253162D01*
X182731423Y-104518795D01*
X182731424Y-104518799D01*
X182731425Y-104518801D01*
X182752129Y-104574310D01*
X182826429Y-104773517D01*
X182956711Y-105012111D01*
X183119626Y-105229739D01*
X183311860Y-105421973D01*
X183529488Y-105584888D01*
X183768082Y-105715170D01*
X183768086Y-105715171D01*
X183768087Y-105715172D01*
X184022799Y-105810175D01*
X184288440Y-105867961D01*
X184288451Y-105867961D01*
X184288453Y-105867962D01*
X184559595Y-105887355D01*
X184559600Y-105887355D01*
X184559605Y-105887355D01*
X184830746Y-105867962D01*
X184830745Y-105867962D01*
X184830760Y-105867961D01*
X185096401Y-105810175D01*
X185351113Y-105715172D01*
X185353207Y-105714029D01*
X185589711Y-105584888D01*
X185589710Y-105584888D01*
X185589713Y-105584887D01*
X185731744Y-105478563D01*
X197050300Y-105478563D01*
X197052622Y-105492476D01*
X197089591Y-105714029D01*
X197089592Y-105714033D01*
X197167107Y-105939825D01*
X197280728Y-106149777D01*
X197280732Y-106149783D01*
X197427352Y-106338163D01*
X197427355Y-106338166D01*
X197427357Y-106338168D01*
X197602994Y-106499853D01*
X197802848Y-106630424D01*
X197802850Y-106630425D01*
X198021464Y-106726318D01*
X198021465Y-106726318D01*
X198021467Y-106726319D01*
X198252889Y-106784923D01*
X198431220Y-106799700D01*
X198431225Y-106799700D01*
X200070375Y-106799700D01*
X200070380Y-106799700D01*
X200248711Y-106784923D01*
X200480133Y-106726319D01*
X200698752Y-106630424D01*
X200898606Y-106499853D01*
X201074243Y-106338168D01*
X201220871Y-106149779D01*
X201334493Y-105939825D01*
X201412007Y-105714034D01*
X201451300Y-105478563D01*
X201451300Y-105239837D01*
X201413300Y-105012113D01*
X201412008Y-105004370D01*
X201412007Y-105004366D01*
X201410131Y-104998902D01*
X201334493Y-104778575D01*
X201220871Y-104568621D01*
X201182090Y-104518795D01*
X201074247Y-104380236D01*
X201074244Y-104380233D01*
X200999605Y-104311523D01*
X200898606Y-104218547D01*
X200698752Y-104087976D01*
X200698749Y-104087974D01*
X200480135Y-103992081D01*
X200388498Y-103968876D01*
X200248711Y-103933477D01*
X200248706Y-103933476D01*
X200248708Y-103933476D01*
X200133756Y-103923951D01*
X200070380Y-103918700D01*
X198431220Y-103918700D01*
X198362993Y-103924353D01*
X198252893Y-103933476D01*
X198021464Y-103992081D01*
X197802850Y-104087974D01*
X197738865Y-104129778D01*
X197602994Y-104218547D01*
X197602991Y-104218549D01*
X197602989Y-104218551D01*
X197427355Y-104380233D01*
X197427352Y-104380236D01*
X197280732Y-104568616D01*
X197280728Y-104568622D01*
X197167107Y-104778574D01*
X197089592Y-105004366D01*
X197089591Y-105004370D01*
X197051481Y-105232757D01*
X197050300Y-105239837D01*
X197050300Y-105478563D01*
X185731744Y-105478563D01*
X185807342Y-105421971D01*
X185999571Y-105229742D01*
X186162487Y-105012113D01*
X186290008Y-104778575D01*
X186292770Y-104773517D01*
X186292770Y-104773515D01*
X186292772Y-104773513D01*
X186387775Y-104518801D01*
X186445561Y-104253160D01*
X186454386Y-104129777D01*
X186464955Y-103982005D01*
X186464955Y-103981994D01*
X186445562Y-103710853D01*
X186445561Y-103710851D01*
X186445561Y-103710840D01*
X186387775Y-103445199D01*
X186292772Y-103190487D01*
X186292771Y-103190486D01*
X186292770Y-103190482D01*
X186162488Y-102951888D01*
X185999573Y-102734260D01*
X185807339Y-102542026D01*
X185589711Y-102379111D01*
X185351117Y-102248829D01*
X185179424Y-102184791D01*
X185096401Y-102153825D01*
X185096399Y-102153824D01*
X185096395Y-102153823D01*
X184830762Y-102096039D01*
X184830746Y-102096037D01*
X184559605Y-102076645D01*
X184559595Y-102076645D01*
X184288453Y-102096037D01*
X184288437Y-102096039D01*
X184022804Y-102153823D01*
X183768082Y-102248829D01*
X183529488Y-102379111D01*
X183311860Y-102542026D01*
X183119626Y-102734260D01*
X182956711Y-102951888D01*
X182826429Y-103190482D01*
X182731423Y-103445204D01*
X182673639Y-103710837D01*
X182673637Y-103710853D01*
X182654245Y-103981994D01*
X182654245Y-103982005D01*
X174264955Y-103982005D01*
X174264955Y-103981994D01*
X174245562Y-103710853D01*
X174245561Y-103710851D01*
X174245561Y-103710840D01*
X174187775Y-103445199D01*
X174092772Y-103190487D01*
X174092771Y-103190486D01*
X174092770Y-103190482D01*
X173962488Y-102951888D01*
X173799573Y-102734260D01*
X173607339Y-102542026D01*
X173389711Y-102379111D01*
X173151117Y-102248829D01*
X172979424Y-102184791D01*
X172896401Y-102153825D01*
X172896399Y-102153824D01*
X172896395Y-102153823D01*
X172630762Y-102096039D01*
X172630746Y-102096037D01*
X172359605Y-102076645D01*
X172359595Y-102076645D01*
X172088453Y-102096037D01*
X172088437Y-102096039D01*
X171822804Y-102153823D01*
X171568082Y-102248829D01*
X171329488Y-102379111D01*
X171111860Y-102542026D01*
X170919626Y-102734260D01*
X170756711Y-102951888D01*
X170626429Y-103190482D01*
X170531423Y-103445204D01*
X170473639Y-103710837D01*
X170473637Y-103710853D01*
X170454245Y-103981994D01*
X170454245Y-103982005D01*
X163798735Y-103982005D01*
X163804877Y-103911800D01*
X163785807Y-103693823D01*
X163729175Y-103482470D01*
X163636702Y-103284162D01*
X163511198Y-103104923D01*
X163356477Y-102950202D01*
X163177239Y-102824698D01*
X163177240Y-102824698D01*
X163177238Y-102824697D01*
X163177233Y-102824694D01*
X162978930Y-102732225D01*
X162978928Y-102732224D01*
X162767577Y-102675593D01*
X162767578Y-102675593D01*
X162549600Y-102656523D01*
X162331621Y-102675593D01*
X162120273Y-102732224D01*
X162120272Y-102732224D01*
X162120270Y-102732225D01*
X161921962Y-102824698D01*
X161921959Y-102824699D01*
X161921959Y-102824700D01*
X161742720Y-102950204D01*
X161588003Y-103104921D01*
X161463661Y-103282501D01*
X161404577Y-103332078D01*
X161328621Y-103345471D01*
X161256144Y-103319092D01*
X161210571Y-103267965D01*
X161208019Y-103263250D01*
X161084925Y-103074841D01*
X160932499Y-102909262D01*
X160754902Y-102771033D01*
X160754901Y-102771032D01*
X160556972Y-102663918D01*
X160344118Y-102590844D01*
X160263600Y-102577407D01*
X160263600Y-103478125D01*
X160151915Y-103427120D01*
X160045363Y-103411800D01*
X159973837Y-103411800D01*
X159867285Y-103427120D01*
X159755600Y-103478125D01*
X159755600Y-102577407D01*
X159675081Y-102590844D01*
X159462227Y-102663918D01*
X159264298Y-102771032D01*
X159264297Y-102771033D01*
X159086700Y-102909262D01*
X158966167Y-103040196D01*
X158901022Y-103081487D01*
X158823960Y-103084675D01*
X158755629Y-103048904D01*
X158714338Y-102983759D01*
X158709378Y-102962589D01*
X158705246Y-102936496D01*
X158647650Y-102823458D01*
X158557942Y-102733750D01*
X158554947Y-102732224D01*
X158444905Y-102676154D01*
X158429273Y-102673678D01*
X158351119Y-102661300D01*
X158351114Y-102661300D01*
X156588081Y-102661300D01*
X156494295Y-102676154D01*
X156494293Y-102676155D01*
X156381257Y-102733750D01*
X156291550Y-102823457D01*
X156233954Y-102936494D01*
X156233954Y-102936496D01*
X156219100Y-103030281D01*
X156219100Y-103030282D01*
X156219100Y-103030285D01*
X156219100Y-104793318D01*
X155055323Y-104793318D01*
X155060249Y-104749600D01*
X155058846Y-104737152D01*
X155041313Y-104581543D01*
X155041313Y-104581541D01*
X154985456Y-104421910D01*
X154895477Y-104278710D01*
X154775890Y-104159123D01*
X154632690Y-104069144D01*
X154473059Y-104013287D01*
X154473058Y-104013286D01*
X154473056Y-104013286D01*
X154305001Y-103994351D01*
X154304999Y-103994351D01*
X154136943Y-104013286D01*
X153977309Y-104069144D01*
X153834110Y-104159123D01*
X153714523Y-104278710D01*
X153624544Y-104421909D01*
X153568686Y-104581543D01*
X153549751Y-104749599D01*
X153549751Y-104749600D01*
X112904477Y-104749600D01*
X112902713Y-104733941D01*
X112846856Y-104574310D01*
X112756877Y-104431110D01*
X112637290Y-104311523D01*
X112494090Y-104221544D01*
X112334459Y-104165687D01*
X112334458Y-104165686D01*
X112334456Y-104165686D01*
X112166401Y-104146751D01*
X112166399Y-104146751D01*
X111998343Y-104165686D01*
X111838709Y-104221544D01*
X111695510Y-104311523D01*
X111575923Y-104431110D01*
X111485944Y-104574309D01*
X111430086Y-104733943D01*
X111411151Y-104901999D01*
X111411151Y-104902000D01*
X103691500Y-104902000D01*
X103691500Y-101752400D01*
X139681351Y-101752400D01*
X139700286Y-101920456D01*
X139700286Y-101920458D01*
X139700287Y-101920459D01*
X139756144Y-102080090D01*
X139846123Y-102223290D01*
X139965710Y-102342877D01*
X140108910Y-102432856D01*
X140268541Y-102488713D01*
X140380580Y-102501337D01*
X140436599Y-102507649D01*
X140436600Y-102507649D01*
X140436601Y-102507649D01*
X140478614Y-102502915D01*
X140604659Y-102488713D01*
X140764290Y-102432856D01*
X140907490Y-102342877D01*
X141027077Y-102223290D01*
X141117056Y-102080090D01*
X141172913Y-101920459D01*
X141191849Y-101752400D01*
X141172913Y-101584341D01*
X141117056Y-101424710D01*
X141027077Y-101281510D01*
X140907490Y-101161923D01*
X140764290Y-101071944D01*
X140604659Y-101016087D01*
X140604658Y-101016086D01*
X140604656Y-101016086D01*
X140436601Y-100997151D01*
X140436599Y-100997151D01*
X140268543Y-101016086D01*
X140108909Y-101071944D01*
X139965710Y-101161923D01*
X139846123Y-101281510D01*
X139756144Y-101424709D01*
X139700286Y-101584343D01*
X139681351Y-101752399D01*
X139681351Y-101752400D01*
X103691500Y-101752400D01*
X103691500Y-100328100D01*
X170341051Y-100328100D01*
X170359986Y-100496156D01*
X170359986Y-100496158D01*
X170359987Y-100496159D01*
X170415844Y-100655790D01*
X170505823Y-100798990D01*
X170625410Y-100918577D01*
X170768610Y-101008556D01*
X170928241Y-101064413D01*
X171040280Y-101077037D01*
X171096299Y-101083349D01*
X171096300Y-101083349D01*
X171096301Y-101083349D01*
X171138314Y-101078615D01*
X171264359Y-101064413D01*
X171423990Y-101008556D01*
X171567190Y-100918577D01*
X171686777Y-100798990D01*
X171776756Y-100655790D01*
X171832613Y-100496159D01*
X171851549Y-100328100D01*
X171832613Y-100160041D01*
X171776756Y-100000410D01*
X171686777Y-99857210D01*
X171567190Y-99737623D01*
X171423990Y-99647644D01*
X171264359Y-99591787D01*
X171264358Y-99591786D01*
X171264356Y-99591786D01*
X171096301Y-99572851D01*
X171096299Y-99572851D01*
X170928243Y-99591786D01*
X170768609Y-99647644D01*
X170625410Y-99737623D01*
X170505823Y-99857210D01*
X170415844Y-100000409D01*
X170359986Y-100160043D01*
X170341051Y-100328099D01*
X170341051Y-100328100D01*
X103691500Y-100328100D01*
X103691500Y-99187000D01*
X140773551Y-99187000D01*
X140792486Y-99355056D01*
X140792486Y-99355058D01*
X140792487Y-99355059D01*
X140848344Y-99514690D01*
X140938323Y-99657890D01*
X141057910Y-99777477D01*
X141201110Y-99867456D01*
X141360741Y-99923313D01*
X141472780Y-99935937D01*
X141528799Y-99942249D01*
X141528800Y-99942249D01*
X141528801Y-99942249D01*
X141570814Y-99937515D01*
X141696859Y-99923313D01*
X141856490Y-99867456D01*
X141999690Y-99777477D01*
X142119277Y-99657890D01*
X142209256Y-99514690D01*
X142265113Y-99355059D01*
X142284049Y-99187000D01*
X142265113Y-99018941D01*
X142209256Y-98859310D01*
X142119277Y-98716110D01*
X141999690Y-98596523D01*
X141856490Y-98506544D01*
X141696859Y-98450687D01*
X141696858Y-98450686D01*
X141696856Y-98450686D01*
X141528801Y-98431751D01*
X141528799Y-98431751D01*
X141360743Y-98450686D01*
X141201109Y-98506544D01*
X141057910Y-98596523D01*
X140938323Y-98716110D01*
X140848344Y-98859309D01*
X140792486Y-99018943D01*
X140773551Y-99186999D01*
X140773551Y-99187000D01*
X103691500Y-99187000D01*
X103691500Y-98094800D01*
X135210951Y-98094800D01*
X135229886Y-98262856D01*
X135229886Y-98262858D01*
X135229887Y-98262859D01*
X135285744Y-98422490D01*
X135375723Y-98565690D01*
X135495310Y-98685277D01*
X135638510Y-98775256D01*
X135798141Y-98831113D01*
X135910180Y-98843737D01*
X135966199Y-98850049D01*
X135966200Y-98850049D01*
X135966201Y-98850049D01*
X136008214Y-98845315D01*
X136134259Y-98831113D01*
X136293890Y-98775256D01*
X136437090Y-98685277D01*
X136556677Y-98565690D01*
X136646656Y-98422490D01*
X136702513Y-98262859D01*
X136721449Y-98094800D01*
X136702513Y-97926741D01*
X136646656Y-97767110D01*
X136556677Y-97623910D01*
X136437090Y-97504323D01*
X136293890Y-97414344D01*
X136134259Y-97358487D01*
X136134258Y-97358486D01*
X136134256Y-97358486D01*
X135966201Y-97339551D01*
X135966199Y-97339551D01*
X135798143Y-97358486D01*
X135638509Y-97414344D01*
X135495310Y-97504323D01*
X135375723Y-97623910D01*
X135285744Y-97767109D01*
X135229886Y-97926743D01*
X135210951Y-98094799D01*
X135210951Y-98094800D01*
X103691500Y-98094800D01*
X103691500Y-95357205D01*
X115961445Y-95357205D01*
X115980837Y-95628346D01*
X115980839Y-95628362D01*
X116038623Y-95893995D01*
X116133629Y-96148717D01*
X116263911Y-96387311D01*
X116426826Y-96604939D01*
X116619060Y-96797173D01*
X116836688Y-96960088D01*
X117075282Y-97090370D01*
X117075286Y-97090371D01*
X117075287Y-97090372D01*
X117329999Y-97185375D01*
X117595640Y-97243161D01*
X117595651Y-97243161D01*
X117595653Y-97243162D01*
X117866795Y-97262555D01*
X117866800Y-97262555D01*
X117866805Y-97262555D01*
X118137946Y-97243162D01*
X118137945Y-97243162D01*
X118137960Y-97243161D01*
X118403601Y-97185375D01*
X118658313Y-97090372D01*
X118896913Y-96960087D01*
X119114542Y-96797171D01*
X119306771Y-96604942D01*
X119469687Y-96387313D01*
X119599972Y-96148713D01*
X119694975Y-95894001D01*
X119752761Y-95628360D01*
X119762221Y-95496091D01*
X119772155Y-95357205D01*
X128161445Y-95357205D01*
X128180837Y-95628346D01*
X128180839Y-95628362D01*
X128238623Y-95893995D01*
X128333629Y-96148717D01*
X128463911Y-96387311D01*
X128626826Y-96604939D01*
X128819060Y-96797173D01*
X129036688Y-96960088D01*
X129275282Y-97090370D01*
X129275286Y-97090371D01*
X129275287Y-97090372D01*
X129529999Y-97185375D01*
X129795640Y-97243161D01*
X129795651Y-97243161D01*
X129795653Y-97243162D01*
X130066795Y-97262555D01*
X130066800Y-97262555D01*
X130066805Y-97262555D01*
X130337946Y-97243162D01*
X130337945Y-97243162D01*
X130337960Y-97243161D01*
X130603601Y-97185375D01*
X130858313Y-97090372D01*
X131096913Y-96960087D01*
X131314542Y-96797171D01*
X131506771Y-96604942D01*
X131669687Y-96387313D01*
X131799972Y-96148713D01*
X131894975Y-95894001D01*
X131952761Y-95628360D01*
X131962221Y-95496091D01*
X131972155Y-95357205D01*
X131972155Y-95357194D01*
X131964488Y-95250000D01*
X170392140Y-95250000D01*
X170411925Y-95438254D01*
X170442701Y-95532972D01*
X170470421Y-95618284D01*
X170525066Y-95712933D01*
X170565069Y-95782220D01*
X170691727Y-95922886D01*
X170691729Y-95922888D01*
X170844870Y-96034151D01*
X171017797Y-96111144D01*
X171158915Y-96141139D01*
X171202952Y-96150500D01*
X171202954Y-96150500D01*
X171392248Y-96150500D01*
X171431604Y-96142134D01*
X171577403Y-96111144D01*
X171750330Y-96034151D01*
X171903471Y-95922888D01*
X171985072Y-95832261D01*
X172030130Y-95782220D01*
X172030131Y-95782218D01*
X172030133Y-95782216D01*
X172124779Y-95618284D01*
X172183274Y-95438256D01*
X172203060Y-95250000D01*
X172183274Y-95061744D01*
X172124779Y-94881716D01*
X172030133Y-94717784D01*
X172030132Y-94717783D01*
X172030130Y-94717779D01*
X171903472Y-94577113D01*
X171887745Y-94565687D01*
X171750330Y-94465849D01*
X171750329Y-94465848D01*
X171750327Y-94465847D01*
X171577405Y-94388857D01*
X171577403Y-94388856D01*
X171470960Y-94366231D01*
X171392248Y-94349500D01*
X171392246Y-94349500D01*
X171202954Y-94349500D01*
X171202952Y-94349500D01*
X171102992Y-94370747D01*
X171017797Y-94388856D01*
X171017795Y-94388856D01*
X171017794Y-94388857D01*
X170844872Y-94465847D01*
X170691727Y-94577113D01*
X170565069Y-94717779D01*
X170470422Y-94881714D01*
X170470419Y-94881721D01*
X170411925Y-95061745D01*
X170392140Y-95250000D01*
X131964488Y-95250000D01*
X131952762Y-95086053D01*
X131952761Y-95086051D01*
X131952761Y-95086040D01*
X131894975Y-94820399D01*
X131799972Y-94565687D01*
X131799971Y-94565686D01*
X131799970Y-94565682D01*
X131669688Y-94327088D01*
X131506773Y-94109460D01*
X131314539Y-93917226D01*
X131137516Y-93784708D01*
X196910100Y-93784708D01*
X196910101Y-95496089D01*
X196913001Y-95532965D01*
X196913002Y-95532969D01*
X196958856Y-95690799D01*
X197042516Y-95832261D01*
X197042517Y-95832262D01*
X197042519Y-95832265D01*
X197158735Y-95948481D01*
X197300201Y-96032144D01*
X197458030Y-96077998D01*
X197494905Y-96080900D01*
X200726294Y-96080899D01*
X200763170Y-96077998D01*
X200920999Y-96032144D01*
X201062465Y-95948481D01*
X201178681Y-95832265D01*
X201262344Y-95690799D01*
X201308198Y-95532970D01*
X201311100Y-95496095D01*
X201311099Y-93784706D01*
X201308198Y-93747830D01*
X201262344Y-93590001D01*
X201178681Y-93448535D01*
X201062465Y-93332319D01*
X201062462Y-93332317D01*
X201062461Y-93332316D01*
X200920999Y-93248656D01*
X200763172Y-93202802D01*
X200750878Y-93201834D01*
X200726295Y-93199900D01*
X200726291Y-93199900D01*
X199290122Y-93199900D01*
X197494906Y-93199901D01*
X197481463Y-93200958D01*
X197458034Y-93202801D01*
X197458030Y-93202802D01*
X197300200Y-93248656D01*
X197158738Y-93332316D01*
X197042516Y-93448538D01*
X196958856Y-93590000D01*
X196913002Y-93747827D01*
X196910100Y-93784708D01*
X131137516Y-93784708D01*
X131096911Y-93754311D01*
X130858317Y-93624029D01*
X130679227Y-93557232D01*
X130603601Y-93529025D01*
X130603599Y-93529024D01*
X130603595Y-93529023D01*
X130337962Y-93471239D01*
X130337946Y-93471237D01*
X130066805Y-93451845D01*
X130066795Y-93451845D01*
X129795653Y-93471237D01*
X129795637Y-93471239D01*
X129530004Y-93529023D01*
X129275282Y-93624029D01*
X129036688Y-93754311D01*
X128819060Y-93917226D01*
X128626826Y-94109460D01*
X128463911Y-94327088D01*
X128333629Y-94565682D01*
X128238623Y-94820404D01*
X128180839Y-95086037D01*
X128180837Y-95086053D01*
X128161445Y-95357194D01*
X128161445Y-95357205D01*
X119772155Y-95357205D01*
X119772155Y-95357194D01*
X119752762Y-95086053D01*
X119752761Y-95086051D01*
X119752761Y-95086040D01*
X119694975Y-94820399D01*
X119599972Y-94565687D01*
X119599971Y-94565686D01*
X119599970Y-94565682D01*
X119469688Y-94327088D01*
X119306773Y-94109460D01*
X119114539Y-93917226D01*
X118896911Y-93754311D01*
X118658317Y-93624029D01*
X118479227Y-93557232D01*
X118403601Y-93529025D01*
X118403599Y-93529024D01*
X118403595Y-93529023D01*
X118137962Y-93471239D01*
X118137946Y-93471237D01*
X117866805Y-93451845D01*
X117866795Y-93451845D01*
X117595653Y-93471237D01*
X117595637Y-93471239D01*
X117330004Y-93529023D01*
X117075282Y-93624029D01*
X116836688Y-93754311D01*
X116619060Y-93917226D01*
X116426826Y-94109460D01*
X116263911Y-94327088D01*
X116133629Y-94565682D01*
X116038623Y-94820404D01*
X115980839Y-95086037D01*
X115980837Y-95086053D01*
X115961445Y-95357194D01*
X115961445Y-95357205D01*
X103691500Y-95357205D01*
X103691500Y-92735400D01*
X104671672Y-92735400D01*
X104678550Y-92792052D01*
X104748083Y-93032107D01*
X104748084Y-93032111D01*
X104855228Y-93257912D01*
X104855232Y-93257919D01*
X104997210Y-93463609D01*
X105170346Y-93643863D01*
X105370157Y-93794012D01*
X105591458Y-93910159D01*
X105828538Y-93989308D01*
X105828539Y-93989309D01*
X106075226Y-94029399D01*
X106075230Y-94029400D01*
X106706200Y-94029400D01*
X106706200Y-93133720D01*
X106791449Y-93166051D01*
X106917860Y-93181400D01*
X107002540Y-93181400D01*
X107128951Y-93166051D01*
X107214200Y-93133720D01*
X107214200Y-94029400D01*
X107782579Y-94029400D01*
X107969323Y-94014325D01*
X108211994Y-93954511D01*
X108441931Y-93856544D01*
X108441933Y-93856543D01*
X108653178Y-93722959D01*
X108840247Y-93557232D01*
X108998325Y-93363623D01*
X109123291Y-93147174D01*
X109123292Y-93147172D01*
X109211915Y-92913492D01*
X109211919Y-92913480D01*
X109248275Y-92735400D01*
X107617443Y-92735400D01*
X107619518Y-92731446D01*
X107660200Y-92566395D01*
X107660200Y-92396405D01*
X107619518Y-92231354D01*
X107617443Y-92227400D01*
X109248728Y-92227400D01*
X109241849Y-92170747D01*
X109172316Y-91930692D01*
X109172315Y-91930688D01*
X109065171Y-91704887D01*
X109065167Y-91704880D01*
X109022592Y-91643200D01*
X169630140Y-91643200D01*
X169649925Y-91831454D01*
X169708419Y-92011478D01*
X169708421Y-92011484D01*
X169708422Y-92011485D01*
X169803069Y-92175420D01*
X169929727Y-92316086D01*
X169929729Y-92316088D01*
X170082870Y-92427351D01*
X170255797Y-92504344D01*
X170396915Y-92534339D01*
X170440952Y-92543700D01*
X170440954Y-92543700D01*
X170630248Y-92543700D01*
X170669604Y-92535334D01*
X170815403Y-92504344D01*
X170988330Y-92427351D01*
X171141471Y-92316088D01*
X171221327Y-92227399D01*
X171268130Y-92175420D01*
X171268131Y-92175418D01*
X171268133Y-92175416D01*
X171362779Y-92011484D01*
X171421274Y-91831456D01*
X171425043Y-91795600D01*
X176358951Y-91795600D01*
X176377886Y-91963656D01*
X176377886Y-91963658D01*
X176377887Y-91963659D01*
X176433744Y-92123290D01*
X176523723Y-92266490D01*
X176643310Y-92386077D01*
X176786510Y-92476056D01*
X176946141Y-92531913D01*
X177050752Y-92543700D01*
X177114199Y-92550849D01*
X177114200Y-92550849D01*
X177114201Y-92550849D01*
X177177648Y-92543700D01*
X177282259Y-92531913D01*
X177441890Y-92476056D01*
X177585090Y-92386077D01*
X177704677Y-92266490D01*
X177794656Y-92123290D01*
X177850513Y-91963659D01*
X177869449Y-91795600D01*
X177850513Y-91627541D01*
X177794656Y-91467910D01*
X177704677Y-91324710D01*
X177585090Y-91205123D01*
X177441890Y-91115144D01*
X177282259Y-91059287D01*
X177282258Y-91059286D01*
X177282256Y-91059286D01*
X177114201Y-91040351D01*
X177114199Y-91040351D01*
X176946143Y-91059286D01*
X176786509Y-91115144D01*
X176643310Y-91205123D01*
X176523723Y-91324710D01*
X176433744Y-91467909D01*
X176377886Y-91627543D01*
X176358951Y-91795599D01*
X176358951Y-91795600D01*
X171425043Y-91795600D01*
X171441060Y-91643200D01*
X171421274Y-91454944D01*
X171362779Y-91274916D01*
X171268133Y-91110984D01*
X171268132Y-91110983D01*
X171268130Y-91110979D01*
X171141472Y-90970313D01*
X171127398Y-90960088D01*
X170988330Y-90859049D01*
X170988329Y-90859048D01*
X170988327Y-90859047D01*
X170815405Y-90782057D01*
X170815403Y-90782056D01*
X170708960Y-90759431D01*
X170630248Y-90742700D01*
X170630246Y-90742700D01*
X170440954Y-90742700D01*
X170440952Y-90742700D01*
X170340992Y-90763947D01*
X170255797Y-90782056D01*
X170255795Y-90782056D01*
X170255794Y-90782057D01*
X170082872Y-90859047D01*
X169929727Y-90970313D01*
X169803069Y-91110979D01*
X169708422Y-91274914D01*
X169708419Y-91274921D01*
X169649925Y-91454945D01*
X169630140Y-91643200D01*
X109022592Y-91643200D01*
X108923189Y-91499190D01*
X108750053Y-91318936D01*
X108550242Y-91168787D01*
X108328941Y-91052640D01*
X108091861Y-90973491D01*
X108091860Y-90973490D01*
X107845173Y-90933400D01*
X107214200Y-90933400D01*
X107214200Y-91829079D01*
X107128951Y-91796749D01*
X107002540Y-91781400D01*
X106917860Y-91781400D01*
X106791449Y-91796749D01*
X106706200Y-91829079D01*
X106706200Y-90933400D01*
X106137821Y-90933400D01*
X105951076Y-90948474D01*
X105708405Y-91008288D01*
X105478468Y-91106255D01*
X105478466Y-91106256D01*
X105267221Y-91239840D01*
X105080152Y-91405567D01*
X104922074Y-91599176D01*
X104797108Y-91815625D01*
X104797107Y-91815627D01*
X104708484Y-92049307D01*
X104708480Y-92049319D01*
X104672125Y-92227399D01*
X104672125Y-92227400D01*
X106302957Y-92227400D01*
X106300882Y-92231354D01*
X106260200Y-92396405D01*
X106260200Y-92566395D01*
X106300882Y-92731446D01*
X106302957Y-92735400D01*
X104671672Y-92735400D01*
X103691500Y-92735400D01*
X103691500Y-89357205D01*
X130161445Y-89357205D01*
X130180837Y-89628346D01*
X130180839Y-89628362D01*
X130238623Y-89893995D01*
X130333629Y-90148717D01*
X130463911Y-90387311D01*
X130626826Y-90604939D01*
X130819060Y-90797173D01*
X131036688Y-90960088D01*
X131275282Y-91090370D01*
X131275286Y-91090371D01*
X131275287Y-91090372D01*
X131529999Y-91185375D01*
X131795640Y-91243161D01*
X131795651Y-91243161D01*
X131795653Y-91243162D01*
X132066795Y-91262555D01*
X132066800Y-91262555D01*
X132066805Y-91262555D01*
X132337946Y-91243162D01*
X132337945Y-91243162D01*
X132337960Y-91243161D01*
X132603601Y-91185375D01*
X132858313Y-91090372D01*
X132898721Y-91068308D01*
X133096911Y-90960088D01*
X133096910Y-90960088D01*
X133096913Y-90960087D01*
X133314542Y-90797171D01*
X133506771Y-90604942D01*
X133669687Y-90387313D01*
X133713115Y-90307779D01*
X133799970Y-90148717D01*
X133799970Y-90148715D01*
X133799972Y-90148713D01*
X133894975Y-89894001D01*
X133912291Y-89814400D01*
X196822072Y-89814400D01*
X196828950Y-89871052D01*
X196898483Y-90111107D01*
X196898484Y-90111111D01*
X197005628Y-90336912D01*
X197005632Y-90336919D01*
X197147610Y-90542609D01*
X197320746Y-90722863D01*
X197520557Y-90873012D01*
X197741858Y-90989159D01*
X197978938Y-91068308D01*
X197978939Y-91068309D01*
X198225626Y-91108399D01*
X198225630Y-91108400D01*
X198856600Y-91108400D01*
X198856600Y-90212720D01*
X198941849Y-90245051D01*
X199068260Y-90260400D01*
X199152940Y-90260400D01*
X199279351Y-90245051D01*
X199364600Y-90212720D01*
X199364600Y-91108400D01*
X199932979Y-91108400D01*
X200119723Y-91093325D01*
X200362394Y-91033511D01*
X200592331Y-90935544D01*
X200592333Y-90935543D01*
X200803578Y-90801959D01*
X200990647Y-90636232D01*
X201148725Y-90442623D01*
X201273691Y-90226174D01*
X201273692Y-90226172D01*
X201362315Y-89992492D01*
X201362319Y-89992480D01*
X201398675Y-89814400D01*
X199767843Y-89814400D01*
X199769918Y-89810446D01*
X199810600Y-89645395D01*
X199810600Y-89475405D01*
X199769918Y-89310354D01*
X199767843Y-89306400D01*
X201399128Y-89306400D01*
X201392249Y-89249747D01*
X201322716Y-89009692D01*
X201322715Y-89009688D01*
X201215571Y-88783887D01*
X201215567Y-88783880D01*
X201073589Y-88578190D01*
X200900453Y-88397936D01*
X200700642Y-88247787D01*
X200479341Y-88131640D01*
X200242261Y-88052491D01*
X200242260Y-88052490D01*
X199995573Y-88012400D01*
X199364600Y-88012400D01*
X199364600Y-88908079D01*
X199279351Y-88875749D01*
X199152940Y-88860400D01*
X199068260Y-88860400D01*
X198941849Y-88875749D01*
X198856600Y-88908079D01*
X198856600Y-88012400D01*
X198288221Y-88012400D01*
X198101476Y-88027474D01*
X197858805Y-88087288D01*
X197628868Y-88185255D01*
X197628866Y-88185256D01*
X197417621Y-88318840D01*
X197230552Y-88484567D01*
X197072474Y-88678176D01*
X196947508Y-88894625D01*
X196947507Y-88894627D01*
X196858884Y-89128307D01*
X196858880Y-89128319D01*
X196822525Y-89306399D01*
X196822525Y-89306400D01*
X198453357Y-89306400D01*
X198451282Y-89310354D01*
X198410600Y-89475405D01*
X198410600Y-89645395D01*
X198451282Y-89810446D01*
X198453357Y-89814400D01*
X196822072Y-89814400D01*
X133912291Y-89814400D01*
X133952761Y-89628360D01*
X133972155Y-89357200D01*
X133968804Y-89310354D01*
X133952762Y-89086053D01*
X133952761Y-89086051D01*
X133952761Y-89086040D01*
X133894975Y-88820399D01*
X133799972Y-88565687D01*
X133799971Y-88565686D01*
X133799970Y-88565682D01*
X133691263Y-88366600D01*
X189848540Y-88366600D01*
X189868325Y-88554854D01*
X189880806Y-88593265D01*
X189926821Y-88734884D01*
X189976193Y-88820399D01*
X190021469Y-88898820D01*
X190148127Y-89039486D01*
X190148129Y-89039488D01*
X190301270Y-89150751D01*
X190301271Y-89150751D01*
X190301272Y-89150752D01*
X190325748Y-89161649D01*
X190474197Y-89227744D01*
X190615315Y-89257739D01*
X190659352Y-89267100D01*
X190659354Y-89267100D01*
X190848648Y-89267100D01*
X190888004Y-89258734D01*
X191033803Y-89227744D01*
X191206730Y-89150751D01*
X191359871Y-89039488D01*
X191453026Y-88936029D01*
X191486530Y-88898820D01*
X191486531Y-88898818D01*
X191486533Y-88898816D01*
X191581179Y-88734884D01*
X191639674Y-88554856D01*
X191659460Y-88366600D01*
X191639674Y-88178344D01*
X191581179Y-87998316D01*
X191486533Y-87834384D01*
X191486532Y-87834383D01*
X191486530Y-87834379D01*
X191359872Y-87693713D01*
X191206727Y-87582447D01*
X191033805Y-87505457D01*
X191033803Y-87505456D01*
X190927360Y-87482831D01*
X190848648Y-87466100D01*
X190848646Y-87466100D01*
X190659354Y-87466100D01*
X190659352Y-87466100D01*
X190559392Y-87487347D01*
X190474197Y-87505456D01*
X190474195Y-87505456D01*
X190474194Y-87505457D01*
X190301272Y-87582447D01*
X190148127Y-87693713D01*
X190021469Y-87834379D01*
X189926822Y-87998314D01*
X189926819Y-87998321D01*
X189868325Y-88178345D01*
X189848540Y-88366600D01*
X133691263Y-88366600D01*
X133669688Y-88327088D01*
X133506773Y-88109460D01*
X133314539Y-87917226D01*
X133096911Y-87754311D01*
X132858317Y-87624029D01*
X132686624Y-87559991D01*
X132603601Y-87529025D01*
X132603599Y-87529024D01*
X132603595Y-87529023D01*
X132337962Y-87471239D01*
X132337946Y-87471237D01*
X132066805Y-87451845D01*
X132066795Y-87451845D01*
X131795653Y-87471237D01*
X131795637Y-87471239D01*
X131530004Y-87529023D01*
X131275282Y-87624029D01*
X131036688Y-87754311D01*
X130819060Y-87917226D01*
X130626826Y-88109460D01*
X130463911Y-88327088D01*
X130333629Y-88565682D01*
X130238623Y-88820404D01*
X130180839Y-89086037D01*
X130180837Y-89086053D01*
X130161445Y-89357194D01*
X130161445Y-89357205D01*
X103691500Y-89357205D01*
X103691500Y-86545708D01*
X104759700Y-86545708D01*
X104759701Y-88257089D01*
X104762601Y-88293965D01*
X104762601Y-88293968D01*
X104762602Y-88293970D01*
X104772224Y-88327088D01*
X104808456Y-88451799D01*
X104892116Y-88593261D01*
X104892117Y-88593262D01*
X104892119Y-88593265D01*
X105008335Y-88709481D01*
X105149801Y-88793144D01*
X105307630Y-88838998D01*
X105344505Y-88841900D01*
X108575894Y-88841899D01*
X108612770Y-88838998D01*
X108770599Y-88793144D01*
X108912065Y-88709481D01*
X109028281Y-88593265D01*
X109111944Y-88451799D01*
X109157798Y-88293970D01*
X109160700Y-88257095D01*
X109160699Y-86545706D01*
X109157798Y-86508830D01*
X109111944Y-86351001D01*
X109028281Y-86209535D01*
X108981151Y-86162405D01*
X169563445Y-86162405D01*
X169582837Y-86433546D01*
X169582839Y-86433562D01*
X169640623Y-86699195D01*
X169735629Y-86953917D01*
X169865911Y-87192511D01*
X170028826Y-87410139D01*
X170221060Y-87602373D01*
X170438688Y-87765288D01*
X170677282Y-87895570D01*
X170677286Y-87895571D01*
X170677287Y-87895572D01*
X170931999Y-87990575D01*
X171197640Y-88048361D01*
X171197651Y-88048361D01*
X171197653Y-88048362D01*
X171468795Y-88067755D01*
X171468800Y-88067755D01*
X171468805Y-88067755D01*
X171739946Y-88048362D01*
X171739945Y-88048362D01*
X171739960Y-88048361D01*
X172005601Y-87990575D01*
X172260313Y-87895572D01*
X172498913Y-87765287D01*
X172716542Y-87602371D01*
X172908771Y-87410142D01*
X173071687Y-87192513D01*
X173201972Y-86953913D01*
X173296975Y-86699201D01*
X173354761Y-86433560D01*
X173374155Y-86162405D01*
X181763445Y-86162405D01*
X181782837Y-86433546D01*
X181782839Y-86433562D01*
X181840623Y-86699195D01*
X181935629Y-86953917D01*
X182065911Y-87192511D01*
X182228826Y-87410139D01*
X182421060Y-87602373D01*
X182638688Y-87765288D01*
X182877282Y-87895570D01*
X182877286Y-87895571D01*
X182877287Y-87895572D01*
X183131999Y-87990575D01*
X183397640Y-88048361D01*
X183397651Y-88048361D01*
X183397653Y-88048362D01*
X183668795Y-88067755D01*
X183668800Y-88067755D01*
X183668805Y-88067755D01*
X183939946Y-88048362D01*
X183939945Y-88048362D01*
X183939960Y-88048361D01*
X184205601Y-87990575D01*
X184460313Y-87895572D01*
X184698913Y-87765287D01*
X184916542Y-87602371D01*
X185108771Y-87410142D01*
X185271687Y-87192513D01*
X185401972Y-86953913D01*
X185496975Y-86699201D01*
X185554761Y-86433560D01*
X185574155Y-86162400D01*
X185569214Y-86093319D01*
X185554762Y-85891253D01*
X185554761Y-85891251D01*
X185554761Y-85891240D01*
X185496975Y-85625599D01*
X185401972Y-85370887D01*
X185401971Y-85370886D01*
X185401970Y-85370882D01*
X185271688Y-85132288D01*
X185108773Y-84914660D01*
X184916539Y-84722426D01*
X184752680Y-84599762D01*
X196910100Y-84599762D01*
X196949391Y-84835229D01*
X196949392Y-84835233D01*
X197026907Y-85061025D01*
X197140528Y-85270977D01*
X197140532Y-85270983D01*
X197287152Y-85459363D01*
X197287155Y-85459366D01*
X197287157Y-85459368D01*
X197462794Y-85621053D01*
X197662648Y-85751624D01*
X197662650Y-85751625D01*
X197881264Y-85847518D01*
X197881265Y-85847518D01*
X197881267Y-85847519D01*
X198112689Y-85906123D01*
X198291020Y-85920900D01*
X198291025Y-85920900D01*
X199930175Y-85920900D01*
X199930180Y-85920900D01*
X200108511Y-85906123D01*
X200339933Y-85847519D01*
X200558552Y-85751624D01*
X200758406Y-85621053D01*
X200934043Y-85459368D01*
X201080671Y-85270979D01*
X201194293Y-85061025D01*
X201271807Y-84835234D01*
X201311100Y-84599763D01*
X201311100Y-84361037D01*
X201271807Y-84125566D01*
X201194293Y-83899775D01*
X201080671Y-83689821D01*
X201032836Y-83628362D01*
X200934047Y-83501436D01*
X200934044Y-83501433D01*
X200777365Y-83357200D01*
X200758406Y-83339747D01*
X200558552Y-83209176D01*
X200558549Y-83209174D01*
X200339935Y-83113281D01*
X200232412Y-83086053D01*
X200108511Y-83054677D01*
X200108506Y-83054676D01*
X200108508Y-83054676D01*
X199993556Y-83045151D01*
X199930180Y-83039900D01*
X198291020Y-83039900D01*
X198222793Y-83045553D01*
X198112693Y-83054676D01*
X197881264Y-83113281D01*
X197662650Y-83209174D01*
X197565521Y-83272631D01*
X197462794Y-83339747D01*
X197462791Y-83339749D01*
X197462789Y-83339751D01*
X197287155Y-83501433D01*
X197287152Y-83501436D01*
X197140532Y-83689816D01*
X197140528Y-83689822D01*
X197026907Y-83899774D01*
X196949392Y-84125566D01*
X196949391Y-84125570D01*
X196910100Y-84361037D01*
X196910100Y-84599762D01*
X184752680Y-84599762D01*
X184698911Y-84559511D01*
X184460317Y-84429229D01*
X184277486Y-84361037D01*
X184205601Y-84334225D01*
X184205599Y-84334224D01*
X184205595Y-84334223D01*
X183939962Y-84276439D01*
X183939946Y-84276437D01*
X183668805Y-84257045D01*
X183668795Y-84257045D01*
X183397653Y-84276437D01*
X183397637Y-84276439D01*
X183132004Y-84334223D01*
X182877282Y-84429229D01*
X182638688Y-84559511D01*
X182421060Y-84722426D01*
X182228826Y-84914660D01*
X182065911Y-85132288D01*
X181935629Y-85370882D01*
X181840623Y-85625604D01*
X181782839Y-85891237D01*
X181782837Y-85891253D01*
X181763445Y-86162394D01*
X181763445Y-86162405D01*
X173374155Y-86162405D01*
X173374155Y-86162400D01*
X173369214Y-86093319D01*
X173354762Y-85891253D01*
X173354761Y-85891251D01*
X173354761Y-85891240D01*
X173296975Y-85625599D01*
X173201972Y-85370887D01*
X173201971Y-85370886D01*
X173201970Y-85370882D01*
X173071688Y-85132288D01*
X172908773Y-84914660D01*
X172716539Y-84722426D01*
X172498911Y-84559511D01*
X172260317Y-84429229D01*
X172077486Y-84361037D01*
X172005601Y-84334225D01*
X172005599Y-84334224D01*
X172005595Y-84334223D01*
X171739962Y-84276439D01*
X171739946Y-84276437D01*
X171468805Y-84257045D01*
X171468795Y-84257045D01*
X171197653Y-84276437D01*
X171197637Y-84276439D01*
X170932004Y-84334223D01*
X170677282Y-84429229D01*
X170438688Y-84559511D01*
X170221060Y-84722426D01*
X170028826Y-84914660D01*
X169865911Y-85132288D01*
X169735629Y-85370882D01*
X169640623Y-85625604D01*
X169582839Y-85891237D01*
X169582837Y-85891253D01*
X169563445Y-86162394D01*
X169563445Y-86162405D01*
X108981151Y-86162405D01*
X108912065Y-86093319D01*
X108912062Y-86093317D01*
X108912061Y-86093316D01*
X108770599Y-86009656D01*
X108612772Y-85963802D01*
X108600478Y-85962834D01*
X108575895Y-85960900D01*
X108575891Y-85960900D01*
X107139722Y-85960900D01*
X105344506Y-85960901D01*
X105331063Y-85961958D01*
X105307634Y-85963801D01*
X105307630Y-85963802D01*
X105149800Y-86009656D01*
X105008338Y-86093316D01*
X104892116Y-86209538D01*
X104808456Y-86351000D01*
X104762602Y-86508827D01*
X104759700Y-86545708D01*
X103691500Y-86545708D01*
X103691500Y-83357205D01*
X115961445Y-83357205D01*
X115980837Y-83628346D01*
X115980839Y-83628362D01*
X116038623Y-83893995D01*
X116133629Y-84148717D01*
X116263911Y-84387311D01*
X116426826Y-84604939D01*
X116619060Y-84797173D01*
X116836688Y-84960088D01*
X117075282Y-85090370D01*
X117075286Y-85090371D01*
X117075287Y-85090372D01*
X117329999Y-85185375D01*
X117595640Y-85243161D01*
X117595651Y-85243161D01*
X117595653Y-85243162D01*
X117866795Y-85262555D01*
X117866800Y-85262555D01*
X117866805Y-85262555D01*
X118137946Y-85243162D01*
X118137945Y-85243162D01*
X118137960Y-85243161D01*
X118403601Y-85185375D01*
X118658313Y-85090372D01*
X118896913Y-84960087D01*
X119114542Y-84797171D01*
X119306771Y-84604942D01*
X119469687Y-84387313D01*
X119530230Y-84276437D01*
X119599970Y-84148717D01*
X119599970Y-84148715D01*
X119599972Y-84148713D01*
X119694975Y-83894001D01*
X119752761Y-83628360D01*
X119772155Y-83357205D01*
X128161445Y-83357205D01*
X128180837Y-83628346D01*
X128180839Y-83628362D01*
X128238623Y-83893995D01*
X128333629Y-84148717D01*
X128463911Y-84387311D01*
X128626826Y-84604939D01*
X128819060Y-84797173D01*
X129036688Y-84960088D01*
X129275282Y-85090370D01*
X129275286Y-85090371D01*
X129275287Y-85090372D01*
X129529999Y-85185375D01*
X129795640Y-85243161D01*
X129795651Y-85243161D01*
X129795653Y-85243162D01*
X130066795Y-85262555D01*
X130066800Y-85262555D01*
X130066805Y-85262555D01*
X130337946Y-85243162D01*
X130337945Y-85243162D01*
X130337960Y-85243161D01*
X130603601Y-85185375D01*
X130858313Y-85090372D01*
X131096913Y-84960087D01*
X131314542Y-84797171D01*
X131506771Y-84604942D01*
X131669687Y-84387313D01*
X131730230Y-84276437D01*
X131799970Y-84148717D01*
X131799970Y-84148715D01*
X131799972Y-84148713D01*
X131894975Y-83894001D01*
X131952761Y-83628360D01*
X131972155Y-83357200D01*
X131952761Y-83086040D01*
X131894975Y-82820399D01*
X131799972Y-82565687D01*
X131799971Y-82565686D01*
X131799970Y-82565682D01*
X131669688Y-82327088D01*
X131506773Y-82109460D01*
X131314539Y-81917226D01*
X131096911Y-81754311D01*
X130858317Y-81624029D01*
X130686624Y-81559991D01*
X130603601Y-81529025D01*
X130603599Y-81529024D01*
X130603595Y-81529023D01*
X130337962Y-81471239D01*
X130337946Y-81471237D01*
X130066805Y-81451845D01*
X130066795Y-81451845D01*
X129795653Y-81471237D01*
X129795637Y-81471239D01*
X129530004Y-81529023D01*
X129275282Y-81624029D01*
X129036688Y-81754311D01*
X128819060Y-81917226D01*
X128626826Y-82109460D01*
X128463911Y-82327088D01*
X128333629Y-82565682D01*
X128238623Y-82820404D01*
X128180839Y-83086037D01*
X128180837Y-83086053D01*
X128161445Y-83357194D01*
X128161445Y-83357205D01*
X119772155Y-83357205D01*
X119772155Y-83357200D01*
X119752761Y-83086040D01*
X119694975Y-82820399D01*
X119599972Y-82565687D01*
X119599971Y-82565686D01*
X119599970Y-82565682D01*
X119469688Y-82327088D01*
X119306773Y-82109460D01*
X119114539Y-81917226D01*
X118896911Y-81754311D01*
X118658317Y-81624029D01*
X118486624Y-81559991D01*
X118403601Y-81529025D01*
X118403599Y-81529024D01*
X118403595Y-81529023D01*
X118137962Y-81471239D01*
X118137946Y-81471237D01*
X117866805Y-81451845D01*
X117866795Y-81451845D01*
X117595653Y-81471237D01*
X117595637Y-81471239D01*
X117330004Y-81529023D01*
X117075282Y-81624029D01*
X116836688Y-81754311D01*
X116619060Y-81917226D01*
X116426826Y-82109460D01*
X116263911Y-82327088D01*
X116133629Y-82565682D01*
X116038623Y-82820404D01*
X115980839Y-83086037D01*
X115980837Y-83086053D01*
X115961445Y-83357194D01*
X115961445Y-83357205D01*
X103691500Y-83357205D01*
X103691500Y-80162405D01*
X167563445Y-80162405D01*
X167582837Y-80433546D01*
X167582839Y-80433562D01*
X167640623Y-80699195D01*
X167735629Y-80953917D01*
X167865911Y-81192511D01*
X168028826Y-81410139D01*
X168221060Y-81602373D01*
X168438688Y-81765288D01*
X168677282Y-81895570D01*
X168677286Y-81895571D01*
X168677287Y-81895572D01*
X168931999Y-81990575D01*
X169197640Y-82048361D01*
X169197651Y-82048361D01*
X169197653Y-82048362D01*
X169468795Y-82067755D01*
X169468800Y-82067755D01*
X169468805Y-82067755D01*
X169739946Y-82048362D01*
X169739945Y-82048362D01*
X169739960Y-82048361D01*
X170005601Y-81990575D01*
X170260313Y-81895572D01*
X170498913Y-81765287D01*
X170716542Y-81602371D01*
X170908771Y-81410142D01*
X171071687Y-81192513D01*
X171201972Y-80953913D01*
X171296975Y-80699201D01*
X171354761Y-80433560D01*
X171374155Y-80162400D01*
X171354761Y-79891240D01*
X171296975Y-79625599D01*
X171257500Y-79519762D01*
X196910100Y-79519762D01*
X196949391Y-79755229D01*
X196949392Y-79755233D01*
X196996083Y-79891237D01*
X197026907Y-79981025D01*
X197125065Y-80162405D01*
X197140528Y-80190977D01*
X197140532Y-80190983D01*
X197287152Y-80379363D01*
X197287155Y-80379366D01*
X197287157Y-80379368D01*
X197462794Y-80541053D01*
X197662648Y-80671624D01*
X197662650Y-80671625D01*
X197881264Y-80767518D01*
X197881265Y-80767518D01*
X197881267Y-80767519D01*
X198112689Y-80826123D01*
X198291020Y-80840900D01*
X198291025Y-80840900D01*
X199930175Y-80840900D01*
X199930180Y-80840900D01*
X200108511Y-80826123D01*
X200339933Y-80767519D01*
X200558552Y-80671624D01*
X200758406Y-80541053D01*
X200934043Y-80379368D01*
X201080671Y-80190979D01*
X201194293Y-79981025D01*
X201271807Y-79755234D01*
X201311100Y-79519763D01*
X201311100Y-79281037D01*
X201271807Y-79045566D01*
X201194293Y-78819775D01*
X201080671Y-78609821D01*
X201041515Y-78559513D01*
X200934047Y-78421436D01*
X200934044Y-78421433D01*
X200839311Y-78334225D01*
X200758406Y-78259747D01*
X200558552Y-78129176D01*
X200558549Y-78129174D01*
X200339935Y-78033281D01*
X200248298Y-78010076D01*
X200108511Y-77974677D01*
X200108506Y-77974676D01*
X200108508Y-77974676D01*
X199993556Y-77965151D01*
X199930180Y-77959900D01*
X198291020Y-77959900D01*
X198222793Y-77965553D01*
X198112693Y-77974676D01*
X197881264Y-78033281D01*
X197662650Y-78129174D01*
X197565521Y-78192631D01*
X197462794Y-78259747D01*
X197462791Y-78259749D01*
X197462789Y-78259751D01*
X197287155Y-78421433D01*
X197287152Y-78421436D01*
X197140532Y-78609816D01*
X197140528Y-78609822D01*
X197026907Y-78819774D01*
X196949392Y-79045566D01*
X196949391Y-79045570D01*
X196910100Y-79281037D01*
X196910100Y-79519762D01*
X171257500Y-79519762D01*
X171201972Y-79370887D01*
X171201971Y-79370886D01*
X171201970Y-79370882D01*
X171071688Y-79132288D01*
X170908773Y-78914660D01*
X170716539Y-78722426D01*
X170498911Y-78559511D01*
X170260317Y-78429229D01*
X170088624Y-78365191D01*
X170005601Y-78334225D01*
X170005599Y-78334224D01*
X170005595Y-78334223D01*
X169739962Y-78276439D01*
X169739946Y-78276437D01*
X169468805Y-78257045D01*
X169468795Y-78257045D01*
X169197653Y-78276437D01*
X169197637Y-78276439D01*
X168932004Y-78334223D01*
X168677282Y-78429229D01*
X168438688Y-78559511D01*
X168221060Y-78722426D01*
X168028826Y-78914660D01*
X167865911Y-79132288D01*
X167735629Y-79370882D01*
X167640623Y-79625604D01*
X167582839Y-79891237D01*
X167582837Y-79891253D01*
X167563445Y-80162394D01*
X167563445Y-80162405D01*
X103691500Y-80162405D01*
X103691500Y-77563962D01*
X104771100Y-77563962D01*
X104810391Y-77799429D01*
X104810392Y-77799433D01*
X104887907Y-78025225D01*
X105001528Y-78235177D01*
X105001532Y-78235183D01*
X105148152Y-78423563D01*
X105148155Y-78423566D01*
X105148157Y-78423568D01*
X105323794Y-78585253D01*
X105523648Y-78715824D01*
X105523650Y-78715825D01*
X105742264Y-78811718D01*
X105742265Y-78811718D01*
X105742267Y-78811719D01*
X105973689Y-78870323D01*
X106152020Y-78885100D01*
X106152025Y-78885100D01*
X107791175Y-78885100D01*
X107791180Y-78885100D01*
X107969511Y-78870323D01*
X108200933Y-78811719D01*
X108419552Y-78715824D01*
X108619406Y-78585253D01*
X108795043Y-78423568D01*
X108941671Y-78235179D01*
X109055293Y-78025225D01*
X109132807Y-77799434D01*
X109172100Y-77563963D01*
X109172100Y-77325237D01*
X109132807Y-77089766D01*
X109055293Y-76863975D01*
X108941671Y-76654021D01*
X108894709Y-76593684D01*
X108795047Y-76465636D01*
X108795044Y-76465633D01*
X108619410Y-76303951D01*
X108619411Y-76303951D01*
X108619406Y-76303947D01*
X108499181Y-76225400D01*
X134806740Y-76225400D01*
X134826525Y-76413654D01*
X134826526Y-76413656D01*
X134885021Y-76593684D01*
X134885022Y-76593685D01*
X134979669Y-76757620D01*
X135075432Y-76863974D01*
X135106329Y-76898288D01*
X135259470Y-77009551D01*
X135432397Y-77086544D01*
X135573515Y-77116539D01*
X135617552Y-77125900D01*
X135617554Y-77125900D01*
X135806848Y-77125900D01*
X135846204Y-77117534D01*
X135992003Y-77086544D01*
X136164930Y-77009551D01*
X136318071Y-76898288D01*
X136390395Y-76817963D01*
X136444730Y-76757620D01*
X136444731Y-76757618D01*
X136444733Y-76757616D01*
X136539379Y-76593684D01*
X136597874Y-76413656D01*
X136617660Y-76225400D01*
X136597874Y-76037144D01*
X136539379Y-75857116D01*
X136444733Y-75693184D01*
X136444732Y-75693183D01*
X136444730Y-75693179D01*
X136318072Y-75552513D01*
X136264943Y-75513913D01*
X136164930Y-75441249D01*
X136164929Y-75441248D01*
X136164927Y-75441247D01*
X135992005Y-75364257D01*
X135992003Y-75364256D01*
X135885560Y-75341631D01*
X135806848Y-75324900D01*
X135806846Y-75324900D01*
X135617554Y-75324900D01*
X135617552Y-75324900D01*
X135517592Y-75346147D01*
X135432397Y-75364256D01*
X135432395Y-75364256D01*
X135432394Y-75364257D01*
X135259472Y-75441247D01*
X135106327Y-75552513D01*
X134979669Y-75693179D01*
X134885022Y-75857114D01*
X134885019Y-75857121D01*
X134826525Y-76037145D01*
X134806740Y-76225400D01*
X108499181Y-76225400D01*
X108419552Y-76173376D01*
X108419549Y-76173374D01*
X108200935Y-76077481D01*
X108109298Y-76054276D01*
X107969511Y-76018877D01*
X107969506Y-76018876D01*
X107969508Y-76018876D01*
X107854556Y-76009351D01*
X107791180Y-76004100D01*
X106152020Y-76004100D01*
X106083793Y-76009753D01*
X105973693Y-76018876D01*
X105742264Y-76077481D01*
X105523650Y-76173374D01*
X105444019Y-76225400D01*
X105323794Y-76303947D01*
X105323791Y-76303949D01*
X105323789Y-76303951D01*
X105148155Y-76465633D01*
X105148152Y-76465636D01*
X105001532Y-76654016D01*
X105001528Y-76654022D01*
X104887907Y-76863974D01*
X104810392Y-77089766D01*
X104810391Y-77089770D01*
X104771100Y-77325237D01*
X104771100Y-77563962D01*
X103691500Y-77563962D01*
X103691500Y-74777600D01*
X123730151Y-74777600D01*
X123749086Y-74945656D01*
X123749086Y-74945658D01*
X123749087Y-74945659D01*
X123804944Y-75105290D01*
X123894923Y-75248490D01*
X124014510Y-75368077D01*
X124157710Y-75458056D01*
X124317341Y-75513913D01*
X124429380Y-75526537D01*
X124485399Y-75532849D01*
X124485400Y-75532849D01*
X124485401Y-75532849D01*
X124527414Y-75528115D01*
X124653459Y-75513913D01*
X124813090Y-75458056D01*
X124956290Y-75368077D01*
X125075877Y-75248490D01*
X125165856Y-75105290D01*
X125221713Y-74945659D01*
X125240649Y-74777600D01*
X125221713Y-74609541D01*
X125165856Y-74449910D01*
X125075877Y-74306710D01*
X124956290Y-74187123D01*
X124916952Y-74162405D01*
X169563445Y-74162405D01*
X169582837Y-74433546D01*
X169582839Y-74433562D01*
X169640623Y-74699195D01*
X169735629Y-74953917D01*
X169865911Y-75192511D01*
X170028826Y-75410139D01*
X170221060Y-75602373D01*
X170438688Y-75765288D01*
X170677282Y-75895570D01*
X170677286Y-75895571D01*
X170677287Y-75895572D01*
X170931999Y-75990575D01*
X171197640Y-76048361D01*
X171197651Y-76048361D01*
X171197653Y-76048362D01*
X171468795Y-76067755D01*
X171468800Y-76067755D01*
X171468805Y-76067755D01*
X171739946Y-76048362D01*
X171739945Y-76048362D01*
X171739960Y-76048361D01*
X172005601Y-75990575D01*
X172260313Y-75895572D01*
X172498913Y-75765287D01*
X172716542Y-75602371D01*
X172908771Y-75410142D01*
X173071687Y-75192513D01*
X173201972Y-74953913D01*
X173296975Y-74699201D01*
X173354761Y-74433560D01*
X173354832Y-74432554D01*
X173357404Y-74396600D01*
X176231951Y-74396600D01*
X176250886Y-74564656D01*
X176250886Y-74564658D01*
X176250887Y-74564659D01*
X176306744Y-74724290D01*
X176396723Y-74867490D01*
X176516310Y-74987077D01*
X176659510Y-75077056D01*
X176819141Y-75132913D01*
X176931180Y-75145537D01*
X176987199Y-75151849D01*
X176987200Y-75151849D01*
X176987201Y-75151849D01*
X177029214Y-75147115D01*
X177155259Y-75132913D01*
X177314890Y-75077056D01*
X177458090Y-74987077D01*
X177577677Y-74867490D01*
X177667656Y-74724290D01*
X177723513Y-74564659D01*
X177742449Y-74396600D01*
X177723513Y-74228541D01*
X177700371Y-74162405D01*
X181763445Y-74162405D01*
X181782837Y-74433546D01*
X181782839Y-74433562D01*
X181840623Y-74699195D01*
X181935629Y-74953917D01*
X182065911Y-75192511D01*
X182228826Y-75410139D01*
X182421060Y-75602373D01*
X182638688Y-75765288D01*
X182877282Y-75895570D01*
X182877286Y-75895571D01*
X182877287Y-75895572D01*
X183131999Y-75990575D01*
X183397640Y-76048361D01*
X183397651Y-76048361D01*
X183397653Y-76048362D01*
X183668795Y-76067755D01*
X183668800Y-76067755D01*
X183668805Y-76067755D01*
X183939946Y-76048362D01*
X183939945Y-76048362D01*
X183939960Y-76048361D01*
X184205601Y-75990575D01*
X184460313Y-75895572D01*
X184698913Y-75765287D01*
X184916542Y-75602371D01*
X185108771Y-75410142D01*
X185271687Y-75192513D01*
X185401972Y-74953913D01*
X185496975Y-74699201D01*
X185553412Y-74439762D01*
X196910100Y-74439762D01*
X196949391Y-74675229D01*
X196949392Y-74675233D01*
X197026907Y-74901025D01*
X197140528Y-75110977D01*
X197140532Y-75110983D01*
X197287152Y-75299363D01*
X197287155Y-75299366D01*
X197287157Y-75299368D01*
X197462794Y-75461053D01*
X197662648Y-75591624D01*
X197662650Y-75591625D01*
X197881264Y-75687518D01*
X197881265Y-75687518D01*
X197881267Y-75687519D01*
X198112689Y-75746123D01*
X198291020Y-75760900D01*
X198291025Y-75760900D01*
X199930175Y-75760900D01*
X199930180Y-75760900D01*
X200108511Y-75746123D01*
X200339933Y-75687519D01*
X200558552Y-75591624D01*
X200758406Y-75461053D01*
X200934043Y-75299368D01*
X201080671Y-75110979D01*
X201194293Y-74901025D01*
X201271807Y-74675234D01*
X201311100Y-74439763D01*
X201311100Y-74201037D01*
X201271807Y-73965566D01*
X201194293Y-73739775D01*
X201080671Y-73529821D01*
X201064698Y-73509299D01*
X200934047Y-73341436D01*
X200934044Y-73341433D01*
X200758410Y-73179751D01*
X200758411Y-73179751D01*
X200758406Y-73179747D01*
X200558552Y-73049176D01*
X200558549Y-73049174D01*
X200339935Y-72953281D01*
X200213911Y-72921368D01*
X200108511Y-72894677D01*
X200108506Y-72894676D01*
X200108508Y-72894676D01*
X199993556Y-72885151D01*
X199930180Y-72879900D01*
X198291020Y-72879900D01*
X198222793Y-72885553D01*
X198112693Y-72894676D01*
X197881264Y-72953281D01*
X197662650Y-73049174D01*
X197565521Y-73112631D01*
X197462794Y-73179747D01*
X197462791Y-73179749D01*
X197462789Y-73179751D01*
X197287155Y-73341433D01*
X197287152Y-73341436D01*
X197140532Y-73529816D01*
X197140528Y-73529822D01*
X197026907Y-73739774D01*
X196949392Y-73965566D01*
X196949391Y-73965570D01*
X196910100Y-74201037D01*
X196910100Y-74439762D01*
X185553412Y-74439762D01*
X185554761Y-74433560D01*
X185554832Y-74432554D01*
X185574155Y-74162405D01*
X185574155Y-74162394D01*
X185554762Y-73891253D01*
X185554761Y-73891251D01*
X185554761Y-73891240D01*
X185496975Y-73625599D01*
X185401972Y-73370887D01*
X185401971Y-73370886D01*
X185401970Y-73370882D01*
X185271688Y-73132288D01*
X185108773Y-72914660D01*
X184916539Y-72722426D01*
X184698911Y-72559511D01*
X184460317Y-72429229D01*
X184288624Y-72365191D01*
X184205601Y-72334225D01*
X184205599Y-72334224D01*
X184205595Y-72334223D01*
X183939962Y-72276439D01*
X183939946Y-72276437D01*
X183668805Y-72257045D01*
X183668795Y-72257045D01*
X183397653Y-72276437D01*
X183397637Y-72276439D01*
X183132004Y-72334223D01*
X182877282Y-72429229D01*
X182638688Y-72559511D01*
X182421060Y-72722426D01*
X182228826Y-72914660D01*
X182065911Y-73132288D01*
X181935629Y-73370882D01*
X181840623Y-73625604D01*
X181782839Y-73891237D01*
X181782837Y-73891253D01*
X181763445Y-74162394D01*
X181763445Y-74162405D01*
X177700371Y-74162405D01*
X177667656Y-74068910D01*
X177577677Y-73925710D01*
X177458090Y-73806123D01*
X177314890Y-73716144D01*
X177155259Y-73660287D01*
X177155258Y-73660286D01*
X177155256Y-73660286D01*
X176987201Y-73641351D01*
X176987199Y-73641351D01*
X176819143Y-73660286D01*
X176659509Y-73716144D01*
X176516310Y-73806123D01*
X176396723Y-73925710D01*
X176306744Y-74068909D01*
X176250886Y-74228543D01*
X176231951Y-74396599D01*
X176231951Y-74396600D01*
X173357404Y-74396600D01*
X173374155Y-74162405D01*
X173374155Y-74162394D01*
X173354762Y-73891253D01*
X173354761Y-73891251D01*
X173354761Y-73891240D01*
X173296975Y-73625599D01*
X173201972Y-73370887D01*
X173201971Y-73370886D01*
X173201970Y-73370882D01*
X173071688Y-73132288D01*
X172908773Y-72914660D01*
X172716539Y-72722426D01*
X172498911Y-72559511D01*
X172260317Y-72429229D01*
X172088624Y-72365191D01*
X172005601Y-72334225D01*
X172005599Y-72334224D01*
X172005595Y-72334223D01*
X171739962Y-72276439D01*
X171739946Y-72276437D01*
X171468805Y-72257045D01*
X171468795Y-72257045D01*
X171197653Y-72276437D01*
X171197637Y-72276439D01*
X170932004Y-72334223D01*
X170677282Y-72429229D01*
X170438688Y-72559511D01*
X170221060Y-72722426D01*
X170028826Y-72914660D01*
X169865911Y-73132288D01*
X169735629Y-73370882D01*
X169640623Y-73625604D01*
X169582839Y-73891237D01*
X169582837Y-73891253D01*
X169563445Y-74162394D01*
X169563445Y-74162405D01*
X124916952Y-74162405D01*
X124813090Y-74097144D01*
X124653459Y-74041287D01*
X124653458Y-74041286D01*
X124653456Y-74041286D01*
X124485401Y-74022351D01*
X124485399Y-74022351D01*
X124317343Y-74041286D01*
X124157709Y-74097144D01*
X124014510Y-74187123D01*
X123894923Y-74306710D01*
X123804944Y-74449909D01*
X123749086Y-74609543D01*
X123730151Y-74777599D01*
X123730151Y-74777600D01*
X103691500Y-74777600D01*
X103691500Y-72618600D01*
X104683072Y-72618600D01*
X104689950Y-72675252D01*
X104759483Y-72915307D01*
X104759484Y-72915311D01*
X104866628Y-73141112D01*
X104866632Y-73141119D01*
X105008610Y-73346809D01*
X105181746Y-73527063D01*
X105381557Y-73677212D01*
X105602858Y-73793359D01*
X105839938Y-73872508D01*
X105839939Y-73872509D01*
X106086626Y-73912599D01*
X106086630Y-73912600D01*
X106717600Y-73912600D01*
X106717600Y-73016920D01*
X106802849Y-73049251D01*
X106929260Y-73064600D01*
X107013940Y-73064600D01*
X107140351Y-73049251D01*
X107225600Y-73016920D01*
X107225600Y-73912600D01*
X107793979Y-73912600D01*
X107980723Y-73897525D01*
X108223394Y-73837711D01*
X108453331Y-73739744D01*
X108453333Y-73739743D01*
X108664578Y-73606159D01*
X108851647Y-73440432D01*
X109009725Y-73246823D01*
X109134691Y-73030374D01*
X109134692Y-73030372D01*
X109223315Y-72796692D01*
X109223319Y-72796680D01*
X109259675Y-72618600D01*
X107628843Y-72618600D01*
X107630918Y-72614646D01*
X107671600Y-72449595D01*
X107671600Y-72279605D01*
X107636204Y-72136001D01*
X118193435Y-72136001D01*
X118213631Y-72315252D01*
X118213631Y-72315254D01*
X118213632Y-72315255D01*
X118273211Y-72485522D01*
X118369184Y-72638262D01*
X118496738Y-72765816D01*
X118649478Y-72861789D01*
X118819745Y-72921368D01*
X118909372Y-72931466D01*
X118998999Y-72941565D01*
X118999000Y-72941565D01*
X118999001Y-72941565D01*
X119043813Y-72936515D01*
X119178255Y-72921368D01*
X119348522Y-72861789D01*
X119501262Y-72765816D01*
X119628816Y-72638262D01*
X119724789Y-72485522D01*
X119784368Y-72315255D01*
X119804565Y-72136000D01*
X119784368Y-71956745D01*
X119724789Y-71786478D01*
X119628816Y-71633738D01*
X119501262Y-71506184D01*
X119348522Y-71410211D01*
X119178255Y-71350632D01*
X119178254Y-71350631D01*
X119178253Y-71350631D01*
X118999001Y-71330435D01*
X118998999Y-71330435D01*
X118819747Y-71350631D01*
X118649477Y-71410211D01*
X118496738Y-71506184D01*
X118369184Y-71633738D01*
X118273211Y-71786477D01*
X118213631Y-71956747D01*
X118193435Y-72135998D01*
X118193435Y-72136001D01*
X107636204Y-72136001D01*
X107630918Y-72114554D01*
X107628843Y-72110600D01*
X109260128Y-72110600D01*
X109253249Y-72053947D01*
X109183716Y-71813892D01*
X109183715Y-71813888D01*
X109076571Y-71588087D01*
X109076567Y-71588080D01*
X108934589Y-71382390D01*
X108761453Y-71202136D01*
X108561642Y-71051987D01*
X108340341Y-70935840D01*
X108103261Y-70856691D01*
X108103260Y-70856690D01*
X107856573Y-70816600D01*
X107225600Y-70816600D01*
X107225600Y-71712279D01*
X107140351Y-71679949D01*
X107013940Y-71664600D01*
X106929260Y-71664600D01*
X106802849Y-71679949D01*
X106717600Y-71712279D01*
X106717600Y-70816600D01*
X106149221Y-70816600D01*
X105962476Y-70831674D01*
X105719805Y-70891488D01*
X105489868Y-70989455D01*
X105489866Y-70989456D01*
X105278621Y-71123040D01*
X105091552Y-71288767D01*
X104933474Y-71482376D01*
X104808508Y-71698825D01*
X104808507Y-71698827D01*
X104719884Y-71932507D01*
X104719880Y-71932519D01*
X104683525Y-72110599D01*
X104683525Y-72110600D01*
X106314357Y-72110600D01*
X106312282Y-72114554D01*
X106271600Y-72279605D01*
X106271600Y-72449595D01*
X106312282Y-72614646D01*
X106314357Y-72618600D01*
X104683072Y-72618600D01*
X103691500Y-72618600D01*
X103691500Y-67403962D01*
X104771100Y-67403962D01*
X104810391Y-67639429D01*
X104810392Y-67639433D01*
X104887907Y-67865225D01*
X105001528Y-68075177D01*
X105001532Y-68075183D01*
X105148152Y-68263563D01*
X105148155Y-68263566D01*
X105148157Y-68263568D01*
X105323794Y-68425253D01*
X105523648Y-68555824D01*
X105523650Y-68555825D01*
X105742264Y-68651718D01*
X105742265Y-68651718D01*
X105742267Y-68651719D01*
X105973689Y-68710323D01*
X106152020Y-68725100D01*
X106152025Y-68725100D01*
X107791175Y-68725100D01*
X107791180Y-68725100D01*
X107969511Y-68710323D01*
X108200933Y-68651719D01*
X108419552Y-68555824D01*
X108619406Y-68425253D01*
X108795043Y-68263568D01*
X108941671Y-68075179D01*
X109055293Y-67865225D01*
X109132807Y-67639434D01*
X109172100Y-67403963D01*
X109172100Y-67165237D01*
X109132807Y-66929766D01*
X109055293Y-66703975D01*
X108941671Y-66494021D01*
X108925698Y-66473499D01*
X108795047Y-66305636D01*
X108795044Y-66305633D01*
X108760904Y-66274205D01*
X120292645Y-66274205D01*
X120312037Y-66545346D01*
X120312039Y-66545362D01*
X120369823Y-66810995D01*
X120464829Y-67065717D01*
X120595111Y-67304311D01*
X120758026Y-67521939D01*
X120950260Y-67714173D01*
X121167888Y-67877088D01*
X121406482Y-68007370D01*
X121406486Y-68007371D01*
X121406487Y-68007372D01*
X121661199Y-68102375D01*
X121926840Y-68160161D01*
X121926851Y-68160161D01*
X121926853Y-68160162D01*
X122197995Y-68179555D01*
X122198000Y-68179555D01*
X122198005Y-68179555D01*
X122469146Y-68160162D01*
X122469145Y-68160162D01*
X122469160Y-68160161D01*
X122734801Y-68102375D01*
X122989513Y-68007372D01*
X123228113Y-67877087D01*
X123445742Y-67714171D01*
X123637971Y-67521942D01*
X123800887Y-67304313D01*
X123931172Y-67065713D01*
X124026175Y-66811001D01*
X124083961Y-66545360D01*
X124103355Y-66274205D01*
X132492645Y-66274205D01*
X132512037Y-66545346D01*
X132512039Y-66545362D01*
X132569823Y-66810995D01*
X132664829Y-67065717D01*
X132795111Y-67304311D01*
X132958026Y-67521939D01*
X133150260Y-67714173D01*
X133367888Y-67877088D01*
X133606482Y-68007370D01*
X133606486Y-68007371D01*
X133606487Y-68007372D01*
X133861199Y-68102375D01*
X134126840Y-68160161D01*
X134126851Y-68160161D01*
X134126853Y-68160162D01*
X134397995Y-68179555D01*
X134398000Y-68179555D01*
X134398005Y-68179555D01*
X134669146Y-68160162D01*
X134669145Y-68160162D01*
X134669160Y-68160161D01*
X134934801Y-68102375D01*
X135189513Y-68007372D01*
X135428113Y-67877087D01*
X135645742Y-67714171D01*
X135837971Y-67521942D01*
X136000887Y-67304313D01*
X136131172Y-67065713D01*
X136226175Y-66811001D01*
X136283961Y-66545360D01*
X136303355Y-66274200D01*
X136294039Y-66143951D01*
X136283962Y-66003053D01*
X136283961Y-66003051D01*
X136283961Y-66003040D01*
X136226175Y-65737399D01*
X136131172Y-65482687D01*
X136131171Y-65482686D01*
X136131170Y-65482682D01*
X136000888Y-65244088D01*
X135837973Y-65026460D01*
X135645739Y-64834226D01*
X135428111Y-64671311D01*
X135189517Y-64541029D01*
X135017824Y-64476991D01*
X134934801Y-64446025D01*
X134934799Y-64446024D01*
X134934795Y-64446023D01*
X134669162Y-64388239D01*
X134669146Y-64388237D01*
X134398005Y-64368845D01*
X134397995Y-64368845D01*
X134126853Y-64388237D01*
X134126837Y-64388239D01*
X133861204Y-64446023D01*
X133606482Y-64541029D01*
X133367888Y-64671311D01*
X133150260Y-64834226D01*
X132958026Y-65026460D01*
X132795111Y-65244088D01*
X132664829Y-65482682D01*
X132569823Y-65737404D01*
X132512039Y-66003037D01*
X132512037Y-66003053D01*
X132492645Y-66274194D01*
X132492645Y-66274205D01*
X124103355Y-66274205D01*
X124103355Y-66274200D01*
X124094039Y-66143951D01*
X124083962Y-66003053D01*
X124083961Y-66003051D01*
X124083961Y-66003040D01*
X124026175Y-65737399D01*
X123931172Y-65482687D01*
X123931171Y-65482686D01*
X123931170Y-65482682D01*
X123800888Y-65244088D01*
X123637973Y-65026460D01*
X123445739Y-64834226D01*
X123228111Y-64671311D01*
X122989517Y-64541029D01*
X122817824Y-64476991D01*
X122734801Y-64446025D01*
X122734799Y-64446024D01*
X122734795Y-64446023D01*
X122469162Y-64388239D01*
X122469146Y-64388237D01*
X122198005Y-64368845D01*
X122197995Y-64368845D01*
X121926853Y-64388237D01*
X121926837Y-64388239D01*
X121661204Y-64446023D01*
X121406482Y-64541029D01*
X121167888Y-64671311D01*
X120950260Y-64834226D01*
X120758026Y-65026460D01*
X120595111Y-65244088D01*
X120464829Y-65482682D01*
X120369823Y-65737404D01*
X120312039Y-66003037D01*
X120312037Y-66003053D01*
X120292645Y-66274194D01*
X120292645Y-66274205D01*
X108760904Y-66274205D01*
X108619410Y-66143951D01*
X108619411Y-66143951D01*
X108619406Y-66143947D01*
X108419552Y-66013376D01*
X108419549Y-66013374D01*
X108200935Y-65917481D01*
X108109298Y-65894276D01*
X107969511Y-65858877D01*
X107969506Y-65858876D01*
X107969508Y-65858876D01*
X107854556Y-65849351D01*
X107791180Y-65844100D01*
X106152020Y-65844100D01*
X106083793Y-65849753D01*
X105973693Y-65858876D01*
X105742264Y-65917481D01*
X105523650Y-66013374D01*
X105426521Y-66076831D01*
X105323794Y-66143947D01*
X105323791Y-66143949D01*
X105323789Y-66143951D01*
X105148155Y-66305633D01*
X105148152Y-66305636D01*
X105001532Y-66494016D01*
X105001528Y-66494022D01*
X104887907Y-66703974D01*
X104810392Y-66929766D01*
X104810391Y-66929770D01*
X104771100Y-67165237D01*
X104771100Y-67403962D01*
X103691500Y-67403962D01*
X103691500Y-62323962D01*
X104771100Y-62323962D01*
X104810391Y-62559429D01*
X104810392Y-62559433D01*
X104887907Y-62785225D01*
X105001528Y-62995177D01*
X105001532Y-62995183D01*
X105148152Y-63183563D01*
X105148155Y-63183566D01*
X105148157Y-63183568D01*
X105323794Y-63345253D01*
X105523648Y-63475824D01*
X105523650Y-63475825D01*
X105742264Y-63571718D01*
X105742265Y-63571718D01*
X105742267Y-63571719D01*
X105973689Y-63630323D01*
X106152020Y-63645100D01*
X106152025Y-63645100D01*
X107791175Y-63645100D01*
X107791180Y-63645100D01*
X107969511Y-63630323D01*
X108200933Y-63571719D01*
X108419552Y-63475824D01*
X108619406Y-63345253D01*
X108795043Y-63183568D01*
X108941671Y-62995179D01*
X109055293Y-62785225D01*
X109132807Y-62559434D01*
X109172100Y-62323963D01*
X109172100Y-62085237D01*
X109132807Y-61849766D01*
X109055293Y-61623975D01*
X108941671Y-61414021D01*
X108914325Y-61378886D01*
X108795047Y-61225636D01*
X108795044Y-61225633D01*
X108630628Y-61074278D01*
X108619406Y-61063947D01*
X108419552Y-60933376D01*
X108419549Y-60933374D01*
X108200935Y-60837481D01*
X108096342Y-60810995D01*
X107969511Y-60778877D01*
X107969506Y-60778876D01*
X107969508Y-60778876D01*
X107854556Y-60769351D01*
X107791180Y-60764100D01*
X106152020Y-60764100D01*
X106083793Y-60769753D01*
X105973693Y-60778876D01*
X105742264Y-60837481D01*
X105523650Y-60933374D01*
X105426521Y-60996831D01*
X105323794Y-61063947D01*
X105323791Y-61063949D01*
X105323789Y-61063951D01*
X105148155Y-61225633D01*
X105148152Y-61225636D01*
X105001532Y-61414016D01*
X105001528Y-61414022D01*
X104887907Y-61623974D01*
X104810392Y-61849766D01*
X104810391Y-61849770D01*
X104771100Y-62085237D01*
X104771100Y-62323962D01*
X103691500Y-62323962D01*
X103691500Y-60274205D01*
X134492645Y-60274205D01*
X134512037Y-60545346D01*
X134512039Y-60545362D01*
X134569823Y-60810995D01*
X134664829Y-61065717D01*
X134795111Y-61304311D01*
X134958026Y-61521939D01*
X135150260Y-61714173D01*
X135367888Y-61877088D01*
X135606482Y-62007370D01*
X135606486Y-62007371D01*
X135606487Y-62007372D01*
X135861199Y-62102375D01*
X136126840Y-62160161D01*
X136126851Y-62160161D01*
X136126853Y-62160162D01*
X136397995Y-62179555D01*
X136398000Y-62179555D01*
X136398005Y-62179555D01*
X136669146Y-62160162D01*
X136669145Y-62160162D01*
X136669160Y-62160161D01*
X136934801Y-62102375D01*
X137189513Y-62007372D01*
X137428113Y-61877087D01*
X137645742Y-61714171D01*
X137837971Y-61521942D01*
X138000887Y-61304313D01*
X138044315Y-61224779D01*
X138131170Y-61065717D01*
X138131170Y-61065715D01*
X138131172Y-61065713D01*
X138226175Y-60811001D01*
X138249016Y-60706000D01*
X140420140Y-60706000D01*
X140439925Y-60894254D01*
X140439926Y-60894256D01*
X140498421Y-61074284D01*
X140498422Y-61074285D01*
X140593069Y-61238220D01*
X140719727Y-61378886D01*
X140719729Y-61378888D01*
X140872870Y-61490151D01*
X141045797Y-61567144D01*
X141186915Y-61597139D01*
X141230952Y-61606500D01*
X141230954Y-61606500D01*
X141420248Y-61606500D01*
X141459604Y-61598134D01*
X141605403Y-61567144D01*
X141778330Y-61490151D01*
X141931471Y-61378888D01*
X142003795Y-61298563D01*
X142058130Y-61238220D01*
X142058131Y-61238218D01*
X142058133Y-61238216D01*
X142152779Y-61074284D01*
X142211274Y-60894256D01*
X142231060Y-60706000D01*
X142211274Y-60517744D01*
X142152779Y-60337716D01*
X142058133Y-60173784D01*
X142058132Y-60173783D01*
X142058130Y-60173779D01*
X141931472Y-60033113D01*
X141778327Y-59921847D01*
X141605405Y-59844857D01*
X141605403Y-59844856D01*
X141498960Y-59822231D01*
X141420248Y-59805500D01*
X141420246Y-59805500D01*
X141230954Y-59805500D01*
X141230952Y-59805500D01*
X141130992Y-59826747D01*
X141045797Y-59844856D01*
X141045795Y-59844856D01*
X141045794Y-59844857D01*
X140872872Y-59921847D01*
X140719727Y-60033113D01*
X140593069Y-60173779D01*
X140498422Y-60337714D01*
X140498419Y-60337721D01*
X140439925Y-60517745D01*
X140420140Y-60706000D01*
X138249016Y-60706000D01*
X138283961Y-60545360D01*
X138298812Y-60337716D01*
X138303355Y-60274205D01*
X138303355Y-60274194D01*
X138283962Y-60003053D01*
X138283961Y-60003051D01*
X138283961Y-60003040D01*
X138226175Y-59737399D01*
X138131172Y-59482687D01*
X138131171Y-59482686D01*
X138131170Y-59482682D01*
X138000888Y-59244088D01*
X137837973Y-59026460D01*
X137645739Y-58834226D01*
X137428111Y-58671311D01*
X137189517Y-58541029D01*
X137017824Y-58476991D01*
X136934801Y-58446025D01*
X136934799Y-58446024D01*
X136934795Y-58446023D01*
X136669162Y-58388239D01*
X136669146Y-58388237D01*
X136398005Y-58368845D01*
X136397995Y-58368845D01*
X136126853Y-58388237D01*
X136126837Y-58388239D01*
X135861204Y-58446023D01*
X135606482Y-58541029D01*
X135367888Y-58671311D01*
X135150260Y-58834226D01*
X134958026Y-59026460D01*
X134795111Y-59244088D01*
X134664829Y-59482682D01*
X134569823Y-59737404D01*
X134512039Y-60003037D01*
X134512037Y-60003053D01*
X134492645Y-60274194D01*
X134492645Y-60274205D01*
X103691500Y-60274205D01*
X103691500Y-56268908D01*
X104771100Y-56268908D01*
X104771101Y-57980289D01*
X104774001Y-58017165D01*
X104774001Y-58017168D01*
X104774002Y-58017170D01*
X104793383Y-58083878D01*
X104819856Y-58174999D01*
X104903516Y-58316461D01*
X104903517Y-58316462D01*
X104903519Y-58316465D01*
X105019735Y-58432681D01*
X105161201Y-58516344D01*
X105319030Y-58562198D01*
X105355905Y-58565100D01*
X108587294Y-58565099D01*
X108624170Y-58562198D01*
X108781999Y-58516344D01*
X108923465Y-58432681D01*
X109039681Y-58316465D01*
X109123344Y-58174999D01*
X109169198Y-58017170D01*
X109172100Y-57980295D01*
X109172100Y-57175400D01*
X141156740Y-57175400D01*
X141176525Y-57363654D01*
X141176526Y-57363656D01*
X141235021Y-57543684D01*
X141235022Y-57543685D01*
X141329669Y-57707620D01*
X141456327Y-57848286D01*
X141456329Y-57848288D01*
X141609470Y-57959551D01*
X141782397Y-58036544D01*
X141923515Y-58066539D01*
X141967552Y-58075900D01*
X141967554Y-58075900D01*
X142156848Y-58075900D01*
X142196204Y-58067534D01*
X142342003Y-58036544D01*
X142514930Y-57959551D01*
X142668071Y-57848288D01*
X142740395Y-57767963D01*
X142794730Y-57707620D01*
X142794731Y-57707618D01*
X142794733Y-57707616D01*
X142889379Y-57543684D01*
X142947874Y-57363656D01*
X142967660Y-57175400D01*
X142947874Y-56987144D01*
X142889379Y-56807116D01*
X142794733Y-56643184D01*
X142794732Y-56643183D01*
X142794730Y-56643179D01*
X142668072Y-56502513D01*
X142514927Y-56391247D01*
X142342005Y-56314257D01*
X142342003Y-56314256D01*
X142235560Y-56291631D01*
X142156848Y-56274900D01*
X142156846Y-56274900D01*
X141967554Y-56274900D01*
X141967552Y-56274900D01*
X141867592Y-56296147D01*
X141782397Y-56314256D01*
X141782395Y-56314256D01*
X141782394Y-56314257D01*
X141609472Y-56391247D01*
X141456327Y-56502513D01*
X141329669Y-56643179D01*
X141235022Y-56807114D01*
X141235019Y-56807121D01*
X141176525Y-56987145D01*
X141156740Y-57175400D01*
X109172100Y-57175400D01*
X109172099Y-56268906D01*
X109169198Y-56232030D01*
X109123344Y-56074201D01*
X109039681Y-55932735D01*
X108923465Y-55816519D01*
X108923462Y-55816517D01*
X108923461Y-55816516D01*
X108781999Y-55732856D01*
X108624172Y-55687002D01*
X108611878Y-55686034D01*
X108587295Y-55684100D01*
X108587291Y-55684100D01*
X107151122Y-55684100D01*
X105355906Y-55684101D01*
X105342463Y-55685158D01*
X105319034Y-55687001D01*
X105319030Y-55687002D01*
X105161200Y-55732856D01*
X105019738Y-55816516D01*
X104903516Y-55932738D01*
X104819856Y-56074200D01*
X104774002Y-56232027D01*
X104771100Y-56268908D01*
X103691500Y-56268908D01*
X103691500Y-54274205D01*
X120292645Y-54274205D01*
X120312037Y-54545346D01*
X120312039Y-54545362D01*
X120369823Y-54810995D01*
X120464829Y-55065717D01*
X120595111Y-55304311D01*
X120758026Y-55521939D01*
X120950260Y-55714173D01*
X121167888Y-55877088D01*
X121406482Y-56007370D01*
X121406486Y-56007371D01*
X121406487Y-56007372D01*
X121661199Y-56102375D01*
X121926840Y-56160161D01*
X121926851Y-56160161D01*
X121926853Y-56160162D01*
X122197995Y-56179555D01*
X122198000Y-56179555D01*
X122198005Y-56179555D01*
X122469146Y-56160162D01*
X122469145Y-56160162D01*
X122469160Y-56160161D01*
X122734801Y-56102375D01*
X122989513Y-56007372D01*
X123228113Y-55877087D01*
X123445742Y-55714171D01*
X123637971Y-55521942D01*
X123800887Y-55304313D01*
X123931172Y-55065713D01*
X124026175Y-54811001D01*
X124083961Y-54545360D01*
X124103355Y-54274205D01*
X132492645Y-54274205D01*
X132512037Y-54545346D01*
X132512039Y-54545362D01*
X132569823Y-54810995D01*
X132664829Y-55065717D01*
X132795111Y-55304311D01*
X132958026Y-55521939D01*
X133150260Y-55714173D01*
X133367888Y-55877088D01*
X133606482Y-56007370D01*
X133606486Y-56007371D01*
X133606487Y-56007372D01*
X133861199Y-56102375D01*
X134126840Y-56160161D01*
X134126851Y-56160161D01*
X134126853Y-56160162D01*
X134397995Y-56179555D01*
X134398000Y-56179555D01*
X134398005Y-56179555D01*
X134669146Y-56160162D01*
X134669145Y-56160162D01*
X134669160Y-56160161D01*
X134934801Y-56102375D01*
X135189513Y-56007372D01*
X135428113Y-55877087D01*
X135645742Y-55714171D01*
X135724329Y-55635584D01*
X199048000Y-55635584D01*
X199048001Y-55635602D01*
X199054504Y-55696095D01*
X199105552Y-55832957D01*
X199105555Y-55832963D01*
X199193096Y-55949903D01*
X199310036Y-56037444D01*
X199310042Y-56037447D01*
X199446906Y-56088495D01*
X199446903Y-56088495D01*
X199479579Y-56092008D01*
X199551518Y-56119819D01*
X199599914Y-56179874D01*
X199611798Y-56256081D01*
X199583987Y-56328020D01*
X199569011Y-56345513D01*
X199444404Y-56470120D01*
X199444402Y-56470123D01*
X199318898Y-56649362D01*
X199226425Y-56847670D01*
X199226424Y-56847673D01*
X199169793Y-57059021D01*
X199150723Y-57276999D01*
X199150723Y-57277000D01*
X199169793Y-57494978D01*
X199226424Y-57706328D01*
X199226425Y-57706330D01*
X199318894Y-57904633D01*
X199318897Y-57904638D01*
X199371869Y-57980289D01*
X199444402Y-58083877D01*
X199599123Y-58238598D01*
X199778361Y-58364102D01*
X199778366Y-58364105D01*
X199888633Y-58415522D01*
X199976670Y-58456575D01*
X200188023Y-58513207D01*
X200406000Y-58532277D01*
X200623977Y-58513207D01*
X200835330Y-58456575D01*
X201033639Y-58364102D01*
X201212877Y-58238598D01*
X201367598Y-58083877D01*
X201493102Y-57904639D01*
X201585575Y-57706330D01*
X201642207Y-57494977D01*
X201661277Y-57277000D01*
X201642207Y-57059023D01*
X201585575Y-56847670D01*
X201493102Y-56649362D01*
X201367598Y-56470123D01*
X201242988Y-56345513D01*
X201204424Y-56278718D01*
X201204424Y-56201590D01*
X201242988Y-56134795D01*
X201309783Y-56096231D01*
X201332420Y-56092008D01*
X201365095Y-56088495D01*
X201501957Y-56037447D01*
X201501963Y-56037444D01*
X201618903Y-55949903D01*
X201706444Y-55832963D01*
X201706447Y-55832957D01*
X201757495Y-55696095D01*
X201763998Y-55635602D01*
X201764000Y-55635584D01*
X201764000Y-54991000D01*
X200837116Y-54991000D01*
X200865493Y-54946844D01*
X200906000Y-54808889D01*
X200906000Y-54665111D01*
X200865493Y-54527156D01*
X200837116Y-54483000D01*
X201764000Y-54483000D01*
X201764000Y-53838415D01*
X201763998Y-53838397D01*
X201757495Y-53777904D01*
X201706447Y-53641042D01*
X201706444Y-53641036D01*
X201618903Y-53524096D01*
X201501963Y-53436555D01*
X201501957Y-53436552D01*
X201365093Y-53385504D01*
X201365097Y-53385504D01*
X201304602Y-53379001D01*
X201304584Y-53379000D01*
X200660000Y-53379000D01*
X200660000Y-54303325D01*
X200548315Y-54252320D01*
X200441763Y-54237000D01*
X200370237Y-54237000D01*
X200263685Y-54252320D01*
X200152000Y-54303325D01*
X200152000Y-53379000D01*
X199507416Y-53379000D01*
X199507397Y-53379001D01*
X199446904Y-53385504D01*
X199310042Y-53436552D01*
X199310036Y-53436555D01*
X199193096Y-53524096D01*
X199105555Y-53641036D01*
X199105552Y-53641042D01*
X199054504Y-53777904D01*
X199048001Y-53838397D01*
X199048000Y-53838415D01*
X199048000Y-54483000D01*
X199974884Y-54483000D01*
X199946507Y-54527156D01*
X199906000Y-54665111D01*
X199906000Y-54808889D01*
X199946507Y-54946844D01*
X199974884Y-54991000D01*
X199048000Y-54991000D01*
X199048000Y-55635584D01*
X135724329Y-55635584D01*
X135837971Y-55521942D01*
X136000887Y-55304313D01*
X136131172Y-55065713D01*
X136226175Y-54811001D01*
X136283961Y-54545360D01*
X136303355Y-54274200D01*
X136300694Y-54237000D01*
X136283962Y-54003053D01*
X136283961Y-54003051D01*
X136283961Y-54003040D01*
X136244709Y-53822600D01*
X149284740Y-53822600D01*
X149304525Y-54010854D01*
X149304526Y-54010856D01*
X149363021Y-54190884D01*
X149363022Y-54190885D01*
X149457669Y-54354820D01*
X149584327Y-54495486D01*
X149584329Y-54495488D01*
X149737470Y-54606751D01*
X149910397Y-54683744D01*
X150051515Y-54713739D01*
X150095552Y-54723100D01*
X150095554Y-54723100D01*
X150284848Y-54723100D01*
X150324204Y-54714734D01*
X150470003Y-54683744D01*
X150642930Y-54606751D01*
X150796071Y-54495488D01*
X150876465Y-54406202D01*
X150922730Y-54354820D01*
X150922731Y-54354818D01*
X150922733Y-54354816D01*
X151017379Y-54190884D01*
X151075874Y-54010856D01*
X151095660Y-53822600D01*
X151075874Y-53634344D01*
X151017379Y-53454316D01*
X150922733Y-53290384D01*
X150922732Y-53290383D01*
X150922730Y-53290379D01*
X150796072Y-53149713D01*
X150642927Y-53038447D01*
X150470005Y-52961457D01*
X150470003Y-52961456D01*
X150363560Y-52938831D01*
X150284848Y-52922100D01*
X150284846Y-52922100D01*
X150095554Y-52922100D01*
X150095552Y-52922100D01*
X149995592Y-52943347D01*
X149910397Y-52961456D01*
X149910395Y-52961456D01*
X149910394Y-52961457D01*
X149737472Y-53038447D01*
X149584327Y-53149713D01*
X149457669Y-53290379D01*
X149363022Y-53454314D01*
X149363019Y-53454321D01*
X149304525Y-53634345D01*
X149284740Y-53822600D01*
X136244709Y-53822600D01*
X136226175Y-53737399D01*
X136131172Y-53482687D01*
X136131171Y-53482686D01*
X136131170Y-53482682D01*
X136000888Y-53244088D01*
X135837973Y-53026460D01*
X135645739Y-52834226D01*
X135428111Y-52671311D01*
X135189517Y-52541029D01*
X135017824Y-52476991D01*
X134934801Y-52446025D01*
X134934799Y-52446024D01*
X134934795Y-52446023D01*
X134669162Y-52388239D01*
X134669146Y-52388237D01*
X134398005Y-52368845D01*
X134397995Y-52368845D01*
X134126853Y-52388237D01*
X134126837Y-52388239D01*
X133861204Y-52446023D01*
X133606482Y-52541029D01*
X133367888Y-52671311D01*
X133150260Y-52834226D01*
X132958026Y-53026460D01*
X132795111Y-53244088D01*
X132664829Y-53482682D01*
X132569823Y-53737404D01*
X132512039Y-54003037D01*
X132512037Y-54003053D01*
X132492645Y-54274194D01*
X132492645Y-54274205D01*
X124103355Y-54274205D01*
X124103355Y-54274200D01*
X124100694Y-54237000D01*
X124083962Y-54003053D01*
X124083961Y-54003051D01*
X124083961Y-54003040D01*
X124026175Y-53737399D01*
X123931172Y-53482687D01*
X123931171Y-53482686D01*
X123931170Y-53482682D01*
X123800888Y-53244088D01*
X123637973Y-53026460D01*
X123445739Y-52834226D01*
X123228111Y-52671311D01*
X122989517Y-52541029D01*
X122817824Y-52476991D01*
X122734801Y-52446025D01*
X122734799Y-52446024D01*
X122734795Y-52446023D01*
X122469162Y-52388239D01*
X122469146Y-52388237D01*
X122198005Y-52368845D01*
X122197995Y-52368845D01*
X121926853Y-52388237D01*
X121926837Y-52388239D01*
X121661204Y-52446023D01*
X121406482Y-52541029D01*
X121167888Y-52671311D01*
X120950260Y-52834226D01*
X120758026Y-53026460D01*
X120595111Y-53244088D01*
X120464829Y-53482682D01*
X120369823Y-53737404D01*
X120312039Y-54003037D01*
X120312037Y-54003053D01*
X120292645Y-54274194D01*
X120292645Y-54274205D01*
X103691500Y-54274205D01*
X103691500Y-43249605D01*
X109093687Y-43249605D01*
X109124111Y-43526111D01*
X109124114Y-43526124D01*
X109194480Y-43795276D01*
X109303284Y-44051314D01*
X109303286Y-44051318D01*
X109303289Y-44051323D01*
X109448207Y-44288781D01*
X109448210Y-44288785D01*
X109626155Y-44502609D01*
X109626167Y-44502621D01*
X109833349Y-44688256D01*
X109833357Y-44688263D01*
X110065373Y-44841763D01*
X110317267Y-44959846D01*
X110583669Y-45039995D01*
X110858901Y-45080500D01*
X110858908Y-45080500D01*
X111067461Y-45080500D01*
X111067463Y-45080500D01*
X111275455Y-45065277D01*
X111546997Y-45004788D01*
X111547003Y-45004785D01*
X111547009Y-45004784D01*
X111806835Y-44905409D01*
X111806833Y-44905409D01*
X111806838Y-44905408D01*
X112049440Y-44769253D01*
X112269632Y-44599226D01*
X112462722Y-44398951D01*
X112624593Y-44172696D01*
X112751797Y-43925283D01*
X112841621Y-43661986D01*
X112892152Y-43388416D01*
X112897225Y-43249605D01*
X196977687Y-43249605D01*
X197008111Y-43526111D01*
X197008114Y-43526124D01*
X197078480Y-43795276D01*
X197187284Y-44051314D01*
X197187286Y-44051318D01*
X197187289Y-44051323D01*
X197332207Y-44288781D01*
X197332210Y-44288785D01*
X197510155Y-44502609D01*
X197510167Y-44502621D01*
X197717349Y-44688256D01*
X197717357Y-44688263D01*
X197949373Y-44841763D01*
X198201267Y-44959846D01*
X198467669Y-45039995D01*
X198742901Y-45080500D01*
X198742908Y-45080500D01*
X198951461Y-45080500D01*
X198951463Y-45080500D01*
X199159455Y-45065277D01*
X199430997Y-45004788D01*
X199431003Y-45004785D01*
X199431009Y-45004784D01*
X199690835Y-44905409D01*
X199690833Y-44905409D01*
X199690838Y-44905408D01*
X199933440Y-44769253D01*
X200153632Y-44599226D01*
X200346722Y-44398951D01*
X200508593Y-44172696D01*
X200635797Y-43925283D01*
X200725621Y-43661986D01*
X200776152Y-43388416D01*
X200786313Y-43110404D01*
X200786312Y-43110394D01*
X200755888Y-42833888D01*
X200755886Y-42833881D01*
X200755886Y-42833876D01*
X200685520Y-42564724D01*
X200576716Y-42308686D01*
X200502638Y-42187304D01*
X200431792Y-42071218D01*
X200431789Y-42071214D01*
X200253844Y-41857390D01*
X200253832Y-41857378D01*
X200046650Y-41671743D01*
X200046647Y-41671741D01*
X200046643Y-41671737D01*
X199814627Y-41518237D01*
X199814309Y-41518088D01*
X199562732Y-41400153D01*
X199413353Y-41355212D01*
X199296331Y-41320005D01*
X199296325Y-41320004D01*
X199021108Y-41279501D01*
X199021104Y-41279500D01*
X199021099Y-41279500D01*
X198812537Y-41279500D01*
X198604545Y-41294723D01*
X198604537Y-41294724D01*
X198333005Y-41355211D01*
X198332990Y-41355215D01*
X198073164Y-41454590D01*
X198073158Y-41454593D01*
X197830561Y-41590745D01*
X197610369Y-41760772D01*
X197610364Y-41760777D01*
X197417277Y-41961049D01*
X197255407Y-42187302D01*
X197128205Y-42434712D01*
X197128203Y-42434715D01*
X197128203Y-42434717D01*
X197127068Y-42438044D01*
X197038379Y-42698012D01*
X197038377Y-42698021D01*
X196987848Y-42971577D01*
X196977687Y-43249605D01*
X112897225Y-43249605D01*
X112902313Y-43110404D01*
X112902312Y-43110394D01*
X112871888Y-42833888D01*
X112871886Y-42833881D01*
X112871886Y-42833876D01*
X112801520Y-42564724D01*
X112692716Y-42308686D01*
X112618638Y-42187304D01*
X112547792Y-42071218D01*
X112547789Y-42071214D01*
X112369844Y-41857390D01*
X112369832Y-41857378D01*
X112162650Y-41671743D01*
X112162647Y-41671741D01*
X112162643Y-41671737D01*
X111930627Y-41518237D01*
X111930309Y-41518088D01*
X111678732Y-41400153D01*
X111529353Y-41355212D01*
X111412331Y-41320005D01*
X111412325Y-41320004D01*
X111137108Y-41279501D01*
X111137104Y-41279500D01*
X111137099Y-41279500D01*
X110928537Y-41279500D01*
X110720545Y-41294723D01*
X110720537Y-41294724D01*
X110449005Y-41355211D01*
X110448990Y-41355215D01*
X110189164Y-41454590D01*
X110189158Y-41454593D01*
X109946561Y-41590745D01*
X109726369Y-41760772D01*
X109726364Y-41760777D01*
X109533277Y-41961049D01*
X109371407Y-42187302D01*
X109244205Y-42434712D01*
X109244203Y-42434715D01*
X109244203Y-42434717D01*
X109243068Y-42438044D01*
X109154379Y-42698012D01*
X109154377Y-42698021D01*
X109103848Y-42971577D01*
X109093687Y-43249605D01*
X103691500Y-43249605D01*
X103691500Y-40792400D01*
X126659123Y-40792400D01*
X126678193Y-41010378D01*
X126734824Y-41221728D01*
X126734825Y-41221730D01*
X126827294Y-41420033D01*
X126827297Y-41420038D01*
X126870331Y-41481496D01*
X126952802Y-41599277D01*
X127107523Y-41753998D01*
X127235966Y-41843935D01*
X127286761Y-41879502D01*
X127286766Y-41879505D01*
X127397033Y-41930922D01*
X127485070Y-41971975D01*
X127696423Y-42028607D01*
X127914400Y-42047677D01*
X128132377Y-42028607D01*
X128343730Y-41971975D01*
X128542039Y-41879502D01*
X128721277Y-41753998D01*
X128875998Y-41599277D01*
X128932849Y-41518085D01*
X128991929Y-41468511D01*
X129067885Y-41455117D01*
X129140362Y-41481496D01*
X129189939Y-41540579D01*
X129203900Y-41603548D01*
X129203900Y-41673918D01*
X129216583Y-41753996D01*
X129218754Y-41767704D01*
X129276350Y-41880742D01*
X129366058Y-41970450D01*
X129479096Y-42028046D01*
X129572881Y-42042900D01*
X131335918Y-42042899D01*
X131429704Y-42028046D01*
X131542742Y-41970450D01*
X131632450Y-41880742D01*
X131690046Y-41767704D01*
X131704900Y-41673919D01*
X131704899Y-39910882D01*
X131690046Y-39817096D01*
X131632450Y-39704058D01*
X131542742Y-39614350D01*
X131539747Y-39612824D01*
X131429705Y-39556754D01*
X131414073Y-39554278D01*
X131335919Y-39541900D01*
X131335914Y-39541900D01*
X129572881Y-39541900D01*
X129479095Y-39556754D01*
X129479093Y-39556755D01*
X129366057Y-39614350D01*
X129276350Y-39704057D01*
X129218754Y-39817094D01*
X129218754Y-39817096D01*
X129203900Y-39910881D01*
X129203900Y-39910882D01*
X129203900Y-39910885D01*
X129203900Y-39981248D01*
X129183938Y-40055748D01*
X129129400Y-40110286D01*
X129054900Y-40130248D01*
X128980400Y-40110286D01*
X128932846Y-40066711D01*
X128879293Y-39990229D01*
X128875998Y-39985523D01*
X128721277Y-39830802D01*
X128542039Y-39705298D01*
X128542040Y-39705298D01*
X128542038Y-39705297D01*
X128542033Y-39705294D01*
X128343730Y-39612825D01*
X128343728Y-39612824D01*
X128132377Y-39556193D01*
X128132378Y-39556193D01*
X127914400Y-39537123D01*
X127696421Y-39556193D01*
X127485073Y-39612824D01*
X127485072Y-39612824D01*
X127485070Y-39612825D01*
X127286762Y-39705298D01*
X127286759Y-39705299D01*
X127286759Y-39705300D01*
X127107520Y-39830804D01*
X126952804Y-39985520D01*
X126881892Y-40086794D01*
X126827298Y-40164762D01*
X126735977Y-40360600D01*
X126734824Y-40363073D01*
X126678193Y-40574421D01*
X126659123Y-40792399D01*
X126659123Y-40792400D01*
X103691500Y-40792400D01*
X103691500Y-38575700D01*
X103711462Y-38501200D01*
X103766000Y-38446662D01*
X103840500Y-38426700D01*
X139224665Y-38426700D01*
X139299165Y-38446662D01*
G37*
G04 #@! TD.AperFunction*
M02*
